G04 Layer_Color=12632256*
%FSLAX44Y44*%
%MOMM*%
G71*
G01*
G75*
%ADD21C,1.0000*%
%ADD22C,5.0000*%
%ADD23C,1.1000*%
%ADD24C,1.5000*%
%ADD25R,1.5000X1.5000*%
%ADD26C,2.5000*%
D21*
X1328500Y481750D02*
D03*
X1375500D02*
D03*
X707750Y708250D02*
D03*
Y755250D02*
D03*
D22*
X1130030Y1108110D02*
D03*
X857630D02*
D03*
X524519Y706056D02*
D03*
Y379856D02*
D03*
Y1032256D02*
D03*
X1475000Y706200D02*
D03*
Y380000D02*
D03*
Y1032400D02*
D03*
D23*
X898830Y1108110D02*
D03*
X1088830D02*
D03*
X524519Y991056D02*
D03*
Y421056D02*
D03*
X1475000Y991200D02*
D03*
Y421200D02*
D03*
D24*
X814310Y349080D02*
D03*
Y374480D02*
D03*
X839710Y349080D02*
D03*
Y374480D02*
D03*
X865110Y349080D02*
D03*
Y374480D02*
D03*
X890510Y349080D02*
D03*
Y374480D02*
D03*
X915910Y349080D02*
D03*
X1073040Y374620D02*
D03*
X1098440Y349220D02*
D03*
Y374620D02*
D03*
X1123840Y349220D02*
D03*
Y374620D02*
D03*
X1149240Y349220D02*
D03*
Y374620D02*
D03*
X1174640Y349220D02*
D03*
Y374620D02*
D03*
D25*
X915910Y374480D02*
D03*
X1073040Y349220D02*
D03*
D26*
X1288000Y798000D02*
D03*
Y756000D02*
D03*
Y840000D02*
D03*
X1343000D02*
D03*
Y756000D02*
D03*
Y798000D02*
D03*
Y940500D02*
D03*
Y898500D02*
D03*
Y982500D02*
D03*
X1288000D02*
D03*
Y898500D02*
D03*
Y940500D02*
D03*
X662500Y870250D02*
D03*
Y912250D02*
D03*
Y828250D02*
D03*
X607500D02*
D03*
Y912250D02*
D03*
Y870250D02*
D03*
M02*
