G04 Layer_Color=8421504*
%FSLAX44Y44*%
%MOMM*%
G71*
G01*
G75*
%ADD11R,1.3000X1.3000*%
%ADD12R,1.3000X1.3000*%
%ADD13R,1.3500X0.4000*%
%ADD14R,1.9000X1.9000*%
%ADD15O,0.3000X1.4000*%
%ADD16O,1.4000X0.3000*%
%ADD17R,3.0000X4.0000*%
D11*
X1166000Y471250D02*
D03*
Y452750D02*
D03*
X1144000Y471250D02*
D03*
Y452750D02*
D03*
X1067000Y480250D02*
D03*
Y461750D02*
D03*
X729500Y635250D02*
D03*
Y616750D02*
D03*
X1499000Y570250D02*
D03*
Y551750D02*
D03*
X1524000Y570250D02*
D03*
Y551750D02*
D03*
X1090000Y480484D02*
D03*
Y461984D02*
D03*
X1072840Y706750D02*
D03*
Y725250D02*
D03*
X1350000Y556750D02*
D03*
Y575250D02*
D03*
D12*
X1114250Y428000D02*
D03*
X1095750D02*
D03*
X1264500Y540000D02*
D03*
X1283000D02*
D03*
X915910Y476000D02*
D03*
X934410D02*
D03*
X963750Y655320D02*
D03*
X982250D02*
D03*
X887750Y757000D02*
D03*
X906250D02*
D03*
X887750Y721360D02*
D03*
X906250D02*
D03*
X790250Y697000D02*
D03*
X771750D02*
D03*
X790250Y723000D02*
D03*
X771750D02*
D03*
X678250Y523240D02*
D03*
X659750D02*
D03*
X678250Y650240D02*
D03*
X659750D02*
D03*
X549750Y474500D02*
D03*
X568250D02*
D03*
X549750Y446880D02*
D03*
X568250D02*
D03*
D13*
X1528000Y458000D02*
D03*
Y464500D02*
D03*
Y471000D02*
D03*
Y451500D02*
D03*
Y445000D02*
D03*
X459000Y458000D02*
D03*
Y451500D02*
D03*
Y445000D02*
D03*
Y464500D02*
D03*
Y471000D02*
D03*
D14*
X1554750Y470000D02*
D03*
Y446000D02*
D03*
Y497500D02*
D03*
Y418500D02*
D03*
X432250Y446000D02*
D03*
Y470000D02*
D03*
Y418500D02*
D03*
Y497500D02*
D03*
D15*
X913440Y671860D02*
D03*
X908440D02*
D03*
X903440D02*
D03*
X898440D02*
D03*
X893440D02*
D03*
X888440D02*
D03*
X883440D02*
D03*
X878440D02*
D03*
X873440D02*
D03*
X868440D02*
D03*
X863440D02*
D03*
X858440D02*
D03*
X853440D02*
D03*
X848440D02*
D03*
X843440D02*
D03*
X838440D02*
D03*
X833440D02*
D03*
X828440D02*
D03*
X823440D02*
D03*
X818440D02*
D03*
X813440D02*
D03*
X808440D02*
D03*
X803440D02*
D03*
X798440D02*
D03*
X793440D02*
D03*
Y518860D02*
D03*
X798440D02*
D03*
X803440D02*
D03*
X808440D02*
D03*
X813440D02*
D03*
X818440D02*
D03*
X823440D02*
D03*
X828440D02*
D03*
X833440D02*
D03*
X838440D02*
D03*
X843440D02*
D03*
X848440D02*
D03*
X853440D02*
D03*
X858440D02*
D03*
X863440D02*
D03*
X868440D02*
D03*
X873440D02*
D03*
X878440D02*
D03*
X883440D02*
D03*
X888440D02*
D03*
X893440D02*
D03*
X898440D02*
D03*
X903440D02*
D03*
X908440D02*
D03*
X913440D02*
D03*
X1072840Y518500D02*
D03*
X1077840D02*
D03*
X1082840D02*
D03*
X1087840D02*
D03*
X1092840D02*
D03*
X1097840D02*
D03*
X1102840D02*
D03*
X1107840D02*
D03*
X1112840D02*
D03*
X1117840D02*
D03*
X1122840D02*
D03*
X1127840D02*
D03*
X1132840D02*
D03*
X1137840D02*
D03*
X1142840D02*
D03*
X1147840D02*
D03*
X1152840D02*
D03*
X1157840D02*
D03*
X1162840D02*
D03*
X1167840D02*
D03*
X1172840D02*
D03*
X1177840D02*
D03*
X1182840D02*
D03*
X1187840D02*
D03*
X1192840D02*
D03*
Y671500D02*
D03*
X1187840D02*
D03*
X1182840D02*
D03*
X1177840D02*
D03*
X1172840D02*
D03*
X1167840D02*
D03*
X1162840D02*
D03*
X1157840D02*
D03*
X1152840D02*
D03*
X1147840D02*
D03*
X1142840D02*
D03*
X1137840D02*
D03*
X1132840D02*
D03*
X1127840D02*
D03*
X1122840D02*
D03*
X1117840D02*
D03*
X1112840D02*
D03*
X1107840D02*
D03*
X1102840D02*
D03*
X1097840D02*
D03*
X1092840D02*
D03*
X1087840D02*
D03*
X1082840D02*
D03*
X1077840D02*
D03*
X1072840D02*
D03*
D16*
X776940Y655360D02*
D03*
Y650360D02*
D03*
Y645360D02*
D03*
Y640360D02*
D03*
Y635360D02*
D03*
Y630360D02*
D03*
Y625360D02*
D03*
Y620360D02*
D03*
Y615360D02*
D03*
Y610360D02*
D03*
Y605360D02*
D03*
Y600360D02*
D03*
Y595360D02*
D03*
Y590360D02*
D03*
Y585360D02*
D03*
Y580360D02*
D03*
Y575360D02*
D03*
Y570360D02*
D03*
Y565360D02*
D03*
Y560360D02*
D03*
Y555360D02*
D03*
Y550360D02*
D03*
Y545360D02*
D03*
Y540360D02*
D03*
Y535360D02*
D03*
X929940D02*
D03*
Y540360D02*
D03*
Y545360D02*
D03*
Y550360D02*
D03*
Y555360D02*
D03*
Y560360D02*
D03*
Y565360D02*
D03*
Y570360D02*
D03*
Y575360D02*
D03*
Y580360D02*
D03*
Y585360D02*
D03*
Y590360D02*
D03*
Y595360D02*
D03*
Y600360D02*
D03*
Y605360D02*
D03*
Y610360D02*
D03*
Y615360D02*
D03*
Y620360D02*
D03*
Y625360D02*
D03*
Y630360D02*
D03*
Y635360D02*
D03*
Y640360D02*
D03*
Y645360D02*
D03*
Y650360D02*
D03*
Y655360D02*
D03*
X1209340Y535000D02*
D03*
Y540000D02*
D03*
Y545000D02*
D03*
Y550000D02*
D03*
Y555000D02*
D03*
Y560000D02*
D03*
Y565000D02*
D03*
Y570000D02*
D03*
Y575000D02*
D03*
Y580000D02*
D03*
Y585000D02*
D03*
Y590000D02*
D03*
Y595000D02*
D03*
Y600000D02*
D03*
Y605000D02*
D03*
Y610000D02*
D03*
Y615000D02*
D03*
Y620000D02*
D03*
Y625000D02*
D03*
Y630000D02*
D03*
Y635000D02*
D03*
Y640000D02*
D03*
Y645000D02*
D03*
Y650000D02*
D03*
Y655000D02*
D03*
X1056340D02*
D03*
Y650000D02*
D03*
Y645000D02*
D03*
Y640000D02*
D03*
Y635000D02*
D03*
Y630000D02*
D03*
Y625000D02*
D03*
Y620000D02*
D03*
Y615000D02*
D03*
Y610000D02*
D03*
Y605000D02*
D03*
Y600000D02*
D03*
Y595000D02*
D03*
Y590000D02*
D03*
Y585000D02*
D03*
Y580000D02*
D03*
Y575000D02*
D03*
Y570000D02*
D03*
Y565000D02*
D03*
Y560000D02*
D03*
Y555000D02*
D03*
Y550000D02*
D03*
Y545000D02*
D03*
Y540000D02*
D03*
Y535000D02*
D03*
D17*
X827750Y845000D02*
D03*
X887750D02*
D03*
X1217000D02*
D03*
X1157000D02*
D03*
X979000Y914000D02*
D03*
X919000D02*
D03*
X1034000D02*
D03*
X1094000D02*
D03*
M02*
