G04 Layer_Color=8388736*
%FSLAX44Y44*%
%MOMM*%
G71*
G01*
G75*
%ADD31R,1.5032X1.5032*%
%ADD32R,1.5032X1.5032*%
%ADD33R,1.5532X0.6032*%
%ADD34R,2.1032X2.1032*%
%ADD35O,0.5032X1.6032*%
%ADD36O,1.6032X0.5032*%
%ADD37R,3.2032X4.2032*%
%ADD38C,1.2032*%
%ADD39C,5.2032*%
%ADD40C,1.3032*%
%ADD41C,0.2032*%
%ADD42C,1.7032*%
%ADD43R,1.7032X1.7032*%
%ADD44C,2.7032*%
%ADD45C,0.9032*%
%ADD46C,0.9040*%
D31*
X1528000Y625000D02*
D03*
Y606500D02*
D03*
X1497750Y625000D02*
D03*
Y606500D02*
D03*
X1375500Y429500D02*
D03*
Y411000D02*
D03*
X1328500Y429500D02*
D03*
Y411000D02*
D03*
X1146250Y447750D02*
D03*
Y429250D02*
D03*
X1122680Y447500D02*
D03*
Y429000D02*
D03*
X1054750Y480500D02*
D03*
Y462000D02*
D03*
X729500Y635250D02*
D03*
Y616750D02*
D03*
X1077750Y480734D02*
D03*
Y462234D02*
D03*
X1072840Y706750D02*
D03*
Y725250D02*
D03*
X1345000Y557000D02*
D03*
Y575500D02*
D03*
D32*
X1099250Y429250D02*
D03*
X1080750D02*
D03*
X1264500Y540000D02*
D03*
X1283000D02*
D03*
X915910Y476000D02*
D03*
X934410D02*
D03*
X963750Y655320D02*
D03*
X982250D02*
D03*
X887750Y757000D02*
D03*
X906250D02*
D03*
X887750Y721360D02*
D03*
X906250D02*
D03*
X790250Y697000D02*
D03*
X771750D02*
D03*
X790250Y723000D02*
D03*
X771750D02*
D03*
X678250Y523240D02*
D03*
X659750D02*
D03*
X678250Y650240D02*
D03*
X659750D02*
D03*
X505000Y448500D02*
D03*
X523500D02*
D03*
X505000Y472250D02*
D03*
X523500D02*
D03*
D33*
X1528000Y458000D02*
D03*
Y464500D02*
D03*
Y471000D02*
D03*
Y451500D02*
D03*
Y445000D02*
D03*
X459000Y458000D02*
D03*
Y451500D02*
D03*
Y445000D02*
D03*
Y464500D02*
D03*
Y471000D02*
D03*
D34*
X1554750Y470000D02*
D03*
Y446000D02*
D03*
Y497500D02*
D03*
Y418500D02*
D03*
X432250Y446000D02*
D03*
Y470000D02*
D03*
Y418500D02*
D03*
Y497500D02*
D03*
D35*
X913440Y671860D02*
D03*
X908440D02*
D03*
X903440D02*
D03*
X898440D02*
D03*
X893440D02*
D03*
X888440D02*
D03*
X883440D02*
D03*
X878440D02*
D03*
X873440D02*
D03*
X868440D02*
D03*
X863440D02*
D03*
X858440D02*
D03*
X853440D02*
D03*
X848440D02*
D03*
X843440D02*
D03*
X838440D02*
D03*
X833440D02*
D03*
X828440D02*
D03*
X823440D02*
D03*
X818440D02*
D03*
X813440D02*
D03*
X808440D02*
D03*
X803440D02*
D03*
X798440D02*
D03*
X793440D02*
D03*
Y518860D02*
D03*
X798440D02*
D03*
X803440D02*
D03*
X808440D02*
D03*
X813440D02*
D03*
X818440D02*
D03*
X823440D02*
D03*
X828440D02*
D03*
X833440D02*
D03*
X838440D02*
D03*
X843440D02*
D03*
X848440D02*
D03*
X853440D02*
D03*
X858440D02*
D03*
X863440D02*
D03*
X868440D02*
D03*
X873440D02*
D03*
X878440D02*
D03*
X883440D02*
D03*
X888440D02*
D03*
X893440D02*
D03*
X898440D02*
D03*
X903440D02*
D03*
X908440D02*
D03*
X913440D02*
D03*
X1072840Y518500D02*
D03*
X1077840D02*
D03*
X1082840D02*
D03*
X1087840D02*
D03*
X1092840D02*
D03*
X1097840D02*
D03*
X1102840D02*
D03*
X1107840D02*
D03*
X1112840D02*
D03*
X1117840D02*
D03*
X1122840D02*
D03*
X1127840D02*
D03*
X1132840D02*
D03*
X1137840D02*
D03*
X1142840D02*
D03*
X1147840D02*
D03*
X1152840D02*
D03*
X1157840D02*
D03*
X1162840D02*
D03*
X1167840D02*
D03*
X1172840D02*
D03*
X1177840D02*
D03*
X1182840D02*
D03*
X1187840D02*
D03*
X1192840D02*
D03*
Y671500D02*
D03*
X1187840D02*
D03*
X1182840D02*
D03*
X1177840D02*
D03*
X1172840D02*
D03*
X1167840D02*
D03*
X1162840D02*
D03*
X1157840D02*
D03*
X1152840D02*
D03*
X1147840D02*
D03*
X1142840D02*
D03*
X1137840D02*
D03*
X1132840D02*
D03*
X1127840D02*
D03*
X1122840D02*
D03*
X1117840D02*
D03*
X1112840D02*
D03*
X1107840D02*
D03*
X1102840D02*
D03*
X1097840D02*
D03*
X1092840D02*
D03*
X1087840D02*
D03*
X1082840D02*
D03*
X1077840D02*
D03*
X1072840D02*
D03*
D36*
X776940Y655360D02*
D03*
Y650360D02*
D03*
Y645360D02*
D03*
Y640360D02*
D03*
Y635360D02*
D03*
Y630360D02*
D03*
Y625360D02*
D03*
Y620360D02*
D03*
Y615360D02*
D03*
Y610360D02*
D03*
Y605360D02*
D03*
Y600360D02*
D03*
Y595360D02*
D03*
Y590360D02*
D03*
Y585360D02*
D03*
Y580360D02*
D03*
Y575360D02*
D03*
Y570360D02*
D03*
Y565360D02*
D03*
Y560360D02*
D03*
Y555360D02*
D03*
Y550360D02*
D03*
Y545360D02*
D03*
Y540360D02*
D03*
Y535360D02*
D03*
X929940D02*
D03*
Y540360D02*
D03*
Y545360D02*
D03*
Y550360D02*
D03*
Y555360D02*
D03*
Y560360D02*
D03*
Y565360D02*
D03*
Y570360D02*
D03*
Y575360D02*
D03*
Y580360D02*
D03*
Y585360D02*
D03*
Y590360D02*
D03*
Y595360D02*
D03*
Y600360D02*
D03*
Y605360D02*
D03*
Y610360D02*
D03*
Y615360D02*
D03*
Y620360D02*
D03*
Y625360D02*
D03*
Y630360D02*
D03*
Y635360D02*
D03*
Y640360D02*
D03*
Y645360D02*
D03*
Y650360D02*
D03*
Y655360D02*
D03*
X1209340Y535000D02*
D03*
Y540000D02*
D03*
Y545000D02*
D03*
Y550000D02*
D03*
Y555000D02*
D03*
Y560000D02*
D03*
Y565000D02*
D03*
Y570000D02*
D03*
Y575000D02*
D03*
Y580000D02*
D03*
Y585000D02*
D03*
Y590000D02*
D03*
Y595000D02*
D03*
Y600000D02*
D03*
Y605000D02*
D03*
Y610000D02*
D03*
Y615000D02*
D03*
Y620000D02*
D03*
Y625000D02*
D03*
Y630000D02*
D03*
Y635000D02*
D03*
Y640000D02*
D03*
Y645000D02*
D03*
Y650000D02*
D03*
Y655000D02*
D03*
X1056340D02*
D03*
Y650000D02*
D03*
Y645000D02*
D03*
Y640000D02*
D03*
Y635000D02*
D03*
Y630000D02*
D03*
Y625000D02*
D03*
Y620000D02*
D03*
Y615000D02*
D03*
Y610000D02*
D03*
Y605000D02*
D03*
Y600000D02*
D03*
Y595000D02*
D03*
Y590000D02*
D03*
Y585000D02*
D03*
Y580000D02*
D03*
Y575000D02*
D03*
Y570000D02*
D03*
Y565000D02*
D03*
Y560000D02*
D03*
Y555000D02*
D03*
Y550000D02*
D03*
Y545000D02*
D03*
Y540000D02*
D03*
Y535000D02*
D03*
D37*
X827750Y845000D02*
D03*
X887750D02*
D03*
X1217000D02*
D03*
X1157000D02*
D03*
X979000Y914000D02*
D03*
X919000D02*
D03*
X1034000D02*
D03*
X1094000D02*
D03*
D38*
X1328500Y481750D02*
D03*
X1375500D02*
D03*
X707750Y708250D02*
D03*
Y755250D02*
D03*
D39*
X1130030Y1108110D02*
D03*
X857630D02*
D03*
X513630Y704794D02*
D03*
Y378594D02*
D03*
Y1030994D02*
D03*
X1461130Y704292D02*
D03*
Y378092D02*
D03*
Y1030492D02*
D03*
D40*
X898830Y1108110D02*
D03*
X1088830D02*
D03*
X513630Y989794D02*
D03*
Y419794D02*
D03*
X1461130Y989292D02*
D03*
Y419292D02*
D03*
D41*
X784000Y939070D02*
D03*
X1204000D02*
D03*
Y464570D02*
D03*
X784000Y469070D02*
D03*
D42*
X814310Y349080D02*
D03*
Y374480D02*
D03*
X839710Y349080D02*
D03*
Y374480D02*
D03*
X865110Y349080D02*
D03*
Y374480D02*
D03*
X890510Y349080D02*
D03*
Y374480D02*
D03*
X915910Y349080D02*
D03*
X1073040Y374620D02*
D03*
X1098440Y349220D02*
D03*
Y374620D02*
D03*
X1123840Y349220D02*
D03*
Y374620D02*
D03*
X1149240Y349220D02*
D03*
Y374620D02*
D03*
X1174640Y349220D02*
D03*
Y374620D02*
D03*
D43*
X915910Y374480D02*
D03*
X1073040Y349220D02*
D03*
D44*
X1288000Y798000D02*
D03*
Y756000D02*
D03*
Y840000D02*
D03*
X1343000D02*
D03*
Y756000D02*
D03*
Y798000D02*
D03*
Y940500D02*
D03*
Y898500D02*
D03*
Y982500D02*
D03*
X1288000D02*
D03*
Y898500D02*
D03*
Y940500D02*
D03*
X662500Y870250D02*
D03*
Y912250D02*
D03*
Y828250D02*
D03*
X607500D02*
D03*
Y912250D02*
D03*
Y870250D02*
D03*
D45*
X1312750Y565000D02*
D03*
X1251250D02*
D03*
X1134000D02*
D03*
X1375500Y410250D02*
D03*
X1328500Y411000D02*
D03*
X820000Y556500D02*
D03*
X670750Y686500D02*
D03*
X1299250Y556750D02*
D03*
X1283000Y540000D02*
D03*
X1264500D02*
D03*
X1163320Y603000D02*
D03*
X1223000Y531000D02*
D03*
X1186000Y635000D02*
D03*
X1082040Y551040D02*
D03*
X828750Y635250D02*
D03*
X843440Y635440D02*
D03*
X942000Y680720D02*
D03*
X915910Y476000D02*
D03*
X963710Y655360D02*
D03*
X918830Y915000D02*
D03*
X790250Y697000D02*
D03*
X678250Y523240D02*
D03*
Y650240D02*
D03*
X887750Y721360D02*
D03*
X1014750Y316120D02*
D03*
X1054750Y480500D02*
D03*
X1258750Y706750D02*
D03*
X1157000Y845000D02*
D03*
X1094000Y914000D02*
D03*
X659750Y650240D02*
D03*
Y523240D02*
D03*
X934410Y476000D02*
D03*
X1217000Y845000D02*
D03*
X827750D02*
D03*
X898000Y541000D02*
D03*
X795000Y545000D02*
D03*
X875000Y690880D02*
D03*
X754000Y663000D02*
D03*
X1072840Y725250D02*
D03*
X1097000Y690880D02*
D03*
X1124000Y546000D02*
D03*
X1054750Y462000D02*
D03*
X982250Y655320D02*
D03*
X906250Y721360D02*
D03*
Y757000D02*
D03*
X895000Y631000D02*
D03*
X1071880Y981500D02*
D03*
X903000Y1015500D02*
D03*
X513500Y619798D02*
D03*
Y609798D02*
D03*
Y599798D02*
D03*
Y589798D02*
D03*
Y579798D02*
D03*
Y569798D02*
D03*
Y559798D02*
D03*
Y549798D02*
D03*
Y539798D02*
D03*
Y519798D02*
D03*
Y509798D02*
D03*
Y499798D02*
D03*
Y489798D02*
D03*
X580750Y434500D02*
D03*
X1097500Y467360D02*
D03*
X1144000Y471806D02*
D03*
X1462000Y609296D02*
D03*
Y599296D02*
D03*
Y589296D02*
D03*
Y559296D02*
D03*
Y549296D02*
D03*
Y539296D02*
D03*
Y529280D02*
D03*
Y519312D02*
D03*
X1345000Y557000D02*
D03*
X1462000Y579296D02*
D03*
Y469250D02*
D03*
Y479280D02*
D03*
Y489280D02*
D03*
Y509296D02*
D03*
Y499280D02*
D03*
X1525250Y531000D02*
D03*
X1058830Y1138110D02*
D03*
X1028830D02*
D03*
X1018830D02*
D03*
X999250Y1137920D02*
D03*
X978830Y1138110D02*
D03*
X958830D02*
D03*
X1088830Y1078110D02*
D03*
X908830D02*
D03*
X898830D02*
D03*
X948830D02*
D03*
D46*
X1077750Y480734D02*
D03*
X1085030Y462000D02*
D03*
X1258750Y655000D02*
D03*
X693000Y635250D02*
D03*
X1131618Y476573D02*
D03*
M02*
