M48
;Layer_Color=9474304
;FILE_FORMAT=4:4
METRIC,LZ
;TYPE=PLATED
T1F00S00C0.4000
T2F00S00C0.6000
T3F00S00C0.9000
T4F00S00C1.8000
T5F00S00C2.3000
;TYPE=NON_PLATED
T6F00S00C1.1000
T7F00S00C4.0000
%
T01
X0101475Y0031612
X013285Y00411
X013755Y0041025
X01462Y0046925
Y0047928
Y0048928
Y0049928
Y00509296
Y00519312
Y0052928
Y00539296
Y00549296
Y00559296
Y00579296
Y00589296
Y00599296
Y00609296
X0152525Y00531
X01345Y00557
X0131275Y00565
X0129925Y0055675
X01283Y0054
X012645
X0125125Y00565
X01223Y00531
X0125875Y00655
Y0070675
X01186Y00635
X0116332Y00603
X01134Y00565
X01124Y00546
X0108204Y0055104
X0107775Y00480734
X0105475Y004805
Y00462
X0108503
X010975Y0046736
X01131618Y00476573
X01144Y00471806
X0093441Y00476
X0091591
X00898Y00541
X00895Y00631
X0084344Y0063544
X0082875Y0063525
X0082Y005565
X00795Y00545
X00875Y0069088
X0088775Y0072136
X0090625
Y00757
X00942Y0068072
X0096371Y0065536
X0098225Y0065532
X01097Y0069088
X0107284Y0072525
X0079025Y00697
X00754Y00663
X0067825Y0065024
X0065975
X0067075Y006865
X00693Y0063525
X0067825Y0052324
X0065975
X005135Y00519798
Y00509798
Y00499798
Y00489798
Y00539798
Y00549798
Y00559798
Y00569798
Y00579798
Y00589798
Y00599798
Y00609798
Y00619798
X0058075Y004345
X0082775Y00845
X0091883Y00915
X00903Y010155
X0089883Y0107811
X0090883
X0094883
X0095883Y0113811
X0097883
X0099925Y0113792
X0101883Y0113811
X0102883
X0105883
X0108883Y0107811
X0107188Y009815
X01094Y00914
X01157Y00845
X01217
T02
X013285Y0048175
X013755
X0070775Y0070825
Y0075525
T03
X0081431Y0034908
X0083971
X0086511
X0089051
X0091591
Y0037448
X0089051
X0086511
X0083971
X0081431
X0107304Y0037462
X0109844
X0112384
X0114924
X0117464
Y0034922
X0114924
X0112384
X0109844
X0107304
T04
X01288Y00756
X01343
X006625Y0082825
Y0087025
Y0091225
X006075
Y0087025
Y0082825
X01288Y0084
Y00798
X01343
Y0084
Y008985
Y009405
Y009825
X01288
Y009405
Y008985
T05
X0051363Y00378594
X0146113Y00378092
Y00704292
X0051363Y00704794
Y01030994
X0085763Y0110811
X0113003
X0146113Y01030492
T06
X0146113Y00419292
X0051363Y00419794
Y00989794
X0089883Y0110811
X0108883
X0146113Y00989292
T07
X01204Y0046457
X00784Y0046907
Y0093907
X01204
M30
