G04 Layer_Physical_Order=1*
G04 Layer_Color=255*
%FSLAX44Y44*%
%MOMM*%
G71*
G01*
G75*
%ADD10C,0.2032*%
%ADD11R,1.3000X1.3000*%
%ADD12R,1.3000X1.3000*%
%ADD13R,1.3500X0.4000*%
%ADD14R,1.9000X1.9000*%
%ADD15O,0.3000X1.4000*%
%ADD16O,1.4000X0.3000*%
%ADD17R,3.0000X4.0000*%
%ADD18C,0.2540*%
%ADD19C,0.2000*%
%ADD20C,0.6000*%
%ADD21C,0.8000*%
%ADD22C,1.0000*%
%ADD23C,5.0000*%
%ADD24C,1.1000*%
%ADD25C,1.5000*%
%ADD26R,1.5000X1.5000*%
%ADD27C,2.5000*%
%ADD28C,0.7000*%
D10*
X1483016Y991200D02*
G03*
X1482058Y995000I-8016J0D01*
G01*
X1483016Y991200D02*
G03*
X1482058Y995000I-8016J0D01*
G01*
X1467942D02*
G03*
X1483016Y991200I7058J-3800D01*
G01*
X1467942Y995000D02*
G03*
X1483016Y991200I7058J-3800D01*
G01*
X1359056Y982500D02*
G03*
X1353077Y995000I-16056J0D01*
G01*
X1332923D02*
G03*
X1359056Y982500I10077J-12500D01*
G01*
Y940500D02*
G03*
X1359056Y940500I-16056J0D01*
G01*
X1303016Y982500D02*
G03*
X1296320Y995000I-15016J0D01*
G01*
X1359056Y898500D02*
G03*
X1359056Y898500I-16056J0D01*
G01*
X1358016Y840000D02*
G03*
X1358016Y840000I-15016J0D01*
G01*
Y798000D02*
G03*
X1358016Y798000I-15016J0D01*
G01*
X1275005Y990023D02*
G03*
X1303016Y982500I12996J-7523D01*
G01*
Y940500D02*
G03*
X1283041Y954674I-15016J0D01*
G01*
X1273826Y945459D02*
G03*
X1303016Y940500I14174J-4959D01*
G01*
Y898500D02*
G03*
X1274354Y904766I-15016J0D01*
G01*
X1244857Y992858D02*
G03*
X1240250Y994766I-4608J-4608D01*
G01*
X1244857Y992858D02*
G03*
X1240250Y994766I-4608J-4608D01*
G01*
X1241766Y938750D02*
G03*
X1188359Y904766I-37516J0D01*
G01*
X1220141D02*
G03*
X1241766Y938750I-15891J33984D01*
G01*
X1274595Y891734D02*
G03*
X1303016Y898500I13405J6766D01*
G01*
Y840000D02*
G03*
X1303016Y840000I-15016J0D01*
G01*
X1257516Y862000D02*
G03*
X1255608Y866608I-6516J0D01*
G01*
X1303016Y798000D02*
G03*
X1283041Y812174I-15016J0D01*
G01*
X1239607Y882607D02*
G03*
X1235000Y884516I-4608J-4608D01*
G01*
X1239607Y882607D02*
G03*
X1235000Y884516I-4608J-4608D01*
G01*
X1257516Y862000D02*
G03*
X1255608Y866608I-6516J0D01*
G01*
X1244484Y835000D02*
G03*
X1246393Y830393I6516J0D01*
G01*
X1244484Y835000D02*
G03*
X1246393Y830393I6516J0D01*
G01*
X1502516Y706200D02*
G03*
X1502516Y706200I-27516J0D01*
G01*
X1418492Y701480D02*
G03*
X1416000Y702516I-2492J-2481D01*
G01*
X1418486Y701486D02*
G03*
X1416000Y702516I-2486J-2486D01*
G01*
X1428690Y642486D02*
G03*
X1426203Y643516I-2486J-2486D01*
G01*
X1428695Y642480D02*
G03*
X1426203Y643516I-2492J-2481D01*
G01*
X1502516Y604000D02*
G03*
X1501481Y606492I-3516J0D01*
G01*
X1502516Y604000D02*
G03*
X1501486Y606486I-3516J0D01*
G01*
X1527516Y591000D02*
G03*
X1526481Y593492I-3516J0D01*
G01*
X1527516Y591000D02*
G03*
X1526486Y593486I-3516J0D01*
G01*
X1478345Y606203D02*
G03*
X1481016Y611203I-3345J5000D01*
G01*
D02*
G03*
X1474034Y617141I-6016J0D01*
G01*
X1481016Y601203D02*
G03*
X1478345Y606203I-6016J0D01*
G01*
X1478349Y586206D02*
G03*
X1481016Y591203I-3349J4998D01*
G01*
Y581208D02*
G03*
X1478349Y586206I-6016J0D01*
G01*
X1478345Y596203D02*
G03*
X1481016Y601203I-3345J5000D01*
G01*
Y591203D02*
G03*
X1478345Y596203I-6016J0D01*
G01*
X1358016Y756000D02*
G03*
X1358016Y756000I-15016J0D01*
G01*
X1303016D02*
G03*
X1274471Y762516I-15016J0D01*
G01*
X1273826Y802959D02*
G03*
X1303016Y798000I14174J-4959D01*
G01*
X1274471Y749484D02*
G03*
X1303016Y756000I13529J6516D01*
G01*
X1263703Y702516D02*
G03*
X1265266Y706750I-4953J4234D01*
G01*
D02*
G03*
X1258750Y713266I-6516J0D01*
G01*
X1264766Y655000D02*
G03*
X1253868Y658516I-6016J0D01*
G01*
Y651484D02*
G03*
X1264766Y655000I4882J3516D01*
G01*
X1157546Y1108110D02*
G03*
X1157546Y1108110I-27516J0D01*
G01*
X1149750Y1012516D02*
G03*
X1147264Y1011486I0J-3516D01*
G01*
X1149750Y1012516D02*
G03*
X1147258Y1011480I0J-3516D01*
G01*
X1151670Y994766D02*
G03*
X1147063Y992858I0J-6516D01*
G01*
X1151670Y994766D02*
G03*
X1147063Y992858I0J-6516D01*
G01*
X1122250Y977984D02*
G03*
X1124742Y979019I0J3516D01*
G01*
X1149143Y893643D02*
G03*
X1153750Y891734I4608J4608D01*
G01*
X1149143Y893643D02*
G03*
X1153750Y891734I4608J4608D01*
G01*
X1122250Y977984D02*
G03*
X1124736Y979014I0J3516D01*
G01*
X1118670Y948734D02*
G03*
X1123278Y950642I0J6516D01*
G01*
X1118670Y948734D02*
G03*
X1123278Y950642I0J6516D01*
G01*
X1142607Y918607D02*
G03*
X1138000Y920516I-4608J-4608D01*
G01*
X1142607Y918607D02*
G03*
X1138000Y920516I-4608J-4608D01*
G01*
X1096846Y1108110D02*
G03*
X1096846Y1108110I-8016J0D01*
G01*
D02*
G03*
X1096846Y1108110I-8016J0D01*
G01*
X1095886Y1078110D02*
G03*
X1095886Y1078110I-7056J0D01*
G01*
X1064846Y1138110D02*
G03*
X1053948Y1141626I-6016J0D01*
G01*
X1033712D02*
G03*
X1024510Y1142297I-4882J-3516D01*
G01*
D02*
G03*
X1024510Y1133923I-5680J-4187D01*
G01*
X1075396Y1125060D02*
G03*
X1074366Y1127546I-3516J0D01*
G01*
X1075396Y1125060D02*
G03*
X1074361Y1127552I-3516J0D01*
G01*
X1064768Y1137144D02*
G03*
X1064846Y1138110I-5938J966D01*
G01*
X1053948Y1134594D02*
G03*
X1059796Y1132172I4882J3516D01*
G01*
X1024510Y1133923D02*
G03*
X1033712Y1134594I4320J4187D01*
G01*
X1068364Y986382D02*
G03*
X1076762Y977984I3516J-4882D01*
G01*
Y985016D02*
G03*
X1075396Y986382I-4882J-3516D01*
G01*
X1077552Y936516D02*
G03*
X1070644Y935590I-3392J-926D01*
G01*
Y892410D02*
G03*
X1077552Y891484I3516J0D01*
G01*
X1212643Y751393D02*
G03*
X1217250Y749484I4608J4608D01*
G01*
X1212643Y751393D02*
G03*
X1217250Y749484I4608J4608D01*
G01*
X1180356Y866590D02*
G03*
X1173448Y867516I-3516J0D01*
G01*
X1136150Y884516D02*
G03*
X1131543Y882607I0J-6516D01*
G01*
X1173448Y822484D02*
G03*
X1180356Y823410I3392J926D01*
G01*
X1150484Y816250D02*
G03*
X1152393Y811643I6516J0D01*
G01*
X1150484Y816250D02*
G03*
X1152393Y811643I6516J0D01*
G01*
X1216781Y658516D02*
G03*
X1214840Y659016I-1941J-3516D01*
G01*
X1218856Y645000D02*
G03*
X1217983Y647500I-4016J0D01*
G01*
X1218572Y643516D02*
G03*
X1218856Y645000I-3732J1484D01*
G01*
Y650000D02*
G03*
X1218572Y651484I-4016J0D01*
G01*
X1217983Y647500D02*
G03*
X1218856Y650000I-3143J2500D01*
G01*
X1203840Y659016D02*
G03*
X1200102Y653532I0J-4016D01*
G01*
Y646468D02*
G03*
X1200697Y642500I3738J-1468D01*
G01*
X1200697Y637500D02*
G03*
X1200697Y632500I3143J-2500D01*
G01*
Y642500D02*
G03*
X1200697Y637500I3143J-2500D01*
G01*
X1200697Y632500D02*
G03*
X1200697Y627500I3143J-2500D01*
G01*
Y627500D02*
G03*
X1200697Y622500I3143J-2500D01*
G01*
D02*
G03*
X1200697Y617500I3143J-2500D01*
G01*
X1200697Y612500D02*
G03*
X1200697Y607500I3143J-2500D01*
G01*
Y617500D02*
G03*
X1200697Y612500I3143J-2500D01*
G01*
X1200697Y607500D02*
G03*
X1200697Y602500I3143J-2500D01*
G01*
X1200697Y597500D02*
G03*
X1200697Y592500I3143J-2500D01*
G01*
D02*
G03*
X1200697Y587500I3143J-2500D01*
G01*
Y602500D02*
G03*
X1200697Y597500I3143J-2500D01*
G01*
X1200697Y587500D02*
G03*
X1200697Y582500I3143J-2500D01*
G01*
X1196856Y677000D02*
G03*
X1196356Y678941I-4016J0D01*
G01*
X1190340Y662857D02*
G03*
X1196856Y666000I2500J3143D01*
G01*
X1185340Y662857D02*
G03*
X1190340Y662857I2500J3143D01*
G01*
X1175340D02*
G03*
X1180340Y662857I2500J3143D01*
G01*
D02*
G03*
X1185340Y662857I2500J3143D01*
G01*
X1165340Y662857D02*
G03*
X1170340Y662857I2500J3143D01*
G01*
D02*
G03*
X1175340Y662857I2500J3143D01*
G01*
X1135340Y662857D02*
G03*
X1140340Y662857I2500J3143D01*
G01*
X1150340D02*
G03*
X1155340Y662857I2500J3143D01*
G01*
X1160340D02*
G03*
X1165340Y662857I2500J3143D01*
G01*
X1140340D02*
G03*
X1145340Y662857I2500J3143D01*
G01*
D02*
G03*
X1150340Y662857I2500J3143D01*
G01*
X1195000Y653532D02*
G03*
X1192503Y652497I0J-3532D01*
G01*
X1195000Y653532D02*
G03*
X1192503Y652497I0J-3532D01*
G01*
X1192016Y635000D02*
G03*
X1189722Y639727I-6016J0D01*
G01*
X1183503Y643497D02*
G03*
X1182468Y641000I2498J-2498D01*
G01*
X1183503Y643497D02*
G03*
X1182468Y641000I2498J-2498D01*
G01*
Y639870D02*
G03*
X1192016Y635000I3532J-4870D01*
G01*
X1155340Y662857D02*
G03*
X1160340Y662857I2500J3143D01*
G01*
X1169336Y603000D02*
G03*
X1159804Y598118I-6016J0D01*
G01*
X1166836D02*
G03*
X1169336Y603000I-3516J4882D01*
G01*
X1136150Y884516D02*
G03*
X1131543Y882607I0J-6516D01*
G01*
X1103150Y838484D02*
G03*
X1107757Y840393I0J6516D01*
G01*
X1103150Y838484D02*
G03*
X1107757Y840393I0J6516D01*
G01*
X1120340Y662857D02*
G03*
X1125340Y662857I2500J3143D01*
G01*
X1125340D02*
G03*
X1130340Y662857I2500J3143D01*
G01*
X1115340Y662857D02*
G03*
X1120340Y662857I2500J3143D01*
G01*
X1130340D02*
G03*
X1135340Y662857I2500J3143D01*
G01*
X1110340D02*
G03*
X1115340Y662857I2500J3143D01*
G01*
X1105340Y662857D02*
G03*
X1110340Y662857I2500J3143D01*
G01*
X1095340D02*
G03*
X1100340Y662857I2500J3143D01*
G01*
X1100340D02*
G03*
X1105340Y662857I2500J3143D01*
G01*
X1090602Y662665D02*
G03*
X1095340Y662857I2237J3335D01*
G01*
X1085000Y658484D02*
G03*
X1087486Y659514I0J3516D01*
G01*
X1069324Y678941D02*
G03*
X1068824Y677000I3516J-1941D01*
G01*
X1026028Y665516D02*
G03*
X1023541Y664486I0J-3516D01*
G01*
X1026028Y665516D02*
G03*
X1023536Y664481I0J-3516D01*
G01*
X1085000Y658484D02*
G03*
X1087492Y659520I0J3516D01*
G01*
X1064983Y647500D02*
G03*
X1065856Y650000I-3143J2500D01*
G01*
Y645000D02*
G03*
X1064983Y647500I-4016J0D01*
G01*
Y632500D02*
G03*
X1065856Y635000I-3143J2500D01*
G01*
Y630000D02*
G03*
X1064983Y632500I-4016J0D01*
G01*
X1065856Y655000D02*
G03*
X1063838Y658484I-4016J0D01*
G01*
X1064983Y652500D02*
G03*
X1065856Y655000I-3143J2500D01*
G01*
Y650000D02*
G03*
X1064983Y652500I-4016J0D01*
G01*
X1064983Y642500D02*
G03*
X1065856Y645000I-3143J2500D01*
G01*
Y635000D02*
G03*
X1064983Y637500I-4016J0D01*
G01*
Y627500D02*
G03*
X1065856Y630000I-3143J2500D01*
G01*
Y640000D02*
G03*
X1064983Y642500I-4016J0D01*
G01*
X1064983Y637500D02*
G03*
X1065856Y640000I-3143J2500D01*
G01*
Y605000D02*
G03*
X1064983Y607500I-4016J0D01*
G01*
D02*
G03*
X1065856Y610000I-3143J2500D01*
G01*
X1064983Y602500D02*
G03*
X1065856Y605000I-3143J2500D01*
G01*
Y625000D02*
G03*
X1064983Y627500I-4016J0D01*
G01*
X1064983Y622500D02*
G03*
X1065856Y625000I-3143J2500D01*
G01*
Y595000D02*
G03*
X1064983Y597500I-4016J0D01*
G01*
X1065856Y585000D02*
G03*
X1064983Y587500I-4016J0D01*
G01*
X1065856Y600000D02*
G03*
X1064983Y602500I-4016J0D01*
G01*
X1064983Y597500D02*
G03*
X1065856Y600000I-3143J2500D01*
G01*
X1040527Y658484D02*
G03*
X1038508Y657480I473J-3484D01*
G01*
X1040527Y658484D02*
G03*
X1038514Y657486I473J-3484D01*
G01*
X1010519Y629492D02*
G03*
X1009484Y627000I2481J-2492D01*
G01*
X1065856Y615000D02*
G03*
X1064983Y617500I-4016J0D01*
G01*
X1065856Y610000D02*
G03*
X1064983Y612500I-4016J0D01*
G01*
X1064983Y592500D02*
G03*
X1065856Y595000I-3143J2500D01*
G01*
Y620000D02*
G03*
X1064983Y622500I-4016J0D01*
G01*
Y617500D02*
G03*
X1065856Y620000I-3143J2500D01*
G01*
X1064983Y582500D02*
G03*
X1065856Y585000I-3143J2500D01*
G01*
Y580000D02*
G03*
X1064983Y582500I-4016J0D01*
G01*
X1065856Y590000D02*
G03*
X1064983Y592500I-4016J0D01*
G01*
X1064983Y587500D02*
G03*
X1065856Y590000I-3143J2500D01*
G01*
X1010514Y629486D02*
G03*
X1009484Y627000I2486J-2486D01*
G01*
X1064983Y612500D02*
G03*
X1065856Y615000I-3143J2500D01*
G01*
X1475509Y575214D02*
G03*
X1481016Y581208I-509J5994D01*
G01*
X1489984Y560380D02*
G03*
X1489230Y561492I-3234J-1380D01*
G01*
X1305266Y556750D02*
G03*
X1293499Y558516I-6016J0D01*
G01*
X1489984Y560380D02*
G03*
X1489236Y561486I-3234J-1380D01*
G01*
X1481016Y551222D02*
G03*
X1478349Y556220I-6016J0D01*
G01*
X1481016Y541227D02*
G03*
X1478349Y546224I-6016J0D01*
G01*
Y536229D02*
G03*
X1481016Y541227I-3349J4998D01*
G01*
X1478349Y556220D02*
G03*
X1480871Y559906I-3349J4998D01*
G01*
X1478349Y546224D02*
G03*
X1481016Y551222I-3349J4998D01*
G01*
X1296341Y551484D02*
G03*
X1305266Y556750I2909J5266D01*
G01*
X1526481Y535508D02*
G03*
X1527516Y538000I-2481J2492D01*
G01*
X1526486Y535514D02*
G03*
X1527516Y538000I-2486J2486D01*
G01*
X1481016Y531231D02*
G03*
X1478349Y536229I-6016J0D01*
G01*
X1503519Y522492D02*
G03*
X1502516Y520473I2481J-2492D01*
G01*
X1503514Y522486D02*
G03*
X1502516Y520473I2486J-2486D01*
G01*
X1478349Y526234D02*
G03*
X1481016Y531231I-3349J4998D01*
G01*
Y521236D02*
G03*
X1478349Y526234I-6016J0D01*
G01*
Y516238D02*
G03*
X1481016Y521236I-3349J4998D01*
G01*
X1336236Y525986D02*
G03*
X1333750Y527016I-2486J-2486D01*
G01*
X1336242Y525980D02*
G03*
X1333750Y527016I-2492J-2481D01*
G01*
X1229750Y545516D02*
G03*
X1225500Y543516I0J-5516D01*
G01*
X1218856Y570000D02*
G03*
X1218572Y571484I-4016J0D01*
G01*
X1200697Y582500D02*
G03*
X1200697Y577500I3143J-2500D01*
G01*
X1217983Y567500D02*
G03*
X1218856Y570000I-3143J2500D01*
G01*
X1200697Y577500D02*
G03*
X1200697Y572500I3143J-2500D01*
G01*
D02*
G03*
X1200697Y567500I3143J-2500D01*
G01*
X1218856Y565000D02*
G03*
X1217983Y567500I-4016J0D01*
G01*
X1218542Y563443D02*
G03*
X1218856Y565000I-3702J1557D01*
G01*
X1200697Y567500D02*
G03*
X1200138Y563443I3143J-2500D01*
G01*
D02*
G03*
X1199007Y558516I3702J-3444D01*
G01*
X1219896Y560000D02*
G03*
X1218542Y563443I-5056J0D01*
G01*
X1219673Y558516D02*
G03*
X1219896Y560000I-4833J1484D01*
G01*
X1218856Y550000D02*
G03*
X1218572Y551484I-4016J0D01*
G01*
X1217983Y547500D02*
G03*
X1218856Y550000I-3143J2500D01*
G01*
X1200108Y551484D02*
G03*
X1200697Y547500I3732J-1484D01*
G01*
X1218856Y545000D02*
G03*
X1217983Y547500I-4016J0D01*
G01*
X1187486Y545486D02*
G03*
X1185000Y546516I-2486J-2486D01*
G01*
X1187492Y545480D02*
G03*
X1185000Y546516I-2492J-2481D01*
G01*
X1227542Y534945D02*
G03*
X1229750Y534484I2208J5055D01*
G01*
X1229016Y531000D02*
G03*
X1227542Y534945I-6016J0D01*
G01*
X1218572Y543516D02*
G03*
X1218856Y545000I-3732J1484D01*
G01*
X1217002Y531468D02*
G03*
X1218492Y527016I5998J-468D01*
G01*
X1227508D02*
G03*
X1229016Y531000I-4508J3984D01*
G01*
X1214840Y530984D02*
G03*
X1216751Y531468I0J4016D01*
G01*
X1200697Y542500D02*
G03*
X1200697Y537500I3143J-2500D01*
G01*
X1200697Y547500D02*
G03*
X1200697Y542500I3143J-2500D01*
G01*
X1200697Y537500D02*
G03*
X1203840Y530984I3143J-2500D01*
G01*
X1185340Y527143D02*
G03*
X1180340Y527143I-2500J-3143D01*
G01*
X1190340Y527143D02*
G03*
X1185340Y527143I-2500J-3143D01*
G01*
X1533054Y486059D02*
G03*
X1540016Y492000I946J5941D01*
G01*
D02*
G03*
X1528059Y491054I-6016J0D01*
G01*
X1525502Y488498D02*
G03*
X1524468Y486000I2498J-2498D01*
G01*
X1525502Y488498D02*
G03*
X1524468Y486000I2498J-2498D01*
G01*
X1478349Y506243D02*
G03*
X1481016Y511241I-3349J4998D01*
G01*
D02*
G03*
X1478349Y516238I-6016J0D01*
G01*
X1481016Y501245D02*
G03*
X1478349Y506243I-6016J0D01*
G01*
Y496248D02*
G03*
X1481016Y501245I-3349J4998D01*
G01*
Y491250D02*
G03*
X1478349Y496248I-6016J0D01*
G01*
X1478311Y486227D02*
G03*
X1481016Y491250I-3311J5023D01*
G01*
Y481204D02*
G03*
X1478311Y486227I-6016J0D01*
G01*
X1469062Y482169D02*
G03*
X1481016Y481204I5938J-966D01*
G01*
X1483234Y463500D02*
G03*
X1484264Y461014I3516J0D01*
G01*
X1483234Y463500D02*
G03*
X1484270Y461008I3516J0D01*
G01*
X1502758Y442519D02*
G03*
X1505250Y441484I2492J2481D01*
G01*
X1502764Y442514D02*
G03*
X1505250Y441484I2486J2486D01*
G01*
X1483016Y421200D02*
G03*
X1483016Y421200I-8016J0D01*
G01*
D02*
G03*
X1483016Y421200I-8016J0D01*
G01*
X1383016Y481750D02*
G03*
X1373289Y488933I-7516J0D01*
G01*
X1336016Y481750D02*
G03*
X1326289Y488933I-7516J0D01*
G01*
X1321317Y483961D02*
G03*
X1336016Y481750I7183J-2211D01*
G01*
X1368317Y483961D02*
G03*
X1383016Y481750I7183J-2211D01*
G01*
X1299236Y515986D02*
G03*
X1296750Y517016I-2486J-2486D01*
G01*
X1299242Y515980D02*
G03*
X1296750Y517016I-2492J-2481D01*
G01*
X1207064Y511014D02*
G03*
X1209550Y509984I2486J2486D01*
G01*
X1207058Y511020D02*
G03*
X1209550Y509984I2492J2481D01*
G01*
X1190340Y509857D02*
G03*
X1196856Y513000I2500J3143D01*
G01*
X1185340Y509857D02*
G03*
X1190340Y509857I2500J3143D01*
G01*
X1180340Y509857D02*
G03*
X1185340Y509857I2500J3143D01*
G01*
X1256966Y464570D02*
G03*
X1256966Y464570I-37516J0D01*
G01*
X1502516Y380000D02*
G03*
X1502516Y380000I-27516J0D01*
G01*
X1165516Y370488D02*
G03*
X1184656Y374620I9124J4132D01*
G01*
Y349220D02*
G03*
X1184656Y349220I-10016J0D01*
G01*
Y374620D02*
G03*
X1178156Y383999I-10016J0D01*
G01*
X1177314Y552514D02*
G03*
X1179800Y551484I2486J2486D01*
G01*
X1177308Y552519D02*
G03*
X1179800Y551484I2492J2481D01*
G01*
X1159804Y571480D02*
G03*
X1160839Y568988I3516J0D01*
G01*
X1159804Y571480D02*
G03*
X1160834Y568994I3516J0D01*
G01*
X1175340Y527143D02*
G03*
X1170340Y527143I-2500J-3143D01*
G01*
D02*
G03*
X1166283Y527702I-2500J-3143D01*
G01*
X1180340Y527143D02*
G03*
X1175340Y527143I-2500J-3143D01*
G01*
X1166283Y527702D02*
G03*
X1159397Y527702I-3444J-3702D01*
G01*
X1156283D02*
G03*
X1149397Y527702I-3444J-3702D01*
G01*
X1159397Y527702D02*
G03*
X1156283Y527702I-1557J-3702D01*
G01*
X1149397Y527702D02*
G03*
X1145340Y527143I-1557J-3702D01*
G01*
X1137000Y546516D02*
G03*
X1134514Y545486I0J-3516D01*
G01*
X1137000Y546516D02*
G03*
X1134508Y545480I0J-3516D01*
G01*
X1130016Y546000D02*
G03*
X1118059Y545054I-6016J0D01*
G01*
X1123054Y540059D02*
G03*
X1130016Y546000I946J5941D01*
G01*
X1115342Y542337D02*
G03*
X1114308Y539840I2498J-2498D01*
G01*
X1115342Y542337D02*
G03*
X1114308Y539840I2498J-2498D01*
G01*
X1125359Y536332D02*
G03*
X1124324Y533840I2481J-2492D01*
G01*
X1125354Y536326D02*
G03*
X1124324Y533840I2486J-2486D01*
G01*
X1145340Y527143D02*
G03*
X1140340Y527143I-2500J-3143D01*
G01*
X1140340D02*
G03*
X1136356Y527732I-2500J-3143D01*
G01*
X1124324D02*
G03*
X1121372Y527738I-1484J-3732D01*
G01*
X1110340Y527143D02*
G03*
X1105340Y527143I-2500J-3143D01*
G01*
X1114308Y527738D02*
G03*
X1110340Y527143I-1468J-3738D01*
G01*
X1176356Y509268D02*
G03*
X1180340Y509857I1484J3732D01*
G01*
X1161356Y508167D02*
G03*
X1164324Y508167I1484J4833D01*
G01*
X1160326Y505545D02*
G03*
X1161356Y508031I-2486J2486D01*
G01*
X1160321Y505539D02*
G03*
X1161356Y508031I-2481J2492D01*
G01*
X1175321Y501508D02*
G03*
X1176356Y504000I-2481J2492D01*
G01*
X1149397Y509298D02*
G03*
X1152781Y507944I3444J3702D01*
G01*
X1146356Y509268D02*
G03*
X1149397Y509298I1484J3732D01*
G01*
X1175326Y501514D02*
G03*
X1176356Y504000I-2486J2486D01*
G01*
X1145321Y500508D02*
G03*
X1146356Y503000I-2481J2492D01*
G01*
X1145326Y500514D02*
G03*
X1146356Y503000I-2486J2486D01*
G01*
X1135340Y509857D02*
G03*
X1139324Y509268I2500J3143D01*
G01*
X1130340Y509857D02*
G03*
X1135340Y509857I2500J3143D01*
G01*
X1126356Y509268D02*
G03*
X1130340Y509857I1484J3732D01*
G01*
X1125326Y503354D02*
G03*
X1126356Y505840I-2486J2486D01*
G01*
X1115340Y509857D02*
G03*
X1119324Y509268I2500J3143D01*
G01*
X1110340Y509857D02*
G03*
X1115340Y509857I2500J3143D01*
G01*
X1105340Y509857D02*
G03*
X1110340Y509857I2500J3143D01*
G01*
X1125321Y503348D02*
G03*
X1126356Y505840I-2481J2492D01*
G01*
X1141519Y482519D02*
G03*
X1140492Y480266I2481J-2492D01*
G01*
X1141514Y482514D02*
G03*
X1140492Y480266I2486J-2486D01*
G01*
X1128034Y473062D02*
G03*
X1134984Y478380I966J5938D01*
G01*
X1088056Y551040D02*
G03*
X1076102Y550074I-6016J0D01*
G01*
X1081074Y545102D02*
G03*
X1088056Y551040I966J5938D01*
G01*
X1064983Y557500D02*
G03*
X1065856Y560000I-3143J2500D01*
G01*
Y555000D02*
G03*
X1064983Y557500I-4016J0D01*
G01*
X1071000Y536484D02*
G03*
X1073486Y537514I0J3516D01*
G01*
X1071000Y536484D02*
G03*
X1073492Y537519I0J3516D01*
G01*
X1070856Y532460D02*
G03*
X1069820Y534952I-3516J0D01*
G01*
X1070856Y532460D02*
G03*
X1069826Y534946I-3516J0D01*
G01*
X1065856Y575000D02*
G03*
X1064983Y577500I-4016J0D01*
G01*
Y577500D02*
G03*
X1065856Y580000I-3143J2500D01*
G01*
X1064983Y572500D02*
G03*
X1065856Y575000I-3143J2500D01*
G01*
X1047108Y581484D02*
G03*
X1047697Y577500I3732J-1484D01*
G01*
Y577500D02*
G03*
X1047697Y572500I3143J-2500D01*
G01*
X1065856Y565000D02*
G03*
X1064983Y567500I-4016J0D01*
G01*
X1064983Y562500D02*
G03*
X1065856Y565000I-3143J2500D01*
G01*
Y560000D02*
G03*
X1064983Y562500I-4016J0D01*
G01*
X1065856Y570000D02*
G03*
X1064983Y572500I-4016J0D01*
G01*
Y567500D02*
G03*
X1065856Y570000I-3143J2500D01*
G01*
X1047697Y567500D02*
G03*
X1047697Y562500I3143J-2500D01*
G01*
Y562500D02*
G03*
X1047697Y557500I3143J-2500D01*
G01*
Y572500D02*
G03*
X1047697Y567500I3143J-2500D01*
G01*
X1065856Y550000D02*
G03*
X1064983Y552500I-4016J0D01*
G01*
Y552500D02*
G03*
X1065856Y555000I-3143J2500D01*
G01*
Y545000D02*
G03*
X1064983Y547500I-4016J0D01*
G01*
X1047697Y552500D02*
G03*
X1047697Y547500I3143J-2500D01*
G01*
X1064983D02*
G03*
X1065856Y550000I-3143J2500D01*
G01*
X1065572Y543516D02*
G03*
X1065856Y545000I-3732J1484D01*
G01*
X1061840Y530984D02*
G03*
X1063489Y531338I0J4016D01*
G01*
X1047697Y547500D02*
G03*
X1047697Y542500I3143J-2500D01*
G01*
D02*
G03*
X1047697Y537500I3143J-2500D01*
G01*
X1047697Y557500D02*
G03*
X1047697Y552500I3143J-2500D01*
G01*
Y537500D02*
G03*
X1050840Y530984I3143J-2500D01*
G01*
X1105340Y527143D02*
G03*
X1100340Y527143I-2500J-3143D01*
G01*
X1100340D02*
G03*
X1095340Y527143I-2500J-3143D01*
G01*
X1100340Y509857D02*
G03*
X1105340Y509857I2500J3143D01*
G01*
X1095340Y527143D02*
G03*
X1090340Y527143I-2500J-3143D01*
G01*
X1095340Y509857D02*
G03*
X1100340Y509857I2500J3143D01*
G01*
X1090340D02*
G03*
X1095340Y509857I2500J3143D01*
G01*
X1090340Y527143D02*
G03*
X1085340Y527143I-2500J-3143D01*
G01*
D02*
G03*
X1080340Y527143I-2500J-3143D01*
G01*
X1085340Y509857D02*
G03*
X1090340Y509857I2500J3143D01*
G01*
X1080340Y527143D02*
G03*
X1075340Y527143I-2500J-3143D01*
G01*
X1080340Y509857D02*
G03*
X1085340Y509857I2500J3143D01*
G01*
X1075340Y509857D02*
G03*
X1080340Y509857I2500J3143D01*
G01*
X1099016Y477319D02*
G03*
X1099976Y478004I-1532J3165D01*
G01*
X1099016Y477319D02*
G03*
X1099970Y477998I-1532J3165D01*
G01*
X1075340Y527143D02*
G03*
X1070856Y527492I-2500J-3143D01*
G01*
Y509508D02*
G03*
X1075340Y509857I1984J3492D01*
G01*
X1165492Y410480D02*
G03*
X1163000Y411516I-2492J-2481D01*
G01*
X1165486Y410486D02*
G03*
X1163000Y411516I-2486J-2486D01*
G01*
X1178156Y396360D02*
G03*
X1177121Y398852I-3516J0D01*
G01*
X1178156Y396360D02*
G03*
X1177126Y398846I-3516J0D01*
G01*
X1111764Y466736D02*
G03*
X1110734Y464250I2486J-2486D01*
G01*
X1111769Y466742D02*
G03*
X1110734Y464250I2481J-2492D01*
G01*
X1103816Y468948D02*
G03*
X1102780Y466456I2481J-2492D01*
G01*
X1103810Y468942D02*
G03*
X1102780Y466456I2486J-2486D01*
G01*
X1108782Y447810D02*
G03*
X1109812Y450296I-2486J2486D01*
G01*
X1108776Y447804D02*
G03*
X1109812Y450296I-2481J2492D01*
G01*
X1164486Y366514D02*
G03*
X1165516Y369000I-2486J2486D01*
G01*
X1164481Y366508D02*
G03*
X1165516Y369000I-2481J2492D01*
G01*
X1140122Y378765D02*
G03*
X1153659Y365632I9118J-4146D01*
G01*
X1154994Y357419D02*
G03*
X1156166Y358194I-1314J3261D01*
G01*
X1159256Y349220D02*
G03*
X1154994Y357419I-10016J0D01*
G01*
Y357419D02*
G03*
X1156172Y358200I-1314J3261D01*
G01*
X1143140Y357164D02*
G03*
X1159256Y349220I6100J-7944D01*
G01*
X1132958Y370475D02*
G03*
X1133856Y374620I-9118J4146D01*
G01*
D02*
G03*
X1127986Y365502I-10016J0D01*
G01*
X1135294Y358194D02*
G03*
X1137780Y357164I2486J2486D01*
G01*
X1135288Y358200D02*
G03*
X1137780Y357164I2492J2481D01*
G01*
X1133856Y349220D02*
G03*
X1133856Y349220I-10016J0D01*
G01*
X1102780Y464188D02*
G03*
X1099016Y467510I-5500J-2438D01*
G01*
Y455990D02*
G03*
X1102780Y459312I-1736J5760D01*
G01*
X1093270Y442242D02*
G03*
X1092234Y439750I2481J-2492D01*
G01*
X1093264Y442236D02*
G03*
X1092234Y439750I2486J-2486D01*
G01*
X1009484Y460060D02*
G03*
X1010519Y457568I3516J0D01*
G01*
X1009484Y460060D02*
G03*
X1010514Y457574I3516J0D01*
G01*
X1108456Y374620D02*
G03*
X1094295Y383738I-10016J0D01*
G01*
X1089322Y378765D02*
G03*
X1108456Y374620I9118J-4146D01*
G01*
X1083056D02*
G03*
X1068895Y383738I-10016J0D01*
G01*
X1063922Y378765D02*
G03*
X1083056Y374620I9118J-4146D01*
G01*
X1108456Y349220D02*
G03*
X1108456Y349220I-10016J0D01*
G01*
X1041816Y309880D02*
G03*
X1044548Y311513I-1876J6240D01*
G01*
X1041816Y309880D02*
G03*
X1044548Y311513I-1876J6240D01*
G01*
X1014750Y322636D02*
G03*
X1012874Y309880I0J-6516D01*
G01*
X1005886Y1138110D02*
G03*
X1005886Y1138110I-7056J0D01*
G01*
X985886D02*
G03*
X985886Y1138110I-7056J0D01*
G01*
X965886D02*
G03*
X965886Y1138110I-7056J0D01*
G01*
X954846Y1078110D02*
G03*
X945314Y1073229I-6016J0D01*
G01*
X952346D02*
G03*
X954846Y1078110I-3516J4882D01*
G01*
X951316Y1058844D02*
G03*
X952346Y1061330I-2486J2486D01*
G01*
X951310Y1058838D02*
G03*
X952346Y1061330I-2481J2492D01*
G01*
X913437Y1042222D02*
G03*
X915346Y1046830I-4608J4608D01*
G01*
X913437Y1042222D02*
G03*
X915346Y1046830I-4608J4608D01*
G01*
X930000Y961766D02*
G03*
X925393Y959857I0J-6516D01*
G01*
X930000Y961766D02*
G03*
X925393Y959857I0J-6516D01*
G01*
X909016Y1015500D02*
G03*
X908938Y1016466I-6016J0D01*
G01*
X914392Y948857D02*
G03*
X912484Y944250I4608J-4608D01*
G01*
X914392Y948857D02*
G03*
X912484Y944250I4608J-4608D01*
G01*
X942356Y935590D02*
G03*
X935448Y936516I-3516J0D01*
G01*
X906846Y1108110D02*
G03*
X906846Y1108110I-8016J0D01*
G01*
D02*
G03*
X906846Y1108110I-8016J0D01*
G01*
X915346Y1078110D02*
G03*
X904196Y1082691I-6516J0D01*
G01*
D02*
G03*
X902314Y1071974I-5367J-4581D01*
G01*
X885146Y1108110D02*
G03*
X885146Y1108110I-27516J0D01*
G01*
X903966Y1021438D02*
G03*
X909016Y1015500I-966J-5938D01*
G01*
X883142Y1030358D02*
G03*
X881234Y1025750I4608J-4608D01*
G01*
X883142Y1030358D02*
G03*
X881234Y1025750I4608J-4608D01*
G01*
X935448Y891484D02*
G03*
X942356Y892410I3392J926D01*
G01*
X970226Y675090D02*
G03*
X968318Y679697I-6516J0D01*
G01*
X970226Y675090D02*
G03*
X968318Y679697I-6516J0D01*
G01*
X1001519Y642464D02*
G03*
X1000484Y639972I2481J-2492D01*
G01*
X1001514Y642458D02*
G03*
X1000484Y639972I2486J-2486D01*
G01*
X947408Y700608D02*
G03*
X942800Y702516I-4608J-4608D01*
G01*
X947408Y700608D02*
G03*
X942800Y702516I-4608J-4608D01*
G01*
X939456Y650360D02*
G03*
X939172Y651844I-4016J0D01*
G01*
X938583Y647860D02*
G03*
X939456Y650360I-3143J2500D01*
G01*
X938583Y642860D02*
G03*
X939456Y645360I-3143J2500D01*
G01*
D02*
G03*
X938583Y647860I-4016J0D01*
G01*
X939456Y640360D02*
G03*
X938583Y642860I-4016J0D01*
G01*
X921297D02*
G03*
X921297Y637860I3143J-2500D01*
G01*
X938583D02*
G03*
X939456Y640360I-3143J2500D01*
G01*
X938583Y632860D02*
G03*
X939456Y635360I-3143J2500D01*
G01*
D02*
G03*
X938583Y637860I-4016J0D01*
G01*
X939456Y630360D02*
G03*
X938583Y632860I-4016J0D01*
G01*
X921297D02*
G03*
X921297Y627860I3143J-2500D01*
G01*
X938583D02*
G03*
X939456Y630360I-3143J2500D01*
G01*
X920708Y646844D02*
G03*
X921297Y642860I3732J-1484D01*
G01*
X921297Y637860D02*
G03*
X921297Y632860I3143J-2500D01*
G01*
X901016Y631000D02*
G03*
X900938Y631966I-6016J0D01*
G01*
X871302Y867516D02*
G03*
X864394Y866590I-3392J-926D01*
G01*
Y823410D02*
G03*
X871302Y822484I3516J0D01*
G01*
X845236Y757736D02*
G03*
X842750Y758766I-2486J-2486D01*
G01*
X845242Y757730D02*
G03*
X842750Y758766I-2492J-2481D01*
G01*
X861956Y739560D02*
G03*
X860920Y742052I-3516J0D01*
G01*
X861956Y739560D02*
G03*
X860926Y742046I-3516J0D01*
G01*
X849924Y681092D02*
G03*
X845940Y680503I-1484J-3732D01*
G01*
X840940Y680503D02*
G03*
X836883Y681062I-2500J-3143D01*
G01*
D02*
G03*
X829996Y681062I-3444J-3702D01*
G01*
X845940Y680503D02*
G03*
X840940Y680503I-2500J-3143D01*
G01*
X836883Y662658D02*
G03*
X839924Y662628I1557J3702D01*
G01*
Y640322D02*
G03*
X838880Y631516I3516J-4882D01*
G01*
X833467D02*
G03*
X834766Y635250I-4717J3734D01*
G01*
X831956Y661527D02*
G03*
X836883Y662658I1484J4833D01*
G01*
X834766Y635250D02*
G03*
X831956Y640341I-6016J0D01*
G01*
X821516Y939070D02*
G03*
X821516Y939070I-37516J0D01*
G01*
X677516Y912250D02*
G03*
X677516Y912250I-15016J0D01*
G01*
X693516Y842750D02*
G03*
X692480Y845242I-3516J0D01*
G01*
X693516Y842750D02*
G03*
X692486Y845236I-3516J0D01*
G01*
X675309Y862413D02*
G03*
X677516Y870250I-12809J7837D01*
G01*
D02*
G03*
X670337Y857441I-15016J0D01*
G01*
X692486Y811264D02*
G03*
X693516Y813750I-2486J2486D01*
G01*
X714393Y758766D02*
G03*
X714393Y751734I-6643J-3516D01*
G01*
X692480Y811258D02*
G03*
X693516Y813750I-2481J2492D01*
G01*
X654663Y815441D02*
G03*
X677516Y828250I7837J12809D01*
G01*
D02*
G03*
X649691Y820413I-15016J0D01*
G01*
X677500Y797734D02*
G03*
X679992Y798770I0J3516D01*
G01*
X677500Y797734D02*
G03*
X679986Y798764I0J3516D01*
G01*
X655250Y804766D02*
G03*
X652764Y803736I0J-3516D01*
G01*
X655250Y804766D02*
G03*
X652758Y803730I0J-3516D01*
G01*
X623556Y912250D02*
G03*
X623556Y912250I-16056J0D01*
G01*
Y870250D02*
G03*
X623556Y870250I-16056J0D01*
G01*
X532535Y991056D02*
G03*
X531498Y995000I-8016J0D01*
G01*
X517541D02*
G03*
X532535Y991056I6978J-3944D01*
G01*
D02*
G03*
X531498Y995000I-8016J0D01*
G01*
X517541D02*
G03*
X532535Y991056I6978J-3944D01*
G01*
X623556Y828250D02*
G03*
X623556Y828250I-16056J0D01*
G01*
X602270Y772992D02*
G03*
X601234Y770500I2481J-2492D01*
G01*
X602264Y772986D02*
G03*
X601234Y770500I2486J-2486D01*
G01*
X828492Y750480D02*
G03*
X826000Y751516I-2492J-2481D01*
G01*
X828486Y750486D02*
G03*
X826000Y751516I-2486J-2486D01*
G01*
X807766Y725486D02*
G03*
X805280Y726516I-2486J-2486D01*
G01*
X821956Y709840D02*
G03*
X820926Y712326I-3516J0D01*
G01*
X821956Y709840D02*
G03*
X820920Y712332I-3516J0D01*
G01*
X826883Y681062D02*
G03*
X821956Y682193I-3444J-3702D01*
G01*
X829996Y681062D02*
G03*
X826883Y681062I-1557J-3702D01*
G01*
X809924Y681092D02*
G03*
X805940Y680503I-1484J-3732D01*
G01*
X807772Y725480D02*
G03*
X805280Y726516I-2492J-2481D01*
G01*
X805940Y680503D02*
G03*
X800940Y680503I-2500J-3143D01*
G01*
D02*
G03*
X795940Y680503I-2500J-3143D01*
G01*
X747500Y751516D02*
G03*
X745008Y750480I0J-3516D01*
G01*
X747500Y751516D02*
G03*
X745014Y750486I0J-3516D01*
G01*
X795940Y680503D02*
G03*
X789424Y677360I-2500J-3143D01*
G01*
X815940Y663217D02*
G03*
X819996Y662658I2500J3143D01*
G01*
X805940Y663217D02*
G03*
X810940Y663217I2500J3143D01*
G01*
X810940D02*
G03*
X815940Y663217I2500J3143D01*
G01*
X819996Y662658D02*
G03*
X824924Y661527I3444J3702D01*
G01*
X795940Y663217D02*
G03*
X800940Y663217I2500J3143D01*
G01*
X789424Y666360D02*
G03*
X795940Y663217I4016J0D01*
G01*
X800940Y663217D02*
G03*
X805940Y663217I2500J3143D01*
G01*
X804126Y637846D02*
G03*
X801640Y638876I-2486J-2486D01*
G01*
X804132Y637840D02*
G03*
X801640Y638876I-2492J-2481D01*
G01*
X824924Y639893D02*
G03*
X824033Y631516I3826J-4643D01*
G01*
X787496Y630360D02*
G03*
X787273Y631844I-5056J0D01*
G01*
X786142Y626916D02*
G03*
X787496Y630360I-3702J3444D01*
G01*
X786456Y655360D02*
G03*
X782440Y659376I-4016J0D01*
G01*
X771440D02*
G03*
X769529Y658892I0J-4016D01*
G01*
X785583Y652860D02*
G03*
X786456Y655360I-3143J2500D01*
G01*
X759941Y662054D02*
G03*
X760016Y663000I-5941J946D01*
G01*
D02*
G03*
X754946Y657059I-6016J0D01*
G01*
X785583Y647860D02*
G03*
X786456Y650360I-3143J2500D01*
G01*
D02*
G03*
X785583Y652860I-4016J0D01*
G01*
X786456Y645360D02*
G03*
X785583Y647860I-4016J0D01*
G01*
X767663Y646724D02*
G03*
X768297Y642860I3777J-1364D01*
G01*
X785583D02*
G03*
X786456Y645360I-3143J2500D01*
G01*
Y640360D02*
G03*
X785583Y642860I-4016J0D01*
G01*
X768297D02*
G03*
X767708Y638876I3143J-2500D01*
G01*
X786172D02*
G03*
X786456Y640360I-3732J1484D01*
G01*
X766607Y631844D02*
G03*
X767738Y626916I4833J-1484D01*
G01*
X709961Y715433D02*
G03*
X715266Y708250I-2211J-7183D01*
G01*
D02*
G03*
X714933Y710461I-7516J0D01*
G01*
X552035Y706056D02*
G03*
X552035Y706056I-27516J0D01*
G01*
X714910Y638766D02*
G03*
X712424Y637736I0J-3516D01*
G01*
X714910Y638766D02*
G03*
X712418Y637730I0J-3516D01*
G01*
X699016Y635250D02*
G03*
X688118Y638766I-6016J0D01*
G01*
Y631734D02*
G03*
X699016Y635250I4882J3516D01*
G01*
X601234Y644750D02*
G03*
X602270Y642258I3516J0D01*
G01*
X601234Y644750D02*
G03*
X602264Y642264I3516J0D01*
G01*
X632188Y632770D02*
G03*
X634680Y631734I2492J2481D01*
G01*
X632194Y632764D02*
G03*
X634680Y631734I2486J2486D01*
G01*
X948126Y607846D02*
G03*
X945640Y608876I-2486J-2486D01*
G01*
X948132Y607840D02*
G03*
X945640Y608876I-2492J-2481D01*
G01*
X973796Y580720D02*
G03*
X972760Y583212I-3516J0D01*
G01*
X973796Y580720D02*
G03*
X972766Y583206I-3516J0D01*
G01*
X938583Y617860D02*
G03*
X939456Y620360I-3143J2500D01*
G01*
D02*
G03*
X938583Y622860I-4016J0D01*
G01*
X939456Y615360D02*
G03*
X938583Y617860I-4016J0D01*
G01*
X939456Y625360D02*
G03*
X938583Y627860I-4016J0D01*
G01*
X938583Y622860D02*
G03*
X939456Y625360I-3143J2500D01*
G01*
X938583Y612860D02*
G03*
X939456Y615360I-3143J2500D01*
G01*
Y610360D02*
G03*
X938583Y612860I-4016J0D01*
G01*
X939172Y608876D02*
G03*
X939456Y610360I-3732J1484D01*
G01*
X921297Y617860D02*
G03*
X921297Y612860I3143J-2500D01*
G01*
Y627860D02*
G03*
X921297Y622860I3143J-2500D01*
G01*
X921297Y612860D02*
G03*
X921297Y607860I3143J-2500D01*
G01*
X895966Y636938D02*
G03*
X901016Y631000I-966J-5938D01*
G01*
X921297Y622860D02*
G03*
X921297Y617860I3143J-2500D01*
G01*
Y607860D02*
G03*
X921297Y602860I3143J-2500D01*
G01*
Y602860D02*
G03*
X921297Y597860I3143J-2500D01*
G01*
D02*
G03*
X921297Y592860I3143J-2500D01*
G01*
D02*
G03*
X921297Y587860I3143J-2500D01*
G01*
X921297Y582860D02*
G03*
X921297Y577860I3143J-2500D01*
G01*
Y587860D02*
G03*
X921297Y582860I3143J-2500D01*
G01*
X921297Y577860D02*
G03*
X921297Y572860I3143J-2500D01*
G01*
D02*
G03*
X921297Y567860I3143J-2500D01*
G01*
D02*
G03*
X921297Y562860I3143J-2500D01*
G01*
X921297Y557860D02*
G03*
X921297Y552860I3143J-2500D01*
G01*
Y562860D02*
G03*
X921297Y557860I3143J-2500D01*
G01*
X921297Y552860D02*
G03*
X921297Y547860I3143J-2500D01*
G01*
D02*
G03*
X921297Y542860I3143J-2500D01*
G01*
D02*
G03*
X921297Y537860I3143J-2500D01*
G01*
X904016Y541000D02*
G03*
X898946Y535059I-6016J0D01*
G01*
X903941Y540054D02*
G03*
X904016Y541000I-5941J946D01*
G01*
X935440Y531344D02*
G03*
X937381Y531844I0J4016D01*
G01*
X921297Y537860D02*
G03*
X924440Y531344I3143J-2500D01*
G01*
X917456Y524360D02*
G03*
X911972Y528098I-4016J0D01*
G01*
X916956Y511419D02*
G03*
X917456Y513360I-3516J1941D01*
G01*
X911972Y530560D02*
G03*
X910938Y533058I-3532J0D01*
G01*
X911972Y530560D02*
G03*
X910938Y533058I-3532J0D01*
G01*
X904908Y528098D02*
G03*
X900940Y527503I-1468J-3738D01*
G01*
D02*
G03*
X895940Y527503I-2500J-3143D01*
G01*
X880940Y527503D02*
G03*
X875940Y527503I-2500J-3143D01*
G01*
X890940D02*
G03*
X885940Y527503I-2500J-3143D01*
G01*
X895940D02*
G03*
X890940Y527503I-2500J-3143D01*
G01*
X875940D02*
G03*
X870940Y527503I-2500J-3143D01*
G01*
X885940D02*
G03*
X880940Y527503I-2500J-3143D01*
G01*
X890940Y510217D02*
G03*
X894924Y509628I2500J3143D01*
G01*
X885940Y510217D02*
G03*
X890940Y510217I2500J3143D01*
G01*
X880940D02*
G03*
X885940Y510217I2500J3143D01*
G01*
X875940Y510217D02*
G03*
X880940Y510217I2500J3143D01*
G01*
X870940Y510217D02*
G03*
X875940Y510217I2500J3143D01*
G01*
X863000Y624484D02*
G03*
X865492Y625519I0J3516D01*
G01*
X863000Y624484D02*
G03*
X865486Y625514I0J3516D01*
G01*
X806514D02*
G03*
X809000Y624484I2486J2486D01*
G01*
X806508Y625519D02*
G03*
X809000Y624484I2492J2481D01*
G01*
X801016Y545000D02*
G03*
X789059Y544054I-6016J0D01*
G01*
X794054Y539059D02*
G03*
X801016Y545000I946J5941D01*
G01*
X790360Y536828D02*
G03*
X792857Y537862I0J3532D01*
G01*
X790360Y536828D02*
G03*
X792857Y537862I0J3532D01*
G01*
X785583Y617860D02*
G03*
X786456Y620360I-3143J2500D01*
G01*
D02*
G03*
X785583Y622860I-4016J0D01*
G01*
X786456Y615360D02*
G03*
X785583Y617860I-4016J0D01*
G01*
X786456Y625360D02*
G03*
X786142Y626916I-4016J0D01*
G01*
X785583Y622860D02*
G03*
X786456Y625360I-3143J2500D01*
G01*
X785583Y607860D02*
G03*
X786456Y610360I-3143J2500D01*
G01*
Y605360D02*
G03*
X785583Y607860I-4016J0D01*
G01*
X786456Y595360D02*
G03*
X785583Y597860I-4016J0D01*
G01*
X786456Y600360D02*
G03*
X785583Y602860I-4016J0D01*
G01*
Y602860D02*
G03*
X786456Y605360I-3143J2500D01*
G01*
X785583Y597860D02*
G03*
X786456Y600360I-3143J2500D01*
G01*
X785583Y612860D02*
G03*
X786456Y615360I-3143J2500D01*
G01*
Y610360D02*
G03*
X785583Y612860I-4016J0D01*
G01*
X786456Y585360D02*
G03*
X785583Y587860I-4016J0D01*
G01*
X785583Y582860D02*
G03*
X786456Y585360I-3143J2500D01*
G01*
Y590360D02*
G03*
X785583Y592860I-4016J0D01*
G01*
X785583Y587860D02*
G03*
X786456Y590360I-3143J2500D01*
G01*
X785583Y557860D02*
G03*
X786456Y560360I-3143J2500D01*
G01*
Y565360D02*
G03*
X785583Y567860I-4016J0D01*
G01*
X786456Y570360D02*
G03*
X785583Y572860I-4016J0D01*
G01*
Y567860D02*
G03*
X786456Y570360I-3143J2500D01*
G01*
Y545360D02*
G03*
X785583Y547860I-4016J0D01*
G01*
X786178Y543892D02*
G03*
X786456Y545360I-3738J1468D01*
G01*
Y535360D02*
G03*
X786178Y536828I-4016J0D01*
G01*
X785583Y562860D02*
G03*
X786456Y565360I-3143J2500D01*
G01*
Y575360D02*
G03*
X785583Y577860I-4016J0D01*
G01*
X786456Y560360D02*
G03*
X785583Y562860I-4016J0D01*
G01*
X786456Y580360D02*
G03*
X785583Y582860I-4016J0D01*
G01*
X785583Y577860D02*
G03*
X786456Y580360I-3143J2500D01*
G01*
X785583Y547860D02*
G03*
X786456Y550360I-3143J2500D01*
G01*
X782440Y531344D02*
G03*
X786456Y535360I0J4016D01*
G01*
X785583Y552860D02*
G03*
X786456Y555360I-3143J2500D01*
G01*
Y550360D02*
G03*
X785583Y552860I-4016J0D01*
G01*
X865940Y527503D02*
G03*
X860940Y527503I-2500J-3143D01*
G01*
X860940D02*
G03*
X855940Y527503I-2500J-3143D01*
G01*
X870940Y527503D02*
G03*
X865940Y527503I-2500J-3143D01*
G01*
X850940D02*
G03*
X845940Y527503I-2500J-3143D01*
G01*
X855940Y527503D02*
G03*
X850940Y527503I-2500J-3143D01*
G01*
X840940D02*
G03*
X835940Y527503I-2500J-3143D01*
G01*
X845940D02*
G03*
X840940Y527503I-2500J-3143D01*
G01*
X830940D02*
G03*
X825940Y527503I-2500J-3143D01*
G01*
X835940Y527503D02*
G03*
X830940Y527503I-2500J-3143D01*
G01*
X860940Y510217D02*
G03*
X865940Y510217I2500J3143D01*
G01*
X855940D02*
G03*
X860940Y510217I2500J3143D01*
G01*
X865940Y510217D02*
G03*
X870940Y510217I2500J3143D01*
G01*
X845940D02*
G03*
X850940Y510217I2500J3143D01*
G01*
D02*
G03*
X855940Y510217I2500J3143D01*
G01*
X840940D02*
G03*
X845940Y510217I2500J3143D01*
G01*
X830940Y510217D02*
G03*
X835940Y510217I2500J3143D01*
G01*
X835940D02*
G03*
X840940Y510217I2500J3143D01*
G01*
X825940Y527503D02*
G03*
X820940Y527503I-2500J-3143D01*
G01*
X820940D02*
G03*
X815940Y527503I-2500J-3143D01*
G01*
D02*
G03*
X810940Y527503I-2500J-3143D01*
G01*
X805940Y527503D02*
G03*
X800940Y527503I-2500J-3143D01*
G01*
D02*
G03*
X795940Y527503I-2500J-3143D01*
G01*
X810940D02*
G03*
X805940Y527503I-2500J-3143D01*
G01*
X795940Y527503D02*
G03*
X789424Y524360I-2500J-3143D01*
G01*
X820940Y510217D02*
G03*
X825940Y510217I2500J3143D01*
G01*
D02*
G03*
X830940Y510217I2500J3143D01*
G01*
X813576Y509346D02*
G03*
X815940Y510217I-136J4014D01*
G01*
D02*
G03*
X820940Y510217I2500J3143D01*
G01*
X1000484Y443660D02*
G03*
X1001519Y441168I3516J0D01*
G01*
X1000484Y443660D02*
G03*
X1001514Y441174I3516J0D01*
G01*
X894924Y387560D02*
G03*
X895954Y385074I3516J0D01*
G01*
X894924Y387560D02*
G03*
X895959Y385068I3516J0D01*
G01*
X972760Y342329D02*
G03*
X973796Y344821I-2481J2492D01*
G01*
X972766Y342335D02*
G03*
X973796Y344821I-2486J2486D01*
G01*
X940080Y309880D02*
G03*
X940951Y310520I-1621J3120D01*
G01*
X940080Y309880D02*
G03*
X940945Y310514I-1621J3120D01*
G01*
X925926Y349080D02*
G03*
X911765Y358198I-10016J0D01*
G01*
X906792Y353226D02*
G03*
X925926Y349080I9118J-4146D01*
G01*
X899484Y361990D02*
G03*
X900514Y359504I3516J0D01*
G01*
X899484Y361990D02*
G03*
X900519Y359498I3516J0D01*
G01*
X894897Y340076D02*
G03*
X900526Y349080I-4387J9004D01*
G01*
X869578Y365516D02*
G03*
X875126Y374480I-4469J8964D01*
G01*
X899484Y378928D02*
G03*
X899484Y370032I-8974J-4448D01*
G01*
X873150Y364486D02*
G03*
X870664Y365516I-2486J-2486D01*
G01*
X873156Y364481D02*
G03*
X870664Y365516I-2492J-2481D01*
G01*
X875126Y374480D02*
G03*
X860641Y365516I-10016J0D01*
G01*
X836486Y437314D02*
G03*
X837516Y439800I-2486J2486D01*
G01*
X836480Y437308D02*
G03*
X837516Y439800I-2481J2492D01*
G01*
Y483950D02*
G03*
X836480Y486442I-3516J0D01*
G01*
X837516Y483950D02*
G03*
X836486Y486436I-3516J0D01*
G01*
X849726Y374480D02*
G03*
X849726Y374480I-10016J0D01*
G01*
X813450Y415734D02*
G03*
X815942Y416769I0J3516D01*
G01*
X813450Y415734D02*
G03*
X815936Y416764I0J3516D01*
G01*
X824326Y374480D02*
G03*
X824326Y374480I-10016J0D01*
G01*
X852630Y365516D02*
G03*
X850144Y364486I0J-3516D01*
G01*
X852630Y365516D02*
G03*
X850138Y364481I0J-3516D01*
G01*
X881516Y354664D02*
G03*
X880486Y357150I-3516J0D01*
G01*
X900526Y349080D02*
G03*
X881516Y353488I-10016J0D01*
G01*
Y354664D02*
G03*
X880480Y357156I-3516J0D01*
G01*
X861663Y358484D02*
G03*
X861594Y339701I3447J-9404D01*
G01*
X849726Y349080D02*
G03*
X848828Y353226I-10016J0D01*
G01*
X843856Y358198D02*
G03*
X849726Y349080I-4146J-9118D01*
G01*
X879274Y318514D02*
G03*
X881760Y317484I2486J2486D01*
G01*
X879268Y318519D02*
G03*
X881760Y317484I2492J2481D01*
G01*
X861594Y337650D02*
G03*
X862624Y335164I3516J0D01*
G01*
X861594Y337650D02*
G03*
X862629Y335158I3516J0D01*
G01*
X847904Y310514D02*
G03*
X848769Y309880I2486J2486D01*
G01*
X823428Y344935D02*
G03*
X824326Y349080I-9118J4146D01*
G01*
D02*
G03*
X818456Y339962I-10016J0D01*
G01*
X847898Y310520D02*
G03*
X848769Y309880I2492J2481D01*
G01*
X767738Y626916D02*
G03*
X768297Y622860I3702J-1557D01*
G01*
D02*
G03*
X767708Y618876I3143J-2500D01*
G01*
X785583Y572860D02*
G03*
X786456Y575360I-3143J2500D01*
G01*
X785583Y592860D02*
G03*
X786456Y595360I-3143J2500D01*
G01*
Y555360D02*
G03*
X785583Y557860I-4016J0D01*
G01*
X767708Y546844D02*
G03*
X768297Y542860I3732J-1484D01*
G01*
D02*
G03*
X767708Y538876I3143J-2500D01*
G01*
X628008Y616520D02*
G03*
X630500Y615484I2492J2481D01*
G01*
X698660D02*
G03*
X701146Y616514I0J3516D01*
G01*
X698660Y615484D02*
G03*
X701152Y616520I0J3516D01*
G01*
X628014Y616514D02*
G03*
X630500Y615484I2486J2486D01*
G01*
X708360Y538876D02*
G03*
X705874Y537846I0J-3516D01*
G01*
X708360Y538876D02*
G03*
X705868Y537840I0J-3516D01*
G01*
X769499Y531844D02*
G03*
X771440Y531344I1941J3516D01*
G01*
X696240Y519724D02*
G03*
X698732Y520760I0J3516D01*
G01*
X696240Y519724D02*
G03*
X698726Y520754I0J3516D01*
G01*
X597677Y623545D02*
G03*
X595191Y624575I-2486J-2486D01*
G01*
X597683Y623540D02*
G03*
X595191Y624575I-2492J-2481D01*
G01*
X521595Y616059D02*
G03*
X521595Y606059I3345J-5000D01*
G01*
X529822Y624575D02*
G03*
X521595Y616059I-4882J-3516D01*
G01*
X521595Y606059D02*
G03*
X521586Y596065I3345J-5000D01*
G01*
D02*
G03*
X521586Y586077I3354J-4994D01*
G01*
D02*
G03*
X521586Y576089I3354J-4994D01*
G01*
Y556113D02*
G03*
X521640Y546089I3354J-4994D01*
G01*
X521586Y576089D02*
G03*
X521586Y566101I3354J-4994D01*
G01*
D02*
G03*
X521586Y556113I3354J-4994D01*
G01*
X522000Y534516D02*
G03*
X519514Y533486I0J-3516D01*
G01*
X522000Y534516D02*
G03*
X519508Y533480I0J-3516D01*
G01*
X521640Y546089D02*
G03*
X529822Y537543I3301J-5030D01*
G01*
X519418Y523446D02*
G03*
X521595Y516059I5522J-2387D01*
G01*
D02*
G03*
X521595Y506059I3345J-5000D01*
G01*
X513486Y507014D02*
G03*
X514516Y509500I-2486J2486D01*
G01*
X521595Y496059D02*
G03*
X530957Y491059I3345J-5000D01*
G01*
X521595Y506059D02*
G03*
X521595Y496059I3345J-5000D01*
G01*
X508514Y522486D02*
G03*
X507484Y520000I2486J-2486D01*
G01*
X508520Y522492D02*
G03*
X507484Y520000I2481J-2492D01*
G01*
X513480Y507008D02*
G03*
X514516Y509500I-2481J2492D01*
G01*
X530957Y491059D02*
G03*
X530879Y492025I-6016J0D01*
G01*
X751641Y416769D02*
G03*
X754133Y415734I2492J2481D01*
G01*
X751647Y416764D02*
G03*
X754133Y415734I2486J2486D01*
G01*
X501500Y478016D02*
G03*
X499008Y476981I0J-3516D01*
G01*
X501500Y478016D02*
G03*
X499014Y476986I0J-3516D01*
G01*
X492564Y461149D02*
G03*
X493986Y462014I-1064J3351D01*
G01*
X492564Y461149D02*
G03*
X493992Y462020I-1064J3351D01*
G01*
X493492Y460480D02*
G03*
X492564Y461149I-2492J-2481D01*
G01*
X493486Y460486D02*
G03*
X492564Y461149I-2486J-2486D01*
G01*
X474360Y468016D02*
G03*
X474986Y468514I-1860J2984D01*
G01*
X474360Y468016D02*
G03*
X474992Y468520I-1860J2984D01*
G01*
X499628Y444399D02*
G03*
X502120Y443364I2492J2481D01*
G01*
X499634Y444394D02*
G03*
X502120Y443364I2486J2486D01*
G01*
X532535Y421056D02*
G03*
X532535Y421056I-8016J0D01*
G01*
D02*
G03*
X532535Y421056I-8016J0D01*
G01*
X552035Y379856D02*
G03*
X552035Y379856I-27516J0D01*
G01*
X455468Y425870D02*
G03*
X465016Y421000I3532J-4870D01*
G01*
D02*
G03*
X462532Y425870I-6016J0D01*
G01*
X1482993Y990600D02*
X1560000D01*
X1482058Y995000D02*
X1560000D01*
X1480656Y985520D02*
X1560000D01*
X1358923Y980440D02*
X1560000D01*
X1357381Y975360D02*
X1560000D01*
X1358769Y985520D02*
X1469343D01*
X1353077Y995000D02*
X1467942D01*
X1356863Y990600D02*
X1467006D01*
X1356360Y991405D02*
Y995000D01*
X1353415Y970280D02*
X1560000D01*
X1356360Y949405D02*
Y973595D01*
X1351280Y954256D02*
Y968744D01*
X1359041Y939800D02*
X1560000D01*
X1357980Y934720D02*
X1560000D01*
X1354863Y909320D02*
X1560000D01*
X1355973Y949960D02*
X1560000D01*
X1358447Y944880D02*
X1560000D01*
X1359042Y899160D02*
X1560000D01*
X1358436Y894080D02*
X1560000D01*
X1355944Y889000D02*
X1560000D01*
X1356360Y907405D02*
Y931595D01*
X1357995Y904240D02*
X1560000D01*
X1354826Y929640D02*
X1560000D01*
X1349811Y955040D02*
X1560000D01*
X1344926Y924560D02*
X1560000D01*
X1346200Y956234D02*
Y966766D01*
X1345233Y914400D02*
X1560000D01*
X1351280Y912256D02*
Y926744D01*
X1330960Y993122D02*
Y995000D01*
X1301210Y975360D02*
X1328619D01*
X1302709Y985520D02*
X1327231D01*
X1302874Y980440D02*
X1327077D01*
X1341120Y956446D02*
Y966554D01*
X1330960Y951122D02*
Y971878D01*
X1336040Y954969D02*
Y968031D01*
X1300644Y990600D02*
X1329137D01*
X1296320Y995000D02*
X1332923D01*
X1296727Y970280D02*
X1332585D01*
X1300480Y990850D02*
Y995000D01*
X1291751Y955040D02*
X1336190D01*
X1299661Y949960D02*
X1330027D01*
X1300480Y948850D02*
Y974149D01*
X1295400Y953566D02*
Y969434D01*
X1346200Y914234D02*
Y924766D01*
X1303000Y939800D02*
X1326959D01*
X1341120Y914446D02*
Y924554D01*
X1336040Y912969D02*
Y926031D01*
X1330960Y909122D02*
Y929878D01*
X1303002Y899160D02*
X1326958D01*
X1301859Y934720D02*
X1328020D01*
X1298370Y929640D02*
X1331174D01*
X1298412Y909320D02*
X1331137D01*
X1302363Y944880D02*
X1327553D01*
X1295400Y911566D02*
Y927434D01*
X1301876Y904240D02*
X1328005D01*
X1299629Y889000D02*
X1330056D01*
X1300480Y906851D02*
Y932150D01*
X1302351Y894080D02*
X1327564D01*
X1498600Y720348D02*
Y995000D01*
X1493520Y726550D02*
Y995000D01*
X1503680Y616292D02*
Y995000D01*
X1483360Y732415D02*
Y995000D01*
X1488440Y730210D02*
Y995000D01*
X1524000Y595972D02*
Y995000D01*
X1518920Y601052D02*
Y995000D01*
X1529080Y579266D02*
Y995000D01*
X1508760Y611212D02*
Y995000D01*
X1513840Y606132D02*
Y995000D01*
X1457960Y727805D02*
Y995000D01*
X1452880Y722566D02*
Y995000D01*
X1463040Y730981D02*
Y995000D01*
X1386840Y702516D02*
Y995000D01*
X1412240Y702516D02*
Y995000D01*
X1417320Y702259D02*
Y995000D01*
X1422400Y697572D02*
Y995000D01*
X1391920Y702516D02*
Y995000D01*
X1407160Y702516D02*
Y995000D01*
X1478280Y733520D02*
Y983886D01*
X1468120Y732842D02*
Y987086D01*
X1473200Y733657D02*
Y983389D01*
X1397000Y702516D02*
Y995000D01*
X1447800Y710360D02*
Y995000D01*
X1437640Y682332D02*
Y995000D01*
X1432560Y687412D02*
Y995000D01*
X1442720Y677252D02*
Y995000D01*
X1402080Y702516D02*
Y995000D01*
X1427480Y692492D02*
Y995000D01*
X1357653Y843280D02*
X1560000D01*
X1355474Y848360D02*
X1560000D01*
X1357908Y838200D02*
X1560000D01*
X1349724Y883920D02*
X1560000D01*
X1349697Y853440D02*
X1560000D01*
X1345538Y812800D02*
X1560000D01*
X1354446Y807720D02*
X1560000D01*
X1356347Y833120D02*
X1560000D01*
X1352080Y828040D02*
X1560000D01*
X1356360Y846855D02*
Y889595D01*
X1351280Y852527D02*
Y884744D01*
X1330960Y848973D02*
Y887878D01*
X1336040Y853306D02*
Y884031D01*
X1376680Y702516D02*
Y995000D01*
X1371600Y702516D02*
Y995000D01*
X1381760Y702516D02*
Y995000D01*
X1361440Y702516D02*
Y995000D01*
X1366520Y702516D02*
Y995000D01*
X1320800Y702516D02*
Y995000D01*
X1291592Y883920D02*
X1336275D01*
X1300480Y848350D02*
Y890150D01*
X1295400Y853066D02*
Y885434D01*
X1315720Y702516D02*
Y995000D01*
X1325880Y702516D02*
Y995000D01*
X1305560Y702516D02*
Y995000D01*
X1310640Y702516D02*
Y995000D01*
X1346200Y854671D02*
Y882766D01*
Y812671D02*
Y825329D01*
X1341120Y854898D02*
Y882554D01*
Y812898D02*
Y825102D01*
X1356360Y804855D02*
Y833145D01*
X1351280Y810527D02*
Y827473D01*
X1330960Y806973D02*
Y831027D01*
X1336040Y811306D02*
Y826694D01*
X1300474Y848360D02*
X1330526D01*
X1294697Y853440D02*
X1336303D01*
X1301347Y833120D02*
X1329653D01*
X1302653Y843280D02*
X1328347D01*
X1302908Y838200D02*
X1328092D01*
X1297080Y828040D02*
X1333920D01*
X1299446Y807720D02*
X1331554D01*
X1300480Y806350D02*
Y831649D01*
X1295400Y811066D02*
Y826934D01*
X1272515Y965200D02*
X1560000D01*
X1277595Y960120D02*
X1560000D01*
X1270028Y995000D02*
X1275005Y990023D01*
X1275080Y962635D02*
Y974848D01*
X1290320Y955336D02*
Y967664D01*
X1285240Y955260D02*
Y967740D01*
X1280160Y957555D02*
Y969693D01*
X1282675Y955040D02*
X1284249D01*
X1252195Y985520D02*
X1273291D01*
X1247115Y990600D02*
X1274428D01*
X1262355Y975360D02*
X1274790D01*
X1234440Y995000D02*
X1270028D01*
X1257275Y980440D02*
X1273126D01*
X1244857Y992858D02*
X1283041Y954674D01*
X1267435Y970280D02*
X1279274D01*
X1270000Y967715D02*
Y995000D01*
X1237551Y981734D02*
X1273826Y945459D01*
X1241549Y934720D02*
X1274141D01*
X1290320Y913336D02*
Y925664D01*
X1241262Y944880D02*
X1273637D01*
X1241751Y939800D02*
X1273000D01*
X1285240Y913260D02*
Y925740D01*
X1280160Y911307D02*
Y927693D01*
X1270000Y904766D02*
Y949285D01*
X1275080Y906152D02*
Y932848D01*
X1238979Y924560D02*
X1341073D01*
X1236439Y919480D02*
X1560000D01*
X1232790Y914400D02*
X1340767D01*
X1240052Y949960D02*
X1269325D01*
X1240643Y929640D02*
X1277630D01*
X1227516Y909320D02*
X1277588D01*
X1075017Y889000D02*
X1276371D01*
X1220141Y904766D02*
X1274354D01*
X1153750Y891734D02*
X1274595D01*
X1254760Y982955D02*
Y995000D01*
X1249680Y988035D02*
Y995000D01*
X1244600Y993101D02*
Y995000D01*
X1264920Y972795D02*
Y995000D01*
X1259840Y977875D02*
Y995000D01*
X1239520Y951536D02*
Y979765D01*
X1229360Y966624D02*
Y981734D01*
X1234440Y961021D02*
Y981734D01*
X1223956Y1005484D02*
X1234440Y995000D01*
X1141402Y995680D02*
X1233760D01*
X1151670Y994766D02*
X1240250D01*
X1224280D02*
Y1005160D01*
X1146482Y1000760D02*
X1228680D01*
X1154369Y981734D02*
X1237551D01*
X1153075Y980440D02*
X1238845D01*
X1229360Y994766D02*
Y1000080D01*
X1224280Y970471D02*
Y981734D01*
X1259840Y904766D02*
Y959445D01*
X1235085Y960120D02*
X1259165D01*
X1238045Y955040D02*
X1264245D01*
X1249680Y904766D02*
Y969605D01*
X1254760Y904766D02*
Y964525D01*
X1264920Y904766D02*
Y954365D01*
X1244600Y904766D02*
Y974685D01*
X1239520Y904766D02*
Y925964D01*
X1234440Y904766D02*
Y916479D01*
Y884516D02*
Y891734D01*
X1224580Y970280D02*
X1249005D01*
X1212445Y975360D02*
X1243925D01*
X1230855Y965200D02*
X1254085D01*
X1229360Y904766D02*
Y910876D01*
Y884516D02*
Y891734D01*
X1224280Y904766D02*
Y907029D01*
Y884516D02*
Y891734D01*
X1285240Y854760D02*
Y883740D01*
X1290320Y854836D02*
Y883664D01*
X1280160Y852807D02*
Y885693D01*
X1257516Y848360D02*
X1275526D01*
X1275080Y847652D02*
Y890848D01*
X1270000Y825215D02*
Y891734D01*
X1259840Y835375D02*
Y891734D01*
X1264920Y830295D02*
Y891734D01*
X1253535Y868680D02*
X1560000D01*
X1248455Y873760D02*
X1560000D01*
X1257317Y863600D02*
X1560000D01*
X1237722Y883920D02*
X1284408D01*
X1243375Y878840D02*
X1560000D01*
X1257516Y858520D02*
X1560000D01*
X1257516Y853440D02*
X1281303D01*
X1257516Y843280D02*
X1273347D01*
X1280160Y815055D02*
Y827193D01*
X1272255Y822960D02*
X1560000D01*
X1277335Y817880D02*
X1560000D01*
X1275080Y820135D02*
Y832348D01*
X1267175Y828040D02*
X1278920D01*
X1290320Y812836D02*
Y825164D01*
X1290538Y812800D02*
X1340462D01*
X1285240Y812760D02*
Y825240D01*
X1282415Y812800D02*
X1285462D01*
X1257516Y837699D02*
X1283041Y812174D01*
X1257516Y838200D02*
X1273092D01*
X1262095Y833120D02*
X1274653D01*
X1164585Y817880D02*
X1258905D01*
X1169665Y812800D02*
X1263985D01*
X1246393Y830393D02*
X1273826Y802959D01*
X1174745Y807720D02*
X1269065D01*
X1259840Y762516D02*
Y816945D01*
X1264920Y762516D02*
Y811865D01*
X1249680Y872535D02*
Y891734D01*
X1244600Y877615D02*
Y891734D01*
X1239520Y882693D02*
Y891734D01*
X1254760Y867455D02*
Y891734D01*
X1239607Y882607D02*
X1255608Y866608D01*
X1239520Y762516D02*
Y864265D01*
X1234516Y863600D02*
X1240185D01*
X1234440Y867516D02*
Y869345D01*
X1136150Y884516D02*
X1235000D01*
X1179667Y868680D02*
X1235105D01*
X1229360Y867516D02*
Y871484D01*
X1138849D02*
X1232301D01*
X1244484Y859301D01*
X1199484Y867516D02*
X1234516D01*
X1224280D02*
Y871484D01*
X1234516Y822484D02*
Y867516D01*
X1257516Y837699D02*
Y862000D01*
X1234516Y848360D02*
X1244484D01*
Y835000D02*
Y859301D01*
X1234516Y843280D02*
X1244484D01*
X1249680Y762516D02*
Y827105D01*
X1254760Y762516D02*
Y822025D01*
X1244600Y762516D02*
Y833776D01*
X1234516Y833120D02*
X1244761D01*
X1234516Y838200D02*
X1244484D01*
X1234516Y828040D02*
X1248745D01*
X1234516Y858520D02*
X1244484D01*
X1234516Y853440D02*
X1244484D01*
X1234516Y822960D02*
X1253825D01*
X1199484Y822484D02*
X1234516D01*
X1229360Y762516D02*
Y822484D01*
X1234440Y762516D02*
Y822484D01*
X1500603Y716280D02*
X1560000D01*
X1497963Y721360D02*
X1560000D01*
X1502057Y711200D02*
X1560000D01*
X1485771Y731520D02*
X1560000D01*
X1493640Y726440D02*
X1560000D01*
X1500539Y695960D02*
X1560000D01*
X1497856Y690880D02*
X1560000D01*
X1493465Y685800D02*
X1560000D01*
X1502516Y706120D02*
X1560000D01*
X1502027Y701040D02*
X1560000D01*
X1485387Y680720D02*
X1560000D01*
X1439252D02*
X1464612D01*
X1452880Y667092D02*
Y689834D01*
X1434172Y685800D02*
X1456534D01*
X1468120Y651852D02*
Y679558D01*
X1478280Y641692D02*
Y678880D01*
X1457960Y662012D02*
Y684595D01*
X1463040Y656932D02*
Y681419D01*
X1464652Y655320D02*
X1560000D01*
X1459572Y660400D02*
X1560000D01*
X1469732Y650240D02*
X1560000D01*
X1473200Y646772D02*
Y678743D01*
X1474812Y645160D02*
X1560000D01*
X1468120Y639852D02*
Y641908D01*
X1467892Y640080D02*
X1469948D01*
X1479892D02*
X1560000D01*
X1463040Y644932D02*
Y646988D01*
X1462812Y645160D02*
X1464868D01*
X1449412Y670560D02*
X1560000D01*
X1444332Y675640D02*
X1560000D01*
X1454492Y665480D02*
X1560000D01*
X1452880Y655092D02*
Y657148D01*
X1452652Y655320D02*
X1454708D01*
X1457960Y650012D02*
Y652068D01*
X1457732Y650240D02*
X1459788D01*
X1446016Y645160D02*
X1452868D01*
X1451096Y640080D02*
X1457948D01*
X1429092Y690880D02*
X1452143D01*
X1424012Y695960D02*
X1449460D01*
X1427252Y680720D02*
X1429308D01*
X1422400Y685572D02*
Y687628D01*
X1427480Y680492D02*
Y682548D01*
X1447800Y672172D02*
Y702039D01*
X1432332Y675640D02*
X1434388D01*
X1437640Y670332D02*
Y672388D01*
X1432560Y675412D02*
Y677468D01*
X1422400Y668776D02*
Y675628D01*
X1418932Y701040D02*
X1447972D01*
X1417092Y690880D02*
X1419148D01*
X1412488Y695484D02*
X1414544D01*
X1422172Y685800D02*
X1424228D01*
X1415536Y675640D02*
X1422388D01*
X1417320Y690652D02*
Y692708D01*
Y673856D02*
Y680708D01*
X1447800Y660172D02*
Y662228D01*
X1442492Y665480D02*
X1444548D01*
X1447572Y660400D02*
X1449628D01*
X1437412Y670560D02*
X1439468D01*
X1442720Y665252D02*
Y667308D01*
Y648456D02*
Y655308D01*
X1440936Y650240D02*
X1447788D01*
X1447800Y643376D02*
Y650228D01*
X1437640Y653536D02*
Y660388D01*
X1435856Y655320D02*
X1442708D01*
X1432560Y658616D02*
Y665468D01*
X1425696Y665480D02*
X1432548D01*
X1430776Y660400D02*
X1437628D01*
X1420616Y670560D02*
X1427468D01*
X1427480Y663696D02*
Y670548D01*
X1417320Y643516D02*
Y653911D01*
X1422400Y643516D02*
Y648831D01*
X1510372Y609600D02*
X1560000D01*
X1505292Y614680D02*
X1560000D01*
X1515452Y604520D02*
X1560000D01*
X1498600Y621372D02*
Y692052D01*
X1500212Y619760D02*
X1560000D01*
X1503680Y579266D02*
Y606348D01*
X1502477Y604520D02*
X1505508D01*
X1502516Y579266D02*
Y604000D01*
X1490052Y629920D02*
X1560000D01*
X1484972Y635000D02*
X1560000D01*
X1495132Y624840D02*
X1560000D01*
X1498600Y609372D02*
Y611428D01*
X1498372Y609600D02*
X1500428D01*
X1418492Y701480D02*
X1526481Y593492D01*
X1414544Y695484D02*
X1520484Y589544D01*
X1412488Y695484D02*
X1501481Y606492D01*
X1495484Y579266D02*
Y602544D01*
X1525612Y594360D02*
X1560000D01*
X1520532Y599440D02*
X1560000D01*
X1527516Y589280D02*
X1560000D01*
X1527516Y579266D02*
X1533016D01*
X1527516Y584200D02*
X1560000D01*
X1533016Y579120D02*
X1560000D01*
X1527516Y579266D02*
Y591000D01*
X1520484Y579266D02*
Y589544D01*
X1502516Y594360D02*
X1515668D01*
X1502516Y599440D02*
X1510588D01*
X1502516Y589280D02*
X1520484D01*
X1480700D02*
X1495484D01*
X1480219Y584200D02*
X1495484D01*
X1502516D02*
X1520484D01*
X1514984Y579266D02*
X1520484D01*
X1518920D02*
Y591108D01*
X1502516Y579266D02*
X1508016D01*
X1488440Y631532D02*
Y682190D01*
X1483360Y636612D02*
Y679985D01*
X1478052Y629920D02*
X1480108D01*
X1473200Y634772D02*
Y636828D01*
X1478280Y629692D02*
Y631748D01*
X1493520Y626452D02*
Y685850D01*
X1483132Y624840D02*
X1485188D01*
X1488440Y619532D02*
Y621588D01*
X1483360Y624612D02*
Y626668D01*
X1473200Y617976D02*
Y624828D01*
X1472972Y635000D02*
X1475028D01*
X1456176D02*
X1463028D01*
X1461256Y629920D02*
X1468108D01*
X1452880Y638296D02*
Y645148D01*
X1457960Y633216D02*
Y640068D01*
X1428695Y642480D02*
X1469054Y602121D01*
X1466336Y624840D02*
X1473188D01*
X1463040Y628136D02*
Y634988D01*
X1468120Y623056D02*
Y629908D01*
X1493520Y614452D02*
Y616508D01*
X1488212Y619760D02*
X1490268D01*
X1493292Y614680D02*
X1495348D01*
X1479910D02*
X1483348D01*
X1480798Y609600D02*
X1488428D01*
X1480752Y599440D02*
X1495484D01*
X1480121Y594360D02*
X1495484D01*
X1489984Y579266D02*
X1495484D01*
X1480019Y604520D02*
X1493508D01*
X1493520Y579266D02*
Y604508D01*
X1471416Y619760D02*
X1478268D01*
X1478280Y616247D02*
Y619748D01*
X1358010Y797560D02*
X1560000D01*
X1357281Y802640D02*
X1560000D01*
X1356965Y792480D02*
X1560000D01*
X1353636Y787400D02*
X1560000D01*
X1341120Y770898D02*
Y783102D01*
X1356360Y762855D02*
Y791145D01*
X1351280Y768527D02*
Y785473D01*
X1353135Y767080D02*
X1560000D01*
X1336040Y769306D02*
Y784694D01*
X1346200Y770671D02*
Y783329D01*
X1298636Y787400D02*
X1332364D01*
X1200145Y782320D02*
X1560000D01*
X1205225Y777240D02*
X1560000D01*
X1302281Y802640D02*
X1328719D01*
X1301965Y792480D02*
X1329035D01*
X1210305Y772160D02*
X1560000D01*
X1330960Y764973D02*
Y789027D01*
X1298135Y767080D02*
X1332865D01*
X1357988Y756920D02*
X1560000D01*
X1356765Y762000D02*
X1560000D01*
X1354836Y746760D02*
X1560000D01*
X1301765Y762000D02*
X1329235D01*
X1357428Y751840D02*
X1560000D01*
X1356360Y702516D02*
Y749145D01*
X1351280Y702516D02*
Y743473D01*
X1347519Y741680D02*
X1560000D01*
X1336040Y702516D02*
Y742694D01*
X1346200Y702516D02*
Y741329D01*
X1081856Y726440D02*
X1456359D01*
X1081856Y731520D02*
X1464228D01*
X1081856Y721360D02*
X1452036D01*
X1299836Y746760D02*
X1331163D01*
X1292519Y741680D02*
X1338481D01*
X1081856Y716280D02*
X1449396D01*
X1263510Y711200D02*
X1447942D01*
X1265236Y706120D02*
X1447484D01*
X1263703Y702516D02*
X1416000D01*
X1303010Y797560D02*
X1327991D01*
X1295400Y769066D02*
Y784934D01*
X1290320Y770836D02*
Y783164D01*
X1280160Y768807D02*
Y785193D01*
X1285240Y770760D02*
Y783240D01*
X1302988Y756920D02*
X1328012D01*
X1302428Y751840D02*
X1328572D01*
X1275080Y763652D02*
Y790348D01*
X1300480Y764351D02*
Y789650D01*
X1189985Y792480D02*
X1274035D01*
X1195065Y787400D02*
X1277364D01*
X1179825Y802640D02*
X1273719D01*
X1184905Y797560D02*
X1272990D01*
X1215385Y767080D02*
X1277865D01*
X1270000Y762516D02*
Y806785D01*
X1219949Y762516D02*
X1274471D01*
X1300480Y702516D02*
Y747650D01*
X1285240Y702516D02*
Y741240D01*
X1290320Y702516D02*
Y741164D01*
X1259840Y713174D02*
Y749484D01*
X1264920Y708845D02*
Y749484D01*
X1275080Y702516D02*
Y748348D01*
X1270000Y702516D02*
Y749484D01*
X1295400Y702516D02*
Y742934D01*
X1264920Y702516D02*
Y704655D01*
X1254760Y713266D02*
Y749484D01*
X1249680Y713266D02*
Y749484D01*
X1217250D02*
X1274471D01*
X1239520Y713266D02*
Y749484D01*
X1244600Y713266D02*
Y749484D01*
X1081856Y713266D02*
X1258750D01*
X1229360D02*
Y749484D01*
X1234440Y713266D02*
Y749484D01*
X1407160Y684016D02*
Y690868D01*
X1400296Y690880D02*
X1407148D01*
X1405376Y685800D02*
X1412228D01*
X1402080Y689096D02*
Y690984D01*
X1400192D02*
X1407044D01*
X1495484Y602544D01*
X1400192Y690984D02*
X1474034Y617141D01*
X1388947Y682284D02*
X1469062Y602169D01*
X1412240Y678936D02*
Y685788D01*
X1381760Y643516D02*
Y682284D01*
X1366520Y643516D02*
Y682284D01*
X1361440Y643516D02*
Y682284D01*
X1197256D02*
X1388947D01*
X1341120Y702516D02*
Y741102D01*
X1356360Y643516D02*
Y682284D01*
X1346200Y643516D02*
Y682284D01*
X1351280Y643516D02*
Y682284D01*
X1336040Y643516D02*
Y682284D01*
X1341120Y643516D02*
Y682284D01*
X1410456Y680720D02*
X1417308D01*
X1407160Y643516D02*
Y664071D01*
X1412240Y643516D02*
Y658991D01*
X1397000Y643516D02*
Y674231D01*
X1402080Y643516D02*
Y669151D01*
X1386840Y643516D02*
Y682284D01*
X1376680Y643516D02*
Y682284D01*
X1391920Y643516D02*
Y679311D01*
X1371600Y643516D02*
Y682284D01*
X1359016Y581484D02*
X1369747D01*
X1196856Y670560D02*
X1400671D01*
X1196822Y665480D02*
X1405751D01*
X1261402Y660400D02*
X1410831D01*
X1196356Y680720D02*
X1390511D01*
X1196856Y675640D02*
X1395591D01*
X1218853Y645160D02*
X1426071D01*
X1218572Y643516D02*
X1426203D01*
X1264758Y655320D02*
X1415911D01*
X1262429Y650240D02*
X1420991D01*
X1330960Y643516D02*
Y682284D01*
Y702516D02*
Y747027D01*
X1325880Y643516D02*
Y682284D01*
X1315720Y643516D02*
Y682284D01*
X1320800Y643516D02*
Y682284D01*
X1305560Y643516D02*
Y682284D01*
X1300480Y643516D02*
Y682284D01*
X1310640Y643516D02*
Y682284D01*
X1290320Y643516D02*
Y682284D01*
X1295400Y643516D02*
Y682284D01*
X1280160Y643516D02*
Y682284D01*
Y702516D02*
Y743193D01*
X1259840Y660917D02*
Y682284D01*
X1234440Y658516D02*
Y682284D01*
X1254760Y659502D02*
Y682284D01*
X1275080Y643516D02*
Y682284D01*
X1285240Y643516D02*
Y682284D01*
X1264920Y643516D02*
Y682284D01*
X1270000Y643516D02*
Y682284D01*
X1249680Y658516D02*
Y682284D01*
X1239520Y658516D02*
Y682284D01*
X1244600Y658516D02*
Y682284D01*
X1254760Y643516D02*
Y650498D01*
X1259840Y643516D02*
Y649084D01*
X1244600Y643516D02*
Y651484D01*
X1249680Y643516D02*
Y651484D01*
X1216781Y658516D02*
X1253868D01*
X1088372Y660400D02*
X1256098D01*
X1218849Y650240D02*
X1255071D01*
X1229360Y658516D02*
Y682284D01*
X1218572Y651484D02*
X1253868D01*
X1234440Y643516D02*
Y651484D01*
X1239520Y643516D02*
Y651484D01*
X1224280Y643516D02*
Y651484D01*
X1229360Y643516D02*
Y651484D01*
X1178560Y1012516D02*
Y1050880D01*
X1165000Y1065000D02*
Y1230000D01*
X1188720Y1012516D02*
Y1040720D01*
X1157190Y1112520D02*
X1165000D01*
X1157538Y1107440D02*
X1165000D01*
X1173480Y1012516D02*
Y1055960D01*
X1165000Y1064440D02*
X1216924Y1012516D01*
X1183640D02*
Y1045800D01*
X1163320Y1012516D02*
Y1230000D01*
X1168400Y1012516D02*
Y1061040D01*
X1155858Y1117600D02*
X1165000D01*
X1153372Y1122680D02*
X1165000D01*
X1156938Y1102360D02*
X1165000D01*
X1142095Y1132840D02*
X1165000D01*
X1149292Y1127760D02*
X1165000D01*
X1147822Y1087120D02*
X1165000D01*
X1138832Y1082040D02*
X1165000D01*
X1155325Y1097280D02*
X1165000D01*
X1152480Y1092200D02*
X1165000D01*
X1209040Y1012516D02*
Y1020400D01*
X1203960Y1012516D02*
Y1025480D01*
X1214120Y1012516D02*
Y1015320D01*
X1193800Y1012516D02*
Y1035640D01*
X1198880Y1012516D02*
Y1030560D01*
X1214120Y994766D02*
Y1005484D01*
X1209040Y994766D02*
Y1005484D01*
X1219200Y994766D02*
Y1005484D01*
X1198880Y994766D02*
Y1005484D01*
X1203960Y994766D02*
Y1005484D01*
X1151206D02*
X1223956D01*
X1149750Y1012516D02*
X1216924D01*
X1173480Y994766D02*
Y1005484D01*
X1163320Y994766D02*
Y1005484D01*
X1168400Y994766D02*
Y1005484D01*
X1188720Y994766D02*
Y1005484D01*
X1193800Y994766D02*
Y1005484D01*
X1178560Y994766D02*
Y1005484D01*
X1183640Y994766D02*
Y1005484D01*
X1148080Y1128878D02*
Y1230000D01*
X1143000Y1132377D02*
Y1230000D01*
X1153160Y1123014D02*
Y1230000D01*
X1132840Y1135482D02*
Y1230000D01*
X1137920Y1134471D02*
Y1230000D01*
X1158240Y1012516D02*
Y1230000D01*
X1153160Y1012516D02*
Y1093206D01*
X1148080Y1012094D02*
Y1087342D01*
X1143000Y1007222D02*
Y1083843D01*
X1137920Y1002142D02*
Y1081749D01*
X1122680Y1134626D02*
Y1230000D01*
X1117600Y1132658D02*
Y1230000D01*
X1127760Y1135532D02*
Y1230000D01*
X1107440Y1123821D02*
Y1230000D01*
X1112520Y1129336D02*
Y1230000D01*
X1117600Y985016D02*
Y1083562D01*
X1107440Y985016D02*
Y1092399D01*
X1112520Y985016D02*
Y1086884D01*
X1153160Y994766D02*
Y1005484D01*
X1158240Y994766D02*
Y1005484D01*
X1148080Y993688D02*
Y1002358D01*
X1136322Y990600D02*
X1144805D01*
X1143000Y988795D02*
Y997278D01*
X1137920Y983715D02*
Y992198D01*
X1132840Y997062D02*
Y1080738D01*
X1120794Y985016D02*
X1147258Y1011480D01*
X1131242Y985520D02*
X1139725D01*
X1122680Y986902D02*
Y1081594D01*
X1127760Y991982D02*
Y1080688D01*
X1124742Y979019D02*
X1151206Y1005484D01*
X1126162Y980440D02*
X1134645D01*
X1132840Y978635D02*
Y987118D01*
X1209040Y975959D02*
Y981734D01*
X1203960Y976265D02*
Y981734D01*
X1214120Y974944D02*
Y981734D01*
X1193800Y974781D02*
Y981734D01*
X1198880Y975880D02*
Y981734D01*
X1188720Y972901D02*
Y981734D01*
X1183640Y970098D02*
Y981734D01*
X1219200Y973158D02*
Y981734D01*
X1173480Y960213D02*
Y981734D01*
X1178560Y966090D02*
Y981734D01*
X1147995Y975360D02*
X1196055D01*
X1142915Y970280D02*
X1183920D01*
X1137835Y965200D02*
X1177645D01*
X1123278Y950642D02*
X1154369Y981734D01*
X1132755Y960120D02*
X1173415D01*
X1163320Y904766D02*
Y981734D01*
X1168400Y949806D02*
Y981734D01*
X1158240Y904766D02*
Y981734D01*
X1153160Y908055D02*
Y980525D01*
X1178560Y904766D02*
Y911410D01*
X1151895Y909320D02*
X1180984D01*
X1183640Y904766D02*
Y907402D01*
X1168400Y904766D02*
Y927694D01*
X1173480Y904766D02*
Y917287D01*
X1209040Y884516D02*
Y891734D01*
X1156449Y904766D02*
X1188359D01*
X1183640Y884516D02*
Y891734D01*
X1153160Y884516D02*
Y891761D01*
X1127675Y955040D02*
X1170455D01*
X1122475Y949960D02*
X1168448D01*
X1111516Y924560D02*
X1169521D01*
X1111516Y934720D02*
X1166951D01*
X1111516Y929640D02*
X1167857D01*
X1141525Y919480D02*
X1172061D01*
X1146815Y914400D02*
X1175710D01*
X1142607Y918607D02*
X1156449Y904766D01*
X1127760Y973555D02*
Y982038D01*
X1132840Y920516D02*
Y960205D01*
X1122680Y968475D02*
Y978010D01*
X1148080Y913135D02*
Y975445D01*
X1143000Y918215D02*
Y970365D01*
X1137920Y920516D02*
Y965285D01*
X1127760Y920516D02*
Y955125D01*
X1122680Y920516D02*
Y950114D01*
X1117600Y963395D02*
Y977984D01*
X1115971Y961766D02*
X1147063Y992858D01*
X1112520Y961766D02*
Y977984D01*
X1102360Y961766D02*
Y977984D01*
X1107440Y961766D02*
Y977984D01*
X1117600Y920516D02*
Y948734D01*
X1102360Y936516D02*
Y948734D01*
X1107440Y936516D02*
Y948734D01*
X1143000Y884516D02*
Y899785D01*
X1135301Y907484D02*
X1149143Y893643D01*
X1148080Y884516D02*
Y894705D01*
X1132840Y883613D02*
Y907484D01*
X1127760Y878825D02*
Y907484D01*
X1137920Y884516D02*
Y904865D01*
X1117600Y868665D02*
Y907484D01*
X1122680Y873745D02*
Y907484D01*
X1111516D02*
X1135301D01*
X1111516Y920516D02*
X1138000D01*
X1111516Y904240D02*
X1138545D01*
X1112520Y920516D02*
Y948734D01*
X1111516Y920516D02*
Y936516D01*
Y899160D02*
X1143625D01*
X1111516Y894080D02*
X1148705D01*
X1111516Y891484D02*
Y907484D01*
X1112520Y863585D02*
Y907484D01*
X1096818Y1107440D02*
X1102522D01*
X1095524Y1112520D02*
X1102870D01*
X1094415Y1102360D02*
X1103121D01*
X1087120Y1115941D02*
Y1230000D01*
X1092200Y1115383D02*
Y1230000D01*
Y1084309D02*
Y1100837D01*
X1087120Y1084956D02*
Y1100278D01*
X1064843Y1137920D02*
X1165000D01*
X1062334Y1143000D02*
X1165000D01*
X1069072Y1132840D02*
X1117965D01*
X1074152Y1127760D02*
X1110768D01*
X1075396Y1122680D02*
X1106688D01*
X1075396Y1092200D02*
X1107580D01*
X1075396Y1087120D02*
X1112238D01*
X1075396Y1117600D02*
X1104202D01*
X1075396Y1097280D02*
X1104735D01*
X1094690Y1082040D02*
X1121227D01*
X1095792Y1076960D02*
X1165000D01*
X1092143Y1071880D02*
X1165000D01*
X1075396Y1066800D02*
X1165000D01*
X1075396Y1061720D02*
X1167720D01*
X1075396Y1071880D02*
X1085517D01*
X1075396Y1041400D02*
X1188040D01*
X1075396Y1046480D02*
X1182960D01*
X1075396Y1036320D02*
X1193120D01*
X1075396Y1056640D02*
X1172800D01*
X1075396Y1051560D02*
X1177880D01*
X1075396Y1021080D02*
X1208360D01*
X1075396Y1016000D02*
X1213440D01*
X1075396Y1031240D02*
X1198200D01*
X1075396Y1026160D02*
X1203280D01*
X1056640Y1143713D02*
Y1230000D01*
X1051560Y1141626D02*
Y1230000D01*
X1061720Y1143386D02*
Y1230000D01*
X1036320Y1141626D02*
Y1230000D01*
X1041400Y1141626D02*
Y1230000D01*
X1071880Y1130032D02*
Y1230000D01*
X1066800Y1135112D02*
Y1230000D01*
X1082040Y1112371D02*
Y1230000D01*
X1046480Y1141626D02*
Y1230000D01*
X1031240Y1143622D02*
Y1230000D01*
X1026160Y1143501D02*
Y1230000D01*
X1032334Y1143000D02*
X1055326D01*
X1016000Y1144574D02*
Y1230000D01*
X1021080Y1144798D02*
Y1230000D01*
X1023917Y1143000D02*
X1025326D01*
X1075396Y1112520D02*
X1082136D01*
X1064768Y1137144D02*
X1074361Y1127552D01*
X1082040Y1080029D02*
Y1103849D01*
X1075396Y1102360D02*
X1083245D01*
X1075396Y1082040D02*
X1082970D01*
X1075396Y1107440D02*
X1080842D01*
X1075396Y1076960D02*
X1081868D01*
X1033712Y1134594D02*
X1053948D01*
X1033712Y1141626D02*
X1053948D01*
X1031732Y1132840D02*
X1055928D01*
X1023522D02*
X1025928D01*
X1059796Y1132172D02*
X1068364Y1123604D01*
X1102360Y985016D02*
Y1230000D01*
X1097280Y985016D02*
Y1230000D01*
X1076762Y985016D02*
X1120794D01*
X1092200D02*
Y1071911D01*
X1087120Y985016D02*
Y1071264D01*
X1092200Y961766D02*
Y977984D01*
X1087120Y961766D02*
Y977984D01*
X1097280Y961766D02*
Y977984D01*
X1076960Y985016D02*
Y1230000D01*
X1082040Y985016D02*
Y1076191D01*
X1075396Y1005840D02*
X1141618D01*
X1075396Y1010920D02*
X1146698D01*
X1075396Y1000760D02*
X1136538D01*
X1075396Y995680D02*
X1131458D01*
X1075396Y990600D02*
X1126378D01*
X1076356Y985520D02*
X1121298D01*
X1075396Y986382D02*
Y1125060D01*
X1082040Y961766D02*
Y977984D01*
X1076960Y961766D02*
Y977984D01*
X1076762D02*
X1122250D01*
X1071880Y961766D02*
Y975484D01*
X1076960Y937717D02*
Y948734D01*
X1097280Y936516D02*
Y948734D01*
X1092200Y936516D02*
Y948734D01*
X1077552Y936516D02*
X1111516D01*
X1082040D02*
Y948734D01*
X1087120Y936516D02*
Y948734D01*
X1071880Y938267D02*
Y948734D01*
X1052556Y934720D02*
X1070644D01*
X1052556Y929640D02*
X1070644D01*
X1052556Y904240D02*
X1070644D01*
Y892410D02*
Y935590D01*
X1052556Y899160D02*
X1070644D01*
X1052556Y894080D02*
X1070644D01*
X1068364Y986382D02*
Y1123604D01*
X1066800Y984723D02*
Y1125168D01*
Y961766D02*
Y978277D01*
X1051560Y961766D02*
Y1134594D01*
X1061720Y961766D02*
Y1130248D01*
Y851516D02*
Y948734D01*
X1056640Y961766D02*
Y1132507D01*
X1066800Y851516D02*
Y948734D01*
X1051560Y937556D02*
Y948734D01*
X1056640Y851516D02*
Y948734D01*
X1041400Y961766D02*
Y1134594D01*
X1036320Y961766D02*
Y1134594D01*
X1046480Y961766D02*
Y1134594D01*
X1031240Y961766D02*
Y1132598D01*
X1016000Y961766D02*
Y1131646D01*
X1026160Y961766D02*
Y1132719D01*
X1046480Y937556D02*
Y948734D01*
X1010920Y961766D02*
Y1230000D01*
X1021080Y961766D02*
Y1131422D01*
X1052556Y919480D02*
X1070644D01*
X1052556Y924560D02*
X1070644D01*
X1052556Y914400D02*
X1070644D01*
X1036320Y937556D02*
Y948734D01*
X1041400Y937556D02*
Y948734D01*
X1052556Y890444D02*
Y937556D01*
Y909320D02*
X1070644D01*
X1031240Y937556D02*
Y948734D01*
X1026160Y937556D02*
Y948734D01*
X1015444Y937556D02*
X1052556D01*
X1016000D02*
Y948734D01*
X1021080Y937556D02*
Y948734D01*
X1010920Y851516D02*
Y948734D01*
X1015444Y890444D02*
Y937556D01*
X1219200Y884516D02*
Y891734D01*
X1214120Y884516D02*
Y891734D01*
X1219200Y867516D02*
Y871484D01*
X1198880Y884516D02*
Y891734D01*
X1203960Y884516D02*
Y891734D01*
X1209040Y867516D02*
Y871484D01*
X1203960Y867516D02*
Y871484D01*
X1214120Y867516D02*
Y871484D01*
X1198880Y783585D02*
Y871484D01*
X1199484Y822484D02*
Y867516D01*
X1180356Y858520D02*
X1199484D01*
X1180356Y863600D02*
X1199484D01*
X1180356Y853440D02*
X1199484D01*
X1188720Y884516D02*
Y891734D01*
X1193800Y884516D02*
Y891734D01*
X1180356Y848360D02*
X1199484D01*
X1180356Y843280D02*
X1199484D01*
X1188720Y793745D02*
Y871484D01*
X1193800Y788665D02*
Y871484D01*
X1219200Y763265D02*
Y822484D01*
X1214120Y768345D02*
Y822484D01*
X1224280Y762516D02*
Y822484D01*
X1203960Y778505D02*
Y822484D01*
X1209040Y773425D02*
Y822484D01*
X1214120Y713266D02*
Y750285D01*
X1203960Y713266D02*
Y760075D01*
X1209040Y713266D02*
Y754995D01*
X1180356Y828040D02*
X1199484D01*
X1180327Y822960D02*
X1199484D01*
X1163516Y818949D02*
X1219949Y762516D01*
X1180356Y838200D02*
X1199484D01*
X1180356Y833120D02*
X1199484D01*
X1152393Y811643D02*
X1212643Y751393D01*
X1198880Y713266D02*
Y765155D01*
X1188720Y713266D02*
Y775315D01*
X1193800Y713266D02*
Y770235D01*
X1178560Y884516D02*
Y891734D01*
X1173480Y884516D02*
Y891734D01*
X1178560Y869657D02*
Y871484D01*
X1163320Y884516D02*
Y891734D01*
X1168400Y884516D02*
Y891734D01*
X1183640Y798825D02*
Y871484D01*
X1173480Y867626D02*
Y871484D01*
X1163320Y867516D02*
Y871484D01*
X1168400Y867516D02*
Y871484D01*
X1158240Y867516D02*
Y871484D01*
Y884516D02*
Y891734D01*
X1136045Y868680D02*
X1174013D01*
X1153160Y867516D02*
Y871484D01*
X1148080Y867516D02*
Y871484D01*
X1139484Y867516D02*
X1173448D01*
X1143000D02*
Y871484D01*
X1137920Y713266D02*
Y870555D01*
X1180356Y823410D02*
Y866590D01*
X1163516Y822484D02*
X1173448D01*
X1163516Y818949D02*
Y822484D01*
X1168400Y814065D02*
Y822484D01*
X1178560Y803905D02*
Y820343D01*
X1173480Y808985D02*
Y822374D01*
X1183640Y713266D02*
Y780395D01*
X1163320Y713266D02*
Y800715D01*
X1173480Y713266D02*
Y790555D01*
X1150484Y816250D02*
Y822484D01*
X1139484D02*
Y867516D01*
Y822484D02*
X1150484D01*
X1148080Y713266D02*
Y822484D01*
X1158240Y713266D02*
Y805795D01*
X1132840Y713266D02*
Y865475D01*
X1143000Y713266D02*
Y822484D01*
X1224280Y713266D02*
Y749484D01*
X1219200Y713266D02*
Y749484D01*
X1224280Y658516D02*
Y682284D01*
X1219200Y658516D02*
Y682284D01*
Y643516D02*
Y651484D01*
X1214120Y659016D02*
Y682284D01*
X1209040Y659016D02*
Y682284D01*
X1203840Y659016D02*
X1214840D01*
X1203960D02*
Y682284D01*
X1195000Y653532D02*
X1200102D01*
X1196463Y646468D02*
X1200102D01*
X1195155Y645160D02*
X1199827D01*
X1169141Y604520D02*
X1199853D01*
X1168170Y599440D02*
X1199863D01*
X1190075Y640080D02*
X1199825D01*
X1189223Y629920D02*
X1199825D01*
X1166836Y584200D02*
X1199904D01*
X1166836Y594360D02*
X1199875D01*
X1166836Y589280D02*
X1199889D01*
X1196356Y681384D02*
X1197256Y682284D01*
X1196856Y666000D02*
Y677000D01*
X1178560Y713266D02*
Y785475D01*
X1196356Y678941D02*
Y681384D01*
X1198880Y653532D02*
Y682284D01*
X1168400Y713266D02*
Y795635D01*
X1153160Y713266D02*
Y810875D01*
X1193800Y653322D02*
Y662100D01*
X1188720Y648715D02*
Y662082D01*
X1183640Y643635D02*
Y662065D01*
X1189722Y639727D02*
X1196463Y646468D01*
X1183503Y643497D02*
X1192503Y652497D01*
X1192016Y635000D02*
X1199824D01*
X1182468Y639870D02*
Y641000D01*
X1163320Y609016D02*
Y662013D01*
X1168400Y606223D02*
Y662023D01*
X1158240Y606223D02*
Y662004D01*
X1125885Y858520D02*
X1139484D01*
X1120805Y853440D02*
X1139484D01*
X1115725Y848360D02*
X1139484D01*
X1130965Y863600D02*
X1139484D01*
X1127760Y713266D02*
Y860395D01*
X1122680Y713266D02*
Y855315D01*
X1110645Y843280D02*
X1139484D01*
X1117600Y713266D02*
Y850235D01*
X1112520Y713266D02*
Y845155D01*
X1107440Y858505D02*
Y891484D01*
X1077552D02*
X1111516D01*
X1100451Y851516D02*
X1131543Y882607D01*
X1097280Y851516D02*
Y891484D01*
X1102360Y853425D02*
Y891484D01*
X1092200Y851516D02*
Y891484D01*
X1107757Y840393D02*
X1138849Y871484D01*
X1082040Y851516D02*
Y891484D01*
X1087120Y851516D02*
Y891484D01*
X1107440Y713266D02*
Y840096D01*
X1102360Y713266D02*
Y838484D01*
X1097280Y713266D02*
Y838484D01*
X1092200Y713266D02*
Y838484D01*
X1082040Y713266D02*
Y838484D01*
X1087120Y713266D02*
Y838484D01*
X1087492Y659520D02*
X1090321Y662348D01*
X1076960Y851516D02*
Y890283D01*
X1071880Y851516D02*
Y889734D01*
Y734266D02*
Y838484D01*
X1046480Y851516D02*
Y890444D01*
X1051560Y851516D02*
Y890444D01*
X1066800Y734266D02*
Y838484D01*
X1061720Y665516D02*
Y838484D01*
X1076960Y734266D02*
Y838484D01*
X1051560Y665516D02*
Y838484D01*
X1056640Y665516D02*
Y838484D01*
X1041400Y851516D02*
Y890444D01*
X1036320Y851516D02*
Y890444D01*
X1015444D02*
X1052556D01*
X1026160Y851516D02*
Y890444D01*
X1031240Y851516D02*
Y890444D01*
X1021080Y851516D02*
Y890444D01*
X1026160Y665516D02*
Y838484D01*
X1016000Y851516D02*
Y890444D01*
X1021080Y662025D02*
Y838484D01*
X1081856Y716234D02*
Y734266D01*
X1063824D02*
X1081856D01*
X1063824Y716234D02*
X1081856D01*
X1063824D02*
Y734266D01*
X1081856Y713266D02*
Y715766D01*
X1069324Y678941D02*
Y697734D01*
X1068824Y666000D02*
Y677000D01*
X1063824Y697734D02*
Y715766D01*
X1066800Y665516D02*
Y697734D01*
X1063824Y715766D02*
X1081856D01*
X1046480Y665516D02*
Y838484D01*
X1063824Y697734D02*
X1069324D01*
X1036320Y665516D02*
Y838484D01*
X1041400Y665516D02*
Y838484D01*
X1031240Y665516D02*
Y838484D01*
X1026028Y665516D02*
X1068853D01*
X1065849Y650240D02*
X1190245D01*
X1065843Y655320D02*
X1199837D01*
X1065853Y645160D02*
X1185165D01*
X1065855Y640080D02*
X1182468D01*
X1065856Y635000D02*
X1179984D01*
X1063838Y658484D02*
X1085000D01*
X1065849Y619760D02*
X1199831D01*
X1065843Y614680D02*
X1199837D01*
X1065836Y609600D02*
X1199844D01*
X1065855Y629920D02*
X1182777D01*
X1065853Y624840D02*
X1199827D01*
X1065805Y594360D02*
X1159804D01*
X1065791Y589280D02*
X1159804D01*
X1065776Y584200D02*
X1159804D01*
X1065827Y604520D02*
X1157499D01*
X1065817Y599440D02*
X1158470D01*
X1027484Y658484D02*
X1040527D01*
X1016000Y656945D02*
Y838484D01*
X1024320Y655320D02*
X1036348D01*
X1036320Y655292D02*
Y658484D01*
X1031240Y650212D02*
Y658484D01*
X1019240Y650240D02*
X1031268D01*
X1026160Y645132D02*
Y657160D01*
X1021080Y640052D02*
Y652080D01*
X1014160Y645160D02*
X1026188D01*
X1007516Y638516D02*
X1027484Y658484D01*
X1009080Y640080D02*
X1021108D01*
X1010920Y651865D02*
Y838484D01*
X1016000Y634972D02*
Y647000D01*
X1010519Y629492D02*
X1038508Y657480D01*
X1007516Y629920D02*
X1010948D01*
X1010920Y629892D02*
Y641920D01*
X1007516Y624840D02*
X1009484D01*
X1007516Y614680D02*
X1009484D01*
X1007516Y609600D02*
X1009484D01*
X1007516Y589280D02*
X1009484D01*
X1007516Y584200D02*
X1009484D01*
X1007516Y599440D02*
X1009484D01*
X1007516Y594360D02*
X1009484D01*
X1533016Y568960D02*
X1560000D01*
X1533016Y574040D02*
X1560000D01*
X1533016Y563880D02*
X1560000D01*
X1508016Y579120D02*
X1514984D01*
X1508016Y574040D02*
X1514984D01*
X1533016Y561234D02*
Y579266D01*
X1514984Y561234D02*
X1533016D01*
Y542734D02*
Y560766D01*
X1508016Y561234D02*
Y579266D01*
X1514984Y561234D02*
Y579266D01*
X1508016Y568960D02*
X1514984D01*
X1480642Y579120D02*
X1489984D01*
X1508016Y563880D02*
X1514984D01*
X1476682Y574040D02*
X1489984D01*
X1481762Y568960D02*
X1489984D01*
Y561234D02*
X1508016D01*
X1489984Y560766D02*
X1508016D01*
X1489984Y561234D02*
Y579266D01*
X1486842Y563880D02*
X1489984D01*
X1533016Y553720D02*
X1560000D01*
X1533016Y558800D02*
X1560000D01*
X1533016Y548640D02*
X1560000D01*
X1533016Y543560D02*
X1560000D01*
X1514984Y542734D02*
X1520484D01*
X1527516D02*
X1533016D01*
X1527516Y538000D02*
Y542734D01*
Y538480D02*
X1560000D01*
X1518920Y537892D02*
Y542734D01*
X1520484Y539456D02*
Y542734D01*
X1514984Y560766D02*
X1533016D01*
X1508016Y558800D02*
X1514984D01*
X1508016Y553720D02*
X1514984D01*
X1508016Y548640D02*
X1514984D01*
X1508016Y543560D02*
X1514984D01*
Y542734D02*
Y560766D01*
X1502516Y538480D02*
X1519508D01*
X1508016Y542734D02*
Y560766D01*
X1502516Y542734D02*
X1508016D01*
X1483360Y567362D02*
Y614668D01*
X1478280Y572442D02*
Y576165D01*
X1359016Y574040D02*
X1377191D01*
X1359016Y568960D02*
X1382271D01*
X1488440Y562282D02*
Y609588D01*
X1475509Y575214D02*
X1489230Y561492D01*
X1359016Y566234D02*
Y581484D01*
Y563880D02*
X1387351D01*
X1359016Y579120D02*
X1372111D01*
X1340984Y566234D02*
X1359016D01*
X1340984Y565766D02*
X1359016D01*
X1300480Y562639D02*
Y571484D01*
X1340984Y566234D02*
Y571484D01*
Y547734D02*
Y565766D01*
X1359016Y547734D02*
Y565766D01*
X1295400Y561373D02*
Y571484D01*
X1480871Y559906D02*
X1483234Y557544D01*
X1480473Y553720D02*
X1483234D01*
X1480509Y558800D02*
X1481978D01*
X1480545Y543560D02*
X1483234D01*
X1480434Y548640D02*
X1483234D01*
X1480352Y538480D02*
X1483234D01*
X1359016Y558800D02*
X1392431D01*
X1359016Y553720D02*
X1397511D01*
X1304906Y558800D02*
X1340984D01*
X1304447Y553720D02*
X1340984D01*
X1359016Y548640D02*
X1402591D01*
X1340984Y547734D02*
X1359016D01*
X1554480Y509516D02*
Y995000D01*
X1549400Y509516D02*
Y995000D01*
X1560000Y509516D02*
Y995000D01*
X1544320Y509516D02*
Y995000D01*
X1539240Y494955D02*
Y995000D01*
X1559560Y509516D02*
Y995000D01*
X1534160Y498014D02*
Y995000D01*
X1529080Y495462D02*
Y542734D01*
X1513840Y532812D02*
Y596188D01*
X1508760Y527732D02*
Y601268D01*
X1503519Y522492D02*
X1520484Y539456D01*
X1503680Y522652D02*
Y542734D01*
X1502516Y520473D02*
Y542734D01*
X1509516Y518544D02*
X1526481Y535508D01*
X1369747Y581484D02*
X1469062Y482169D01*
X1483234Y463500D02*
Y557544D01*
X1524372Y533400D02*
X1560000D01*
X1519292Y528320D02*
X1560000D01*
X1514212Y523240D02*
X1560000D01*
X1502516Y533400D02*
X1514428D01*
X1502516Y528320D02*
X1509348D01*
X1524000Y475516D02*
Y533028D01*
X1518920Y475516D02*
Y527948D01*
X1513840Y463972D02*
Y522868D01*
X1480612Y533400D02*
X1483234D01*
X1480265Y528320D02*
X1483234D01*
X1480672Y523240D02*
X1483234D01*
X1338982D02*
X1427991D01*
X1502516D02*
X1504268D01*
X1427480Y309880D02*
Y523751D01*
X1371600Y490622D02*
Y579631D01*
X1366520Y495702D02*
Y581484D01*
X1376680Y489173D02*
Y574551D01*
X1361440Y500782D02*
Y581484D01*
X1351280Y510942D02*
Y547734D01*
X1397000Y309880D02*
Y554231D01*
X1391920Y309880D02*
Y559311D01*
X1402080Y309880D02*
Y549151D01*
X1381760Y485910D02*
Y569471D01*
X1386840Y309880D02*
Y564391D01*
X1310640Y527016D02*
Y571484D01*
X1305560Y527016D02*
Y571484D01*
X1315720Y527016D02*
Y571484D01*
X1295400Y527016D02*
Y551484D01*
X1300480Y527016D02*
Y550861D01*
X1330960Y527016D02*
Y571484D01*
X1336040Y526168D02*
Y571484D01*
X1320800Y527016D02*
Y571484D01*
X1325880Y527016D02*
Y571484D01*
X1346200Y516022D02*
Y547734D01*
X1341120Y521102D02*
Y547734D01*
X1356360Y505862D02*
Y547734D01*
X1417320Y309880D02*
Y533911D01*
X1412240Y309880D02*
Y538991D01*
X1422400Y309880D02*
Y528831D01*
X1407160Y309880D02*
Y544071D01*
X1336242Y525980D02*
X1373289Y488933D01*
X1310640Y504582D02*
Y519984D01*
X1305560Y509662D02*
Y519984D01*
X1315720Y499502D02*
Y519984D01*
X1295400Y517016D02*
Y519984D01*
X1300480Y514742D02*
Y519984D01*
X1330960Y488852D02*
Y519984D01*
X1332294D02*
X1368317Y483961D01*
X1320800Y494422D02*
Y519984D01*
X1325880Y489342D02*
Y519984D01*
X1285240Y558516D02*
Y571484D01*
X1280160Y558516D02*
Y571484D01*
X1290320Y558516D02*
Y571484D01*
X1259840Y558516D02*
Y571484D01*
X1275080Y558516D02*
Y571484D01*
X1280160Y549016D02*
Y551484D01*
X1270000Y558516D02*
Y571484D01*
X1290320Y549016D02*
Y551484D01*
X1254760Y558516D02*
Y571484D01*
X1264920Y558516D02*
Y571484D01*
X1218719Y568960D02*
X1340984D01*
X1218572Y571484D02*
X1340984D01*
X1218697Y563880D02*
X1340984D01*
X1244600Y558516D02*
Y571484D01*
X1219752Y558800D02*
X1293594D01*
X1249680Y558516D02*
Y571484D01*
X1219673Y558516D02*
X1293499D01*
X1234440D02*
Y571484D01*
X1239520Y558516D02*
Y571484D01*
X1285240Y549016D02*
Y551484D01*
X1275080Y549016D02*
Y551484D01*
X1273984Y549016D02*
X1292016D01*
X1270000D02*
Y551484D01*
X1255484Y549016D02*
X1273516D01*
X1292016Y548640D02*
X1340984D01*
X1264920Y549016D02*
Y551484D01*
X1292016Y543560D02*
X1407671D01*
X1259840Y549016D02*
Y551484D01*
X1255484Y545516D02*
Y549016D01*
X1254760Y545516D02*
Y551484D01*
X1218572D02*
X1296341D01*
X1218619Y548640D02*
X1255484D01*
X1244600Y545516D02*
Y551484D01*
X1249680Y545516D02*
Y551484D01*
X1239520Y545516D02*
Y551484D01*
X1229750Y545516D02*
X1255484D01*
X1234440D02*
Y551484D01*
X1224280Y558516D02*
Y571484D01*
X1219200Y562560D02*
Y571484D01*
X1229360Y558516D02*
Y571484D01*
X1170812Y568960D02*
X1199961D01*
X1175892Y563880D02*
X1199983D01*
X1166836Y579120D02*
X1199922D01*
X1166836Y574040D02*
X1199940D01*
X1198880Y560981D02*
Y646468D01*
X1193800Y558516D02*
Y643805D01*
X1188720Y558516D02*
Y629634D01*
X1229360Y545502D02*
Y551484D01*
X1218589Y543560D02*
X1225537D01*
X1181256Y558516D02*
X1199007D01*
X1179800Y551484D02*
X1200108D01*
X1129406Y548640D02*
X1200061D01*
X1180972Y558800D02*
X1198929D01*
X1137000Y546516D02*
X1185000D01*
X1188720Y544252D02*
Y551484D01*
X1189412Y543560D02*
X1200091D01*
X1292016Y538480D02*
X1412751D01*
X1292016Y530984D02*
Y549016D01*
Y533400D02*
X1417831D01*
X1273516Y530984D02*
Y549016D01*
X1255484Y530984D02*
X1273516D01*
X1285240Y527016D02*
Y530984D01*
X1280160Y527016D02*
Y530984D01*
X1290320Y527016D02*
Y530984D01*
X1273984D02*
Y549016D01*
X1275080Y527016D02*
Y530984D01*
X1255484D02*
Y534484D01*
X1229750D02*
X1255484D01*
X1228517Y533400D02*
X1255484D01*
X1249680Y527016D02*
Y534484D01*
X1244600Y527016D02*
Y534484D01*
X1254760Y527016D02*
Y534484D01*
X1234440Y527016D02*
Y534484D01*
X1239520Y527016D02*
Y534484D01*
X1290320Y517016D02*
Y519984D01*
X1273984Y530984D02*
X1292016D01*
X1280160Y517016D02*
Y519984D01*
X1264920Y527016D02*
Y530984D01*
X1270000Y527016D02*
Y530984D01*
X1275080Y517016D02*
Y519984D01*
X1270000Y517016D02*
Y519984D01*
X1285240Y517016D02*
Y519984D01*
X1259840Y517016D02*
Y519984D01*
X1264920Y517016D02*
Y519984D01*
X1228386Y528320D02*
X1422911D01*
X1227508Y527016D02*
X1333750D01*
X1208039Y519984D02*
X1332294D01*
X1259840Y527016D02*
Y530984D01*
X1249680Y517016D02*
Y519984D01*
X1244600Y517016D02*
Y519984D01*
X1254760Y517016D02*
Y519984D01*
X1234440Y517016D02*
Y519984D01*
X1239520Y517016D02*
Y519984D01*
X1224280Y543516D02*
Y551484D01*
X1218572Y543516D02*
X1225500D01*
X1219200D02*
Y551484D01*
X1229360Y527016D02*
Y534498D01*
X1214120Y527016D02*
Y530984D01*
X1194492Y538480D02*
X1200123D01*
X1193800Y539172D02*
Y551484D01*
X1198880Y534092D02*
Y551484D01*
X1187492Y545480D02*
X1205956Y527016D01*
X1183114Y534964D02*
X1190687Y527390D01*
X1141372Y533400D02*
X1184678D01*
X1205956Y527016D02*
X1218492D01*
X1204652Y528320D02*
X1217614D01*
X1224280Y517016D02*
Y519984D01*
X1209040Y527016D02*
Y530984D01*
Y518983D02*
Y519984D01*
X1219200Y517016D02*
Y519984D01*
X1229360Y517016D02*
Y519984D01*
X1208039D02*
X1211007Y517016D01*
X1214120D02*
Y519984D01*
X1203960Y529012D02*
Y530984D01*
X1203840D02*
X1214840D01*
X1165467Y528320D02*
X1189758D01*
X1188720Y527918D02*
Y529358D01*
X1196856Y521222D02*
X1207058Y511020D01*
X1198880Y495944D02*
Y519198D01*
X1196856Y513000D02*
Y521222D01*
X1542734Y509516D02*
X1560000D01*
X1535445Y497840D02*
X1542734D01*
X1539968Y492760D02*
X1542734D01*
X1538187Y487680D02*
X1542734D01*
X1554480Y482016D02*
Y485484D01*
X1549400Y482016D02*
Y485484D01*
X1560000Y482016D02*
Y485484D01*
X1542734D02*
Y509516D01*
X1534160Y475516D02*
Y485986D01*
X1509516Y513080D02*
X1560000D01*
X1509516Y518160D02*
X1560000D01*
X1509516Y508000D02*
X1542734D01*
X1509516Y502920D02*
X1542734D01*
X1509516Y497840D02*
X1532555D01*
X1531532Y484537D02*
X1533054Y486059D01*
X1509516Y492760D02*
X1528032D01*
X1525502Y488498D02*
X1528059Y491054D01*
X1559560Y482016D02*
Y485484D01*
X1542734D02*
X1560000D01*
X1542734Y482016D02*
X1560000D01*
X1544320D02*
Y485484D01*
X1537266Y472440D02*
X1542734D01*
Y458016D02*
Y482016D01*
X1537266Y469016D02*
Y475516D01*
Y462280D02*
X1542734D01*
X1537266Y466484D02*
Y469016D01*
Y459984D02*
Y462516D01*
X1531532Y477520D02*
X1542734D01*
X1531532Y482600D02*
X1560000D01*
X1537266Y467360D02*
X1542734D01*
X1531532Y475516D02*
Y484537D01*
Y475516D02*
X1537266D01*
Y459984D02*
Y462516D01*
Y457200D02*
X1542734D01*
X1537266Y466484D02*
Y469016D01*
Y462516D02*
Y466484D01*
X1480778Y502920D02*
X1483234D01*
X1480069Y508000D02*
X1483234D01*
X1480823Y492760D02*
X1483234D01*
X1480170Y518160D02*
X1483234D01*
X1480728Y513080D02*
X1483234D01*
X1509516Y487680D02*
X1524893D01*
X1509516Y468296D02*
Y518544D01*
X1524468Y475516D02*
Y486000D01*
X1479959Y497840D02*
X1483234D01*
X1479842Y487680D02*
X1483234D01*
X1518734Y469016D02*
Y475516D01*
X1524468D01*
X1510452Y467360D02*
X1518734D01*
Y466484D02*
Y469016D01*
Y466484D02*
Y469016D01*
Y461516D02*
Y462516D01*
Y461516D02*
Y462516D01*
X1516296Y461516D02*
X1518734D01*
Y462516D02*
Y466484D01*
X1515532Y462280D02*
X1518734D01*
X1509516Y482600D02*
X1524468D01*
X1480852D02*
X1483234D01*
X1509516Y477520D02*
X1524468D01*
X1479756D02*
X1483234D01*
X1509516Y472440D02*
X1518734D01*
X1509516Y468296D02*
X1516296Y461516D01*
X1560000Y430516D02*
Y433984D01*
X1554480Y430516D02*
Y433984D01*
X1542734D02*
X1560000D01*
X1542734D02*
Y457984D01*
X1549400Y430516D02*
Y433984D01*
X1559560Y430516D02*
Y433984D01*
X1544320Y430516D02*
Y433984D01*
X1542734Y430516D02*
X1560000D01*
X1539240Y309880D02*
Y489044D01*
X1542734Y406484D02*
Y430516D01*
X1537266Y452120D02*
X1542734D01*
X1537266Y453484D02*
Y456016D01*
Y447040D02*
X1542734D01*
X1537266Y446984D02*
Y449516D01*
Y446984D02*
Y449516D01*
Y441960D02*
X1542734D01*
X1480812Y426720D02*
X1542734D01*
X1537266Y440484D02*
Y446984D01*
X1518734Y440484D02*
X1537266D01*
X1502498Y381000D02*
X1560000D01*
X1502211Y375920D02*
X1560000D01*
X1500946Y370840D02*
X1560000D01*
X1542734Y406484D02*
X1560000D01*
X1501835Y386080D02*
X1560000D01*
X1559560Y309880D02*
Y406484D01*
X1554480Y309880D02*
Y406484D01*
X1560000Y309880D02*
Y406484D01*
X1544320Y309880D02*
Y406484D01*
X1549400Y309880D02*
Y406484D01*
X1492395Y401320D02*
X1560000D01*
X1482757Y406400D02*
X1560000D01*
X1497212Y396240D02*
X1560000D01*
X1483004Y421640D02*
X1542734D01*
X1481536Y416560D02*
X1542734D01*
X1494592Y360680D02*
X1560000D01*
X1487719Y355600D02*
X1560000D01*
X1500151Y391160D02*
X1560000D01*
X1498544Y365760D02*
X1560000D01*
X1537266Y453484D02*
Y456016D01*
Y459984D01*
Y449516D02*
Y453484D01*
X1505250Y441484D02*
X1518734D01*
X1508760Y309880D02*
Y441484D01*
X1518734Y440484D02*
Y441484D01*
X1498600Y394147D02*
Y446678D01*
X1503680Y309880D02*
Y441854D01*
X1483360Y406215D02*
Y462567D01*
X1478280Y428514D02*
Y476161D01*
X1484270Y461008D02*
X1502758Y442519D01*
X1468120Y425314D02*
Y483111D01*
X1473200Y429011D02*
Y475463D01*
X1488440Y404010D02*
Y456838D01*
X1493520Y400350D02*
Y451758D01*
X1457960Y401605D02*
Y493271D01*
X1463040Y404781D02*
Y488191D01*
X1498600Y309880D02*
Y365853D01*
X1493520Y309880D02*
Y359650D01*
X1488440Y309880D02*
Y355990D01*
X1478280Y407320D02*
Y413886D01*
X1483360Y309880D02*
Y353785D01*
X1529080Y309880D02*
Y440484D01*
X1524000Y309880D02*
Y440484D01*
X1534160Y309880D02*
Y440484D01*
X1513840Y309880D02*
Y441484D01*
X1518920Y309880D02*
Y440484D01*
X1473200Y407457D02*
Y413389D01*
X1468120Y406642D02*
Y417086D01*
X1473200Y309880D02*
Y352543D01*
X1468120Y309880D02*
Y353358D01*
X1478280Y309880D02*
Y352680D01*
X1457960Y309880D02*
Y358395D01*
X1463040Y309880D02*
Y355219D01*
X1359302Y502920D02*
X1448311D01*
X1354222Y508000D02*
X1443231D01*
X1364382Y497840D02*
X1453391D01*
X1344062Y518160D02*
X1433071D01*
X1349142Y513080D02*
X1438151D01*
X1369462Y492760D02*
X1458471D01*
X1333118Y487680D02*
X1364598D01*
X1322462Y492760D02*
X1359518D01*
X1307222Y508000D02*
X1344278D01*
X1302142Y513080D02*
X1339198D01*
X1312302Y502920D02*
X1349358D01*
X1209863Y518160D02*
X1334118D01*
X1236787Y497840D02*
X1307438D01*
X1299242Y515980D02*
X1326289Y488933D01*
X1317382Y497840D02*
X1354438D01*
X1295294Y509984D02*
X1321317Y483961D01*
X1244204Y492760D02*
X1312518D01*
X1382968Y482600D02*
X1468631D01*
X1380118Y487680D02*
X1463551D01*
X1381713Y477520D02*
X1470244D01*
X1335968Y482600D02*
X1368032D01*
X1334713Y477520D02*
X1369287D01*
X1256896Y462280D02*
X1483452D01*
X1256862Y467360D02*
X1483234D01*
X1256235Y457200D02*
X1488078D01*
X1256131Y472440D02*
X1483234D01*
X1254660Y477520D02*
X1322287D01*
X1254840Y452120D02*
X1493158D01*
X1249003Y487680D02*
X1317598D01*
X1252349Y482600D02*
X1321032D01*
X1244762Y436880D02*
X1542734D01*
X1237714Y431800D02*
X1560000D01*
X1252618Y447040D02*
X1498238D01*
X1249387Y441960D02*
X1503483D01*
X1224280Y501774D02*
Y509984D01*
X1214120Y501706D02*
Y509984D01*
X1219200Y502085D02*
Y509984D01*
X1249680Y486787D02*
Y509984D01*
X1239520Y496266D02*
Y509984D01*
X1254760Y477245D02*
Y509984D01*
X1229360Y500754D02*
Y509984D01*
X1234440Y498961D02*
Y509984D01*
X1211007Y517016D02*
X1296750D01*
X1209550Y509984D02*
X1295294D01*
X1196856Y518160D02*
X1199918D01*
X1196856Y513080D02*
X1204998D01*
X1209040Y500613D02*
Y510021D01*
X1203960Y498739D02*
Y514118D01*
X1244600Y492407D02*
Y509984D01*
X1176356Y508000D02*
X1297278D01*
X1176186Y502920D02*
X1302358D01*
X1193800Y491948D02*
Y509100D01*
X1188720Y486090D02*
Y509082D01*
X1183640Y475755D02*
Y509064D01*
X1176056Y447040D02*
X1186282D01*
X1171652Y497840D02*
X1202113D01*
X1169016Y492760D02*
X1194696D01*
X1169016Y487680D02*
X1189897D01*
X1169016Y482600D02*
X1186551D01*
X1175016Y477520D02*
X1184240D01*
X1123266Y436880D02*
X1194138D01*
X1123266Y431800D02*
X1201186D01*
X1176056Y452120D02*
X1184060D01*
X1117766Y441960D02*
X1189513D01*
X1452880Y396366D02*
Y498351D01*
X1447800Y384160D02*
Y503431D01*
X1437640Y309880D02*
Y513591D01*
X1442720Y309880D02*
Y508511D01*
X1432560Y309880D02*
Y518671D01*
X1381760Y309880D02*
Y477590D01*
X1376680Y309880D02*
Y474327D01*
X1366520Y309880D02*
Y485758D01*
X1371600Y309880D02*
Y475325D01*
X1123266Y426720D02*
X1469187D01*
X1077412Y416560D02*
X1468463D01*
X1163502Y411480D02*
X1542734D01*
X1123266Y421640D02*
X1466996D01*
X1169572Y406400D02*
X1467243D01*
X1174652Y401320D02*
X1457605D01*
X1178156Y396240D02*
X1452787D01*
X1356360Y309880D02*
Y495918D01*
X1361440Y309880D02*
Y490838D01*
X1183915Y370840D02*
X1449053D01*
X1179311Y365760D02*
X1451455D01*
X1182361Y355600D02*
X1462281D01*
X1182361Y381000D02*
X1447502D01*
X1184571Y375920D02*
X1447788D01*
X1184571Y350520D02*
X1560000D01*
X1183915Y345440D02*
X1560000D01*
X1179311Y340360D02*
X1560000D01*
X1447800Y309880D02*
Y375840D01*
X1452880Y309880D02*
Y363634D01*
X1158652Y360680D02*
X1455407D01*
X1068315Y335280D02*
X1560000D01*
X1063235Y330200D02*
X1560000D01*
X1178156Y391160D02*
X1449848D01*
X1178156Y386080D02*
X1448164D01*
X1047995Y314960D02*
X1560000D01*
X1041816Y309880D02*
X1560000D01*
X1058155Y325120D02*
X1560000D01*
X1053075Y320040D02*
X1560000D01*
X1320800Y309880D02*
Y484478D01*
X1315720Y309880D02*
Y489558D01*
X1325880Y309880D02*
Y474705D01*
X1305560Y309880D02*
Y499718D01*
X1310640Y309880D02*
Y494638D01*
X1346200Y309880D02*
Y506078D01*
X1341120Y309880D02*
Y511158D01*
X1351280Y309880D02*
Y500998D01*
X1336040Y309880D02*
Y516238D01*
X1330960Y309880D02*
Y474648D01*
X1275080Y309880D02*
Y509984D01*
X1270000Y309880D02*
Y509984D01*
X1280160Y309880D02*
Y509984D01*
X1259840Y309880D02*
Y509984D01*
X1264920Y309880D02*
Y509984D01*
X1295400Y309880D02*
Y509878D01*
X1300480Y309880D02*
Y504798D01*
X1285240Y309880D02*
Y509984D01*
X1290320Y309880D02*
Y509984D01*
X1234440Y309880D02*
Y430179D01*
X1229360Y309880D02*
Y428387D01*
X1224280Y309880D02*
Y427366D01*
X1214120Y309880D02*
Y427435D01*
X1219200Y309880D02*
Y427055D01*
X1254760Y309880D02*
Y451895D01*
X1249680Y309880D02*
Y442353D01*
X1244600Y309880D02*
Y436732D01*
X1239520Y309880D02*
Y432874D01*
X1203960Y309880D02*
Y430401D01*
X1183640Y379016D02*
Y453385D01*
X1198880Y309880D02*
Y433196D01*
X1209040Y309880D02*
Y428527D01*
X1188720Y309880D02*
Y443050D01*
X1193800Y309880D02*
Y437192D01*
X1183640Y558516D02*
Y629466D01*
X1178560Y561212D02*
Y662049D01*
X1173480Y566292D02*
Y662035D01*
X1168400Y571372D02*
Y599777D01*
X1178560Y546516D02*
Y551710D01*
X1183640Y546516D02*
Y551484D01*
X1168400Y546516D02*
Y561428D01*
X1173480Y546516D02*
Y556348D01*
X1166836Y572936D02*
X1181256Y558516D01*
X1166836Y572936D02*
Y598118D01*
X1159804Y571480D02*
Y598118D01*
X1160839Y568988D02*
X1177308Y552519D01*
X1163320Y546516D02*
Y566508D01*
X1153160Y546516D02*
Y661997D01*
X1158240Y546516D02*
Y599777D01*
X1178560Y527951D02*
Y534964D01*
X1173480Y527965D02*
Y534964D01*
X1183640Y527935D02*
Y534438D01*
X1163320Y529033D02*
Y534964D01*
X1168400Y527977D02*
Y534964D01*
X1158240Y527996D02*
Y534964D01*
X1142936D02*
X1183114D01*
X1155467Y528320D02*
X1160213D01*
X1153160Y529046D02*
Y534964D01*
X1136356Y528320D02*
X1150213D01*
X1148080Y546516D02*
Y661991D01*
X1143000Y546516D02*
Y661987D01*
X1137920Y546516D02*
Y661985D01*
X1127760Y550696D02*
Y661985D01*
X1132840Y543812D02*
Y661984D01*
X1125359Y536332D02*
X1134508Y545480D01*
X1129499Y543560D02*
X1132588D01*
X1127760Y538732D02*
Y541304D01*
X1122680Y551869D02*
Y661987D01*
X1117600Y544595D02*
Y661991D01*
X1115342Y542337D02*
X1118059Y545054D01*
X1107440Y527996D02*
Y662004D01*
X1112520Y528003D02*
Y661997D01*
X1143000Y528013D02*
Y534964D01*
X1136356Y528384D02*
X1142936Y534964D01*
X1137920Y528015D02*
Y529948D01*
X1148080Y528009D02*
Y534964D01*
X1122680Y528013D02*
Y539685D01*
X1124324Y527732D02*
Y533840D01*
X1121475Y538480D02*
X1127508D01*
X1121372Y533400D02*
X1124324D01*
X1121372Y528320D02*
X1124324D01*
X1121372Y538377D02*
X1123054Y540059D01*
X1121372Y527738D02*
Y538377D01*
X1114308Y527738D02*
Y539840D01*
X1178560Y383837D02*
Y509049D01*
X1176356Y504000D02*
Y509268D01*
X1164324Y505324D02*
Y508167D01*
X1163320Y504320D02*
Y507967D01*
X1146356Y508000D02*
X1152089D01*
X1148080Y503243D02*
Y508991D01*
X1135047Y480266D02*
X1160321Y505539D01*
X1141519Y482519D02*
X1164324Y505324D01*
X1146356Y503000D02*
Y509268D01*
X1129799Y484963D02*
X1152781Y507944D01*
X1157701Y502920D02*
X1161920D01*
X1169016Y495204D02*
X1175321Y501508D01*
X1158240Y499240D02*
Y503459D01*
X1153160Y494160D02*
Y498379D01*
X1175016Y462806D02*
Y480266D01*
X1169016D02*
X1175016D01*
Y472440D02*
X1182769D01*
X1173480Y480266D02*
Y499668D01*
X1169016Y480266D02*
Y495204D01*
X1152621Y497840D02*
X1156840D01*
X1146355Y502920D02*
X1147757D01*
X1147541Y492760D02*
X1151760D01*
X1148080Y489080D02*
Y493299D01*
X1142461Y487680D02*
X1146680D01*
X1129778Y484966D02*
X1145321Y500508D01*
X1143000Y484000D02*
Y488219D01*
X1126356Y508000D02*
X1139324D01*
X1126356Y505840D02*
Y509268D01*
X1139324Y504456D02*
Y509268D01*
X1137920Y503052D02*
Y508985D01*
X1132840Y497972D02*
Y508984D01*
X1127760Y492892D02*
Y508985D01*
X1119324Y507296D02*
Y509268D01*
X1117600Y505572D02*
Y508991D01*
X1124892Y502920D02*
X1137788D01*
X1107440Y495412D02*
Y509004D01*
X1112520Y500492D02*
Y508997D01*
X1137381Y482600D02*
X1141600D01*
X1122680Y487812D02*
Y500708D01*
X1137920Y480266D02*
Y483139D01*
X1135047Y480266D02*
X1140492D01*
X1134984Y462806D02*
Y478380D01*
X1132840Y411516D02*
Y474369D01*
X1127760Y411516D02*
Y472788D01*
X1119812Y497840D02*
X1132708D01*
X1114732Y492760D02*
X1127628D01*
X1109652Y487680D02*
X1122548D01*
X1117600Y482732D02*
Y495628D01*
X1112520Y477652D02*
Y490548D01*
X1111769Y466742D02*
X1123062Y478034D01*
X1117766Y462794D02*
X1128034Y473062D01*
X1107440Y472572D02*
Y485468D01*
X1109812Y465000D02*
X1123035Y478222D01*
X1087120Y554263D02*
Y659195D01*
X1087426Y553720D02*
X1176108D01*
X1076960Y554263D02*
Y658484D01*
X1082040Y557056D02*
Y658484D01*
X1097280Y527977D02*
Y662023D01*
X1092200Y527965D02*
Y662035D01*
X1102360Y527987D02*
Y662013D01*
X1071880Y545852D02*
Y658484D01*
X1065719Y568960D02*
X1160868D01*
X1065697Y563880D02*
X1165948D01*
X1065673Y558800D02*
X1171028D01*
X1065758Y579120D02*
X1159804D01*
X1065740Y574040D02*
X1159804D01*
X1066800Y543516D02*
Y658484D01*
X1065647Y553720D02*
X1076654D01*
X1087557Y548640D02*
X1118594D01*
X1079532Y543560D02*
X1116565D01*
X1074452Y538480D02*
X1114308D01*
X1073492Y537519D02*
X1081074Y545102D01*
X1087120Y527951D02*
Y547817D01*
X1082040Y527935D02*
Y545024D01*
X1070856Y528320D02*
X1114308D01*
X1076960Y527918D02*
Y540988D01*
X1069544Y543516D02*
X1076102Y550074D01*
X1065619Y548640D02*
X1074668D01*
X1068288Y536484D02*
X1071000D01*
X1065589Y543560D02*
X1069588D01*
X1065572Y543516D02*
X1069544D01*
X1070728Y533400D02*
X1114308D01*
X1068288Y536484D02*
X1069820Y534952D01*
X1044412Y579120D02*
X1046922D01*
X1039836Y574040D02*
X1046940D01*
X1039836Y568960D02*
X1046961D01*
X1039836Y574544D02*
X1046776Y581484D01*
X1007516Y579120D02*
X1009484D01*
X1039836Y563880D02*
X1046983D01*
X1050840Y530984D02*
X1061840D01*
X1039836Y548640D02*
X1047061D01*
X1039836Y543560D02*
X1047091D01*
X1039836Y558800D02*
X1047008D01*
X1039836Y553720D02*
X1047033D01*
X1039836Y528320D02*
X1063824D01*
X1039836Y538480D02*
X1047123D01*
X1039836Y533400D02*
X1047157D01*
X1097280Y489500D02*
Y509023D01*
X1102360Y490332D02*
Y509013D01*
X1087120Y489500D02*
Y509049D01*
X1092200Y489500D02*
Y509035D01*
X1082040Y489500D02*
Y509064D01*
X1070856Y508000D02*
X1119324D01*
X1076960Y417012D02*
Y509082D01*
X1099976Y478004D02*
X1125321Y503348D01*
X1099016Y486988D02*
X1119324Y507296D01*
X1104572Y482600D02*
X1117468D01*
X1099016Y486988D02*
Y489500D01*
X1099375Y477520D02*
X1112388D01*
X1103816Y468948D02*
X1139324Y504456D01*
X1102360Y464973D02*
Y480388D01*
X1099016Y471468D02*
Y477319D01*
X1070856Y497840D02*
X1109868D01*
X1070856Y502920D02*
X1114948D01*
X1070856Y492760D02*
X1104788D01*
X1080984Y489500D02*
X1099016D01*
X1076016Y487680D02*
X1080984D01*
Y471468D02*
Y489500D01*
X1076016Y472440D02*
X1080984D01*
X1076016Y482600D02*
X1080984D01*
X1076016Y477520D02*
X1080984D01*
X1071880Y527900D02*
Y536596D01*
X1070856Y527492D02*
Y532460D01*
Y489266D02*
Y509508D01*
X1063824Y489266D02*
Y531004D01*
X1061720Y489266D02*
Y530984D01*
X1056640Y437332D02*
Y530984D01*
X1046480Y447492D02*
Y581188D01*
X1051560Y442412D02*
Y530984D01*
X1039836Y518160D02*
X1063824D01*
X1039836Y523240D02*
X1063824D01*
X1039836Y513080D02*
X1063824D01*
X1007516Y523240D02*
X1009484D01*
X1007516Y518160D02*
X1009484D01*
X1041400Y452572D02*
Y576108D01*
X1039836Y454136D02*
Y574544D01*
X1007516Y445116D02*
Y638516D01*
X1009484Y460060D02*
Y627000D01*
X1057984Y489266D02*
X1063824D01*
X1039836Y492760D02*
X1063824D01*
X1070856Y489266D02*
X1076016D01*
X1039836Y508000D02*
X1063824D01*
X1039836Y497840D02*
X1063824D01*
X1071880Y489266D02*
Y509100D01*
X1076016Y471234D02*
Y489266D01*
X1057984Y471234D02*
Y489266D01*
X1039836Y472440D02*
X1057984D01*
X1039836Y502920D02*
X1063824D01*
X1007516Y508000D02*
X1009484D01*
X1039836Y487680D02*
X1057984D01*
X1007516Y502920D02*
X1009484D01*
X1007516Y492760D02*
X1009484D01*
X1039836Y482600D02*
X1057984D01*
X1039836Y477520D02*
X1057984D01*
X1007516Y482600D02*
X1009484D01*
X1007516Y477520D02*
X1009484D01*
X1175016Y462806D02*
X1176056D01*
X1175016Y467360D02*
X1182038D01*
X1175016Y462280D02*
X1176056D01*
X1156984Y462806D02*
Y464734D01*
X1155944Y462806D02*
X1156984D01*
X1176056Y462280D02*
X1182004D01*
X1176056Y442694D02*
Y462806D01*
Y457200D02*
X1182665D01*
X1155944Y442694D02*
Y462806D01*
X1153016D02*
X1154056D01*
X1153016Y464734D02*
X1156984D01*
X1155944Y462280D02*
X1156984D01*
X1153016Y462806D02*
Y464734D01*
X1153160Y462806D02*
Y464734D01*
X1154056Y462280D02*
X1155944D01*
X1154056Y457200D02*
X1155944D01*
X1154056Y442694D02*
Y462806D01*
X1153016Y462280D02*
X1154056D01*
X1163320Y411501D02*
Y442694D01*
X1165492Y410480D02*
X1177121Y398852D01*
X1168400Y407572D02*
Y442694D01*
X1173480Y402492D02*
Y442694D01*
X1154056Y447040D02*
X1155944D01*
X1154056Y452120D02*
X1155944D01*
Y442694D02*
X1176056D01*
X1133944D02*
X1154056D01*
X1158240Y411516D02*
Y442694D01*
X1148080Y411516D02*
Y442694D01*
X1153160Y411516D02*
Y442694D01*
X1127412Y472440D02*
X1134984D01*
X1122332Y467360D02*
X1134984D01*
X1133944Y462806D02*
X1134984D01*
X1117766Y462280D02*
X1133944D01*
X1134984D01*
X1133944Y442694D02*
Y462806D01*
X1117766Y457200D02*
X1133944D01*
X1122680Y437016D02*
Y467708D01*
X1117766Y437016D02*
Y462794D01*
X1109812Y462280D02*
X1110734D01*
X1109812Y457200D02*
X1110734D01*
X1109812Y452120D02*
X1110734D01*
X1109812Y450296D02*
Y465000D01*
X1110734Y437016D02*
Y464250D01*
X1117766Y447040D02*
X1133944D01*
X1117766Y452120D02*
X1133944D01*
X1123266Y418984D02*
Y437016D01*
X1117766D02*
X1123266D01*
X1143000Y411516D02*
Y442694D01*
X1137920Y411516D02*
Y442694D01*
X1122680Y411516D02*
Y418984D01*
X1112520Y411516D02*
Y418984D01*
X1117600Y411516D02*
Y418984D01*
X1108012Y447040D02*
X1110734D01*
X1102932Y441960D02*
X1110734D01*
X1105234Y437016D02*
X1110734D01*
X1107440D02*
Y446468D01*
Y411516D02*
Y418984D01*
X1105234D02*
X1123266D01*
X1104766D02*
Y437016D01*
X1105234Y418984D02*
Y437016D01*
X1178156Y383999D02*
Y396360D01*
X1165516Y369000D02*
Y370488D01*
X1163732Y365760D02*
X1169969D01*
X1183640Y353615D02*
Y370224D01*
X1178560Y358437D02*
Y365403D01*
X1173480Y359169D02*
Y364671D01*
X1168400Y357055D02*
Y366785D01*
X1163320Y309880D02*
Y365348D01*
X1137672Y365760D02*
X1144569D01*
X1139236Y364196D02*
X1152224D01*
X1128888Y390000D02*
X1140122Y378765D01*
X1133115Y370840D02*
X1139965D01*
X1156172Y358200D02*
X1164481Y366508D01*
X1158240Y353615D02*
Y360268D01*
X1143000Y364196D02*
Y366785D01*
X1152224Y364196D02*
X1153659Y365632D01*
X1159171Y350520D02*
X1164709D01*
X1156961Y355600D02*
X1166919D01*
X1158515Y345440D02*
X1165365D01*
X1183640Y309880D02*
Y344824D01*
X1178560Y309880D02*
Y340003D01*
X1173480Y309880D02*
Y339271D01*
X1158240Y309880D02*
Y344824D01*
X1168400Y309880D02*
Y341385D01*
X1153911Y340360D02*
X1169969D01*
X1128511D02*
X1144569D01*
X1137780Y357164D02*
X1143140D01*
X1131561Y355600D02*
X1141519D01*
X1153160Y309880D02*
Y340003D01*
X1143000Y309880D02*
Y341385D01*
X1148080Y309880D02*
Y339271D01*
X1132840Y379016D02*
Y386048D01*
X1131561Y381000D02*
X1137888D01*
X1133771Y375920D02*
X1139309D01*
X1122680Y384569D02*
Y390000D01*
X1127760Y383837D02*
Y390000D01*
X1137920Y365512D02*
Y380968D01*
X1132958Y370475D02*
X1139236Y364196D01*
X1127986Y365502D02*
X1135288Y358200D01*
X1117600Y357055D02*
Y366785D01*
Y382455D02*
Y390000D01*
X1106161Y381000D02*
X1116119D01*
X1107715Y370840D02*
X1114565D01*
X1107440Y379016D02*
Y390000D01*
X1108371Y375920D02*
X1113909D01*
X1103111Y365760D02*
X1119169D01*
X1112520Y309880D02*
Y390000D01*
X1107440Y353615D02*
Y370224D01*
X1133771Y350520D02*
X1139309D01*
X1127760Y358437D02*
Y365403D01*
X1132840Y353615D02*
Y360648D01*
X1137920Y309880D02*
Y357164D01*
X1133115Y345440D02*
X1139965D01*
X1132840Y309880D02*
Y344824D01*
X1127760Y309880D02*
Y340003D01*
X1122680Y359169D02*
Y364671D01*
X1106161Y355600D02*
X1116119D01*
X1103111Y340360D02*
X1119169D01*
X1108371Y350520D02*
X1113909D01*
X1107715Y345440D02*
X1114565D01*
X1122680Y309880D02*
Y339271D01*
X1107440Y309880D02*
Y344824D01*
X1117600Y309880D02*
Y341385D01*
X1099453Y467360D02*
X1102898D01*
X1099016Y472440D02*
X1107308D01*
X1102780Y464188D02*
Y466456D01*
X1099016Y467510D02*
Y471000D01*
X1101216Y457200D02*
X1102780D01*
X1099266Y438294D02*
X1108776Y447804D01*
X1102780Y451752D02*
Y459312D01*
X1102360Y451332D02*
Y458527D01*
X1099016Y452968D02*
Y455990D01*
X1080984Y452968D02*
X1099016D01*
X1041852Y452120D02*
X1102780D01*
X1080984Y471468D02*
X1099016D01*
X1080984Y471000D02*
X1099016D01*
X1097280Y446252D02*
Y452968D01*
X1093270Y442242D02*
X1102780Y451752D01*
X1087120Y437016D02*
Y452968D01*
X1092200Y437016D02*
Y452968D01*
X1099266Y437016D02*
Y438294D01*
Y437016D02*
X1104766D01*
X1092234D02*
Y439750D01*
X1102360Y411516D02*
Y418984D01*
Y437016D02*
Y441388D01*
X1097280Y411516D02*
Y418984D01*
X1087120Y411516D02*
Y418984D01*
X1092200Y411516D02*
Y418984D01*
X1052012Y441960D02*
X1093015D01*
X1046932Y447040D02*
X1098068D01*
X1086734Y437016D02*
X1092234D01*
X1057092Y436880D02*
X1086734D01*
X1067252Y426720D02*
X1086734D01*
Y418984D02*
X1104766D01*
X1082456Y411516D02*
X1163000D01*
X1086734Y418984D02*
Y437016D01*
X1072332Y421640D02*
X1086734D01*
X1076016Y467360D02*
X1080984D01*
X1057984Y470766D02*
X1076016D01*
Y462280D02*
X1080984D01*
X1057984Y471234D02*
X1076016D01*
X1039836Y467360D02*
X1057984D01*
X1080984Y452968D02*
Y471000D01*
X1076016Y457200D02*
X1080984D01*
X1082040Y411932D02*
Y452968D01*
X1057984Y452734D02*
Y470766D01*
X1076016Y452734D02*
Y470766D01*
X1039836Y462280D02*
X1057984D01*
X1007516Y472440D02*
X1009484D01*
X1007516Y462280D02*
X1009484D01*
X1039836Y457200D02*
X1057984D01*
X1039836Y454136D02*
X1082456Y411516D01*
X1007516Y457200D02*
X1010888D01*
X1010920Y441712D02*
Y457168D01*
X1071880Y422092D02*
Y452734D01*
X1057984D02*
X1076016D01*
X1062172Y431800D02*
X1086734D01*
X1061720Y432252D02*
Y452734D01*
X1066800Y427172D02*
Y452734D01*
X1041400Y411232D02*
Y426688D01*
X1036072Y416560D02*
X1051528D01*
X1041152Y411480D02*
X1056608D01*
X1031240Y421392D02*
Y436848D01*
X1036320Y416312D02*
Y431768D01*
X1015752Y436880D02*
X1031208D01*
X1010672Y441960D02*
X1026128D01*
X1020832Y431800D02*
X1036288D01*
X1016000Y436632D02*
Y452088D01*
X1007516Y447040D02*
X1021048D01*
X1025912Y426720D02*
X1041368D01*
X1030992Y421640D02*
X1046448D01*
X1021080Y431552D02*
Y447008D01*
X1026160Y426472D02*
Y441928D01*
X1102360Y383837D02*
Y390000D01*
X1088032D02*
X1128888D01*
X1091952Y386080D02*
X1132808D01*
X1092200Y385832D02*
Y390000D01*
X1097280Y384569D02*
Y390000D01*
X1088032D02*
X1094295Y383738D01*
X1087120Y309880D02*
Y380968D01*
X1082971Y375920D02*
X1088509D01*
X1082040Y379016D02*
Y386048D01*
X1066552Y386080D02*
X1082008D01*
X1080761Y381000D02*
X1087088D01*
X1061472Y391160D02*
X1076928D01*
X1076960Y383837D02*
Y391128D01*
X1010519Y457568D02*
X1089322Y378765D01*
X1082315Y370840D02*
X1089165D01*
X1102360Y358437D02*
Y365403D01*
X1097280Y359169D02*
Y364671D01*
X1083056Y340360D02*
X1093769D01*
X1092200Y357055D02*
Y366785D01*
X1083056Y355600D02*
X1090719D01*
X1102360Y309880D02*
Y340003D01*
X1097280Y309880D02*
Y339271D01*
X1083056Y339204D02*
Y359236D01*
X1092200Y309880D02*
Y341385D01*
X1077711Y365760D02*
X1093769D01*
X1063024Y359236D02*
X1083056D01*
Y350520D02*
X1088509D01*
X1082040Y359236D02*
Y370224D01*
X1076960Y359236D02*
Y365403D01*
X1083056Y345440D02*
X1089165D01*
X1072239Y339204D02*
X1083056D01*
X1076960Y309880D02*
Y339204D01*
X1082040Y309880D02*
Y339204D01*
X1056640Y395992D02*
Y411448D01*
X1051312Y401320D02*
X1066768D01*
X1056392Y396240D02*
X1071848D01*
X1046480Y406152D02*
Y421608D01*
X1051560Y401072D02*
Y416528D01*
X1066800Y385832D02*
Y401288D01*
X1061720Y390912D02*
Y406368D01*
X1071880Y384569D02*
Y396208D01*
X1046480Y331875D02*
Y396208D01*
X1051560Y336955D02*
Y391128D01*
X1046232Y406400D02*
X1061688D01*
X1007516Y445116D02*
X1068895Y383738D01*
X1041400Y326795D02*
Y401288D01*
X1031240Y322636D02*
Y411448D01*
X1036320Y322636D02*
Y406368D01*
X1021080Y322636D02*
Y421608D01*
X1026160Y322636D02*
Y416528D01*
X1010920Y321391D02*
Y431768D01*
X1016000Y322636D02*
Y426688D01*
X1071880Y359236D02*
Y364671D01*
X1066800Y359236D02*
Y366785D01*
X1063024Y348419D02*
Y359236D01*
X1056640Y342035D02*
Y386048D01*
X1061720Y347115D02*
Y380968D01*
X1071880Y309880D02*
Y338845D01*
X1066800Y309880D02*
Y333765D01*
X1061720Y309880D02*
Y328685D01*
X1056640Y309880D02*
Y323605D01*
X1044548Y311513D02*
X1072239Y339204D01*
X1037241Y322636D02*
X1063024Y348419D01*
X1051560Y309880D02*
Y318525D01*
X1014750Y322636D02*
X1037241D01*
X1046480Y309880D02*
Y313445D01*
X1010920Y309880D02*
Y310849D01*
X1005840Y1138916D02*
Y1230000D01*
X1000760Y1144897D02*
Y1230000D01*
X1003917Y1143000D02*
X1013743D01*
X985520Y1140352D02*
Y1230000D01*
X995680Y1144424D02*
Y1230000D01*
X980440Y1144980D02*
Y1230000D01*
X983916Y1143000D02*
X993743D01*
X975360Y1144254D02*
Y1230000D01*
X963916Y1143000D02*
X973743D01*
X1005884Y1137920D02*
X1011777D01*
X985883D02*
X991777D01*
X983522Y1132840D02*
X994138D01*
X965883Y1137920D02*
X971776D01*
X954735Y1076960D02*
X1068364D01*
X953385Y1082040D02*
X1068364D01*
X952346Y1071880D02*
X1068364D01*
X963522Y1132840D02*
X974138D01*
X1003522D02*
X1014138D01*
X949112Y1056640D02*
X1068364D01*
X944032Y1051560D02*
X1068364D01*
X938952Y1046480D02*
X1068364D01*
X952346Y1066800D02*
X1068364D01*
X952346Y1061720D02*
X1068364D01*
X923712Y1031240D02*
X1068364D01*
X918632Y1026160D02*
X1068364D01*
X933872Y1041400D02*
X1068364D01*
X928792Y1036320D02*
X1068364D01*
X965200Y1141144D02*
Y1230000D01*
X960120Y1145047D02*
Y1230000D01*
X955040Y1144062D02*
Y1230000D01*
X944880Y1082648D02*
Y1230000D01*
X949960Y1084019D02*
Y1230000D01*
X939800Y1057272D02*
Y1230000D01*
X934720Y1052192D02*
Y1230000D01*
X914027Y1082040D02*
X944275D01*
X909320Y1084608D02*
Y1230000D01*
X914400Y1081491D02*
Y1230000D01*
X924560Y1042032D02*
Y1230000D01*
X929640Y1047112D02*
Y1230000D01*
X919480Y1036952D02*
Y1230000D01*
X915346Y1046830D02*
Y1078110D01*
X945314Y1062786D02*
Y1073229D01*
X915346Y1071880D02*
X945314D01*
X915346Y1076960D02*
X942925D01*
X915346Y1066800D02*
X945314D01*
X952346Y1061330D02*
Y1073229D01*
X944880Y1062352D02*
Y1073572D01*
X915346Y1061720D02*
X944248D01*
X915346Y1051560D02*
X934088D01*
X915346Y1056640D02*
X939168D01*
X915336Y1046480D02*
X929008D01*
X912615Y1041400D02*
X923928D01*
X907535Y1036320D02*
X918848D01*
X914400Y1031872D02*
Y1043449D01*
X909320Y1026792D02*
Y1038105D01*
X1005840Y961766D02*
Y1137304D01*
X995680Y961766D02*
Y1131796D01*
X1000760Y961766D02*
Y1131323D01*
X990600Y961766D02*
Y1230000D01*
X980440Y961766D02*
Y1131240D01*
X1000760Y851516D02*
Y948734D01*
X985520Y961766D02*
Y1135868D01*
X1005840Y851516D02*
Y948734D01*
X980440Y937556D02*
Y948734D01*
X985520Y937556D02*
Y948734D01*
X913552Y1021080D02*
X1068364D01*
X908995Y1016000D02*
X1068364D01*
X906901Y1010920D02*
X1068364D01*
X970280Y961766D02*
Y1230000D01*
X965200Y961766D02*
Y1135076D01*
X930000Y961766D02*
X1115971D01*
X932699Y948734D02*
X1118670D01*
X975360Y961766D02*
Y1131966D01*
X965200Y937556D02*
Y948734D01*
X997556Y929640D02*
X1015444D01*
X997556Y934720D02*
X1015444D01*
X997556Y924560D02*
X1015444D01*
X990600Y937556D02*
Y948734D01*
X995680Y937556D02*
Y948734D01*
X997556Y914400D02*
X1015444D01*
X997556Y919480D02*
X1015444D01*
X997556Y909320D02*
X1015444D01*
X997556Y890444D02*
Y937556D01*
Y904240D02*
X1015444D01*
X928845Y944880D02*
X1167238D01*
X925516Y939800D02*
X1166749D01*
X960444Y937556D02*
X997556D01*
X970280D02*
Y948734D01*
X975360Y937556D02*
Y948734D01*
X960120Y961766D02*
Y1131173D01*
X955040Y961766D02*
Y1132158D01*
X949960Y961766D02*
Y1057488D01*
X944880Y961766D02*
Y1052408D01*
X939800Y961766D02*
Y1047328D01*
X934720Y961766D02*
Y1042248D01*
X944880Y851516D02*
Y948734D01*
X929640Y961756D02*
Y1037168D01*
X924560Y959025D02*
Y1032088D01*
X908938Y1016466D02*
X951310Y1058838D01*
X919480Y953945D02*
Y1027008D01*
X914400Y948865D02*
Y1021928D01*
X914392Y948857D02*
X925393Y959857D01*
X909320Y936516D02*
Y1016848D01*
X942356Y914400D02*
X960444D01*
X942356Y919480D02*
X960444D01*
X942356Y909320D02*
X960444D01*
X942356Y934720D02*
X960444D01*
X942356Y929640D02*
X960444D01*
X960120Y851516D02*
Y948734D01*
X955040Y851516D02*
Y948734D01*
X960444Y890444D02*
Y937556D01*
X949960Y851516D02*
Y948734D01*
X942356Y892410D02*
Y935590D01*
X934720Y936516D02*
Y948734D01*
X925516Y941551D02*
X932699Y948734D01*
X939800Y938972D02*
Y948734D01*
X929640Y936516D02*
Y945675D01*
X912484Y936516D02*
Y944250D01*
X942356Y924560D02*
X960444D01*
X925516Y936516D02*
Y941551D01*
Y936516D02*
X935448D01*
X820000Y1219200D02*
X1165000D01*
X820000Y1224280D02*
X1165000D01*
X820000Y1214120D02*
X1165000D01*
X820000Y1230000D02*
X1165000D01*
X820000Y1229360D02*
X1165000D01*
X820000Y1203960D02*
X1165000D01*
X820000Y1209040D02*
X1165000D01*
X820000Y1198880D02*
X1165000D01*
X904240Y1114025D02*
Y1230000D01*
X820000Y1193800D02*
X1165000D01*
X820000Y1173480D02*
X1165000D01*
X820000Y1178560D02*
X1165000D01*
X820000Y1168400D02*
X1165000D01*
X820000Y1188720D02*
X1165000D01*
X820000Y1183640D02*
X1165000D01*
X820000Y1153160D02*
X1165000D01*
X820000Y1148080D02*
X1165000D01*
X820000Y1163320D02*
X1165000D01*
X820000Y1158240D02*
X1165000D01*
X905524Y1112520D02*
X1068364D01*
X883458Y1117600D02*
X1068364D01*
X906818Y1107440D02*
X1068364D01*
X904415Y1102360D02*
X1068364D01*
X882925Y1097280D02*
X1068364D01*
X904240Y1082735D02*
Y1102195D01*
X876892Y1127760D02*
X1064208D01*
X869695Y1132840D02*
X954138D01*
X880972Y1122680D02*
X1068364D01*
X820000Y1143000D02*
X953743D01*
X820000Y1137920D02*
X951776D01*
X880080Y1092200D02*
X1068364D01*
X875422Y1087120D02*
X1068364D01*
X816800Y1066800D02*
X902314D01*
X801560Y1051560D02*
X902314D01*
X878840Y1125639D02*
Y1230000D01*
X873760Y1130403D02*
Y1230000D01*
X883920Y1116232D02*
Y1230000D01*
X863600Y1134971D02*
Y1230000D01*
X868680Y1133310D02*
Y1230000D01*
X899160Y1116119D02*
Y1230000D01*
X894080Y1114567D02*
Y1230000D01*
X884538Y1102360D02*
X893245D01*
X884790Y1112520D02*
X892136D01*
X885138Y1107440D02*
X890842D01*
X853440Y1135305D02*
Y1230000D01*
X848360Y1134017D02*
Y1230000D01*
X858520Y1135612D02*
Y1230000D01*
X843280Y1131588D02*
Y1230000D01*
X820000Y1132840D02*
X845565D01*
X820000Y1127760D02*
X838368D01*
X838200Y1127594D02*
Y1230000D01*
X820000Y1122680D02*
X834288D01*
X899160Y1085158D02*
Y1100101D01*
X894080Y1083328D02*
Y1101653D01*
X820000Y1092200D02*
X835180D01*
X866432Y1082040D02*
X892970D01*
X902314Y1049529D02*
Y1071974D01*
X899160Y1046375D02*
Y1071062D01*
X894080Y1041295D02*
Y1072892D01*
X820000Y1071880D02*
X895517D01*
X820000Y1076960D02*
X891868D01*
X811720Y1061720D02*
X902314D01*
X820000Y1087120D02*
X839838D01*
X820000Y1082040D02*
X848828D01*
X806640Y1056640D02*
X902314D01*
X796480Y1046480D02*
X899265D01*
X791400Y1041400D02*
X894185D01*
X786320Y1036320D02*
X889105D01*
X903966Y1021438D02*
X945314Y1062786D01*
X894266Y1023051D02*
X913437Y1042222D01*
X902455Y1031240D02*
X913768D01*
X904240Y1021712D02*
Y1033025D01*
X897375Y1026160D02*
X908688D01*
X899160Y1020131D02*
Y1027945D01*
X904240Y936516D02*
Y1009613D01*
X894266Y867516D02*
Y1023051D01*
X899160Y867516D02*
Y1010869D01*
X894266Y1021080D02*
X900751D01*
X883142Y1030358D02*
X902314Y1049529D01*
X894266Y1016000D02*
X897005D01*
X889000Y1036215D02*
Y1230000D01*
X781240Y1031240D02*
X884025D01*
X894266Y1000760D02*
X1068364D01*
X894266Y995680D02*
X1068364D01*
X894266Y1010920D02*
X899099D01*
X894266Y1005840D02*
X1068364D01*
X894266Y975360D02*
X1129565D01*
X894266Y990600D02*
X1068364D01*
X894266Y970280D02*
X1124485D01*
X894266Y985520D02*
X1067404D01*
X894266Y980440D02*
X1065958D01*
X894266Y960120D02*
X925671D01*
X894266Y965200D02*
X1119405D01*
X894266Y955040D02*
X920575D01*
X901484Y891484D02*
Y936516D01*
X912484D01*
X894266Y944880D02*
X912515D01*
X894266Y949960D02*
X915495D01*
X894266Y939800D02*
X912484D01*
X894266Y934720D02*
X901484D01*
X894266Y929640D02*
X901484D01*
X894266Y914400D02*
X901484D01*
X894266Y909320D02*
X901484D01*
X894266Y924560D02*
X901484D01*
X894266Y919480D02*
X901484D01*
X883920Y1031135D02*
Y1099988D01*
X868680Y870021D02*
Y1082910D01*
X881234Y867516D02*
Y1025750D01*
X878840Y867516D02*
Y1090581D01*
X873760Y867516D02*
Y1085818D01*
X863600Y702182D02*
Y1081249D01*
X853440Y749532D02*
Y1080915D01*
X858520Y744452D02*
Y1080608D01*
X776160Y1026160D02*
X881247D01*
X771080Y1021080D02*
X881234D01*
X766000Y1016000D02*
X881234D01*
X760920Y1010920D02*
X881234D01*
X755840Y1005840D02*
X881234D01*
X848360Y754612D02*
Y1082203D01*
X750760Y1000760D02*
X881234D01*
X838200Y867516D02*
Y1088627D01*
X843280Y867516D02*
Y1084632D01*
X821063Y944880D02*
X881234D01*
X819901Y949960D02*
X881234D01*
X821509Y939800D02*
X881234D01*
X815054Y960120D02*
X881234D01*
X817947Y955040D02*
X881234D01*
X818596Y924560D02*
X881234D01*
X815995Y919480D02*
X881234D01*
X821263Y934720D02*
X881234D01*
X820312Y929640D02*
X881234D01*
X530317Y985520D02*
X881234D01*
X425120Y980440D02*
X881234D01*
X793513Y975360D02*
X881234D01*
X745680Y995680D02*
X881234D01*
X532522Y990600D02*
X881234D01*
X812264Y914400D02*
X881234D01*
X806856Y909320D02*
X881234D01*
X804818Y970280D02*
X881234D01*
X810920Y965200D02*
X881234D01*
X997556Y894080D02*
X1015444D01*
X997556Y899160D02*
X1015444D01*
X960444Y890444D02*
X997556D01*
X990600Y851516D02*
Y890444D01*
X995680Y851516D02*
Y890444D01*
X980440Y851516D02*
Y890444D01*
X975360Y851516D02*
Y890444D01*
X985520Y851516D02*
Y890444D01*
X965200Y851516D02*
Y890444D01*
X970280Y851516D02*
Y890444D01*
X942356Y894080D02*
X960444D01*
X939697Y889000D02*
X1073303D01*
X905266Y863600D02*
X1112535D01*
X942356Y904240D02*
X960444D01*
X942356Y899160D02*
X960444D01*
X905266Y858520D02*
X1107455D01*
X905266Y838484D02*
X1103150D01*
X905266Y853440D02*
X1102375D01*
X905266Y851516D02*
X1100451D01*
X905266Y822960D02*
X1139484D01*
X905266Y828040D02*
X1139484D01*
X915266Y762000D02*
X1202035D01*
X905266Y838200D02*
X1139484D01*
X905266Y833120D02*
X1139484D01*
X915266Y751840D02*
X1212195D01*
X915266Y756920D02*
X1207115D01*
X915266Y726440D02*
X1063824D01*
X915266Y721360D02*
X1063824D01*
X915266Y716280D02*
X1063824D01*
X894266Y782320D02*
X1181715D01*
X894266Y787400D02*
X1176635D01*
X894266Y777240D02*
X1186795D01*
X894266Y797560D02*
X1166475D01*
X894266Y792480D02*
X1171555D01*
X894266Y772160D02*
X1191875D01*
X894266Y767080D02*
X1196955D01*
X895095Y711200D02*
X1063824D01*
X900175Y706120D02*
X1063824D01*
X934720Y851516D02*
Y891484D01*
X939800Y851516D02*
Y889028D01*
X919480Y851516D02*
Y891484D01*
X929640Y851516D02*
Y891484D01*
X934720Y702516D02*
Y838484D01*
X929640Y702516D02*
Y838484D01*
X939800Y702516D02*
Y838484D01*
X924560Y851516D02*
Y891484D01*
X919480Y702516D02*
Y838484D01*
X914400Y851516D02*
Y891484D01*
X901484D02*
X935448D01*
X894266Y889000D02*
X937983D01*
X904240Y867516D02*
Y891484D01*
X909320Y851516D02*
Y891484D01*
Y766016D02*
Y838484D01*
X914400Y766016D02*
Y838484D01*
X905266Y851516D02*
Y867516D01*
Y822484D02*
Y838484D01*
X915266Y747984D02*
Y766016D01*
X914400Y730376D02*
Y747984D01*
X909320Y730376D02*
Y747984D01*
X899160Y766016D02*
Y822484D01*
X904240Y766016D02*
Y822484D01*
X915266Y712344D02*
Y730376D01*
X904240D02*
Y747984D01*
X909320Y702516D02*
Y712344D01*
X899160Y730376D02*
Y747984D01*
Y707135D02*
Y712344D01*
X897234Y766016D02*
X915266D01*
X897234Y747984D02*
Y766016D01*
Y747984D02*
X915266D01*
X896766D02*
Y766016D01*
X894266D02*
X896766D01*
X897234Y730376D02*
X915266D01*
X897234Y712344D02*
X915266D01*
X896766D02*
Y730376D01*
X897234Y712344D02*
Y730376D01*
X990600Y664336D02*
Y838484D01*
X970203Y675640D02*
X1068824D01*
X970226Y670560D02*
X1068824D01*
X980440Y664336D02*
Y838484D01*
X985520Y664336D02*
Y838484D01*
X1000760Y641338D02*
Y838484D01*
X975360Y664336D02*
Y838484D01*
X1005840Y646785D02*
Y838484D01*
X970280Y664336D02*
Y838484D01*
X970226Y664336D02*
Y675090D01*
X957135Y690880D02*
X1069324D01*
X952055Y695960D02*
X1069324D01*
X962215Y685800D02*
X1069324D01*
X965200Y682815D02*
Y838484D01*
X946930Y701040D02*
X1063824D01*
X967295Y680720D02*
X1069324D01*
X947408Y700608D02*
X968318Y679697D01*
X991266Y655320D02*
X1014375D01*
X991266Y660400D02*
X1019455D01*
X991266Y650240D02*
X1009295D01*
X973234Y646304D02*
Y664336D01*
X991266D01*
X1001519Y642464D02*
X1023536Y664481D01*
X1007516Y635000D02*
X1016028D01*
X991266Y646304D02*
Y664336D01*
X973234Y646304D02*
X991266D01*
X970226Y665480D02*
X1025526D01*
X954734Y646304D02*
X972766D01*
Y664336D01*
X970226D02*
X972766D01*
X939451Y645160D02*
X1004215D01*
X939446Y640080D02*
X1000486D01*
X939440Y635000D02*
X1000484D01*
X939432Y629920D02*
X1000484D01*
X955040Y692975D02*
Y838484D01*
X949960Y698055D02*
Y838484D01*
X944880Y702175D02*
Y838484D01*
X960120Y687895D02*
Y838484D01*
X939172Y651844D02*
X954734D01*
Y646304D02*
Y651844D01*
X939454Y650240D02*
X954734D01*
X924560Y702516D02*
Y838484D01*
X914400Y702516D02*
Y712344D01*
X903779Y702516D02*
X942800D01*
X904240D02*
Y712344D01*
X909320Y650292D02*
Y652484D01*
X895966Y636938D02*
X911512Y652484D01*
X899160Y640132D02*
Y652484D01*
X904240Y645212D02*
Y652484D01*
X915816Y646844D02*
X920708D01*
X903972Y635000D02*
X920440D01*
X914132Y645160D02*
X920429D01*
X909052Y640080D02*
X920434D01*
X900918Y629920D02*
X920448D01*
X900938Y631966D02*
X915816Y646844D01*
X894266Y883920D02*
X1133428D01*
X894266Y904240D02*
X901484D01*
X894266Y878840D02*
X1127775D01*
X894266Y899160D02*
X901484D01*
X894266Y894080D02*
X901484D01*
X894266Y868680D02*
X1117615D01*
X894266Y873760D02*
X1122695D01*
X894266Y867516D02*
X905266D01*
X881234Y766016D02*
Y822484D01*
X894266Y766016D02*
Y822484D01*
X425120Y889000D02*
X881234D01*
X425120Y894080D02*
X881234D01*
X668714Y883920D02*
X881234D01*
X797940Y904240D02*
X881234D01*
X669857Y899160D02*
X881234D01*
X870737Y868680D02*
X881234D01*
X871302Y867516D02*
X881234D01*
X674816Y878840D02*
X881234D01*
X677100Y873760D02*
X881234D01*
X894266Y807720D02*
X1156315D01*
X894266Y812800D02*
X1151472D01*
X894266Y802640D02*
X1161395D01*
X894266Y822484D02*
X905266D01*
X894266Y817880D02*
X1150484D01*
X894266Y746760D02*
X1276163D01*
X894266Y747984D02*
X896766D01*
X894266Y741680D02*
X1283481D01*
X878734Y766016D02*
X881234D01*
X878734Y747984D02*
X881234D01*
X693385Y812800D02*
X881234D01*
X688942Y807720D02*
X881234D01*
X683862Y802640D02*
X881234D01*
X871302Y822484D02*
X881234D01*
X693516Y817880D02*
X881234D01*
X856212Y746760D02*
X881234D01*
X861245Y741680D02*
X881234D01*
X656532Y797560D02*
X881234D01*
X626052Y767080D02*
X881234D01*
X845266Y863600D02*
X864394D01*
X845266Y858520D02*
X864394D01*
X845266Y853440D02*
X864394D01*
X845266Y848360D02*
X864394D01*
Y823410D02*
Y866590D01*
X878840Y766016D02*
Y822484D01*
X845266D02*
Y867516D01*
Y843280D02*
X864394D01*
X845266Y838200D02*
X864394D01*
X677434Y868680D02*
X865083D01*
X845266Y828040D02*
X864394D01*
X810234Y867516D02*
X845266D01*
Y833120D02*
X864394D01*
X845266Y822960D02*
X864423D01*
X810234Y822484D02*
X845266D01*
X838200Y758766D02*
Y822484D01*
X843280Y758726D02*
Y822484D01*
X878734Y747984D02*
Y766016D01*
X846052Y756920D02*
X878734D01*
X851132Y751840D02*
X878734D01*
X845242Y757730D02*
X860920Y742052D01*
X838200Y740772D02*
Y751734D01*
X837292Y741680D02*
X851348D01*
X641292Y782320D02*
X881234D01*
X636212Y777240D02*
X881234D01*
X631132Y772160D02*
X881234D01*
X651452Y792480D02*
X881234D01*
X646372Y787400D02*
X881234D01*
X711056Y762000D02*
X878734D01*
X832212Y746760D02*
X846268D01*
X714393Y758766D02*
X842750D01*
X714393Y751734D02*
X841294D01*
X894266Y731520D02*
X1063824D01*
X894266Y736600D02*
X1560000D01*
X894266Y730376D02*
X896766D01*
X881234D02*
Y747984D01*
X894266Y730376D02*
Y747984D01*
X878840Y730376D02*
Y747984D01*
X878734Y730376D02*
X881234D01*
X878734Y717316D02*
Y730376D01*
X873760Y712342D02*
Y822484D01*
X868680Y707262D02*
Y819979D01*
X861956Y736600D02*
X881234D01*
X841294Y751734D02*
X854924Y738104D01*
X861956Y731520D02*
X881234D01*
X842372Y736600D02*
X854924D01*
X847452Y731520D02*
X854924D01*
X861956Y700538D02*
Y739560D01*
X854924Y724048D02*
Y738104D01*
X828492Y750480D02*
X854924Y724048D01*
X853440Y725532D02*
Y739588D01*
X892456Y652484D02*
X911512D01*
X890212Y650240D02*
X909268D01*
X885132Y645160D02*
X904188D01*
X894266Y712344D02*
X896766D01*
X894266Y712029D02*
X903779Y702516D01*
X894080Y636945D02*
Y652484D01*
X880052Y640080D02*
X899108D01*
X874972Y635000D02*
X890506D01*
X889000Y631438D02*
Y649028D01*
X869892Y629920D02*
X889082D01*
X861956Y721360D02*
X878734D01*
X861956Y726440D02*
X878734D01*
X861956Y716280D02*
X877698D01*
X852532Y726440D02*
X854924D01*
X821682Y711200D02*
X849924D01*
X861956Y700538D02*
X878734Y717316D01*
X861956Y711200D02*
X872618D01*
X821956Y706120D02*
X849924D01*
X861956D02*
X867538D01*
X848360Y730612D02*
Y744668D01*
X843280Y735692D02*
Y749748D01*
X848360Y681375D02*
Y720668D01*
X838200Y681369D02*
Y730828D01*
X843280Y681373D02*
Y725748D01*
X849924Y681092D02*
Y719104D01*
X824544Y744484D02*
X849924Y719104D01*
X811892Y721360D02*
X847668D01*
X816972Y716280D02*
X849924D01*
X799266Y731520D02*
X837508D01*
X806007Y726440D02*
X842588D01*
X821956Y690880D02*
X849924D01*
X821956Y685800D02*
X849924D01*
X821956Y701040D02*
X849924D01*
X821956Y695960D02*
X849924D01*
X839924Y640322D02*
Y662628D01*
X838200Y638396D02*
Y662351D01*
X834761Y635000D02*
X837440D01*
X833467Y631516D02*
X838880D01*
X838200D02*
Y632485D01*
X831956Y655320D02*
X839924D01*
X831956Y660400D02*
X839924D01*
X831956Y650240D02*
X839924D01*
X831956Y645160D02*
X839924D01*
X832337Y640080D02*
X839611D01*
X833120Y639385D02*
Y661314D01*
Y1120616D02*
Y1230000D01*
X820000Y1117600D02*
X831802D01*
X820000Y1102360D02*
X830722D01*
X820000Y1112520D02*
X830470D01*
X820000Y1107440D02*
X830122D01*
X828040Y867516D02*
Y1230000D01*
X820000Y1097280D02*
X832335D01*
X833120Y867516D02*
Y1095604D01*
X820000Y1070000D02*
Y1230000D01*
X822960Y867516D02*
Y1230000D01*
X797560Y974050D02*
Y1047560D01*
X745000Y995000D02*
X820000Y1070000D01*
X792480Y975615D02*
Y1042480D01*
X787400Y976432D02*
Y1037400D01*
X782320Y976548D02*
Y1032320D01*
X817880Y955182D02*
Y1067880D01*
X812800Y963112D02*
Y1062800D01*
X807720Y968136D02*
Y1057720D01*
X802640Y971628D02*
Y1052640D01*
X777240Y975972D02*
Y1027240D01*
X772160Y974669D02*
Y1022160D01*
X767080Y972554D02*
Y1017080D01*
X762000Y969458D02*
Y1012000D01*
X756920Y965034D02*
Y1006920D01*
X817880Y867516D02*
Y922958D01*
X812800Y867516D02*
Y915028D01*
X693516Y828040D02*
X810234D01*
X693516Y822960D02*
X810234D01*
X679202Y858520D02*
X810234D01*
X675963Y863600D02*
X810234D01*
X684282Y853440D02*
X810234D01*
X677227Y909320D02*
X761144D01*
X675201Y904240D02*
X770060D01*
X693516Y838200D02*
X810234D01*
X693516Y833120D02*
X810234D01*
X689362Y848360D02*
X810234D01*
X693476Y843280D02*
X810234D01*
X751840Y958388D02*
Y1001840D01*
X746760Y943612D02*
Y996760D01*
X675661Y919480D02*
X752005D01*
X675640Y919518D02*
Y995000D01*
X695960D02*
X745000D01*
X690880Y846842D02*
Y995000D01*
X685800Y851922D02*
Y995000D01*
X677361Y914400D02*
X755736D01*
X680720Y857002D02*
Y995000D01*
X675640Y877518D02*
Y904982D01*
X670560Y924920D02*
Y995000D01*
X665480Y926967D02*
Y995000D01*
X671099Y924560D02*
X749404D01*
X655320Y925438D02*
Y995000D01*
X660400Y927118D02*
Y995000D01*
X670560Y882919D02*
Y899581D01*
X650240Y920920D02*
Y995000D01*
Y878920D02*
Y903580D01*
X675309Y862413D02*
X692480Y845242D01*
X675640Y862082D02*
Y862982D01*
X676704Y833120D02*
X686484D01*
X673746Y838200D02*
X686484D01*
X677514Y828040D02*
X686484D01*
X670560Y840919D02*
Y857218D01*
X675640Y835518D02*
Y852138D01*
X665480Y884967D02*
Y897533D01*
X660400Y885118D02*
Y897382D01*
X655320Y883438D02*
Y899062D01*
X660400Y843118D02*
Y855382D01*
X670337Y857441D02*
X686484Y841294D01*
X665480Y842967D02*
Y855533D01*
X650240Y836920D02*
Y861580D01*
X655320Y841438D02*
Y857062D01*
X756920Y758766D02*
Y913106D01*
X751840Y758766D02*
Y919752D01*
X762000Y758766D02*
Y908682D01*
X741680Y758766D02*
Y995000D01*
X746760Y758766D02*
Y934528D01*
X807720Y758766D02*
Y910004D01*
X802640Y758766D02*
Y906512D01*
X797560Y758766D02*
Y904090D01*
X767080Y758766D02*
Y905586D01*
X772160Y758766D02*
Y903471D01*
X731520Y758766D02*
Y995000D01*
X726440Y758766D02*
Y995000D01*
X736600Y758766D02*
Y995000D01*
X706120Y762587D02*
Y995000D01*
X711200Y761927D02*
Y995000D01*
X716280Y758766D02*
Y995000D01*
X721360Y758766D02*
Y995000D01*
X695960Y653756D02*
Y995000D01*
X701040Y758636D02*
Y995000D01*
X828040Y758766D02*
Y822484D01*
X822960Y758766D02*
Y822484D01*
X833120Y758766D02*
Y822484D01*
X810234D02*
Y867516D01*
X817880Y758766D02*
Y822484D01*
X792480Y758766D02*
Y902525D01*
X787400Y758766D02*
Y901708D01*
X812800Y758766D02*
Y822484D01*
X777240Y758766D02*
Y902168D01*
X782320Y758766D02*
Y901592D01*
X693516Y813750D02*
Y842750D01*
X679992Y798770D02*
X692480Y811258D01*
X726440Y731912D02*
Y751734D01*
X731520Y736992D02*
Y751734D01*
X690880Y653756D02*
Y809658D01*
X701040Y711636D02*
Y751864D01*
X686484Y815206D02*
Y841294D01*
X676553Y822960D02*
X686484D01*
X673360Y817880D02*
X686484D01*
X680720Y809442D02*
Y847058D01*
X685800Y814522D02*
Y841978D01*
X675640Y804766D02*
Y820982D01*
X670560Y804766D02*
Y815581D01*
X676044Y804766D02*
X686484Y815206D01*
X665480Y804766D02*
Y813533D01*
X660400Y804766D02*
Y813382D01*
X652022Y812800D02*
X684078D01*
X640080Y810802D02*
Y995000D01*
X645160Y815882D02*
Y995000D01*
X655320Y804766D02*
Y815062D01*
X646942Y807720D02*
X678998D01*
X650240Y801212D02*
Y811018D01*
X645160Y796132D02*
Y805938D01*
X685800Y659256D02*
Y804578D01*
X680720Y659256D02*
Y799498D01*
X656706Y797734D02*
X677500D01*
X670560Y659256D02*
Y797734D01*
X665480Y659256D02*
Y797734D01*
X675640Y659256D02*
Y797734D01*
X660400Y659256D02*
Y797734D01*
X655320Y659256D02*
Y796348D01*
X655250Y804766D02*
X676044D01*
X641862Y802640D02*
X651668D01*
X636782Y797560D02*
X646588D01*
X650240Y638766D02*
Y791268D01*
X645160Y638766D02*
Y786188D01*
X640080Y791052D02*
Y800858D01*
Y638766D02*
Y781108D01*
X531498Y995000D02*
X695960D01*
X425120Y965200D02*
X757080D01*
X617808Y924560D02*
X653901D01*
X614680Y926611D02*
Y995000D01*
X619760Y922618D02*
Y995000D01*
X623411Y914400D02*
X647639D01*
X621836Y919480D02*
X649339D01*
X623286Y909320D02*
X647773D01*
X425120Y970280D02*
X763182D01*
X425120Y975360D02*
X774488D01*
X425120Y960120D02*
X752946D01*
X425120Y955040D02*
X750053D01*
X425120Y949960D02*
X748099D01*
X425120Y944880D02*
X746937D01*
X425120Y929640D02*
X747689D01*
X425120Y939800D02*
X746491D01*
X425120Y934720D02*
X746737D01*
X621415Y904240D02*
X649799D01*
X616798Y899160D02*
X655143D01*
X621065Y878840D02*
X650184D01*
X619760Y880618D02*
Y901882D01*
X623168Y873760D02*
X647900D01*
X622114Y863600D02*
X649037D01*
X618464Y858520D02*
X653125D01*
X620101Y838200D02*
X651254D01*
X623479Y868680D02*
X647566D01*
X619760Y838618D02*
Y859882D01*
X615922Y883920D02*
X656286D01*
X425120Y853440D02*
X674338D01*
X614680Y884611D02*
Y897889D01*
X425120Y848360D02*
X679418D01*
X613148Y843280D02*
X684498D01*
X614680Y842611D02*
Y855889D01*
X609600Y844168D02*
Y854332D01*
X604520Y928027D02*
Y995000D01*
X609600Y928168D02*
Y995000D01*
X594360Y921477D02*
Y995000D01*
X599440Y926136D02*
Y995000D01*
X425120Y985520D02*
X518722D01*
X425120Y924560D02*
X597192D01*
X425000Y995000D02*
X517541D01*
X425120Y990600D02*
X516516D01*
X425120Y919480D02*
X593164D01*
X425120Y904240D02*
X593585D01*
X425120Y914400D02*
X591589D01*
X425120Y909320D02*
X591714D01*
X609600Y886168D02*
Y896332D01*
X604520Y886027D02*
Y896473D01*
X594360Y879477D02*
Y903023D01*
X599440Y884136D02*
Y898364D01*
X604520Y844027D02*
Y854473D01*
X594360Y837477D02*
Y861023D01*
X599440Y842136D02*
Y856364D01*
X425120Y883920D02*
X599078D01*
X425120Y899160D02*
X598202D01*
X425120Y878840D02*
X593935D01*
X425120Y873760D02*
X591832D01*
X425120Y868680D02*
X591521D01*
X425120Y858520D02*
X596536D01*
X425120Y843280D02*
X601852D01*
X425120Y863600D02*
X592886D01*
X425120Y838200D02*
X594899D01*
X623555Y828040D02*
X647486D01*
X622800Y833120D02*
X648296D01*
X622659Y822960D02*
X648447D01*
X635000Y805722D02*
Y995000D01*
X619758Y817880D02*
X647158D01*
X629920Y800642D02*
Y995000D01*
X613766Y754794D02*
X656706Y797734D01*
X635000Y785972D02*
Y795778D01*
X624840Y795562D02*
Y995000D01*
X619760Y790482D02*
Y817882D01*
X611870Y812800D02*
X642078D01*
X425120Y807720D02*
X636998D01*
X425120Y802640D02*
X631918D01*
X608266Y769044D02*
X654663Y815441D01*
X608266Y759238D02*
X652758Y803730D01*
X602270Y772992D02*
X649691Y820413D01*
X425120Y797560D02*
X626838D01*
X631702Y792480D02*
X641508D01*
X626622Y787400D02*
X636428D01*
X621542Y782320D02*
X631348D01*
X629920Y780892D02*
Y790698D01*
X624840Y775812D02*
Y785618D01*
X635000Y639902D02*
Y776028D01*
X629920Y644982D02*
Y770948D01*
X620972Y762000D02*
X704444D01*
X619760Y770732D02*
Y780538D01*
X624840Y650062D02*
Y765868D01*
X616462Y777240D02*
X626268D01*
X425120Y792480D02*
X621758D01*
X611382Y772160D02*
X621188D01*
X425120Y787400D02*
X616678D01*
X608266Y767080D02*
X616108D01*
X615892Y756920D02*
X700422D01*
X613766Y751840D02*
X701052D01*
X619760Y655142D02*
Y760788D01*
X614680Y660222D02*
Y755708D01*
Y785402D02*
Y813889D01*
X523240Y733542D02*
Y983142D01*
X543560Y725920D02*
Y995000D01*
X538480Y729767D02*
Y995000D01*
X548640Y719296D02*
Y995000D01*
X533400Y732099D02*
Y995000D01*
X528320Y733308D02*
Y983998D01*
X425120Y822960D02*
X592341D01*
X425120Y833120D02*
X592200D01*
X425120Y817880D02*
X595242D01*
X518160Y732827D02*
Y986176D01*
X425120Y828040D02*
X591445D01*
X508000Y728061D02*
Y995000D01*
X513080Y731081D02*
Y995000D01*
X497840Y712790D02*
Y995000D01*
X502920Y723103D02*
Y995000D01*
X609600Y780322D02*
Y812332D01*
X604520Y775242D02*
Y812473D01*
X614680Y765652D02*
Y775458D01*
X608266Y762000D02*
X611028D01*
X613766Y661136D02*
Y754794D01*
X609600Y760572D02*
Y770378D01*
X608266Y759238D02*
Y769044D01*
X425120Y782320D02*
X611598D01*
X425120Y812800D02*
X603130D01*
X425120Y777240D02*
X606518D01*
X425120Y772160D02*
X601651D01*
X425120Y767080D02*
X601234D01*
Y644750D02*
Y770500D01*
X425120Y751840D02*
X601234D01*
X425120Y762000D02*
X601234D01*
X425120Y756920D02*
X601234D01*
X833120Y745852D02*
Y751734D01*
X828040Y750864D02*
Y751734D01*
X807720Y725531D02*
Y744484D01*
X828040Y681356D02*
Y740988D01*
X822960Y682393D02*
Y744484D01*
X833120Y682406D02*
Y735908D01*
X812800Y720452D02*
Y744484D01*
X817880Y715372D02*
Y744484D01*
X747500Y751516D02*
X826000D01*
X746152Y741680D02*
X827348D01*
X741072Y736600D02*
X832428D01*
X748956Y744484D02*
X824544D01*
X781806Y732016D02*
X799266D01*
Y726516D02*
X805280D01*
X802640D02*
Y744484D01*
X799266Y726516D02*
Y732016D01*
X821956Y682193D02*
Y709840D01*
X807772Y725480D02*
X820920Y712332D01*
X806264Y693484D02*
X809924Y689824D01*
Y681092D02*
Y689824D01*
X807720Y681311D02*
Y692028D01*
X799266Y693484D02*
X806264D01*
X799266Y690880D02*
X808868D01*
X799266Y687984D02*
Y693484D01*
X781806Y687984D02*
X799266D01*
X802640Y681295D02*
Y693484D01*
X797560Y681278D02*
Y687984D01*
X792480Y732016D02*
Y744484D01*
X787400Y732016D02*
Y744484D01*
X797560Y732016D02*
Y744484D01*
X772160Y733056D02*
Y744484D01*
X777240Y733056D02*
Y744484D01*
X782320Y732016D02*
Y744484D01*
X781806Y732016D02*
Y733056D01*
X783734Y706016D02*
Y713984D01*
X781806Y712944D02*
Y713984D01*
X762000Y733056D02*
Y744484D01*
X767080Y733056D02*
Y744484D01*
X741680Y747152D02*
Y751734D01*
X761694Y733056D02*
X781806D01*
X761694Y712944D02*
Y733056D01*
X782320Y706016D02*
Y713984D01*
X781806D02*
X783734D01*
X781806Y706120D02*
X783734D01*
X772160Y707056D02*
Y712944D01*
X777240Y707056D02*
Y712944D01*
X792480Y681260D02*
Y687984D01*
X781806Y706016D02*
X783734D01*
X781806D02*
Y707056D01*
Y686944D02*
Y687984D01*
X761694Y707056D02*
X781806D01*
X761694Y712944D02*
X781806D01*
X762000Y707056D02*
Y712944D01*
X767080Y707056D02*
Y712944D01*
X761694Y686944D02*
X781806D01*
X761694D02*
Y707056D01*
X817880Y631516D02*
Y662383D01*
X831956Y640341D02*
Y661527D01*
X807720Y634252D02*
Y662409D01*
X812800Y631516D02*
Y662395D01*
X789424Y666360D02*
Y677360D01*
X759481Y665480D02*
X789522D01*
X797560Y638876D02*
Y662441D01*
X802640Y638731D02*
Y662424D01*
X787400Y638876D02*
Y687984D01*
X792480Y638876D02*
Y662460D01*
X824924Y639893D02*
Y661527D01*
X822960Y636884D02*
Y661327D01*
X806972Y635000D02*
X822739D01*
X822960Y631516D02*
Y633616D01*
X810456Y631516D02*
X824033D01*
X804132Y637840D02*
X810456Y631516D01*
X787477Y629920D02*
X802108D01*
X786454Y650240D02*
X824924D01*
X786451Y645160D02*
X824924D01*
X786446Y640080D02*
X824924D01*
X761595Y660400D02*
X824924D01*
X786456Y655320D02*
X824924D01*
X786172Y638876D02*
X801640D01*
X787273Y631844D02*
X800184D01*
X782320Y659376D02*
Y687984D01*
X777240Y659376D02*
Y686944D01*
X771440Y659376D02*
X782440D01*
X762000Y659995D02*
Y686944D01*
X772160Y659376D02*
Y686944D01*
X767080Y658892D02*
Y686944D01*
X763103Y658892D02*
X769529D01*
X759941Y662054D02*
X763103Y658892D01*
X751840Y668615D02*
Y744484D01*
X756920Y668260D02*
Y744484D01*
X751840Y653756D02*
Y657385D01*
X754946Y657059D02*
X758249Y653756D01*
X746760D02*
Y742288D01*
X741680Y653756D02*
Y737208D01*
X762000Y638876D02*
Y646724D01*
X756920Y653756D02*
Y655085D01*
X767080Y638876D02*
Y646724D01*
X741680Y638876D02*
Y646724D01*
X746760Y638876D02*
Y646724D01*
X751840Y638876D02*
Y646724D01*
X756920Y638876D02*
Y646724D01*
X736600Y742072D02*
Y751734D01*
X735992Y731520D02*
X761694D01*
X730912Y726440D02*
X761694D01*
X716280Y721752D02*
Y751734D01*
X721360Y726832D02*
Y751734D01*
X725832Y721360D02*
X761694D01*
X714933Y710461D02*
X748956Y744484D01*
X720752Y716280D02*
X761694D01*
X731520Y653756D02*
Y727048D01*
X726440Y653756D02*
Y721968D01*
X613766Y741680D02*
X736208D01*
X613766Y746760D02*
X741288D01*
X613766Y736600D02*
X731128D01*
X613766Y731520D02*
X726048D01*
X613766Y726440D02*
X720968D01*
X709961Y715433D02*
X745008Y750480D01*
X613766Y721360D02*
X715888D01*
X711200Y716672D02*
Y748573D01*
X706120Y715587D02*
Y747913D01*
X715672Y711200D02*
X783734D01*
X714958Y706120D02*
X761694D01*
X709873Y701040D02*
X761694D01*
X687266Y655320D02*
X756685D01*
X614502Y660400D02*
X748575D01*
X687266Y653756D02*
X758249D01*
X701040D02*
Y704864D01*
X706120Y653756D02*
Y700913D01*
X613766Y690880D02*
X761694D01*
X613766Y695960D02*
X761694D01*
X613766Y685800D02*
X809924D01*
X613766Y716280D02*
X710808D01*
X613766Y701040D02*
X705627D01*
X613766Y680720D02*
X791240D01*
X613766Y675640D02*
X789424D01*
X613766Y670560D02*
X789424D01*
X613766Y665480D02*
X748519D01*
X543002Y726440D02*
X601234D01*
X534945Y731520D02*
X601234D01*
X550065Y716280D02*
X601234D01*
X425120Y731520D02*
X514093D01*
X547387Y721360D02*
X601234D01*
X613766Y711200D02*
X700837D01*
X551550D02*
X601234D01*
X613766Y706120D02*
X700542D01*
X552035D02*
X601234D01*
X425120Y741680D02*
X601234D01*
X425120Y746760D02*
X601234D01*
X425120Y736600D02*
X601234D01*
X425120Y726440D02*
X506036D01*
X425120Y721360D02*
X501652D01*
X425120Y716280D02*
X498973D01*
X425120Y711200D02*
X497488D01*
X425120Y706120D02*
X497003D01*
X425120Y701040D02*
X497464D01*
X547472Y690880D02*
X601234D01*
X543143Y685800D02*
X601234D01*
X535254Y680720D02*
X601234D01*
X551574Y701040D02*
X601234D01*
X550116Y695960D02*
X601234D01*
X687266Y653756D02*
Y659256D01*
X650734D02*
X668766D01*
X669234D02*
X687266D01*
X608266Y655320D02*
X609638D01*
X619582D02*
X650734D01*
X425120Y680720D02*
X513785D01*
X425120Y685800D02*
X505896D01*
X425120Y675640D02*
X601234D01*
X425120Y695960D02*
X498922D01*
X425120Y690880D02*
X501567D01*
X425120Y660400D02*
X601234D01*
X425120Y655320D02*
X601234D01*
X425120Y670560D02*
X601234D01*
X425120Y665480D02*
X601234D01*
X736600Y644266D02*
Y646724D01*
Y653756D02*
Y732128D01*
X731520Y644266D02*
Y646724D01*
X721360Y653756D02*
Y716888D01*
X726440Y644266D02*
Y646724D01*
X721360Y644266D02*
Y646724D01*
X720484Y644266D02*
X738516D01*
Y638876D02*
Y644266D01*
X716280Y638766D02*
Y646724D01*
X720484Y638766D02*
Y644266D01*
X716280Y653756D02*
Y711808D01*
X687266Y646724D02*
X767663D01*
X687266Y645160D02*
X767429D01*
X711200Y653756D02*
Y701573D01*
X690880Y640880D02*
Y646724D01*
X706120Y631432D02*
Y646724D01*
X711200Y636512D02*
Y646724D01*
X695960Y640487D02*
Y646724D01*
X701040Y626352D02*
Y646724D01*
X738516Y638876D02*
X767708D01*
X738516Y640080D02*
X767434D01*
X738516Y631844D02*
X766607D01*
X714910Y638766D02*
X720484D01*
X738516Y629920D02*
X766403D01*
X716366Y631734D02*
X720484D01*
Y626234D02*
X738516D01*
X720484D02*
Y631734D01*
X714552Y629920D02*
X720484D01*
X696587Y640080D02*
X720484D01*
X699011Y635000D02*
X709688D01*
X634822Y640080D02*
X689414D01*
X695790Y629920D02*
X704608D01*
X634680Y631734D02*
X688118D01*
X624552Y629920D02*
X690210D01*
X687266Y641224D02*
Y646724D01*
X668766Y641224D02*
Y659256D01*
X629742Y645160D02*
X650734D01*
X609600Y644872D02*
Y655358D01*
X624662Y650240D02*
X650734D01*
Y641224D02*
Y659256D01*
X613766Y661136D02*
X636136Y638766D01*
X669234Y641224D02*
Y659256D01*
X614680Y639792D02*
Y650278D01*
X619760Y634712D02*
Y645198D01*
X608266Y650240D02*
X614718D01*
X608266Y646206D02*
Y656692D01*
X609312Y645160D02*
X619798D01*
X425120Y650240D02*
X601234D01*
X425120Y645160D02*
X601234D01*
X608266Y656692D02*
X632188Y632770D01*
X523240Y626830D02*
Y678569D01*
X685800Y638766D02*
Y641224D01*
X680720Y638766D02*
Y641224D01*
X669234D02*
X687266D01*
X650734D02*
X668766D01*
X675640Y638766D02*
Y641224D01*
X665480Y638766D02*
Y641224D01*
X670560Y638766D02*
Y641224D01*
X655320Y638766D02*
Y641224D01*
X660400Y638766D02*
Y641224D01*
X636136Y638766D02*
X688118D01*
X614392Y640080D02*
X624878D01*
X619472Y635000D02*
X629958D01*
X425120Y640080D02*
X604448D01*
X425120Y635000D02*
X609528D01*
X624840Y629632D02*
Y640118D01*
X425120Y629920D02*
X614608D01*
X1007516Y604520D02*
X1009484D01*
X1007516Y619760D02*
X1009484D01*
X956532Y599440D02*
X1000484D01*
X955040Y600932D02*
Y646304D01*
X960120Y595852D02*
Y646304D01*
X966692Y589280D02*
X1000484D01*
X961612Y594360D02*
X1000484D01*
X971772Y584200D02*
X1000484D01*
X965200Y590772D02*
Y646304D01*
X970280Y585692D02*
Y646304D01*
X939422Y624840D02*
X1000484D01*
X939411Y619760D02*
X1000484D01*
X939398Y614680D02*
X1000484D01*
X939383Y609600D02*
X1000484D01*
X948132Y607840D02*
X972760Y583212D01*
X951452Y604520D02*
X1000484D01*
X949960Y606012D02*
Y651844D01*
X1007516Y568960D02*
X1009484D01*
X1007516Y574040D02*
X1009484D01*
X1007516Y563880D02*
X1009484D01*
X973796Y579120D02*
X1000484D01*
X973796Y568960D02*
X1000484D01*
X1007516Y543560D02*
X1009484D01*
X1007516Y548640D02*
X1009484D01*
X1007516Y538480D02*
X1009484D01*
X1007516Y558800D02*
X1009484D01*
X1007516Y553720D02*
X1009484D01*
X973796Y563880D02*
X1000484D01*
X973796Y574040D02*
X1000484D01*
X973796Y558800D02*
X1000484D01*
X973796Y543560D02*
X1000484D01*
X973796Y538480D02*
X1000484D01*
X973796Y553720D02*
X1000484D01*
X973796Y548640D02*
X1000484D01*
X944880Y608876D02*
Y651844D01*
X939800Y608876D02*
Y651844D01*
X909320Y534675D02*
Y640348D01*
X904240Y539755D02*
Y635268D01*
X899160Y546903D02*
Y626654D01*
X894080Y545564D02*
Y625055D01*
X939172Y608876D02*
X945640D01*
X903444Y543560D02*
X920850D01*
X905515Y538480D02*
X920891D01*
X1000484Y443660D02*
Y639972D01*
X973796Y533400D02*
X1000484D01*
X1007516D02*
X1009484D01*
X973796Y344821D02*
Y580720D01*
X939184Y531844D02*
X942484Y528544D01*
X995680Y309880D02*
Y838484D01*
X990600Y309880D02*
Y646304D01*
X985520Y309880D02*
Y646304D01*
X975360Y309880D02*
Y646304D01*
X980440Y309880D02*
Y646304D01*
X937381Y531844D02*
X939184D01*
X914400Y528260D02*
Y645428D01*
X910595Y533400D02*
X920935D01*
X929640Y485016D02*
Y531344D01*
X934720Y485016D02*
Y531344D01*
X919480Y485016D02*
Y646844D01*
X924560Y485016D02*
Y531344D01*
X1007516Y528320D02*
X1009484D01*
X973796D02*
X1000484D01*
X973796Y518160D02*
X1000484D01*
X924440Y531344D02*
X935440D01*
X973796Y523240D02*
X1000484D01*
X973796Y513080D02*
X1000484D01*
X942484Y485016D02*
Y528544D01*
X1007516Y513080D02*
X1009484D01*
X939800Y485016D02*
Y531228D01*
X917456Y513360D02*
Y524360D01*
X914108Y528320D02*
X942484D01*
X917456Y523240D02*
X942484D01*
X911972Y528098D02*
Y530560D01*
Y528320D02*
X912772D01*
X917456Y518160D02*
X942484D01*
X917446Y513080D02*
X942484D01*
X916956Y485016D02*
Y511419D01*
X903941Y540054D02*
X910938Y533058D01*
X894080Y528325D02*
Y536437D01*
X898946Y535059D02*
X904908Y529097D01*
Y528098D02*
Y529097D01*
X904240Y528295D02*
Y529765D01*
X899160Y528311D02*
Y534845D01*
X889000Y528337D02*
Y630561D01*
X883920Y528347D02*
Y643948D01*
X878840Y528356D02*
Y638868D01*
X873760Y528363D02*
Y633788D01*
X899108Y528320D02*
X902772D01*
X894108D02*
X897772D01*
X904108D02*
X904908D01*
X884108D02*
X887772D01*
X889108D02*
X892772D01*
X894924Y387560D02*
Y509628D01*
X894080Y383838D02*
Y509395D01*
X889000Y384381D02*
Y509383D01*
X879108Y528320D02*
X882772D01*
X869108D02*
X872772D01*
X874108D02*
X877772D01*
X883920Y382023D02*
Y509373D01*
X878840Y358797D02*
Y509364D01*
X873760Y379529D02*
Y509357D01*
X865492Y625519D02*
X892456Y652484D01*
X864542Y624840D02*
X920458D01*
X809000Y624484D02*
X863000D01*
X863600Y528373D02*
Y624536D01*
X858520Y528375D02*
Y624484D01*
X853440Y528376D02*
Y624484D01*
X843280Y528373D02*
Y624484D01*
X848360Y528375D02*
Y624484D01*
X786411Y619760D02*
X920469D01*
X800184Y631844D02*
X806508Y625519D01*
X786422Y624840D02*
X807458D01*
X786384Y609600D02*
X920497D01*
X786367Y604520D02*
X920513D01*
X797560Y550444D02*
Y631844D01*
X786398Y614680D02*
X920482D01*
X786349Y599440D02*
X920531D01*
X786329Y594360D02*
X920551D01*
X799790Y548640D02*
X920811D01*
X800841Y543560D02*
X892556D01*
X792857Y537862D02*
X794054Y539059D01*
X793475Y538480D02*
X892537D01*
X786260Y579120D02*
X920620D01*
X786233Y574040D02*
X920647D01*
X786204Y568960D02*
X920676D01*
X786308Y589280D02*
X920572D01*
X786285Y584200D02*
X920595D01*
X786141Y558800D02*
X920739D01*
X786106Y553720D02*
X920774D01*
X786173Y563880D02*
X920707D01*
X785945Y533400D02*
X900605D01*
X792480Y550463D02*
Y631844D01*
X787400Y543892D02*
Y629379D01*
X786069Y548640D02*
X790210D01*
X786178Y543892D02*
X788897D01*
X786178Y536828D02*
X790360D01*
X868680Y528369D02*
Y628708D01*
X864108Y528320D02*
X867772D01*
X859108D02*
X862772D01*
X849108D02*
X852772D01*
X854108D02*
X857772D01*
X844108D02*
X847772D01*
X838200Y528369D02*
Y624484D01*
X834108Y528320D02*
X837772D01*
X833120Y528363D02*
Y624484D01*
X829108Y528320D02*
X832772D01*
X868680Y383838D02*
Y509351D01*
X863600Y384381D02*
Y509347D01*
X858520Y382023D02*
Y509345D01*
X848360Y379529D02*
Y509345D01*
X853440Y365516D02*
Y509344D01*
X839108Y528320D02*
X842772D01*
X814922Y508000D02*
X894924D01*
X838200Y384381D02*
Y509351D01*
X843280Y383838D02*
Y509347D01*
X833120Y489802D02*
Y509357D01*
X813576Y509346D02*
X836480Y486442D01*
X828040Y528356D02*
Y624484D01*
X822960Y528347D02*
Y624484D01*
X824108Y528320D02*
X827772D01*
X812800Y528325D02*
Y624484D01*
X817880Y528337D02*
Y624484D01*
X819108Y528320D02*
X822772D01*
X807720Y528311D02*
Y624725D01*
X802640Y528295D02*
Y629388D01*
X797560Y528278D02*
Y539556D01*
X792480Y528260D02*
Y537535D01*
X706292Y528320D02*
X792772D01*
X787400Y510982D02*
Y536828D01*
X814108Y528320D02*
X817772D01*
X809108D02*
X812772D01*
X822960Y499962D02*
Y509373D01*
X828040Y494882D02*
Y509364D01*
X817880Y505042D02*
Y509383D01*
X799108Y528320D02*
X802772D01*
X794108D02*
X797772D01*
X804108D02*
X807772D01*
X701212Y523240D02*
X789424D01*
X687266Y518160D02*
X789424D01*
X586492Y513080D02*
X789434D01*
X787184Y510766D02*
X789438Y513021D01*
X789424Y513360D02*
Y524360D01*
X584178Y510766D02*
X787184D01*
X973796Y502920D02*
X1000484D01*
X973796Y508000D02*
X1000484D01*
X1007516Y497840D02*
X1009484D01*
X973796D02*
X1000484D01*
X973796Y492760D02*
X1000484D01*
X1007516Y467360D02*
X1009484D01*
X1007516Y487680D02*
X1009484D01*
X1007516Y452120D02*
X1015968D01*
X973796Y487680D02*
X1000484D01*
X973796Y482600D02*
X1000484D01*
X973796Y472440D02*
X1000484D01*
X973796Y477520D02*
X1000484D01*
X973796Y467360D02*
X1000484D01*
X916956Y508000D02*
X942484D01*
X916956Y497840D02*
X942484D01*
X973796Y452120D02*
X1000484D01*
X973796Y447040D02*
X1000484D01*
X973796Y462280D02*
X1000484D01*
X973796Y457200D02*
X1000484D01*
X973796Y436880D02*
X1005808D01*
X973796Y431800D02*
X1010888D01*
X973796Y441960D02*
X1000922D01*
X1001519Y441168D02*
X1063922Y378765D01*
X973796Y416560D02*
X1026128D01*
X973796Y411480D02*
X1031208D01*
X973796Y426720D02*
X1015968D01*
X973796Y421640D02*
X1021048D01*
X973796Y391160D02*
X1051528D01*
X973796Y396240D02*
X1046448D01*
X973796Y386080D02*
X1056608D01*
X973796Y406400D02*
X1036288D01*
X973796Y401320D02*
X1041368D01*
X973796Y370840D02*
X1063765D01*
X973796Y365760D02*
X1068369D01*
X973796Y381000D02*
X1061688D01*
X973796Y375920D02*
X1063109D01*
X925394Y485016D02*
X942484D01*
X925394Y466984D02*
Y485016D01*
Y466984D02*
X942484D01*
X924926D02*
Y485016D01*
X922426Y466984D02*
X924926D01*
X922426Y436880D02*
X942484D01*
X922426Y462280D02*
X942484D01*
X922426Y431800D02*
X942484D01*
X922426Y384496D02*
Y466984D01*
X924560Y384496D02*
Y466984D01*
X916956Y492760D02*
X942484D01*
X916956Y502920D02*
X942484D01*
X916956Y487680D02*
X942484D01*
X916956Y485016D02*
X924926D01*
X922426Y457200D02*
X942484D01*
X922426Y441960D02*
X942484D01*
X922426Y426720D02*
X942484D01*
X922426Y452120D02*
X942484D01*
X922426Y447040D02*
X942484D01*
X922426Y406400D02*
X942484D01*
X922426Y411480D02*
X942484D01*
X922426Y401320D02*
X942484D01*
X922426Y421640D02*
X942484D01*
X922426Y416560D02*
X942484D01*
X925926Y375920D02*
X942484D01*
X925926Y381000D02*
X942484D01*
X925926Y370840D02*
X942484D01*
X922426Y396240D02*
X942484D01*
X922426Y391160D02*
X942484D01*
X922426Y386080D02*
X942484D01*
X895959Y385068D02*
X899484Y381544D01*
X922426Y384496D02*
X925926D01*
X899484Y378928D02*
Y381544D01*
X898113Y381000D02*
X899484D01*
X899160Y379529D02*
Y381868D01*
X895438Y365760D02*
X899484D01*
X973796Y355600D02*
X1063024D01*
X973796Y360680D02*
X1132808D01*
X973796Y350520D02*
X1063024D01*
X942484Y348456D02*
Y466984D01*
X973796Y345440D02*
X1060045D01*
X1005840Y309880D02*
Y436848D01*
X1000760Y309880D02*
Y442295D01*
X940951Y310520D02*
X972760Y342329D01*
X925926Y365760D02*
X942484D01*
X909282Y360680D02*
X942484D01*
X923513Y355600D02*
X942484D01*
X939800Y345772D02*
Y466984D01*
X925822Y350520D02*
X942484D01*
X929544Y335516D02*
X942484Y348456D01*
X925241Y345440D02*
X939468D01*
X929640Y335612D02*
Y466984D01*
X934720Y340692D02*
Y466984D01*
X970791Y340360D02*
X1054965D01*
X965711Y335280D02*
X1049885D01*
X960631Y330200D02*
X1044805D01*
X955551Y325120D02*
X1039725D01*
X950471Y320040D02*
X1009545D01*
X970280Y309880D02*
Y339849D01*
X965200Y309880D02*
Y334769D01*
X960120Y309880D02*
Y329689D01*
X955040Y309880D02*
Y324609D01*
X949960Y309880D02*
Y319529D01*
X937003Y316516D02*
X937971Y317484D01*
X934720Y316516D02*
Y317484D01*
X945391Y314960D02*
X1008338D01*
X920838Y340360D02*
X934388D01*
X929640Y316516D02*
Y317484D01*
X944880Y309880D02*
Y314449D01*
X940080Y309880D02*
X1012874D01*
X925926Y364464D02*
Y384496D01*
X906516Y364464D02*
X925926D01*
X914400Y358982D02*
Y364464D01*
X906516Y363446D02*
Y364464D01*
X909320Y360642D02*
Y364464D01*
X924560Y354129D02*
Y364464D01*
X919480Y358438D02*
Y364464D01*
X906516Y363446D02*
X911765Y358198D01*
X899484Y361990D02*
Y370032D01*
X894080Y358438D02*
Y365122D01*
X889000Y358982D02*
Y364579D01*
X900519Y359498D02*
X906792Y353226D01*
X898113Y355600D02*
X904418D01*
X899160Y354129D02*
Y369431D01*
X904240Y335516D02*
Y355778D01*
X924560Y335516D02*
Y344030D01*
X919480Y335516D02*
Y339722D01*
X914400Y335516D02*
Y339179D01*
X900422Y350520D02*
X905998D01*
X909320Y335516D02*
Y341537D01*
X919480Y316516D02*
Y317484D01*
X914400Y316516D02*
Y317484D01*
X924560Y316516D02*
Y317484D01*
X904240Y316516D02*
Y317484D01*
X909320Y316516D02*
Y317484D01*
X899841Y345440D02*
X906579D01*
X895438Y340360D02*
X910982D01*
X899456Y335516D02*
X929544D01*
X899160Y335812D02*
Y344030D01*
X894897Y340076D02*
X899456Y335516D01*
X899160Y316516D02*
Y317484D01*
X889000Y316516D02*
Y317484D01*
X894080Y316516D02*
Y317484D01*
X837516Y467360D02*
X894924D01*
X837516Y472440D02*
X894924D01*
X837516Y462280D02*
X894924D01*
X837516Y482600D02*
X894924D01*
X837516Y477520D02*
X894924D01*
X837516Y441960D02*
X894924D01*
X837516Y447040D02*
X894924D01*
X836052Y436880D02*
X894924D01*
X837516Y457200D02*
X894924D01*
X837516Y452120D02*
X894924D01*
X835242Y487680D02*
X894924D01*
X830162Y492760D02*
X894924D01*
X830972Y431800D02*
X894924D01*
X820002Y502920D02*
X894924D01*
X825082Y497840D02*
X894924D01*
X815714Y416560D02*
X894924D01*
X444266Y411480D02*
X894924D01*
X825892Y426720D02*
X894924D01*
X820812Y421640D02*
X894924D01*
X874441Y370840D02*
X881179D01*
X872713Y381000D02*
X882907D01*
X870038Y365760D02*
X885582D01*
X875022Y375920D02*
X880598D01*
X873760Y363877D02*
Y369431D01*
X876957Y360680D02*
X899737D01*
X549606Y391160D02*
X894924D01*
X546626Y396240D02*
X894924D01*
X551322Y386080D02*
X895251D01*
X531767Y406400D02*
X894924D01*
X541736Y401320D02*
X894924D01*
X869578Y365516D02*
X870664D01*
X852630D02*
X860641D01*
X854086Y358484D02*
X861663D01*
X837516Y439800D02*
Y483950D01*
X833120Y382023D02*
Y433948D01*
X847313Y381000D02*
X857507D01*
X822960Y379529D02*
Y423788D01*
X821913Y381000D02*
X832107D01*
X815942Y416769D02*
X836480Y437308D01*
X812800Y384381D02*
Y415734D01*
X754133D02*
X813450D01*
X817880Y383838D02*
Y418708D01*
X807720Y382023D02*
Y415734D01*
X552011Y381000D02*
X806707D01*
X858520Y365516D02*
Y366937D01*
X849041Y370840D02*
X855779D01*
X844638Y365760D02*
X860182D01*
X849622Y375920D02*
X855198D01*
X848360Y362702D02*
Y369431D01*
X843856Y358198D02*
X850138Y364481D01*
X843280Y358438D02*
Y365122D01*
X838200Y358982D02*
Y364579D01*
X824222Y375920D02*
X829798D01*
X823641Y370840D02*
X830379D01*
X819238Y365760D02*
X834782D01*
X551752Y375920D02*
X804398D01*
X550516Y370840D02*
X804979D01*
X817880Y358438D02*
Y365122D01*
X544253Y360680D02*
X846338D01*
X548151Y365760D02*
X809382D01*
X812800Y358982D02*
Y364579D01*
X883920Y356623D02*
Y366937D01*
X881389Y355600D02*
X882907D01*
X873156Y364481D02*
X880480Y357156D01*
X858520Y356623D02*
Y358484D01*
X881516Y353488D02*
Y354664D01*
X858520Y316516D02*
Y341537D01*
X851202Y355600D02*
X857507D01*
X849622Y350520D02*
X855198D01*
X849041Y345440D02*
X855779D01*
X848828Y353226D02*
X854086Y358484D01*
X853440Y316516D02*
Y357838D01*
X844638Y340360D02*
X860182D01*
X823428Y344935D02*
X851846Y316516D01*
X881760Y317484D02*
X937971D01*
X862629Y335158D02*
X879268Y318519D01*
X878840Y316516D02*
Y318948D01*
X873760Y316516D02*
Y324028D01*
X883920Y316516D02*
Y317484D01*
X863600Y316516D02*
Y334188D01*
X868680Y316516D02*
Y329108D01*
X838162Y330200D02*
X867588D01*
X843242Y325120D02*
X872668D01*
X861594Y337650D02*
Y339701D01*
X833082Y335280D02*
X862513D01*
X848322Y320040D02*
X877748D01*
X851846Y316516D02*
X937003D01*
X425120Y309880D02*
X848769D01*
X833120Y356623D02*
Y366937D01*
X821913Y355600D02*
X832107D01*
X824222Y350520D02*
X829798D01*
X822960Y354129D02*
Y369431D01*
X807720Y356623D02*
Y366937D01*
X848360Y320002D02*
Y344030D01*
X823641Y345440D02*
X830379D01*
X833120Y335242D02*
Y341537D01*
X828040Y340322D02*
Y428868D01*
X537511Y355600D02*
X806707D01*
X425120Y345440D02*
X804979D01*
X802640Y309880D02*
Y415734D01*
X425120Y350520D02*
X804398D01*
X797560Y309880D02*
Y415734D01*
X807720Y309880D02*
Y341537D01*
X787400Y309880D02*
Y415734D01*
X792480Y309880D02*
Y415734D01*
X843280Y309880D02*
Y315138D01*
Y325082D02*
Y339722D01*
X828002Y340360D02*
X834782D01*
X838200Y330162D02*
Y339179D01*
X833120Y309880D02*
Y325298D01*
X838200Y309880D02*
Y320218D01*
X822960Y309880D02*
Y335458D01*
X828040Y309880D02*
Y330378D01*
X425120Y325120D02*
X833298D01*
X425120Y330200D02*
X828218D01*
X425120Y320040D02*
X838378D01*
X425120Y340360D02*
X809382D01*
X425120Y335280D02*
X823138D01*
X818456Y339962D02*
X847898Y310520D01*
X425120Y314960D02*
X843458D01*
X817880Y309880D02*
Y339722D01*
X812800Y309880D02*
Y339179D01*
X738516Y624840D02*
X767458D01*
X762000Y618876D02*
Y631844D01*
X767080Y618876D02*
Y627800D01*
X751840Y618876D02*
Y631844D01*
X746760Y618876D02*
Y631844D01*
X756920Y618876D02*
Y631844D01*
X741680Y618876D02*
Y631844D01*
X738516Y618876D02*
Y625766D01*
Y626234D02*
Y631844D01*
X720484Y625766D02*
X738516D01*
X709472Y624840D02*
X720484D01*
X697204Y622516D02*
X712418Y637730D01*
X704392Y619760D02*
X720484D01*
X701152Y616520D02*
X716366Y631734D01*
X720484Y608876D02*
Y625766D01*
X716280Y608876D02*
Y631648D01*
X711200Y608876D02*
Y626568D01*
X756920Y538876D02*
Y546844D01*
X751840Y538876D02*
Y546844D01*
X767080Y538876D02*
Y546844D01*
X741680Y538876D02*
Y546844D01*
X746760Y538876D02*
Y546844D01*
X738516Y618876D02*
X767708D01*
X738516Y619760D02*
X767469D01*
X620256Y546844D02*
X767708D01*
X731520Y538876D02*
Y546844D01*
X736600Y538876D02*
Y546844D01*
X726440Y538876D02*
Y546844D01*
X708360Y538876D02*
X767708D01*
X711200D02*
Y546844D01*
X721360Y538876D02*
Y546844D01*
X670560Y622516D02*
Y631734D01*
X665480Y622516D02*
Y631734D01*
X675640Y622516D02*
Y631734D01*
X655320Y622516D02*
Y631734D01*
X660400Y622516D02*
Y631734D01*
X695960Y622516D02*
Y630013D01*
X690880Y622516D02*
Y629620D01*
X706120Y608876D02*
Y621488D01*
X680720Y622516D02*
Y631734D01*
X685800Y622516D02*
Y631734D01*
X650240Y622516D02*
Y631734D01*
X645160Y622516D02*
Y631734D01*
X629632Y624840D02*
X699528D01*
X629920Y624552D02*
Y635038D01*
X640080Y622516D02*
Y631734D01*
X635000Y622516D02*
Y631734D01*
X631956Y622516D02*
X697204D01*
X624840Y608876D02*
Y619688D01*
X701040Y608876D02*
Y616412D01*
X690880Y608876D02*
Y615484D01*
X695960Y608876D02*
Y615484D01*
X680720Y608876D02*
Y615484D01*
X675640Y608876D02*
Y615484D01*
X685800Y608876D02*
Y615484D01*
X665480Y608876D02*
Y615484D01*
X670560Y608876D02*
Y615484D01*
X660400Y608876D02*
Y615484D01*
X655320Y608876D02*
Y615484D01*
X630500D02*
X698660D01*
X650240Y608876D02*
Y615484D01*
X640080Y608876D02*
Y615484D01*
X645160Y608876D02*
Y615484D01*
X629920Y608876D02*
Y615532D01*
X635000Y608876D02*
Y615484D01*
X767080Y510766D02*
Y531844D01*
X762000Y538876D02*
Y546844D01*
Y510766D02*
Y531844D01*
X746760Y510766D02*
Y531844D01*
X756920Y510766D02*
Y531844D01*
X736600Y510766D02*
Y531844D01*
X731520Y510766D02*
Y531844D01*
X741680Y510766D02*
Y531844D01*
X721360Y510766D02*
Y531844D01*
X726440Y510766D02*
Y531844D01*
X716280Y538876D02*
Y546844D01*
X701040Y533012D02*
Y546844D01*
X706120Y538070D02*
Y546844D01*
X694784Y526756D02*
X705868Y537840D01*
X709816Y531844D02*
X769499D01*
X690880Y526756D02*
Y546844D01*
X695960Y527932D02*
Y546844D01*
X782320Y510766D02*
Y531344D01*
X772160Y510766D02*
Y531344D01*
X771440D02*
X782440D01*
X701040Y510766D02*
Y523068D01*
X751840Y510766D02*
Y531844D01*
X716280Y510766D02*
Y531844D01*
X777240Y510766D02*
Y531344D01*
X711200Y510766D02*
Y531844D01*
X706120Y510766D02*
Y528148D01*
X698732Y520760D02*
X709816Y531844D01*
X687266Y528320D02*
X696348D01*
X687266Y526756D02*
X694784D01*
X687266Y519724D02*
X696240D01*
X684993Y493484D02*
X700461Y478016D01*
X690880Y510766D02*
Y519724D01*
X695960Y510766D02*
Y519724D01*
X680720Y532256D02*
Y546844D01*
X675640Y532256D02*
Y546844D01*
X685800Y532256D02*
Y546844D01*
X665480Y532256D02*
Y546844D01*
X670560Y532256D02*
Y546844D01*
X669234Y532256D02*
X687266D01*
X669234Y514224D02*
Y532256D01*
X687266Y526756D02*
Y532256D01*
X660400D02*
Y546844D01*
X668766Y514224D02*
Y532256D01*
X655320D02*
Y546844D01*
X650734Y532256D02*
X668766D01*
X650734Y514224D02*
Y532256D01*
X645160Y510766D02*
Y546844D01*
X650240Y510766D02*
Y546844D01*
X635000Y510766D02*
Y546844D01*
X640080Y510766D02*
Y546844D01*
X624840Y510766D02*
Y546844D01*
X629920Y510766D02*
Y546844D01*
X687266Y514224D02*
Y519724D01*
X669234Y514224D02*
X687266D01*
X685800Y510766D02*
Y514224D01*
X675640Y510766D02*
Y514224D01*
X680720Y510766D02*
Y514224D01*
Y478016D02*
Y493484D01*
X670560Y510766D02*
Y514224D01*
Y478016D02*
Y493484D01*
X665480Y510766D02*
Y514224D01*
Y478016D02*
Y493484D01*
X660400Y510766D02*
Y514224D01*
X655320Y510766D02*
Y514224D01*
X650734D02*
X668766D01*
X650240Y478016D02*
Y493484D01*
X655320Y478016D02*
Y493484D01*
X635000Y478016D02*
Y493484D01*
X640080Y478016D02*
Y493484D01*
X619760Y478016D02*
Y493484D01*
X624840Y478016D02*
Y493484D01*
X599440Y621782D02*
Y814364D01*
X594360Y624575D02*
Y819023D01*
X608266Y646206D02*
X631956Y622516D01*
X584200Y624575D02*
Y995000D01*
X589280Y624575D02*
Y995000D01*
X614680Y608876D02*
Y629848D01*
X602270Y642258D02*
X628008Y616520D01*
X619760Y608876D02*
Y624768D01*
X604520Y616702D02*
Y640008D01*
X609600Y611622D02*
Y634928D01*
X558800Y624575D02*
Y995000D01*
X529620Y624840D02*
X619688D01*
X529822Y624575D02*
X595191D01*
X553720D02*
Y995000D01*
X548640Y624575D02*
Y692815D01*
X574040Y624575D02*
Y995000D01*
X579120Y624575D02*
Y995000D01*
X563880Y624575D02*
Y995000D01*
X568960Y624575D02*
Y995000D01*
X606542Y614680D02*
X720484D01*
X601462Y619760D02*
X624768D01*
X611622Y609600D02*
X720484D01*
X616972Y543560D02*
X767850D01*
X612346Y608876D02*
X720484D01*
X611892Y538480D02*
X706739D01*
X597683Y623540D02*
X612346Y608876D01*
X581794Y534516D02*
X584821Y537543D01*
X579120Y534516D02*
Y537543D01*
X574040Y534516D02*
Y537543D01*
X529822D02*
X584821D01*
X563880Y534516D02*
Y537543D01*
X568960Y534516D02*
Y537543D01*
X558800Y534516D02*
Y537543D01*
X522000Y534516D02*
X581794D01*
X548640D02*
Y537543D01*
X553720Y534516D02*
Y537543D01*
X543560Y624575D02*
Y686192D01*
X538480Y624575D02*
Y682344D01*
X533400Y624575D02*
Y680012D01*
X528320Y626036D02*
Y678803D01*
X425120Y619760D02*
X519067D01*
X425120Y614680D02*
X520136D01*
X425120Y624840D02*
X520261D01*
X425120Y604520D02*
X520020D01*
X425120Y609600D02*
X519104D01*
X425120Y599440D02*
X519147D01*
X425120Y594360D02*
X519903D01*
X425120Y584200D02*
X519795D01*
X425120Y589280D02*
X519198D01*
X425120Y579120D02*
X519254D01*
X533400Y534516D02*
Y537543D01*
X538480Y534516D02*
Y537543D01*
X543560Y534516D02*
Y537543D01*
X528320Y534516D02*
Y536082D01*
X523240Y534516D02*
Y535289D01*
X425120Y563880D02*
X519602D01*
X425120Y574040D02*
X519695D01*
X425120Y553720D02*
X519516D01*
X425120Y568960D02*
X519316D01*
X425120Y558800D02*
X519385D01*
X425120Y538480D02*
X519506D01*
X425120Y548640D02*
X519459D01*
X425120Y543560D02*
X519469D01*
X606812Y533400D02*
X701428D01*
X601732Y528320D02*
X650734D01*
X596652Y523240D02*
X650734D01*
X609600Y510766D02*
Y536188D01*
X591572Y518160D02*
X650734D01*
X619760Y510766D02*
Y546348D01*
X614680Y510766D02*
Y541268D01*
X604520Y510766D02*
Y531108D01*
X599440Y510766D02*
Y526028D01*
X594360Y510766D02*
Y520948D01*
X508520Y522492D02*
X519508Y533480D01*
X425120Y533400D02*
X519428D01*
X514516Y518160D02*
X519669D01*
X518160Y532132D02*
Y679285D01*
X514516Y518544D02*
X519418Y523446D01*
X584178Y510766D02*
X620256Y546844D01*
X518160Y478016D02*
Y522188D01*
X514516Y509500D02*
Y518544D01*
X594360Y478016D02*
Y493484D01*
X589280Y510766D02*
Y515868D01*
X574040Y483516D02*
Y493484D01*
X548640Y483516D02*
Y493484D01*
X553720Y483516D02*
Y493484D01*
X599440Y478016D02*
Y493484D01*
X589280Y478016D02*
Y493484D01*
X604520Y478016D02*
Y493484D01*
X579120Y478016D02*
Y493484D01*
X584200Y478016D02*
Y493484D01*
X514516Y513080D02*
X519274D01*
X514180Y508000D02*
X519761D01*
X509392Y502920D02*
X519220D01*
X543560Y483516D02*
Y493484D01*
X504312Y497840D02*
X519859D01*
X508000Y521834D02*
Y684050D01*
X502920Y506392D02*
Y689009D01*
X513080Y527052D02*
Y681030D01*
X492760Y496232D02*
Y995000D01*
X497840Y501312D02*
Y699322D01*
X482600Y486072D02*
Y995000D01*
X477520Y480992D02*
Y995000D01*
X487680Y491152D02*
Y995000D01*
X467360Y475516D02*
Y995000D01*
X472440Y475912D02*
Y995000D01*
X436880Y509516D02*
Y995000D01*
X431800Y509516D02*
Y995000D01*
X441960Y509516D02*
Y995000D01*
X426720Y509516D02*
Y995000D01*
X425120Y509516D02*
Y994880D01*
X457200Y475516D02*
Y995000D01*
X462280Y475516D02*
Y995000D01*
X447040Y309880D02*
Y995000D01*
X452120Y475516D02*
Y995000D01*
X507484Y510956D02*
Y520000D01*
X508000Y478016D02*
Y501528D01*
X474992Y468520D02*
X513480Y507008D01*
X513080Y478016D02*
Y506608D01*
X471044Y474516D02*
X507484Y510956D01*
X502920Y478016D02*
Y496448D01*
X425120Y523240D02*
X509268D01*
X425120Y528320D02*
X514348D01*
X425120Y518160D02*
X507484D01*
X425120Y513080D02*
X507484D01*
X425120Y509516D02*
X444266D01*
Y508000D02*
X504528D01*
X444266Y502920D02*
X499448D01*
X444266Y485484D02*
Y509516D01*
Y497840D02*
X494368D01*
X690880Y478016D02*
Y487597D01*
X685800Y478016D02*
Y492677D01*
X695960Y478016D02*
Y482517D01*
X660400Y478016D02*
Y493484D01*
X675640Y478016D02*
Y493484D01*
X701040Y450396D02*
Y470984D01*
X695960Y450396D02*
Y470984D01*
X702544D02*
X723132Y450396D01*
X685800D02*
Y470984D01*
X690880Y450396D02*
Y470984D01*
X531614Y492760D02*
X685717D01*
X529918Y487680D02*
X690797D01*
X577266Y482600D02*
X695877D01*
X629920Y478016D02*
Y493484D01*
X532338D02*
X684993D01*
X577266Y478016D02*
X700461D01*
X577266Y470984D02*
X702544D01*
X645160Y478016D02*
Y493484D01*
X619760Y450396D02*
Y470984D01*
X670560Y450396D02*
Y470984D01*
X665480Y450396D02*
Y470984D01*
X675640Y450396D02*
Y470984D01*
X655320Y450396D02*
Y470984D01*
X660400Y450396D02*
Y470984D01*
X716280Y450396D02*
Y457248D01*
X711200Y450396D02*
Y462328D01*
X721360Y450396D02*
Y452168D01*
X680720Y450396D02*
Y470984D01*
X706120Y450396D02*
Y467408D01*
X650240Y450396D02*
Y470984D01*
X577266Y467360D02*
X706168D01*
X577266Y452120D02*
X721408D01*
X640080Y450396D02*
Y470984D01*
X645160Y450396D02*
Y470984D01*
X635000Y450396D02*
Y470984D01*
X577266Y450396D02*
X723132D01*
X624840D02*
Y470984D01*
X629920Y450396D02*
Y470984D01*
X614680Y478016D02*
Y493484D01*
X609600Y478016D02*
Y493484D01*
X559234Y483516D02*
X577266D01*
X563880D02*
Y493484D01*
X568960Y483516D02*
Y493484D01*
X579120Y450396D02*
Y470984D01*
X577266Y478016D02*
Y483516D01*
X584200Y450396D02*
Y470984D01*
X558766Y465484D02*
Y483516D01*
X559234Y465484D02*
Y483516D01*
X540734Y478016D02*
Y483516D01*
X538480Y478016D02*
Y493484D01*
X540734Y483516D02*
X558766D01*
X530879Y492025D02*
X532338Y493484D01*
X533400Y478016D02*
Y493484D01*
X540734Y465484D02*
Y470984D01*
X528320Y478016D02*
Y486082D01*
X523240Y478016D02*
Y485289D01*
X604520Y450396D02*
Y470984D01*
X577266Y465484D02*
Y470984D01*
X609600Y450396D02*
Y470984D01*
X568960Y455896D02*
Y465484D01*
X574040Y455896D02*
Y465484D01*
X599440Y450396D02*
Y470984D01*
X594360Y450396D02*
Y470984D01*
X614680Y450396D02*
Y470984D01*
X589280Y450396D02*
Y470984D01*
X577266Y450396D02*
Y455896D01*
X563880D02*
Y465484D01*
X559234D02*
X577266D01*
X559234Y455896D02*
X577266D01*
X553720D02*
Y465484D01*
X540734D02*
X558766D01*
X548640Y455896D02*
Y465484D01*
X540734Y455896D02*
X558766D01*
X543560D02*
Y465484D01*
X540734Y450396D02*
Y455896D01*
X721360Y309880D02*
Y443364D01*
X716280Y309880D02*
Y443364D01*
X725047D02*
X751641Y416769D01*
X706120Y309880D02*
Y443364D01*
X711200Y309880D02*
Y443364D01*
X695960Y309880D02*
Y443364D01*
X690880Y309880D02*
Y443364D01*
X701040Y309880D02*
Y443364D01*
X680720Y309880D02*
Y443364D01*
X685800Y309880D02*
Y443364D01*
X650240Y309880D02*
Y443364D01*
X645160Y309880D02*
Y443364D01*
X577266D02*
X725047D01*
X635000Y309880D02*
Y443364D01*
X640080Y309880D02*
Y443364D01*
X670560Y309880D02*
Y443364D01*
X675640Y309880D02*
Y443364D01*
X655320Y309880D02*
Y443364D01*
X660400Y309880D02*
Y443364D01*
X772160Y309880D02*
Y415734D01*
X767080Y309880D02*
Y415734D01*
X782320Y309880D02*
Y415734D01*
X762000Y309880D02*
Y415734D01*
X756920Y309880D02*
Y415734D01*
X777240Y309880D02*
Y415734D01*
X746760Y309880D02*
Y421651D01*
X751840Y309880D02*
Y416585D01*
X532514Y421640D02*
X746771D01*
X530191Y426720D02*
X741691D01*
X531156Y416560D02*
X751869D01*
X577266Y441960D02*
X726451D01*
X736600Y309880D02*
Y431811D01*
X731520Y309880D02*
Y436891D01*
X741680Y309880D02*
Y426731D01*
X665480Y309880D02*
Y443364D01*
X726440Y309880D02*
Y441971D01*
X594360Y309880D02*
Y443364D01*
X589280Y309880D02*
Y443364D01*
X599440Y309880D02*
Y443364D01*
X579120Y309880D02*
Y443364D01*
X584200Y309880D02*
Y443364D01*
X624840Y309880D02*
Y443364D01*
X619760Y309880D02*
Y443364D01*
X629920Y309880D02*
Y443364D01*
X604520Y309880D02*
Y443364D01*
X609600Y309880D02*
Y443364D01*
X559234Y437864D02*
Y455896D01*
X538480Y450396D02*
Y470984D01*
X577266Y437864D02*
Y443364D01*
X528320Y450396D02*
Y470984D01*
X533400Y450396D02*
Y470984D01*
X558800Y309880D02*
Y493484D01*
X558766Y437864D02*
Y455896D01*
X528320Y428113D02*
Y443364D01*
X533400Y405899D02*
Y443364D01*
X614680Y309880D02*
Y443364D01*
X559234Y437864D02*
X577266D01*
X568960Y309880D02*
Y437864D01*
X543560Y399720D02*
Y437864D01*
X548640Y393097D02*
Y437864D01*
X563880Y309880D02*
Y437864D01*
X574040Y309880D02*
Y437864D01*
X553720Y309880D02*
Y437864D01*
X548640Y309880D02*
Y366615D01*
X540734Y437864D02*
Y443364D01*
X538480Y403567D02*
Y443364D01*
X540734Y437864D02*
X558766D01*
X528320Y407108D02*
Y413998D01*
X523240Y407342D02*
Y413143D01*
X543560Y309880D02*
Y359992D01*
X538480Y309880D02*
Y356144D01*
X533400Y309880D02*
Y353812D01*
X528320Y309880D02*
Y352603D01*
X499232Y492760D02*
X519170D01*
X494152Y487680D02*
X519964D01*
X501500Y478016D02*
X540734D01*
X508000Y450396D02*
Y470984D01*
X493992Y462020D02*
X502956Y470984D01*
X513080Y450396D02*
Y470984D01*
X497840Y475812D02*
Y491368D01*
X492760Y470732D02*
Y486288D01*
X489072Y482600D02*
X540734D01*
X444266Y492760D02*
X489288D01*
X483992Y477520D02*
X499700D01*
X444266Y487680D02*
X484208D01*
X425120Y482600D02*
X479128D01*
X490044Y468016D02*
X499008Y476981D01*
X478912Y472440D02*
X494468D01*
X487680Y468016D02*
Y481208D01*
X482600Y468016D02*
Y476128D01*
X502956Y470984D02*
X540734D01*
X494252Y462280D02*
X711248D01*
X496772Y457200D02*
X716328D01*
X499332Y467360D02*
X540734D01*
X497840Y456132D02*
Y465868D01*
X523240Y450396D02*
Y470984D01*
X501852Y452120D02*
X540734D01*
X503576Y450396D02*
X540734D01*
X518160D02*
Y470984D01*
X502920Y451052D02*
Y470948D01*
X474360Y468016D02*
X490044D01*
X493492Y460480D02*
X503576Y450396D01*
X468266Y447040D02*
X496988D01*
X468266Y454484D02*
X489544D01*
X468266Y452120D02*
X491908D01*
X468266Y474516D02*
X471044D01*
X449734Y475516D02*
X468266D01*
X449734Y469016D02*
Y475516D01*
X468266Y474516D02*
Y475516D01*
X477520Y468016D02*
Y471048D01*
X449734Y466484D02*
Y469016D01*
X444266Y458016D02*
Y482016D01*
X449734Y466484D02*
Y469016D01*
X441960Y482016D02*
Y485484D01*
X436880Y482016D02*
Y485484D01*
X425120D02*
X444266D01*
X425120Y482016D02*
Y485484D01*
X431800Y482016D02*
Y485484D01*
X444266Y477520D02*
X474048D01*
X444266Y472440D02*
X449734D01*
X426720Y482016D02*
Y485484D01*
X425120Y482016D02*
X444266D01*
X449734Y456016D02*
Y459984D01*
Y462516D01*
X468266Y453484D02*
Y454484D01*
X449734Y462516D02*
Y466484D01*
Y459984D02*
Y462516D01*
X468266Y449516D02*
Y453484D01*
Y454484D01*
Y446984D02*
Y449516D01*
X449734Y453484D02*
Y456016D01*
X468266Y446984D02*
Y449516D01*
X449734Y453484D02*
Y456016D01*
X444266Y457200D02*
X449734D01*
X444266Y452120D02*
X449734D01*
X444266Y467360D02*
X449734D01*
X444266Y462280D02*
X449734D01*
Y446984D02*
Y449516D01*
Y446984D02*
Y449516D01*
Y453484D01*
X444266Y447040D02*
X449734D01*
X523240Y428969D02*
Y443364D01*
X518160Y425936D02*
Y443364D01*
X502120D02*
X540734D01*
X513080Y404881D02*
Y443364D01*
X502920Y396903D02*
Y443364D01*
X508000Y401861D02*
Y443364D01*
X468266Y441960D02*
X540734D01*
X462532Y436880D02*
X731531D01*
X462532Y431800D02*
X736611D01*
X489544Y454484D02*
X499628Y444399D01*
X462532Y426720D02*
X518847D01*
X464982Y421640D02*
X516525D01*
X463059Y416560D02*
X517883D01*
X492760Y309880D02*
Y451268D01*
X497840Y386590D02*
Y446188D01*
X518160Y406627D02*
Y416175D01*
Y309880D02*
Y353085D01*
X425120Y396240D02*
X502413D01*
X425120Y391160D02*
X499432D01*
X513080Y309880D02*
Y354830D01*
X508000Y309880D02*
Y357850D01*
X523240Y309880D02*
Y352369D01*
X497840Y309880D02*
Y373122D01*
X502920Y309880D02*
Y362809D01*
X425120Y401320D02*
X507303D01*
X425120Y406400D02*
X517271D01*
X425120Y386080D02*
X497716D01*
X425120Y381000D02*
X497027D01*
X425120Y375920D02*
X497286D01*
X425120Y360680D02*
X504785D01*
X425120Y355600D02*
X511527D01*
X425120Y370840D02*
X498522D01*
X425120Y365760D02*
X500888D01*
X477520Y309880D02*
Y454484D01*
X468266Y440484D02*
Y446984D01*
X462532Y440484D02*
X468266D01*
X455468Y425870D02*
Y440484D01*
X462532Y425870D02*
Y440484D01*
X482600Y309880D02*
Y454484D01*
X472440Y309880D02*
Y454484D01*
X487680Y309880D02*
Y454484D01*
X452120Y309880D02*
Y440484D01*
X467360Y309880D02*
Y440484D01*
X449734D02*
X455468D01*
X444266Y441960D02*
X449734D01*
X444266Y436880D02*
X455468D01*
X444266Y433984D02*
Y457984D01*
X449734Y440484D02*
Y446984D01*
X441960Y430516D02*
Y433984D01*
X425120D02*
X444266D01*
X431800Y430516D02*
Y433984D01*
X436880Y430516D02*
Y433984D01*
X444266Y426720D02*
X455468D01*
X444266Y421640D02*
X453018D01*
X444266Y416560D02*
X454941D01*
X462280Y309880D02*
Y415957D01*
X457200Y309880D02*
Y415260D01*
X444266Y406484D02*
Y430516D01*
X441960Y309880D02*
Y406484D01*
X425120Y430516D02*
X444266D01*
X425120Y431800D02*
X455468D01*
X425120Y406484D02*
X444266D01*
X425120Y430516D02*
Y433984D01*
X426720Y430516D02*
Y433984D01*
X431800Y309880D02*
Y406484D01*
X436880Y309880D02*
Y406484D01*
X425120Y309880D02*
Y406484D01*
X426720Y309880D02*
Y406484D01*
X1528000Y486000D02*
X1534000Y492000D01*
X1528000Y471000D02*
Y486000D01*
X459000Y421000D02*
Y445000D01*
X1219000Y535000D02*
X1223000Y531000D01*
X1209340Y535000D02*
X1219000D01*
X1195000Y650000D02*
X1209340D01*
X1186000Y641000D02*
X1195000Y650000D01*
X1186000Y635000D02*
Y641000D01*
X1097000Y690880D02*
X1098000D01*
X1085880D02*
X1097000D01*
X908440Y518860D02*
Y530560D01*
X898000Y541000D02*
X908440Y530560D01*
X776940Y540360D02*
X790360D01*
X795000Y545000D01*
X868440Y671860D02*
Y684320D01*
X875000Y690880D01*
X761640Y655360D02*
X776940D01*
X754000Y663000D02*
X761640Y655360D01*
X1077840Y671500D02*
Y682840D01*
X1085880Y690880D01*
X1117840Y518500D02*
Y539840D01*
X1124000Y546000D01*
D11*
X1166000Y471250D02*
D03*
Y452750D02*
D03*
X1144000Y471250D02*
D03*
Y452750D02*
D03*
X1067000Y480250D02*
D03*
Y461750D02*
D03*
X729500Y635250D02*
D03*
Y616750D02*
D03*
X1499000Y570250D02*
D03*
Y551750D02*
D03*
X1524000Y570250D02*
D03*
Y551750D02*
D03*
X1090000Y480484D02*
D03*
Y461984D02*
D03*
X1072840Y706750D02*
D03*
Y725250D02*
D03*
X1350000Y556750D02*
D03*
Y575250D02*
D03*
D12*
X1114250Y428000D02*
D03*
X1095750D02*
D03*
X1264500Y540000D02*
D03*
X1283000D02*
D03*
X915910Y476000D02*
D03*
X934410D02*
D03*
X963750Y655320D02*
D03*
X982250D02*
D03*
X887750Y757000D02*
D03*
X906250D02*
D03*
X887750Y721360D02*
D03*
X906250D02*
D03*
X790250Y697000D02*
D03*
X771750D02*
D03*
X790250Y723000D02*
D03*
X771750D02*
D03*
X678250Y523240D02*
D03*
X659750D02*
D03*
X678250Y650240D02*
D03*
X659750D02*
D03*
X549750Y474500D02*
D03*
X568250D02*
D03*
X549750Y446880D02*
D03*
X568250D02*
D03*
D13*
X1528000Y458000D02*
D03*
Y464500D02*
D03*
Y471000D02*
D03*
Y451500D02*
D03*
Y445000D02*
D03*
X459000Y458000D02*
D03*
Y451500D02*
D03*
Y445000D02*
D03*
Y464500D02*
D03*
Y471000D02*
D03*
D14*
X1554750Y470000D02*
D03*
Y446000D02*
D03*
Y497500D02*
D03*
Y418500D02*
D03*
X432250Y446000D02*
D03*
Y470000D02*
D03*
Y418500D02*
D03*
Y497500D02*
D03*
D15*
X913440Y671860D02*
D03*
X908440D02*
D03*
X903440D02*
D03*
X898440D02*
D03*
X893440D02*
D03*
X888440D02*
D03*
X883440D02*
D03*
X878440D02*
D03*
X873440D02*
D03*
X868440D02*
D03*
X863440D02*
D03*
X858440D02*
D03*
X853440D02*
D03*
X848440D02*
D03*
X843440D02*
D03*
X838440D02*
D03*
X833440D02*
D03*
X828440D02*
D03*
X823440D02*
D03*
X818440D02*
D03*
X813440D02*
D03*
X808440D02*
D03*
X803440D02*
D03*
X798440D02*
D03*
X793440D02*
D03*
Y518860D02*
D03*
X798440D02*
D03*
X803440D02*
D03*
X808440D02*
D03*
X813440D02*
D03*
X818440D02*
D03*
X823440D02*
D03*
X828440D02*
D03*
X833440D02*
D03*
X838440D02*
D03*
X843440D02*
D03*
X848440D02*
D03*
X853440D02*
D03*
X858440D02*
D03*
X863440D02*
D03*
X868440D02*
D03*
X873440D02*
D03*
X878440D02*
D03*
X883440D02*
D03*
X888440D02*
D03*
X893440D02*
D03*
X898440D02*
D03*
X903440D02*
D03*
X908440D02*
D03*
X913440D02*
D03*
X1072840Y518500D02*
D03*
X1077840D02*
D03*
X1082840D02*
D03*
X1087840D02*
D03*
X1092840D02*
D03*
X1097840D02*
D03*
X1102840D02*
D03*
X1107840D02*
D03*
X1112840D02*
D03*
X1117840D02*
D03*
X1122840D02*
D03*
X1127840D02*
D03*
X1132840D02*
D03*
X1137840D02*
D03*
X1142840D02*
D03*
X1147840D02*
D03*
X1152840D02*
D03*
X1157840D02*
D03*
X1162840D02*
D03*
X1167840D02*
D03*
X1172840D02*
D03*
X1177840D02*
D03*
X1182840D02*
D03*
X1187840D02*
D03*
X1192840D02*
D03*
Y671500D02*
D03*
X1187840D02*
D03*
X1182840D02*
D03*
X1177840D02*
D03*
X1172840D02*
D03*
X1167840D02*
D03*
X1162840D02*
D03*
X1157840D02*
D03*
X1152840D02*
D03*
X1147840D02*
D03*
X1142840D02*
D03*
X1137840D02*
D03*
X1132840D02*
D03*
X1127840D02*
D03*
X1122840D02*
D03*
X1117840D02*
D03*
X1112840D02*
D03*
X1107840D02*
D03*
X1102840D02*
D03*
X1097840D02*
D03*
X1092840D02*
D03*
X1087840D02*
D03*
X1082840D02*
D03*
X1077840D02*
D03*
X1072840D02*
D03*
D16*
X776940Y655360D02*
D03*
Y650360D02*
D03*
Y645360D02*
D03*
Y640360D02*
D03*
Y635360D02*
D03*
Y630360D02*
D03*
Y625360D02*
D03*
Y620360D02*
D03*
Y615360D02*
D03*
Y610360D02*
D03*
Y605360D02*
D03*
Y600360D02*
D03*
Y595360D02*
D03*
Y590360D02*
D03*
Y585360D02*
D03*
Y580360D02*
D03*
Y575360D02*
D03*
Y570360D02*
D03*
Y565360D02*
D03*
Y560360D02*
D03*
Y555360D02*
D03*
Y550360D02*
D03*
Y545360D02*
D03*
Y540360D02*
D03*
Y535360D02*
D03*
X929940D02*
D03*
Y540360D02*
D03*
Y545360D02*
D03*
Y550360D02*
D03*
Y555360D02*
D03*
Y560360D02*
D03*
Y565360D02*
D03*
Y570360D02*
D03*
Y575360D02*
D03*
Y580360D02*
D03*
Y585360D02*
D03*
Y590360D02*
D03*
Y595360D02*
D03*
Y600360D02*
D03*
Y605360D02*
D03*
Y610360D02*
D03*
Y615360D02*
D03*
Y620360D02*
D03*
Y625360D02*
D03*
Y630360D02*
D03*
Y635360D02*
D03*
Y640360D02*
D03*
Y645360D02*
D03*
Y650360D02*
D03*
Y655360D02*
D03*
X1209340Y535000D02*
D03*
Y540000D02*
D03*
Y545000D02*
D03*
Y550000D02*
D03*
Y555000D02*
D03*
Y560000D02*
D03*
Y565000D02*
D03*
Y570000D02*
D03*
Y575000D02*
D03*
Y580000D02*
D03*
Y585000D02*
D03*
Y590000D02*
D03*
Y595000D02*
D03*
Y600000D02*
D03*
Y605000D02*
D03*
Y610000D02*
D03*
Y615000D02*
D03*
Y620000D02*
D03*
Y625000D02*
D03*
Y630000D02*
D03*
Y635000D02*
D03*
Y640000D02*
D03*
Y645000D02*
D03*
Y650000D02*
D03*
Y655000D02*
D03*
X1056340D02*
D03*
Y650000D02*
D03*
Y645000D02*
D03*
Y640000D02*
D03*
Y635000D02*
D03*
Y630000D02*
D03*
Y625000D02*
D03*
Y620000D02*
D03*
Y615000D02*
D03*
Y610000D02*
D03*
Y605000D02*
D03*
Y600000D02*
D03*
Y595000D02*
D03*
Y590000D02*
D03*
Y585000D02*
D03*
Y580000D02*
D03*
Y575000D02*
D03*
Y570000D02*
D03*
Y565000D02*
D03*
Y560000D02*
D03*
Y555000D02*
D03*
Y550000D02*
D03*
Y545000D02*
D03*
Y540000D02*
D03*
Y535000D02*
D03*
D17*
X827750Y845000D02*
D03*
X887750D02*
D03*
X1217000D02*
D03*
X1157000D02*
D03*
X979000Y914000D02*
D03*
X919000D02*
D03*
X1034000D02*
D03*
X1094000D02*
D03*
D18*
X1343000Y982500D02*
X1358040D01*
X1343000Y940500D02*
X1358040D01*
X1343000Y898500D02*
X1358040D01*
X1327960Y982500D02*
X1343000D01*
Y967460D02*
Y982500D01*
Y940500D02*
Y955540D01*
Y925460D02*
Y940500D01*
X1327960D02*
X1343000D01*
Y898500D02*
Y913540D01*
X1327960Y898500D02*
X1343000D01*
Y883460D02*
Y898500D01*
X1088830Y1078110D02*
X1094870D01*
X1088830D02*
Y1084150D01*
X1082790Y1078110D02*
X1088830D01*
Y1072070D02*
Y1078110D01*
X1018830Y1138110D02*
Y1144150D01*
X1012790Y1138110D02*
X1018830D01*
Y1132070D02*
Y1138110D01*
X1034000Y914000D02*
Y936540D01*
Y914000D02*
X1051540D01*
X1016460D02*
X1034000D01*
Y891460D02*
Y914000D01*
X1209340Y560000D02*
X1218880D01*
X1199800D02*
X1209340D01*
X1162840Y518500D02*
Y528040D01*
X1152840Y518500D02*
Y528040D01*
X1162840Y508960D02*
Y518500D01*
X1152840Y508960D02*
Y518500D01*
X1156960Y452750D02*
X1166000D01*
Y443710D02*
Y452750D01*
X1175040D01*
X1134960D02*
X1144000D01*
X1153040D01*
X1144000Y443710D02*
Y452750D01*
X998830Y1138110D02*
Y1144150D01*
Y1138110D02*
X1004870D01*
X998830Y1132070D02*
Y1138110D01*
X992790D02*
X998830D01*
X978830D02*
Y1144150D01*
X972790Y1138110D02*
X978830D01*
Y1132070D02*
Y1138110D01*
X984870D01*
X958830D02*
X964870D01*
X958830D02*
Y1144150D01*
Y1132070D02*
Y1138110D01*
X952790D02*
X958830D01*
X979000Y914000D02*
Y936540D01*
Y914000D02*
X996540D01*
X961460D02*
X979000D01*
Y891460D02*
Y914000D01*
X898830Y1078110D02*
Y1084150D01*
X892790Y1078110D02*
X898830D01*
Y1072070D02*
Y1078110D01*
X833440Y671860D02*
Y681400D01*
Y662320D02*
Y671860D01*
X607500Y912250D02*
X622540D01*
X607500Y870250D02*
X622540D01*
X607500Y912250D02*
Y927290D01*
X592460Y912250D02*
X607500D01*
Y897210D02*
Y912250D01*
Y870250D02*
Y885290D01*
Y855210D02*
Y870250D01*
X592460D02*
X607500D01*
Y828250D02*
X622540D01*
X607500D02*
Y843290D01*
X592460Y828250D02*
X607500D01*
Y813210D02*
Y828250D01*
X771750Y723000D02*
Y732040D01*
X762710Y723000D02*
X771750D01*
Y713960D02*
Y723000D01*
X762710Y697000D02*
X771750D01*
Y706040D01*
Y687960D02*
Y697000D01*
X823440Y662320D02*
Y671860D01*
Y681400D01*
X776940Y630360D02*
X786480D01*
X767400D02*
X776940D01*
D19*
X1297500Y555000D02*
X1299250Y556750D01*
X1209340Y555000D02*
X1297500D01*
X1348250D02*
X1350000Y556750D01*
X1209340Y575000D02*
X1349750D01*
X1165500Y471250D02*
Y496660D01*
X827630Y635250D02*
X828440Y636060D01*
X1209340Y540000D02*
X1229750D01*
X1184570Y538480D02*
X1209550Y513500D01*
X1185000Y543000D02*
X1204500Y523500D01*
X1165500Y496660D02*
X1172840Y504000D01*
X793440Y512050D02*
Y518860D01*
X788640Y507250D02*
X793440Y512050D01*
X531131Y507250D02*
X788640D01*
X530881Y497000D02*
X686450D01*
X757200Y426250D01*
X810250D01*
X827000Y443000D01*
Y481050D01*
X798440Y509610D02*
X827000Y481050D01*
X798440Y509610D02*
Y518860D01*
X834000Y439800D02*
Y483950D01*
X754133Y419250D02*
X813450D01*
X834000Y439800D01*
X830500Y441250D02*
Y482500D01*
X812000Y422750D02*
X830500Y441250D01*
X755750Y422750D02*
X812000D01*
X726503Y446880D02*
X754133Y419250D01*
X704000Y474500D02*
X755750Y422750D01*
X568250Y474500D02*
X704000D01*
X808440Y509510D02*
X834000Y483950D01*
X808440Y509510D02*
Y518860D01*
X803440Y509560D02*
X830500Y482500D01*
X803440Y509560D02*
Y518860D01*
X524941Y501059D02*
X531131Y507250D01*
X1144000Y480028D02*
X1167840Y503868D01*
X1144000Y471806D02*
Y480028D01*
Y471250D02*
Y471806D01*
X1114250Y464250D02*
X1129000Y479000D01*
X1114250Y428000D02*
Y464250D01*
X1129000Y479191D02*
X1157840Y508031D01*
X1129000Y479000D02*
Y479191D01*
X1106296Y466456D02*
X1142840Y503000D01*
X1106296Y450296D02*
Y466456D01*
X1095750Y439750D02*
X1106296Y450296D01*
X1095750Y428000D02*
Y439750D01*
X1090000Y480484D02*
X1097484D01*
X1122840Y505840D02*
Y518500D01*
X1097484Y480484D02*
X1122840Y505840D01*
X1514840Y458000D02*
X1528000D01*
X1506000Y466840D02*
X1514840Y458000D01*
X1506000Y466840D02*
Y520000D01*
X1524000Y538000D01*
Y551750D01*
X1511500Y451500D02*
X1528000D01*
X1499000Y464000D02*
X1511500Y451500D01*
X1499000Y464000D02*
Y551750D01*
X1416000Y699000D02*
X1524000Y591000D01*
Y570250D02*
Y591000D01*
X1408500Y694500D02*
X1499000Y604000D01*
Y570250D02*
Y604000D01*
X568250Y446880D02*
X726503D01*
X501500Y474500D02*
X549750D01*
X491500Y464500D02*
X501500Y474500D01*
X459000Y464500D02*
X491500D01*
X502120Y446880D02*
X549750D01*
X491000Y458000D02*
X502120Y446880D01*
X459000Y458000D02*
X491000D01*
X1041000Y655000D02*
X1056340D01*
X1013000Y627000D02*
X1041000Y655000D01*
X1013000Y460060D02*
Y627000D01*
X1085000Y662000D02*
X1087840Y664840D01*
X1026028Y662000D02*
X1085000D01*
X1004000Y639972D02*
X1026028Y662000D01*
X1004000Y443660D02*
Y639972D01*
X1013000Y460060D02*
X1098440Y374620D01*
X1085584Y393516D02*
X1130344D01*
X1021080Y458021D02*
Y628080D01*
X1084050Y400000D02*
X1148000D01*
X1030000Y454050D02*
Y579000D01*
Y454050D02*
X1084050Y400000D01*
X1021080Y458021D02*
X1085584Y393516D01*
X1081000Y408000D02*
X1163000D01*
X1036320Y452680D02*
X1081000Y408000D01*
X1036320Y452680D02*
Y576000D01*
X1130344Y393516D02*
X1149240Y374620D01*
X1071880Y981500D02*
Y1125060D01*
X1058830Y1138110D02*
X1071880Y1125060D01*
X1028830Y1138110D02*
X1058830D01*
X1163320Y571480D02*
Y603000D01*
Y571480D02*
X1179800Y555000D01*
X1209340D01*
X1127840Y533840D02*
X1137000Y543000D01*
X1132840Y529840D02*
X1141480Y538480D01*
X1349750Y575000D02*
X1350000Y575250D01*
X1071000Y540000D02*
X1082040Y551040D01*
X1163000Y408000D02*
X1174640Y396360D01*
X1148000Y400000D02*
X1162000Y386000D01*
X1157840Y508031D02*
Y518500D01*
X1142840Y503000D02*
Y518500D01*
X828440Y636060D02*
Y671860D01*
X827630Y635250D02*
X828750D01*
X801640Y635360D02*
X809000Y628000D01*
X843440Y635440D02*
Y671860D01*
X776940Y635360D02*
X801640D01*
X938800Y680720D02*
X942000D01*
X914080Y656000D02*
X938800Y680720D01*
X1395204Y691000D02*
X1475000Y611203D01*
X1194800Y691000D02*
X1395204D01*
X1187840Y684040D02*
X1194800Y691000D01*
X1187840Y671500D02*
Y684040D01*
X1195800Y685800D02*
X1390403D01*
X1192840Y682840D02*
X1195800Y685800D01*
X1192840Y671500D02*
Y682840D01*
X1209340Y655000D02*
X1258750D01*
X1390403Y685800D02*
X1475000Y601203D01*
X961000Y343520D02*
Y581000D01*
X941640Y600360D02*
X961000Y581000D01*
X929940Y600360D02*
X941640D01*
X1174640Y374620D02*
Y396360D01*
X1036320Y576000D02*
X1045320Y585000D01*
X1056340D01*
X1123840Y374620D02*
X1137780Y360680D01*
X1153680D01*
X1162000Y369000D01*
Y386000D01*
X1030000Y579000D02*
X1041000Y590000D01*
X1056340D01*
X1087840Y664840D02*
Y671500D01*
X1004000Y443660D02*
X1073040Y374620D01*
X1021080Y628080D02*
X1043000Y650000D01*
X1056340D01*
X1067340Y480590D02*
Y532460D01*
X1064800Y535000D02*
X1067340Y532460D01*
X1056340Y535000D02*
X1064800D01*
X813440Y671860D02*
Y691280D01*
X807720Y697000D02*
X813440Y691280D01*
X790250Y697000D02*
X807720D01*
X818440Y671860D02*
Y709840D01*
X805280Y723000D02*
X818440Y709840D01*
X790250Y723000D02*
X805280D01*
X708360Y535360D02*
X776940D01*
X696240Y523240D02*
X708360Y535360D01*
X678250Y523240D02*
X696240D01*
X839710Y349080D02*
X852630Y362000D01*
X903000Y361990D02*
X915910Y349080D01*
X878000Y340380D02*
Y354664D01*
Y340380D02*
X892380Y326000D01*
X870664Y362000D02*
X878000Y354664D01*
X852630Y362000D02*
X870664D01*
X892380Y326000D02*
X935230D01*
X954000Y344770D01*
X938480Y321000D02*
X961000Y343520D01*
X881760Y321000D02*
X938480D01*
X890510Y339490D02*
Y349080D01*
X865110Y337650D02*
Y349080D01*
X814310D02*
X850390Y313000D01*
X865110Y337650D02*
X881760Y321000D01*
X938459Y313000D02*
X970280Y344821D01*
X850390Y313000D02*
X938459D01*
X954000Y344770D02*
Y530040D01*
X943680Y540360D02*
X954000Y530040D01*
X929940Y540360D02*
X943680D01*
X940640Y535360D02*
X946000Y530000D01*
Y347000D02*
Y530000D01*
X931000Y332000D02*
X946000Y347000D01*
X929940Y535360D02*
X940640D01*
X913440Y478470D02*
Y518860D01*
Y478470D02*
X915910Y476000D01*
X898000Y332000D02*
X931000D01*
X890510Y339490D02*
X898000Y332000D01*
X970280Y344821D02*
Y580720D01*
X945640Y605360D02*
X970280Y580720D01*
X929940Y605360D02*
X945640D01*
X903000Y361990D02*
Y383000D01*
X898440Y387560D02*
X903000Y383000D01*
X898440Y387560D02*
Y518860D01*
X826000Y748000D02*
X853440Y720560D01*
X747500Y748000D02*
X826000D01*
X707750Y708250D02*
X747500Y748000D01*
X853440Y671860D02*
Y720560D01*
X858440Y671860D02*
Y739560D01*
X842750Y755250D02*
X858440Y739560D01*
X707750Y755250D02*
X842750D01*
X600360Y585360D02*
X776940D01*
X596083Y581083D02*
X600360Y585360D01*
X524941Y581083D02*
X596083D01*
X524941Y591071D02*
X525652Y590360D01*
X776940D01*
X867910Y823410D02*
Y866590D01*
X1176840Y823410D02*
Y866590D01*
X938840Y892410D02*
Y935590D01*
X1074160Y892410D02*
Y935590D01*
X524941Y491059D02*
X530881Y497000D01*
X524941Y571095D02*
X594095D01*
X603360Y580360D01*
X776940D01*
X524941Y561107D02*
X592107D01*
X606360Y575360D01*
X776940D01*
X524941Y551119D02*
X589239D01*
X608480Y570360D01*
X776940D01*
X524941Y541059D02*
X586059D01*
X610360Y565360D01*
X776940D01*
X524941Y521059D02*
X581579D01*
X615880Y555360D01*
X776940D01*
X524941Y511059D02*
X579499D01*
X618800Y550360D01*
X776940D01*
X524941Y601059D02*
X595214D01*
X600913Y595360D01*
X776940D01*
X524941Y611059D02*
X595941D01*
X606640Y600360D01*
X776940D01*
X776820Y650240D02*
X776940Y650360D01*
X1209340Y640000D02*
X1426203D01*
X1475000Y591203D01*
X1209340Y635000D02*
X1421208D01*
X1475000Y581208D01*
X1209340Y625000D02*
X1411217D01*
X1475000Y561217D01*
X1209340Y620000D02*
X1406222D01*
X1475000Y551222D01*
X1209340Y615000D02*
X1401227D01*
X1475000Y541227D01*
X1209340Y610000D02*
X1396231D01*
X1475000Y531231D01*
X1209340Y605000D02*
X1391236D01*
X1475000Y521236D01*
X1209340Y600000D02*
X1386241D01*
X1475000Y511241D01*
X1209340Y595000D02*
X1381245D01*
X1475000Y501245D01*
X1209340Y590000D02*
X1376250D01*
X1475000Y491250D01*
X863440Y671860D02*
Y697050D01*
X887750Y721360D01*
X929940Y655360D02*
X963710D01*
X963750Y655320D01*
X1072840Y671500D02*
Y706750D01*
X1132840Y518500D02*
Y529840D01*
X1127840Y518500D02*
Y533840D01*
X1067000Y480250D02*
X1067340Y480590D01*
X1172840Y504000D02*
Y518500D01*
X1056340Y540000D02*
X1071000D01*
X914360Y650360D02*
X929940D01*
X895000Y631000D02*
X914360Y650360D01*
X1177840Y671500D02*
Y688840D01*
X1188000Y699000D01*
X1182840Y671500D02*
Y686840D01*
X1190500Y694500D01*
X1408500D01*
X1188000Y699000D02*
X1416000D01*
X1167840Y503868D02*
Y518500D01*
X1137000Y543000D02*
X1185000D01*
X1141480Y538480D02*
X1184570D01*
X459000Y471000D02*
X472500D01*
X511000Y509500D01*
Y520000D01*
X522000Y531000D01*
X583250D01*
X612500Y560250D01*
X776830D01*
X776940Y560360D01*
X524941Y621059D02*
X595191D01*
X610890Y605360D01*
X776940D01*
X1505250Y445000D02*
X1528000D01*
X1486750Y463500D02*
X1505250Y445000D01*
X1486750Y463500D02*
Y559000D01*
X1209340Y630000D02*
X1415750D01*
X1486750Y559000D01*
X1209340Y585000D02*
X1371204D01*
X1475000Y481204D01*
X1209550Y513500D02*
X1296750D01*
X1328500Y481750D01*
X1333750Y523500D02*
X1375500Y481750D01*
X1204500Y523500D02*
X1333750D01*
X809000Y628000D02*
X863000D01*
X891000Y656000D01*
X914080D01*
X1071880Y981500D02*
X1122250D01*
X1149750Y1009000D01*
X730890Y615360D02*
X776940D01*
X729500Y616750D02*
X730890Y615360D01*
X729610Y635360D02*
X776940D01*
X729500Y635250D02*
X729610Y635360D01*
X680250Y650240D02*
X776820D01*
X714910Y635250D02*
X729500D01*
X698660Y619000D02*
X714910Y635250D01*
X630500Y619000D02*
X698660D01*
X634680Y635250D02*
X693000D01*
X604750Y644750D02*
X630500Y619000D01*
X903000Y1015500D02*
X948830Y1061330D01*
Y1078110D01*
X1261000Y1009000D02*
X1287500Y982500D01*
X1149750Y1009000D02*
X1261000D01*
X610250Y659680D02*
X634680Y635250D01*
X610250Y659680D02*
Y756250D01*
X655250Y801250D01*
X677500D01*
X690000Y813750D01*
X662500Y870250D02*
X690000Y842750D01*
Y813750D02*
Y842750D01*
X604750Y770500D02*
X662500Y828250D01*
X604750Y644750D02*
Y770500D01*
D20*
X1229750Y540000D02*
X1264500D01*
D21*
X919000Y914000D02*
Y944250D01*
X1144000Y471250D02*
X1165500D01*
X915910Y374480D02*
Y476000D01*
X963710Y655360D02*
Y675090D01*
X942800Y696000D02*
X963710Y675090D01*
X901080Y696000D02*
X942800D01*
X887750Y1025750D02*
X908830Y1046830D01*
Y1078110D01*
X887750Y845000D02*
Y1025750D01*
Y757000D02*
Y845000D01*
X790250Y697000D02*
Y723000D01*
X887750Y721360D02*
Y757000D01*
Y709330D02*
Y721360D01*
Y709330D02*
X901080Y696000D01*
X1039940Y316120D02*
X1073040Y349220D01*
X1014750Y316120D02*
X1039940D01*
X1072840Y706750D02*
X1258750D01*
X1157000Y816250D02*
Y845000D01*
X887750D02*
X1103150D01*
X1136150Y878000D01*
X1235000D01*
X1094000Y914000D02*
X1138000D01*
X919000Y944250D02*
X930000Y955250D01*
X1118670D01*
X1151670Y988250D01*
X1240250D01*
X1278540Y949960D01*
X1287500Y898250D02*
Y898500D01*
X1153750Y898250D02*
X1287500D01*
X1138000Y914000D02*
X1153750Y898250D01*
X1235000Y878000D02*
X1251000Y862000D01*
Y835000D02*
Y862000D01*
Y835000D02*
X1288000Y798000D01*
X1157000Y816250D02*
X1217250Y756000D01*
X1288000D01*
D22*
X1328500Y481750D02*
D03*
X1375500D02*
D03*
X707750Y708250D02*
D03*
Y755250D02*
D03*
D23*
X1130030Y1108110D02*
D03*
X857630D02*
D03*
X524519Y706056D02*
D03*
Y379856D02*
D03*
Y1032256D02*
D03*
X1475000Y706200D02*
D03*
Y380000D02*
D03*
Y1032400D02*
D03*
D24*
X898830Y1108110D02*
D03*
X1088830D02*
D03*
X524519Y991056D02*
D03*
Y421056D02*
D03*
X1475000Y991200D02*
D03*
Y421200D02*
D03*
D25*
X814310Y349080D02*
D03*
Y374480D02*
D03*
X839710Y349080D02*
D03*
Y374480D02*
D03*
X865110Y349080D02*
D03*
Y374480D02*
D03*
X890510Y349080D02*
D03*
Y374480D02*
D03*
X915910Y349080D02*
D03*
X1073040Y374620D02*
D03*
X1098440Y349220D02*
D03*
Y374620D02*
D03*
X1123840Y349220D02*
D03*
Y374620D02*
D03*
X1149240Y349220D02*
D03*
Y374620D02*
D03*
X1174640Y349220D02*
D03*
Y374620D02*
D03*
D26*
X915910Y374480D02*
D03*
X1073040Y349220D02*
D03*
D27*
X1288000Y798000D02*
D03*
Y756000D02*
D03*
Y840000D02*
D03*
X1343000D02*
D03*
Y756000D02*
D03*
Y798000D02*
D03*
Y940500D02*
D03*
Y898500D02*
D03*
Y982500D02*
D03*
X1288000D02*
D03*
Y898500D02*
D03*
Y940500D02*
D03*
X662500Y870250D02*
D03*
Y912250D02*
D03*
Y828250D02*
D03*
X607500D02*
D03*
Y912250D02*
D03*
Y870250D02*
D03*
D28*
X1299250Y556750D02*
D03*
X1350000Y556750D02*
D03*
X1283000Y540000D02*
D03*
X1264500D02*
D03*
X1144000Y471806D02*
D03*
X1129000Y479000D02*
D03*
X1090000Y480484D02*
D03*
X1534000Y492000D02*
D03*
X459000Y421000D02*
D03*
X1058830Y1138110D02*
D03*
X1028830D02*
D03*
X1163320Y603000D02*
D03*
X1223000Y531000D02*
D03*
X1186000Y635000D02*
D03*
X1082040Y551040D02*
D03*
X1097280Y461750D02*
D03*
X828750Y635250D02*
D03*
X843440Y635440D02*
D03*
X1018830Y1138110D02*
D03*
X998830D02*
D03*
X978830D02*
D03*
X958830D02*
D03*
X942000Y680720D02*
D03*
X1258750Y655000D02*
D03*
X1475000Y611203D02*
D03*
Y601203D02*
D03*
X915910Y476000D02*
D03*
X963710Y655360D02*
D03*
X918830Y915000D02*
D03*
X908830Y1078110D02*
D03*
X790250Y697000D02*
D03*
X1475000Y591203D02*
D03*
Y581208D02*
D03*
Y561217D02*
D03*
Y551222D02*
D03*
Y541227D02*
D03*
Y531231D02*
D03*
Y521236D02*
D03*
Y511241D02*
D03*
Y501245D02*
D03*
Y491250D02*
D03*
X1088830Y1078110D02*
D03*
X898830D02*
D03*
X524941Y551119D02*
D03*
Y561107D02*
D03*
Y571095D02*
D03*
Y581083D02*
D03*
Y591071D02*
D03*
Y601059D02*
D03*
Y541059D02*
D03*
Y521059D02*
D03*
Y511059D02*
D03*
Y501059D02*
D03*
Y491059D02*
D03*
Y611059D02*
D03*
X678250Y523240D02*
D03*
Y650240D02*
D03*
X887750Y721360D02*
D03*
X1014750Y316120D02*
D03*
X1067000Y480250D02*
D03*
X1258750Y706750D02*
D03*
X1157000Y845000D02*
D03*
X1094000Y914000D02*
D03*
X659750Y650240D02*
D03*
Y523240D02*
D03*
X934410Y476000D02*
D03*
X1217000Y845000D02*
D03*
X827750D02*
D03*
X898000Y541000D02*
D03*
X795000Y545000D02*
D03*
X875000Y690880D02*
D03*
X754000Y663000D02*
D03*
X1072840Y725250D02*
D03*
X1097000Y690880D02*
D03*
X1124000Y546000D02*
D03*
X1067000Y461750D02*
D03*
X982250Y655320D02*
D03*
X906250Y721360D02*
D03*
Y757000D02*
D03*
X895000Y631000D02*
D03*
X524941Y621059D02*
D03*
X1475000Y481204D02*
D03*
X1071880Y981500D02*
D03*
X693000Y635250D02*
D03*
X948830Y1078110D02*
D03*
X903000Y1015500D02*
D03*
M02*
