M48
;Layer_Color=9474304
;FILE_FORMAT=4:4
METRIC,LZ
;TYPE=PLATED
T1F00S00C0.4000
T2F00S00C0.6000
T3F00S00C0.9000
T4F00S00C1.0000
T5F00S00C1.8000
T6F00S00C2.3000
;TYPE=NON_PLATED
T7F00S00C1.1000
T8F00S00C4.0000
%
T01
X0101475Y0031812
X013285Y00411
X013755Y0041025
X014732Y00480614
Y00490614
Y00500614
Y00510614
Y00520614
Y00530614
Y00540614
Y00550614
Y00560614
Y00580614
Y00590614
Y00600614
Y00610614
X0152525Y00531
X01345Y00557
X0131275Y00565
X0129925Y0055675
X01283Y0054
X012645
X0125125Y00565
X01223Y00531
X0125875Y00655
Y0070675
X0137069Y006565
X01186Y00635
X0116332Y00603
X01134Y00565
X0112025Y0057175
X01124Y00546
X011525Y005315
X01144Y00471806
X01131618Y00476573
X010975Y0046736
X0108503Y00462
X0107775Y00480734
X0105475Y004805
Y00462
X0108204Y0055104
X01098Y0069325
X0105475Y0068791
X0107284Y0072525
X0098225Y0065532
X0096371Y0065536
X00942Y0068072
X0090625Y0072136
X0088775
X00875Y0069088
X00895Y00631
X0084344Y0063544
X0082875Y0063525
X0082Y005565
X00795Y00545
X00898Y00541
X0091591Y00476
X0093441
X0090625Y00757
X0079025Y00697
X0075275Y00709
X0067075Y006865
X0067825Y0065024
X0065975
X00693Y0063525
X0067825Y0052324
X0065975
X006275Y004545
X0058075Y004345
X0052225Y0048975
Y00499798
Y00509798
Y00519798
Y00539798
Y00549798
Y00559798
Y00569798
Y00579798
Y00589798
Y00599798
Y00609798
Y00619798
X0082775Y00845
X0091883Y00915
X00903Y010155
X0089883Y0107811
X0090883
X0094883
X0095883Y0113811
X0097883
X0099925Y0113792
X0101883Y0113811
X0102883
X0105883
X0108883Y0107811
X0107188Y009815
X01094Y00914
X01157Y00845
X01217
T02
X013285Y0048175
X013755
X0070775Y0070825
Y0075525
T03
X0081431Y0034908
X0083971
X0086511
X0089051
X0091591
Y0037448
X0089051
X0086511
X0083971
X0081431
X0107304Y0037462
X0109844
X0112384
X0114924
X0117464
Y0034922
X0114924
X0112384
X0109844
X0107304
T04
X0134485Y0052975
X0137025
X0139565
X0072915Y0049925
X0070375
X0067835
T05
X01288Y00756
X01343
X006625Y0082825
Y0087025
Y0091225
X006075
Y0087025
Y0082825
X01288Y0084
Y00798
X01343
Y0084
Y008985
Y009405
Y009825
X01288
Y009405
Y008985
T06
X0052563Y0037866
X0147438Y0037941
Y0070561
X0052563Y0070486
Y0103106
X0085763Y0110811
X0113003
X0147438Y0103181
T07
X0147438Y0042061
X0052563Y0041986
Y0098986
X0089883Y0110811
X0108883
X0147438Y0099061
T08
X01204Y0046457
X00784Y0046907
Y0093907
X01204
M30
