G04 Layer_Physical_Order=2*
G04 Layer_Color=16711680*
%FSLAX44Y44*%
%MOMM*%
G71*
G01*
G75*
%ADD10C,0.2032*%
%ADD11R,1.3000X1.3000*%
%ADD12R,1.3000X1.3000*%
%ADD18C,0.2540*%
%ADD19C,0.2000*%
%ADD21C,0.8000*%
%ADD22C,1.0000*%
%ADD23C,5.0000*%
%ADD24C,1.1000*%
%ADD25C,1.5000*%
%ADD26R,1.5000X1.5000*%
%ADD27C,2.5000*%
%ADD28C,0.7000*%
%ADD29R,0.5000X3.0000*%
%ADD30R,3.0000X0.5000*%
D10*
X1483016Y991200D02*
G03*
X1482058Y995000I-8016J0D01*
G01*
X1483016Y991200D02*
G03*
X1482058Y995000I-8016J0D01*
G01*
X1467942D02*
G03*
X1483016Y991200I7058J-3800D01*
G01*
X1467942Y995000D02*
G03*
X1483016Y991200I7058J-3800D01*
G01*
X1358016Y982500D02*
G03*
X1351320Y995000I-15016J0D01*
G01*
X1334680D02*
G03*
X1358016Y982500I8321J-12500D01*
G01*
Y940500D02*
G03*
X1358016Y940500I-15016J0D01*
G01*
X1303016Y982500D02*
G03*
X1296320Y995000I-15016J0D01*
G01*
X1279680D02*
G03*
X1303016Y982500I8321J-12500D01*
G01*
Y940500D02*
G03*
X1303016Y940500I-15016J0D01*
G01*
X1358016Y898500D02*
G03*
X1358016Y898500I-15016J0D01*
G01*
X1359056Y840000D02*
G03*
X1359056Y840000I-16056J0D01*
G01*
X1303016Y898500D02*
G03*
X1303016Y898500I-15016J0D01*
G01*
X1241766Y938750D02*
G03*
X1241766Y938750I-37516J0D01*
G01*
X1303016Y840000D02*
G03*
X1303016Y840000I-15016J0D01*
G01*
X1502516Y706200D02*
G03*
X1502516Y706200I-27516J0D01*
G01*
X1481016Y611203D02*
G03*
X1470325Y614990I-6016J0D01*
G01*
X1368953Y624720D02*
G03*
X1366467Y623690I0J-3516D01*
G01*
X1368953Y624720D02*
G03*
X1366462Y623684I0J-3516D01*
G01*
X1359056Y798000D02*
G03*
X1359056Y798000I-16056J0D01*
G01*
Y756000D02*
G03*
X1359056Y756000I-16056J0D01*
G01*
X1303016Y798000D02*
G03*
X1303016Y798000I-15016J0D01*
G01*
Y756000D02*
G03*
X1303016Y756000I-15016J0D01*
G01*
X1157546Y1108110D02*
G03*
X1157546Y1108110I-27516J0D01*
G01*
X1094846Y1078110D02*
G03*
X1093846Y1081432I-6016J0D01*
G01*
Y1074789D02*
G03*
X1094846Y1078110I-5016J3322D01*
G01*
X1096846Y1108110D02*
G03*
X1096846Y1108110I-8016J0D01*
G01*
D02*
G03*
X1096846Y1108110I-8016J0D01*
G01*
X1077896Y981500D02*
G03*
X1077677Y983108I-6016J0D01*
G01*
X1077818Y980534D02*
G03*
X1077896Y981500I-5938J966D01*
G01*
X1100516Y940760D02*
G03*
X1098607Y945368I-6516J0D01*
G01*
X1100516Y940760D02*
G03*
X1098607Y945368I-6516J0D01*
G01*
X1011311Y1111338D02*
G03*
X1012346Y1113830I-2481J2492D01*
G01*
X1011316Y1111344D02*
G03*
X1012346Y1113830I-2486J2486D01*
G01*
X991316Y1116344D02*
G03*
X992346Y1118830I-2486J2486D01*
G01*
X999000Y1100484D02*
G03*
X1001492Y1101519I0J3516D01*
G01*
X999000Y1100484D02*
G03*
X1001486Y1101514I0J3516D01*
G01*
X991311Y1116338D02*
G03*
X992346Y1118830I-2481J2492D01*
G01*
X1073488Y987297D02*
G03*
X1072846Y975562I-1608J-5797D01*
G01*
X1052314Y975930D02*
G03*
X1054223Y971322I6516J0D01*
G01*
X1052314Y975930D02*
G03*
X1054223Y971322I6516J0D01*
G01*
X986516Y1028000D02*
G03*
X985480Y1030492I-3516J0D01*
G01*
X986516Y1028000D02*
G03*
X985486Y1030486I-3516J0D01*
G01*
X1163516Y913000D02*
G03*
X1161608Y917607I-6516J0D01*
G01*
X1163516Y913000D02*
G03*
X1161608Y917607I-6516J0D01*
G01*
X1224056Y845000D02*
G03*
X1224056Y845000I-7056J0D01*
G01*
X1150484Y808500D02*
G03*
X1152393Y803893I6516J0D01*
G01*
X1150484Y808500D02*
G03*
X1152393Y803893I6516J0D01*
G01*
X1128016Y928880D02*
G03*
X1126986Y931366I-3516J0D01*
G01*
X1128016Y928880D02*
G03*
X1126981Y931372I-3516J0D01*
G01*
X1120984Y799500D02*
G03*
X1122014Y797014I3516J0D01*
G01*
X1120984Y799500D02*
G03*
X1122020Y797008I3516J0D01*
G01*
X1166836Y760680D02*
G03*
X1165806Y763166I-3516J0D01*
G01*
X1166836Y760680D02*
G03*
X1165800Y763172I-3516J0D01*
G01*
X1193056Y635000D02*
G03*
X1193056Y635000I-7056J0D01*
G01*
X1129196Y743440D02*
G03*
X1127288Y748047I-6516J0D01*
G01*
X1129196Y743440D02*
G03*
X1127288Y748047I-6516J0D01*
G01*
X1116164Y719533D02*
G03*
X1115480Y720492I-3164J-1533D01*
G01*
X1116164Y719533D02*
G03*
X1115486Y720486I-3164J-1533D01*
G01*
Y651514D02*
G03*
X1116164Y652467I-2486J2486D01*
G01*
X1115480Y651508D02*
G03*
X1116164Y652467I-2481J2492D01*
G01*
X1127288Y632072D02*
G03*
X1129196Y636680I-4608J4608D01*
G01*
X1127288Y632072D02*
G03*
X1129196Y636680I-4608J4608D01*
G01*
X1087484Y772120D02*
G03*
X1089392Y767513I6516J0D01*
G01*
X1087484Y772120D02*
G03*
X1089392Y767513I6516J0D01*
G01*
X979484Y848000D02*
G03*
X980514Y845514I3516J0D01*
G01*
X979484Y848000D02*
G03*
X980519Y845508I3516J0D01*
G01*
X1104056Y690880D02*
G03*
X1104056Y690880I-7056J0D01*
G01*
X1079896Y725250D02*
G03*
X1079896Y725250I-7056J0D01*
G01*
X1088520Y634492D02*
G03*
X1087484Y632000I2481J-2492D01*
G01*
X1088514Y634486D02*
G03*
X1087484Y632000I2486J-2486D01*
G01*
X1478345Y606203D02*
G03*
X1481016Y611203I-3345J5000D01*
G01*
Y601203D02*
G03*
X1478345Y606203I-6016J0D01*
G01*
X1478345Y596203D02*
G03*
X1481016Y601203I-3345J5000D01*
G01*
X1478349Y586206D02*
G03*
X1481016Y591203I-3349J4998D01*
G01*
Y581208D02*
G03*
X1478349Y586206I-6016J0D01*
G01*
X1470118Y577692D02*
G03*
X1481016Y581208I4882J3516D01*
G01*
Y561217D02*
G03*
X1470118Y564733I-6016J0D01*
G01*
X1478349Y556220D02*
G03*
X1481016Y561217I-3349J4998D01*
G01*
X1471655Y606203D02*
G03*
X1470325Y604990I3345J-5000D01*
G01*
Y607417D02*
G03*
X1471655Y606203I4675J3786D01*
G01*
X1470325Y597417D02*
G03*
X1471655Y596203I4675J3786D01*
G01*
X1481016Y591203D02*
G03*
X1478345Y596203I-6016J0D01*
G01*
X1471655D02*
G03*
X1470118Y594719I3345J-5000D01*
G01*
Y587687D02*
G03*
X1471651Y586206I4882J3516D01*
G01*
Y586206D02*
G03*
X1470118Y584724I3349J-4998D01*
G01*
Y557701D02*
G03*
X1471651Y556220I4882J3516D01*
G01*
X1481016Y541227D02*
G03*
X1478349Y546224I-6016J0D01*
G01*
X1481016Y531231D02*
G03*
X1478349Y536229I-6016J0D01*
G01*
X1481016Y551222D02*
G03*
X1478349Y556220I-6016J0D01*
G01*
X1471651D02*
G03*
X1470118Y554738I3349J-4998D01*
G01*
X1478349Y546224D02*
G03*
X1481016Y551222I-3349J4998D01*
G01*
X1470118Y547706D02*
G03*
X1471651Y546224I4882J3516D01*
G01*
Y546224D02*
G03*
X1470118Y544743I3349J-4998D01*
G01*
X1478349Y536229D02*
G03*
X1481016Y541227I-3349J4998D01*
G01*
X1470118Y537711D02*
G03*
X1471651Y536229I4882J3516D01*
G01*
Y536229D02*
G03*
X1470118Y534747I3349J-4998D01*
G01*
X1478349Y526234D02*
G03*
X1481016Y531231I-3349J4998D01*
G01*
X1470118Y527715D02*
G03*
X1471651Y526234I4882J3516D01*
G01*
X1481016Y521236D02*
G03*
X1478349Y526234I-6016J0D01*
G01*
X1471651D02*
G03*
X1470118Y524752I3349J-4998D01*
G01*
X1478349Y516238D02*
G03*
X1481016Y521236I-3349J4998D01*
G01*
X1470118Y517720D02*
G03*
X1471651Y516238I4882J3516D01*
G01*
X1481016Y511241D02*
G03*
X1478349Y516238I-6016J0D01*
G01*
X1471651D02*
G03*
X1470118Y514757I3349J-4998D01*
G01*
X1356016Y556750D02*
G03*
X1345118Y560266I-6016J0D01*
G01*
X1345118Y553234D02*
G03*
X1356016Y556750I4882J3516D01*
G01*
X1318766Y565000D02*
G03*
X1318688Y565966I-6016J0D01*
G01*
X1313716Y570938D02*
G03*
X1309038Y560266I-966J-5938D01*
G01*
X1316462D02*
G03*
X1318766Y565000I-3712J4734D01*
G01*
X1304132Y560266D02*
G03*
X1304132Y553234I-4882J-3516D01*
G01*
X1257266Y565000D02*
G03*
X1246368Y568516I-6016J0D01*
G01*
Y561484D02*
G03*
X1257266Y565000I4882J3516D01*
G01*
X1290056Y540000D02*
G03*
X1290056Y540000I-7056J0D01*
G01*
X1268607Y525643D02*
G03*
X1270516Y530250I-4608J4608D01*
G01*
X1268607Y525643D02*
G03*
X1270516Y530250I-4608J4608D01*
G01*
X1541056Y492000D02*
G03*
X1541056Y492000I-7056J0D01*
G01*
X1478349Y506243D02*
G03*
X1481016Y511241I-3349J4998D01*
G01*
X1470118Y507725D02*
G03*
X1471651Y506243I4882J3516D01*
G01*
X1481016Y501245D02*
G03*
X1478349Y506243I-6016J0D01*
G01*
X1471651D02*
G03*
X1470118Y504761I3349J-4998D01*
G01*
X1478349Y496248D02*
G03*
X1481016Y501245I-3349J4998D01*
G01*
X1470118Y497729D02*
G03*
X1471651Y496248I4882J3516D01*
G01*
X1481016Y491250D02*
G03*
X1478349Y496248I-6016J0D01*
G01*
X1471651D02*
G03*
X1470118Y494766I3349J-4998D01*
G01*
X1478311Y486227D02*
G03*
X1481016Y491250I-3311J5023D01*
G01*
X1470118Y487734D02*
G03*
X1471689Y486227I4882J3516D01*
G01*
Y486227D02*
G03*
X1470118Y484720I3311J-5023D01*
G01*
X1481016Y481204D02*
G03*
X1478311Y486227I-6016J0D01*
G01*
X1470118Y477688D02*
G03*
X1481016Y481204I4882J3516D01*
G01*
X1502516Y380000D02*
G03*
X1502516Y380000I-27516J0D01*
G01*
X1483016Y421200D02*
G03*
X1483016Y421200I-8016J0D01*
G01*
D02*
G03*
X1483016Y421200I-8016J0D01*
G01*
X1378158Y474720D02*
G03*
X1383016Y481750I-2658J7030D01*
G01*
D02*
G03*
X1372842Y474720I-7516J0D01*
G01*
X1336016Y481750D02*
G03*
X1325842Y474720I-7516J0D01*
G01*
X1331158D02*
G03*
X1336016Y481750I-2658J7030D01*
G01*
X1322454Y474720D02*
G03*
X1319968Y473690I0J-3516D01*
G01*
X1322454Y474720D02*
G03*
X1319962Y473684I0J-3516D01*
G01*
X1249770Y509504D02*
G03*
X1254378Y511413I0J6516D01*
G01*
X1249770Y509504D02*
G03*
X1254378Y511413I0J6516D01*
G01*
X1256966Y464570D02*
G03*
X1182371Y470280I-37516J0D01*
G01*
X1273500Y418734D02*
G03*
X1275992Y419770I0J3516D01*
G01*
X1273500Y418734D02*
G03*
X1275986Y419764I0J3516D01*
G01*
X1181948Y465585D02*
G03*
X1256966Y464570I37502J-1015D01*
G01*
X1382556Y410250D02*
G03*
X1382556Y410250I-7056J0D01*
G01*
X1335556Y411000D02*
G03*
X1335556Y411000I-7056J0D01*
G01*
X1230056Y531000D02*
G03*
X1230056Y531000I-7056J0D01*
G01*
X1205770Y522536D02*
G03*
X1201162Y520628I0J-6516D01*
G01*
X1205770Y522536D02*
G03*
X1201162Y520628I0J-6516D01*
G01*
X1169336Y603000D02*
G03*
X1166836Y607882I-6016J0D01*
G01*
X1159804D02*
G03*
X1169336Y603000I3516J-4882D01*
G01*
X1138882Y568516D02*
G03*
X1138882Y561484I-4882J-3516D01*
G01*
X1180462Y463288D02*
G03*
X1181948Y465585I-4608J4608D01*
G01*
X1180462Y463288D02*
G03*
X1181948Y465585I-4608J4608D01*
G01*
X1171247Y490713D02*
G03*
X1169339Y486105I4608J-4608D01*
G01*
X1171247Y490713D02*
G03*
X1169339Y486105I4608J-4608D01*
G01*
X1169960Y455484D02*
G03*
X1174567Y457393I0J6516D01*
G01*
X1169960Y455484D02*
G03*
X1174567Y457393I0J6516D01*
G01*
X1150516Y481250D02*
G03*
X1148607Y485858I-6516J0D01*
G01*
X1150516Y481250D02*
G03*
X1148607Y485858I-6516J0D01*
G01*
X1149624Y468516D02*
G03*
X1150516Y471806I-5624J3290D01*
G01*
X1137484D02*
G03*
X1138376Y468516I6516J0D01*
G01*
X1135016Y479000D02*
G03*
X1134416Y481619I-6016J0D01*
G01*
X1123062Y479966D02*
G03*
X1135016Y479000I5938J-966D01*
G01*
X1131619Y484416D02*
G03*
X1128034Y484938I-2619J-5416D01*
G01*
X1153736Y447986D02*
G03*
X1151250Y449016I-2486J-2486D01*
G01*
X1153742Y447980D02*
G03*
X1151250Y449016I-2492J-2481D01*
G01*
X1117643Y457393D02*
G03*
X1122250Y455484I4608J4608D01*
G01*
X1131056Y546000D02*
G03*
X1131056Y546000I-7056J0D01*
G01*
X1108373Y485092D02*
G03*
X1103766Y487000I-4608J-4608D01*
G01*
X1108373Y485092D02*
G03*
X1103766Y487000I-4608J-4608D01*
G01*
X1087484Y555529D02*
G03*
X1087484Y546551I-5444J-4489D01*
G01*
Y517000D02*
G03*
X1088514Y514514I3516J0D01*
G01*
X1087484Y517000D02*
G03*
X1088520Y514508I3516J0D01*
G01*
X1079538Y487000D02*
G03*
X1077750Y487250I-1788J-6266D01*
G01*
X1054984D02*
G03*
X1051038Y485919I0J-6516D01*
G01*
X1054984Y487250D02*
G03*
X1051038Y485919I0J-6516D01*
G01*
D02*
G03*
X1049642Y484857I3212J-5669D01*
G01*
X1076212Y474218D02*
G03*
X1078000Y473968I1788J6266D01*
G01*
X1117643Y457393D02*
G03*
X1122250Y455484I4608J4608D01*
G01*
X1102938Y455534D02*
G03*
X1103016Y456500I-5938J966D01*
G01*
D02*
G03*
X1097966Y450562I-6016J0D01*
G01*
X1092086Y462000D02*
G03*
X1092086Y462000I-7056J0D01*
G01*
X1105508Y443019D02*
G03*
X1108000Y441984I2492J2481D01*
G01*
X1105514Y443014D02*
G03*
X1108000Y441984I2486J2486D01*
G01*
X1061806Y462000D02*
G03*
X1051454Y468239I-7056J0D01*
G01*
X1048511Y465296D02*
G03*
X1061806Y462000I6239J-3296D01*
G01*
X1010143Y445358D02*
G03*
X1008234Y440750I4608J-4608D01*
G01*
X1010143Y445358D02*
G03*
X1008234Y440750I4608J-4608D01*
G01*
X1172014Y419764D02*
G03*
X1174500Y418734I2486J2486D01*
G01*
X1172008Y419770D02*
G03*
X1174500Y418734I2492J2481D01*
G01*
X1184656Y374620D02*
G03*
X1184656Y374620I-10016J0D01*
G01*
X1159256D02*
G03*
X1140122Y370475I-10016J0D01*
G01*
X1145095Y365502D02*
G03*
X1159256Y374620I4146J9118D01*
G01*
Y349220D02*
G03*
X1140516Y354141I-10016J0D01*
G01*
X1119695Y365502D02*
G03*
X1133856Y374620I4146J9118D01*
G01*
D02*
G03*
X1114722Y370475I-10016J0D01*
G01*
X1109520Y365272D02*
G03*
X1108484Y362780I2481J-2492D01*
G01*
X1134520Y364872D02*
G03*
X1133484Y362380I2481J-2492D01*
G01*
X1109514Y365266D02*
G03*
X1108484Y362780I2486J-2486D01*
G01*
X1108456Y374620D02*
G03*
X1089322Y370475I-10016J0D01*
G01*
X1094295Y365502D02*
G03*
X1108456Y374620I4146J9118D01*
G01*
X1134514Y364866D02*
G03*
X1133484Y362380I2486J-2486D01*
G01*
Y354626D02*
G03*
X1115516Y356496I-9644J-5406D01*
G01*
X1086820Y359484D02*
G03*
X1089312Y360519I0J3516D01*
G01*
X1086820Y359484D02*
G03*
X1089306Y360514I0J3516D01*
G01*
X1185696Y349220D02*
G03*
X1185696Y349220I-11056J0D01*
G01*
X1140516Y344299D02*
G03*
X1159256Y349220I8724J4921D01*
G01*
X1115516Y341944D02*
G03*
X1133484Y343814I8324J7276D01*
G01*
X1139486Y327514D02*
G03*
X1140516Y330000I-2486J2486D01*
G01*
X1139481Y327508D02*
G03*
X1140516Y330000I-2481J2492D01*
G01*
X1114481Y334508D02*
G03*
X1115516Y337000I-2481J2492D01*
G01*
X1114486Y334514D02*
G03*
X1115516Y337000I-2486J2486D01*
G01*
X1108484Y353841D02*
G03*
X1108484Y344599I-10044J-4621D01*
G01*
X1123120Y312604D02*
G03*
X1125612Y313640I0J3516D01*
G01*
X1104000Y325484D02*
G03*
X1106486Y326514I0J3516D01*
G01*
X1123120Y312604D02*
G03*
X1125606Y313634I0J3516D01*
G01*
X1104000Y325484D02*
G03*
X1106492Y326520I0J3516D01*
G01*
X1047542Y394806D02*
G03*
X1045056Y395836I-2486J-2486D01*
G01*
X1047548Y394800D02*
G03*
X1045056Y395836I-2492J-2481D01*
G01*
X1083056Y374620D02*
G03*
X1063819Y378530I-10016J0D01*
G01*
X1078926Y366516D02*
G03*
X1083056Y374620I-5886J8104D01*
G01*
X1060264Y372140D02*
G03*
X1062756Y371104I2492J2481D01*
G01*
X1060270Y372134D02*
G03*
X1062756Y371104I2486J2486D01*
G01*
X1063661D02*
G03*
X1067154Y366516I9379J3516D01*
G01*
X1047972Y344001D02*
G03*
X1045480Y345036I-2492J-2481D01*
G01*
X1047966Y344006D02*
G03*
X1045480Y345036I-2486J-2486D01*
G01*
X1055508Y326520D02*
G03*
X1058000Y325484I2492J2481D01*
G01*
X1055514Y326514D02*
G03*
X1058000Y325484I2486J2486D01*
G01*
X971316Y1114343D02*
G03*
X972346Y1116830I-2486J2486D01*
G01*
X971310Y1114338D02*
G03*
X972346Y1116830I-2481J2492D01*
G01*
X945466Y1099854D02*
G03*
X945314Y1098830I3363J-1024D01*
G01*
X945466Y1099854D02*
G03*
X945314Y1098830I3363J-1024D01*
G01*
X944220Y1116016D02*
G03*
X941734Y1114986I0J-3516D01*
G01*
X944220Y1116016D02*
G03*
X941728Y1114980I0J-3516D01*
G01*
X945687Y1060594D02*
G03*
X946344Y1059684I3143J1576D01*
G01*
X972516Y1026480D02*
G03*
X971486Y1028966I-3516J0D01*
G01*
X972516Y1026480D02*
G03*
X971480Y1028972I-3516J0D01*
G01*
X945687Y1060594D02*
G03*
X946349Y1059678I3143J1576D01*
G01*
X935314Y1056650D02*
G03*
X936344Y1054164I3516J0D01*
G01*
X935314Y1056650D02*
G03*
X936349Y1054158I3516J0D01*
G01*
X962516Y1024000D02*
G03*
X961486Y1026486I-3516J0D01*
G01*
X962516Y1024000D02*
G03*
X961480Y1026492I-3516J0D01*
G01*
X926349Y1099602D02*
G03*
X925314Y1097110I2481J-2492D01*
G01*
X926344Y1099596D02*
G03*
X925314Y1097110I2486J-2486D01*
G01*
X906846Y1108110D02*
G03*
X906846Y1108110I-8016J0D01*
G01*
D02*
G03*
X906846Y1108110I-8016J0D01*
G01*
X925346Y1053697D02*
G03*
X926344Y1051684I3484J473D01*
G01*
X925346Y1053697D02*
G03*
X926349Y1051678I3484J473D01*
G01*
X893814Y1081432D02*
G03*
X893814Y1074789I5016J-3322D01*
G01*
X885146Y1108110D02*
G03*
X885146Y1108110I-27516J0D01*
G01*
X902034Y1009562D02*
G03*
X909016Y1015500I966J5938D01*
G01*
D02*
G03*
X897062Y1014534I-6016J0D01*
G01*
X888500Y997484D02*
G03*
X890986Y998514I0J3516D01*
G01*
X888500Y997484D02*
G03*
X890992Y998520I0J3516D01*
G01*
X971486Y685514D02*
G03*
X972516Y688000I-2486J2486D01*
G01*
X971480Y685508D02*
G03*
X972516Y688000I-2481J2492D01*
G01*
X961486Y695234D02*
G03*
X962516Y697720I-2486J2486D01*
G01*
X961480Y695228D02*
G03*
X962516Y697720I-2481J2492D01*
G01*
X948016Y680720D02*
G03*
X947938Y681686I-6016J0D01*
G01*
X942966Y686658D02*
G03*
X937516Y684731I-966J-5938D01*
G01*
Y880080D02*
G03*
X935608Y884688I-6516J0D01*
G01*
X937516Y880080D02*
G03*
X935608Y884688I-6516J0D01*
G01*
X912314Y892250D02*
G03*
X914222Y887643I6516J0D01*
G01*
X912314Y892250D02*
G03*
X914222Y887643I6516J0D01*
G01*
X937516Y676709D02*
G03*
X948016Y680720I4484J4011D01*
G01*
X935608Y668312D02*
G03*
X937516Y672920I-4608J4608D01*
G01*
X935608Y668312D02*
G03*
X937516Y672920I-4608J4608D01*
G01*
X913306Y757000D02*
G03*
X913306Y757000I-7056J0D01*
G01*
Y721360D02*
G03*
X913306Y721360I-7056J0D01*
G01*
X894266D02*
G03*
X883142Y725967I-6516J0D01*
G01*
X892357Y716752D02*
G03*
X894266Y721360I-4608J4608D01*
G01*
X876390Y703484D02*
G03*
X880997Y705393I0J6516D01*
G01*
X876390Y703484D02*
G03*
X880997Y705393I0J6516D01*
G01*
X882056Y690880D02*
G03*
X882056Y690880I-7056J0D01*
G01*
X821516Y939070D02*
G03*
X821516Y939070I-37516J0D01*
G01*
X669377Y925599D02*
G03*
X677516Y912250I-6877J-13349D01*
G01*
D02*
G03*
X674711Y920989I-15016J0D01*
G01*
X677516Y870250D02*
G03*
X677516Y870250I-15016J0D01*
G01*
X532535Y991056D02*
G03*
X531498Y995000I-8016J0D01*
G01*
X532535Y991056D02*
G03*
X531498Y995000I-8016J0D01*
G01*
X517541D02*
G03*
X532535Y991056I6978J-3944D01*
G01*
X517541Y995000D02*
G03*
X532535Y991056I6978J-3944D01*
G01*
X622516Y912250D02*
G03*
X622516Y912250I-15016J0D01*
G01*
Y870250D02*
G03*
X622516Y870250I-15016J0D01*
G01*
X834806Y845000D02*
G03*
X834806Y845000I-7056J0D01*
G01*
X715266Y755250D02*
G03*
X701107Y758766I-7516J0D01*
G01*
X677516Y828250D02*
G03*
X677516Y828250I-15016J0D01*
G01*
X781000Y716516D02*
G03*
X776393Y714607I0J-6516D01*
G01*
X701107Y751734D02*
G03*
X715266Y755250I6643J3516D01*
G01*
X781000Y716516D02*
G03*
X776393Y714607I0J-6516D01*
G01*
X622516Y828250D02*
G03*
X622516Y828250I-15016J0D01*
G01*
X789605Y703484D02*
G03*
X783734Y697000I645J-6484D01*
G01*
X796766D02*
G03*
X790895Y703484I-6516J0D01*
G01*
X715266Y708250D02*
G03*
X701107Y711766I-7516J0D01*
G01*
Y704734D02*
G03*
X715266Y708250I6643J3516D01*
G01*
X718890Y697396D02*
G03*
X714283Y695488I0J-6516D01*
G01*
X718890Y697396D02*
G03*
X714283Y695488I0J-6516D01*
G01*
X761880Y684364D02*
G03*
X766488Y686273I0J6516D01*
G01*
X761880Y684364D02*
G03*
X766488Y686273I0J6516D01*
G01*
X783734Y671750D02*
G03*
X785642Y667142I6516J0D01*
G01*
X783734Y671750D02*
G03*
X785642Y667142I6516J0D01*
G01*
X676766Y686500D02*
G03*
X665868Y690016I-6016J0D01*
G01*
X659250D02*
G03*
X656764Y688986I0J-3516D01*
G01*
X665868Y682984D02*
G03*
X676766Y686500I4882J3516D01*
G01*
X659250Y690016D02*
G03*
X656758Y688980I0J-3516D01*
G01*
X552035Y706056D02*
G03*
X552035Y706056I-27516J0D01*
G01*
X989306Y655320D02*
G03*
X989306Y655320I-7056J0D01*
G01*
X970226Y655360D02*
G03*
X957194Y655360I-6516J0D01*
G01*
X968318Y539463D02*
G03*
X970226Y544070I-4608J4608D01*
G01*
X968318Y539463D02*
G03*
X970226Y544070I-4608J4608D01*
G01*
X924000Y639484D02*
G03*
X926492Y640519I0J3516D01*
G01*
X924000Y639484D02*
G03*
X926486Y640514I0J3516D01*
G01*
X902056Y631000D02*
G03*
X902056Y631000I-7056J0D01*
G01*
X941466Y476000D02*
G03*
X927940Y473185I-7056J0D01*
G01*
X975766Y422660D02*
G03*
X973857Y427267I-6516J0D01*
G01*
X975766Y422660D02*
G03*
X973857Y427267I-6516J0D01*
G01*
X911302Y500877D02*
G03*
X909394Y496270I4608J-4608D01*
G01*
X911302Y500877D02*
G03*
X909394Y496270I4608J-4608D01*
G01*
X905056Y541000D02*
G03*
X905056Y541000I-7056J0D01*
G01*
X931595Y469530D02*
G03*
X941466Y476000I2815J6470D01*
G01*
X909394D02*
G03*
X911302Y471393I6516J0D01*
G01*
X909394Y476000D02*
G03*
X911302Y471393I6516J0D01*
G01*
X849456Y635440D02*
G03*
X847894Y639484I-6016J0D01*
G01*
X838986D02*
G03*
X837502Y634474I4454J-4044D01*
G01*
X829716Y641188D02*
G03*
X823868Y638766I-966J-5938D01*
G01*
X834766Y635250D02*
G03*
X834688Y636216I-6016J0D01*
G01*
X842474Y629502D02*
G03*
X849456Y635440I966J5938D01*
G01*
X823868Y631734D02*
G03*
X834766Y635250I4882J3516D01*
G01*
X807152Y645632D02*
G03*
X811760Y643724I4608J4608D01*
G01*
X807152Y645632D02*
G03*
X811760Y643724I4608J4608D01*
G01*
X824750Y613234D02*
G03*
X827242Y614269I0J3516D01*
G01*
X824750Y613234D02*
G03*
X827236Y614264I0J3516D01*
G01*
X826016Y556500D02*
G03*
X815118Y560016I-6016J0D01*
G01*
Y552984D02*
G03*
X826016Y556500I4882J3516D01*
G01*
X802056Y545000D02*
G03*
X802056Y545000I-7056J0D01*
G01*
X821766Y468500D02*
G03*
X821766Y468500I-37516J0D01*
G01*
X940240Y395836D02*
G03*
X937754Y394806I0J-3516D01*
G01*
X940240Y395836D02*
G03*
X937748Y394800I0J-3516D01*
G01*
X930519Y387572D02*
G03*
X929484Y385080I2481J-2492D01*
G01*
X930514Y387566D02*
G03*
X929484Y385080I2486J-2486D01*
G01*
X939640Y370436D02*
G03*
X937154Y369406I0J-3516D01*
G01*
X939640Y370436D02*
G03*
X937148Y369400I0J-3516D01*
G01*
X939520Y345036D02*
G03*
X937028Y344001I0J-3516D01*
G01*
X939520Y345036D02*
G03*
X937034Y344006I0J-3516D01*
G01*
X925926Y349080D02*
G03*
X925028Y353226I-10016J0D01*
G01*
X923000Y321484D02*
G03*
X925492Y322519I0J3516D01*
G01*
X923000Y321484D02*
G03*
X925486Y322514I0J3516D01*
G01*
X901566Y374480D02*
G03*
X901566Y374480I-11056J0D01*
G01*
X876166D02*
G03*
X876166Y374480I-11056J0D01*
G01*
X849726D02*
G03*
X849726Y374480I-10016J0D01*
G01*
X825366D02*
G03*
X825366Y374480I-11056J0D01*
G01*
X920055Y358198D02*
G03*
X925926Y349080I-4146J-9118D01*
G01*
X899628Y344935D02*
G03*
X900526Y349080I-9118J4146D01*
G01*
X904104Y330514D02*
G03*
X906590Y329484I2486J2486D01*
G01*
X904098Y330519D02*
G03*
X906590Y329484I2492J2481D01*
G01*
X900526Y349080D02*
G03*
X894656Y339962I-10016J0D01*
G01*
X886704Y322514D02*
G03*
X889190Y321484I2486J2486D01*
G01*
X886698Y322519D02*
G03*
X889190Y321484I2492J2481D01*
G01*
X874228Y344935D02*
G03*
X875126Y349080I-9118J4146D01*
G01*
D02*
G03*
X869256Y339962I-10016J0D01*
G01*
X848828Y344935D02*
G03*
X849726Y349080I-9118J4146D01*
G01*
D02*
G03*
X843856Y339962I-10016J0D01*
G01*
X824326Y349080D02*
G03*
X824326Y349080I-10016J0D01*
G01*
X870178Y313640D02*
G03*
X872670Y312604I2492J2481D01*
G01*
X870184Y313634D02*
G03*
X872670Y312604I2486J2486D01*
G01*
X761056Y663000D02*
G03*
X761056Y663000I-7056J0D01*
G01*
X673643Y654847D02*
G03*
X671734Y650240I4608J-4608D01*
G01*
X673643Y654847D02*
G03*
X671734Y650240I4608J-4608D01*
G01*
X666806D02*
G03*
X666806Y650240I-7056J0D01*
G01*
X603809Y627543D02*
G03*
X606301Y628579I0J3516D01*
G01*
X603809Y627543D02*
G03*
X606295Y628573I0J3516D01*
G01*
X760250Y560016D02*
G03*
X757758Y558980I0J-3516D01*
G01*
X760250Y560016D02*
G03*
X757764Y558986I0J-3516D01*
G01*
X529822Y624575D02*
G03*
X521595Y616059I-4882J-3516D01*
G01*
X529822Y614575D02*
G03*
X528286Y616059I-4882J-3516D01*
G01*
D02*
G03*
X529822Y617543I-3345J5000D01*
G01*
X528286Y606059D02*
G03*
X529822Y607543I-3345J5000D01*
G01*
Y604575D02*
G03*
X528286Y606059I-4882J-3516D01*
G01*
X528295Y596065D02*
G03*
X529822Y597543I-3354J4994D01*
G01*
Y594587D02*
G03*
X528295Y596065I-4882J-3516D01*
G01*
X521595Y616059D02*
G03*
X521595Y606059I3345J-5000D01*
G01*
Y606059D02*
G03*
X521586Y596065I3345J-5000D01*
G01*
D02*
G03*
X518987Y591931I3354J-4994D01*
G01*
X529822Y584599D02*
G03*
X528295Y586077I-4882J-3516D01*
G01*
D02*
G03*
X529822Y587555I-3354J4994D01*
G01*
X518926Y591172D02*
G03*
X521586Y586077I6015J-100D01*
G01*
D02*
G03*
X518925Y581034I3354J-4994D01*
G01*
X528295Y576089D02*
G03*
X529822Y577567I-3354J4994D01*
G01*
Y574611D02*
G03*
X528295Y576089I-4882J-3516D01*
G01*
X518938Y580685D02*
G03*
X521586Y576089I6003J398D01*
G01*
D02*
G03*
X521586Y566101I3354J-4994D01*
G01*
X528295D02*
G03*
X529822Y567579I-3354J4994D01*
G01*
Y564623D02*
G03*
X528295Y566101I-4882J-3516D01*
G01*
Y556113D02*
G03*
X529822Y557591I-3354J4994D01*
G01*
X521586Y556113D02*
G03*
X521640Y546089I3354J-4994D01*
G01*
X529822Y554635D02*
G03*
X528295Y556113I-4882J-3516D01*
G01*
X518987Y591931D02*
G03*
X518926Y591172I3724J-681D01*
G01*
X521586Y566101D02*
G03*
X521586Y556113I3354J-4994D01*
G01*
X671734Y523240D02*
G03*
X684766Y523240I6516J0D01*
G01*
X684809Y477543D02*
G03*
X687301Y478579I0J3516D01*
G01*
X684809Y477543D02*
G03*
X687296Y478573I0J3516D01*
G01*
X666806Y523240D02*
G03*
X666806Y523240I-7056J0D01*
G01*
X528242Y546089D02*
G03*
X529822Y547603I-3301J5030D01*
G01*
Y544575D02*
G03*
X528242Y546089I-4882J-3516D01*
G01*
X529822Y514575D02*
G03*
X528286Y516059I-4882J-3516D01*
G01*
D02*
G03*
X529822Y517543I-3345J5000D01*
G01*
X521640Y546089D02*
G03*
X529822Y537543I3301J-5030D01*
G01*
Y524575D02*
G03*
X521595Y516059I-4882J-3516D01*
G01*
D02*
G03*
X521595Y506059I3345J-5000D01*
G01*
X528286D02*
G03*
X529822Y507543I-3345J5000D01*
G01*
Y504575D02*
G03*
X528286Y506059I-4882J-3516D01*
G01*
Y496059D02*
G03*
X529822Y497543I-3345J5000D01*
G01*
Y494576D02*
G03*
X528286Y496059I-4882J-3516D01*
G01*
X521595D02*
G03*
X529822Y487543I3345J-5000D01*
G01*
X521595Y506059D02*
G03*
X521595Y496059I3345J-5000D01*
G01*
X532535Y421056D02*
G03*
X532535Y421056I-8016J0D01*
G01*
D02*
G03*
X532535Y421056I-8016J0D01*
G01*
X552035Y379856D02*
G03*
X552035Y379856I-27516J0D01*
G01*
X466056Y421000D02*
G03*
X466056Y421000I-7056J0D01*
G01*
X1522516Y990600D02*
X1560000D01*
X1522516Y995000D02*
X1560000D01*
X1522516Y980440D02*
X1560000D01*
X1522516Y986211D02*
Y995000D01*
Y985520D02*
X1560000D01*
X1522516Y975360D02*
X1560000D01*
X1522516Y976211D02*
Y986179D01*
Y970280D02*
X1560000D01*
X1522516Y966211D02*
Y976179D01*
Y956211D02*
Y966179D01*
X1487484Y986211D02*
Y995000D01*
X1480656Y985520D02*
X1487484D01*
X1462516Y980440D02*
X1487484D01*
X1482058Y995000D02*
X1487484D01*
X1482993Y990600D02*
X1487484D01*
Y966211D02*
Y976179D01*
X1462516Y970280D02*
X1487484D01*
Y956211D02*
Y966179D01*
Y976211D02*
Y986179D01*
X1462516Y975360D02*
X1487484D01*
X1522516Y960120D02*
X1560000D01*
X1522516Y965200D02*
X1560000D01*
X1522516Y955040D02*
X1560000D01*
X1522516Y946211D02*
Y956179D01*
Y949960D02*
X1560000D01*
X1522516Y944880D02*
X1560000D01*
X1522516Y936211D02*
Y946179D01*
Y939800D02*
X1560000D01*
X1522516Y926211D02*
Y936179D01*
Y906211D02*
Y916179D01*
Y934720D02*
X1560000D01*
X1462516Y955040D02*
X1487484D01*
X1522516Y929640D02*
X1560000D01*
X1462516Y965200D02*
X1487484D01*
X1462516Y960120D02*
X1487484D01*
X1522516Y919480D02*
X1560000D01*
X1522516Y924560D02*
X1560000D01*
X1522516Y909320D02*
X1560000D01*
X1522516Y916211D02*
Y926179D01*
Y914400D02*
X1560000D01*
X1462516Y995000D02*
X1467942D01*
X1462516Y986211D02*
Y995000D01*
Y990600D02*
X1467006D01*
X1487484Y946211D02*
Y956179D01*
X1462516Y976211D02*
Y986179D01*
Y985520D02*
X1469343D01*
X1462516Y966211D02*
Y976179D01*
X1427484Y986211D02*
Y995000D01*
X1462516Y956211D02*
Y966179D01*
X1427484Y976211D02*
Y986179D01*
Y966211D02*
Y976179D01*
X1462516Y949960D02*
X1487484D01*
X1462516Y946211D02*
Y956179D01*
Y936211D02*
Y946179D01*
X1427484Y956211D02*
Y966179D01*
Y946211D02*
Y956179D01*
X1487484Y936211D02*
Y946179D01*
X1462516Y934720D02*
X1487484D01*
X1462516Y929640D02*
X1487484D01*
X1462516Y944880D02*
X1487484D01*
X1462516Y939800D02*
X1487484D01*
Y916211D02*
Y926179D01*
Y926211D02*
Y936179D01*
Y906211D02*
Y916179D01*
X1462516Y926211D02*
Y936179D01*
Y909320D02*
X1487484D01*
X1462516Y924560D02*
X1487484D01*
X1462516Y916211D02*
Y926179D01*
Y919480D02*
X1487484D01*
X1427484Y936211D02*
Y946179D01*
Y926211D02*
Y936179D01*
X1462516Y906211D02*
Y916179D01*
Y914400D02*
X1487484D01*
X1427484Y916211D02*
Y926179D01*
Y906211D02*
Y916179D01*
X1522516Y899160D02*
X1560000D01*
X1522516Y904240D02*
X1560000D01*
X1522516Y889000D02*
X1560000D01*
X1522516Y896211D02*
Y906179D01*
Y894080D02*
X1560000D01*
X1522516Y883920D02*
X1560000D01*
X1522516Y886211D02*
Y896179D01*
Y878840D02*
X1560000D01*
X1522516Y876211D02*
Y886179D01*
Y866211D02*
Y876179D01*
X1487484Y896211D02*
Y906179D01*
X1462516Y894080D02*
X1487484D01*
X1462516Y889000D02*
X1487484D01*
X1462516Y904240D02*
X1487484D01*
X1462516Y899160D02*
X1487484D01*
Y876211D02*
Y886179D01*
X1462516Y878840D02*
X1487484D01*
Y866211D02*
Y876179D01*
Y886211D02*
Y896179D01*
X1462516Y883920D02*
X1487484D01*
X1522516Y868680D02*
X1560000D01*
X1522516Y873760D02*
X1560000D01*
X1522516Y863600D02*
X1560000D01*
X1522516Y856211D02*
Y866179D01*
Y858520D02*
X1560000D01*
X1522516Y848360D02*
X1560000D01*
X1522516Y853440D02*
X1560000D01*
X1522516Y838200D02*
X1560000D01*
X1522516Y846211D02*
Y856179D01*
Y826211D02*
Y836179D01*
X1487484Y856211D02*
Y866179D01*
X1462516Y863600D02*
X1487484D01*
X1462516Y858520D02*
X1487484D01*
X1462516Y873760D02*
X1487484D01*
X1462516Y868680D02*
X1487484D01*
X1522516Y833120D02*
X1560000D01*
X1522516Y843280D02*
X1560000D01*
X1522516Y828040D02*
X1560000D01*
X1487484Y836211D02*
Y846179D01*
X1522516Y836211D02*
Y846179D01*
X1462516Y886211D02*
Y896179D01*
Y896211D02*
Y906179D01*
Y876211D02*
Y886179D01*
X1427484Y896211D02*
Y906179D01*
Y886211D02*
Y896179D01*
X1483360Y732415D02*
Y995000D01*
X1478280Y733520D02*
Y983886D01*
X1473200Y733657D02*
Y983389D01*
X1463040Y730981D02*
Y995000D01*
X1468120Y732842D02*
Y987086D01*
X1397000Y624720D02*
Y995000D01*
X1391920Y624720D02*
Y995000D01*
X1402080Y624720D02*
Y995000D01*
X1381760Y624720D02*
Y995000D01*
X1386840Y624720D02*
Y995000D01*
X1422400Y624720D02*
Y995000D01*
X1417320Y624720D02*
Y995000D01*
X1427480Y624720D02*
Y995000D01*
X1407160Y624720D02*
Y995000D01*
X1412240Y624720D02*
Y995000D01*
X1487484Y846211D02*
Y856179D01*
X1462516Y853440D02*
X1487484D01*
X1462516Y848360D02*
X1487484D01*
X1462516Y866211D02*
Y876179D01*
Y856211D02*
Y866179D01*
X1487484Y826211D02*
Y836179D01*
X1462516Y846211D02*
Y856179D01*
Y828040D02*
X1487484D01*
X1462516Y836211D02*
Y846179D01*
Y826211D02*
Y836179D01*
X1427484Y846211D02*
Y856179D01*
Y856211D02*
Y866179D01*
X1462516Y843280D02*
X1487484D01*
X1427484Y876211D02*
Y886179D01*
Y866211D02*
Y876179D01*
X1462516Y838200D02*
X1487484D01*
X1462516Y833120D02*
X1487484D01*
X1427484Y836211D02*
Y846179D01*
Y826211D02*
Y836179D01*
X1355644Y990600D02*
X1427484D01*
X1351320Y995000D02*
X1427484D01*
X1357709Y985520D02*
X1427484D01*
X1356360Y989355D02*
Y995000D01*
X1357874Y980440D02*
X1427484D01*
X1356210Y975360D02*
X1427484D01*
X1351727Y970280D02*
X1427484D01*
X1356360Y947355D02*
Y975645D01*
X1351280Y953027D02*
Y969973D01*
X1296320Y995000D02*
X1334680D01*
X1230855Y965200D02*
X1427484D01*
X1330960Y991473D02*
Y995000D01*
X1296727Y970280D02*
X1334274D01*
X1346200Y955171D02*
Y967829D01*
X1341120Y955398D02*
Y967602D01*
X1235085Y960120D02*
X1427484D01*
X1330960Y949473D02*
Y973527D01*
X1336040Y953806D02*
Y969194D01*
X1358000Y939800D02*
X1427484D01*
X1357363Y944880D02*
X1427484D01*
X1356859Y934720D02*
X1427484D01*
X1346751Y955040D02*
X1427484D01*
X1354661Y949960D02*
X1427484D01*
X1353370Y929640D02*
X1427484D01*
X1351280Y911027D02*
Y927973D01*
X1353412Y909320D02*
X1427484D01*
X1346200Y913171D02*
Y925829D01*
X1341120Y913398D02*
Y925602D01*
X1291751Y955040D02*
X1339249D01*
X1238979Y924560D02*
X1427484D01*
X1299661Y949960D02*
X1331339D01*
X1298370Y929640D02*
X1332630D01*
X1336040Y911806D02*
Y927194D01*
X1236439Y919480D02*
X1427484D01*
X1232790Y914400D02*
X1427484D01*
X1330960Y907473D02*
Y931527D01*
X1298412Y909320D02*
X1332588D01*
X1300644Y990600D02*
X1330356D01*
X1302709Y985520D02*
X1328291D01*
X1275080Y990152D02*
Y995000D01*
X1300480Y990850D02*
Y995000D01*
X1302874Y980440D02*
X1328126D01*
X1301210Y975360D02*
X1329790D01*
X1300480Y948850D02*
Y974149D01*
X1275080Y948152D02*
Y974848D01*
X1280160Y953307D02*
Y969693D01*
X1250000Y995000D02*
X1279680D01*
X1088615Y990600D02*
X1275356D01*
X1093695Y985520D02*
X1273291D01*
X1165000Y1065000D02*
X1235000Y995000D01*
X1250000D01*
X1212445Y975360D02*
X1274790D01*
X1224580Y970280D02*
X1279274D01*
X1239520Y951536D02*
Y995000D01*
X1098775Y980440D02*
X1273126D01*
X1302363Y944880D02*
X1328637D01*
X1295400Y953566D02*
Y969434D01*
X1303000Y939800D02*
X1328000D01*
X1285240Y955260D02*
Y967740D01*
X1290320Y955336D02*
Y967664D01*
X1301859Y934720D02*
X1329141D01*
X1300480Y906851D02*
Y932150D01*
X1295400Y911566D02*
Y927434D01*
X1285240Y913260D02*
Y925740D01*
X1290320Y913336D02*
Y925664D01*
X1240052Y949960D02*
X1276339D01*
X1238045Y955040D02*
X1284249D01*
X1241549Y934720D02*
X1274141D01*
X1241262Y944880D02*
X1273637D01*
X1241751Y939800D02*
X1273000D01*
X1280160Y911307D02*
Y927693D01*
X1240643Y929640D02*
X1277630D01*
X1227516Y909320D02*
X1277588D01*
X1358002Y899160D02*
X1427484D01*
X1357351Y894080D02*
X1427484D01*
X1354629Y889000D02*
X1427484D01*
X1356360Y905355D02*
Y933645D01*
X1356876Y904240D02*
X1427484D01*
X1371600Y624720D02*
Y995000D01*
X1366520Y623741D02*
Y995000D01*
X1376680Y624720D02*
Y995000D01*
X1361440Y618662D02*
Y995000D01*
X1356360Y848905D02*
Y891645D01*
X1346592Y883920D02*
X1427484D01*
X1163516Y878840D02*
X1427484D01*
X1299629Y889000D02*
X1331371D01*
X1291592Y883920D02*
X1339408D01*
X1351280Y853756D02*
Y885973D01*
X1346200Y855734D02*
Y883829D01*
X1341120Y855946D02*
Y883602D01*
X1330960Y850622D02*
Y889527D01*
X1336040Y854469D02*
Y885194D01*
X1356708Y848360D02*
X1427484D01*
X1351784Y853440D02*
X1427484D01*
X1358717Y843280D02*
X1427484D01*
X1358955Y838200D02*
X1427484D01*
X1357507Y833120D02*
X1427484D01*
X1353712Y828040D02*
X1427484D01*
X1356360Y806905D02*
Y831095D01*
X1163516Y868680D02*
X1427484D01*
X1163516Y873760D02*
X1427484D01*
X1163516Y863600D02*
X1427484D01*
X1163516Y858520D02*
X1427484D01*
X1294697Y853440D02*
X1334216D01*
X1330960Y808622D02*
Y829378D01*
X1297080Y828040D02*
X1332288D01*
X1303002Y899160D02*
X1327999D01*
X1301876Y904240D02*
X1329124D01*
X1302351Y894080D02*
X1328649D01*
X1275080Y906152D02*
Y932848D01*
X1300480Y848350D02*
Y890150D01*
X1275080Y847652D02*
Y890848D01*
X1280160Y852807D02*
Y885693D01*
X1264920Y715766D02*
Y995000D01*
X1270000Y716806D02*
Y995000D01*
X1218964Y904240D02*
X1274124D01*
X1163516Y894080D02*
X1273649D01*
X1163516Y889000D02*
X1276371D01*
X1163516Y899160D02*
X1272999D01*
X1254760Y719955D02*
Y995000D01*
X1249680Y725035D02*
Y995000D01*
X1259840Y715766D02*
Y995000D01*
X1244600Y730115D02*
Y995000D01*
X1239520Y735195D02*
Y925964D01*
X1300474Y848360D02*
X1329292D01*
X1295400Y853066D02*
Y885434D01*
X1302653Y843280D02*
X1327283D01*
X1285240Y854760D02*
Y883740D01*
X1290320Y854836D02*
Y883664D01*
X1302908Y838200D02*
X1327045D01*
X1301347Y833120D02*
X1328493D01*
X1300480Y806350D02*
Y831649D01*
X1280160Y810807D02*
Y827193D01*
X1295400Y811066D02*
Y826934D01*
X1163516Y853440D02*
X1281303D01*
X1163516Y883920D02*
X1284408D01*
X1223205Y848360D02*
X1275526D01*
X1223843Y843280D02*
X1273347D01*
X1218883Y838200D02*
X1273092D01*
X1163516Y828040D02*
X1278920D01*
X1163516Y833120D02*
X1274653D01*
X1275080Y805652D02*
Y832348D01*
X1522516Y812800D02*
X1560000D01*
X1522516Y817880D02*
X1560000D01*
X1522516Y807720D02*
X1560000D01*
X1522516Y816211D02*
Y826179D01*
Y806211D02*
Y816180D01*
Y797560D02*
X1560000D01*
X1522516Y802640D02*
X1560000D01*
X1522516Y782320D02*
X1560000D01*
X1522516Y796211D02*
Y806180D01*
Y786211D02*
Y796180D01*
Y822960D02*
X1560000D01*
X1462516Y797560D02*
X1487484D01*
X1522516Y792480D02*
X1560000D01*
X1487484Y796211D02*
Y806180D01*
X1462516Y792480D02*
X1487484D01*
X1522516Y776212D02*
Y786180D01*
Y787400D02*
X1560000D01*
X1522516Y777240D02*
X1560000D01*
X1462516Y787400D02*
X1487484D01*
X1462516Y777240D02*
X1487484D01*
X1522516Y767080D02*
X1560000D01*
X1522516Y772160D02*
X1560000D01*
X1522516Y756920D02*
X1560000D01*
X1522516Y766212D02*
Y776180D01*
Y762000D02*
X1560000D01*
X1522516Y746760D02*
X1560000D01*
X1522516Y751840D02*
X1560000D01*
X1502516Y706120D02*
X1560000D01*
X1522516Y756212D02*
Y766180D01*
Y746180D02*
Y756180D01*
X1487484Y746180D02*
X1522516D01*
X1485771Y731520D02*
X1560000D01*
X1493640Y726440D02*
X1560000D01*
X1488440Y730210D02*
Y746180D01*
X1493520Y726550D02*
Y746180D01*
X1500603Y716280D02*
X1560000D01*
X1497963Y721360D02*
X1560000D01*
X1502027Y701040D02*
X1560000D01*
X1498600Y720348D02*
Y746180D01*
X1502057Y711200D02*
X1560000D01*
X1487484Y816211D02*
Y826179D01*
X1462516Y822960D02*
X1487484D01*
X1462516Y817880D02*
X1487484D01*
X1462516Y816211D02*
Y826179D01*
Y812800D02*
X1487484D01*
Y806211D02*
Y816180D01*
X1462516Y807720D02*
X1487484D01*
Y776212D02*
Y786180D01*
X1462516Y806211D02*
Y816180D01*
X1487484Y786211D02*
Y796180D01*
X1462516Y796211D02*
Y806180D01*
X1427484Y816211D02*
Y826179D01*
X1462516Y802640D02*
X1487484D01*
X1427484Y806211D02*
Y816180D01*
Y796211D02*
Y806180D01*
X1462516Y776212D02*
Y786180D01*
Y786211D02*
Y796180D01*
Y782320D02*
X1487484D01*
X1427484Y786211D02*
Y796180D01*
Y776212D02*
Y786180D01*
X1487484Y766212D02*
Y776180D01*
X1462516Y772160D02*
X1487484D01*
X1462516Y767080D02*
X1487484D01*
X1462516Y766212D02*
Y776180D01*
Y762000D02*
X1487484D01*
Y756212D02*
Y766180D01*
X1462516Y756920D02*
X1487484D01*
Y746180D02*
Y756180D01*
X1462516Y756212D02*
Y766180D01*
Y751840D02*
X1487484D01*
X1462516Y746760D02*
X1487484D01*
X1462516Y746180D02*
Y756180D01*
X1427484Y746180D02*
X1462516D01*
X1427484Y766212D02*
Y776180D01*
Y756212D02*
Y766180D01*
X1452880Y722566D02*
Y746180D01*
X1457960Y727805D02*
Y746180D01*
X1427484D02*
Y756180D01*
X1447800Y710360D02*
Y746180D01*
X1518920Y666219D02*
Y746180D01*
X1513840Y666219D02*
Y746180D01*
X1500539Y695960D02*
X1560000D01*
X1508760Y666219D02*
Y746180D01*
X1498600Y666219D02*
Y692052D01*
X1522516Y660400D02*
X1560000D01*
X1522516Y665480D02*
X1560000D01*
X1522516Y646219D02*
Y656187D01*
X1503680Y666219D02*
Y746180D01*
X1522516Y656219D02*
Y666219D01*
X1497856Y690880D02*
X1560000D01*
X1493465Y685800D02*
X1560000D01*
X1485387Y680720D02*
X1560000D01*
X1488440Y666219D02*
Y682190D01*
X1493520Y666219D02*
Y685850D01*
X1487484Y666219D02*
X1522516D01*
X1462516Y665480D02*
X1487484D01*
Y656219D02*
Y666219D01*
X1462516Y660400D02*
X1487484D01*
X1522516Y650240D02*
X1560000D01*
X1522516Y655320D02*
X1560000D01*
X1522516Y645160D02*
X1560000D01*
X1522516Y636219D02*
Y646187D01*
Y640080D02*
X1560000D01*
X1522516Y619760D02*
X1560000D01*
X1522516Y635000D02*
X1560000D01*
X1522516Y609600D02*
X1560000D01*
X1522516Y626219D02*
Y636187D01*
Y614680D02*
X1560000D01*
X1487484Y646219D02*
Y656187D01*
X1462516Y645160D02*
X1487484D01*
X1462516Y640080D02*
X1487484D01*
X1462516Y655320D02*
X1487484D01*
X1462516Y650240D02*
X1487484D01*
X1522516Y629920D02*
X1560000D01*
X1522516Y624840D02*
X1560000D01*
X1522516Y616219D02*
Y626188D01*
X1479910Y614680D02*
X1487484D01*
X1462516Y646219D02*
Y656187D01*
Y656219D02*
Y666219D01*
X1487484Y636219D02*
Y646187D01*
X1457960Y666219D02*
Y684595D01*
X1462516Y636219D02*
Y646187D01*
X1478280Y616247D02*
Y678880D01*
X1468120Y614990D02*
Y679558D01*
X1473200Y616944D02*
Y678743D01*
X1463040Y614990D02*
Y681419D01*
X1462516Y626219D02*
Y636187D01*
X1447800Y666219D02*
Y702039D01*
X1442720Y666219D02*
Y746180D01*
X1452880Y666219D02*
Y689834D01*
X1432560Y666219D02*
Y746180D01*
X1437640Y666219D02*
Y746180D01*
X1427484Y656219D02*
Y666219D01*
X1462516D01*
X1427484Y646219D02*
Y656187D01*
Y636219D02*
Y646187D01*
Y626219D02*
Y636187D01*
X1487484Y626219D02*
Y636187D01*
X1462516Y624840D02*
X1487484D01*
X1462516Y619760D02*
X1487484D01*
X1462516Y635000D02*
X1487484D01*
X1462516Y629920D02*
X1487484D01*
Y616219D02*
Y626188D01*
X1480798Y609600D02*
X1487484D01*
X1462516Y616219D02*
Y626188D01*
Y614990D02*
Y616188D01*
X1427484Y624720D02*
Y626188D01*
X1368953Y624720D02*
X1427484D01*
X1370410Y617687D02*
X1427484D01*
Y616219D02*
Y617687D01*
X1462516Y614990D02*
X1470325D01*
X1367402Y614680D02*
X1427484D01*
X1362322Y609600D02*
X1427484D01*
X1355780Y807720D02*
X1427484D01*
X1349225Y812800D02*
X1427484D01*
X1358371Y802640D02*
X1427484D01*
X1351280Y811756D02*
Y826244D01*
X1346200Y813734D02*
Y824266D01*
X1359050Y797560D02*
X1427484D01*
X1358077Y792480D02*
X1427484D01*
X1355060Y787400D02*
X1427484D01*
X1356360Y764905D02*
Y789095D01*
X1351280Y769756D02*
Y784244D01*
X1163516Y817880D02*
X1427484D01*
X1163516Y822960D02*
X1427484D01*
X1341120Y813946D02*
Y824054D01*
X1290538Y812800D02*
X1336775D01*
X1192395Y782320D02*
X1339546D01*
X1354620Y767080D02*
X1427484D01*
X1346454Y782320D02*
X1427484D01*
X1359030Y756920D02*
X1427484D01*
X1346200Y771734D02*
Y782266D01*
X1357893Y762000D02*
X1427484D01*
X1358508Y751840D02*
X1427484D01*
X1356131Y746760D02*
X1427484D01*
X1350262Y741680D02*
X1560000D01*
X1202555Y772160D02*
X1427484D01*
X1197475Y777240D02*
X1427484D01*
X1341120Y771946D02*
Y782054D01*
X1243195Y731520D02*
X1464228D01*
X1238115Y736600D02*
X1560000D01*
X1248275Y726440D02*
X1456359D01*
X1253355Y721360D02*
X1452036D01*
X1336040Y812469D02*
Y825531D01*
X1299446Y807720D02*
X1330220D01*
X1302281Y802640D02*
X1327629D01*
X1290320Y812836D02*
Y825164D01*
X1303010Y797560D02*
X1326950D01*
X1301965Y792480D02*
X1327923D01*
X1298636Y787400D02*
X1330940D01*
X1330960Y766622D02*
Y787378D01*
X1300480Y764351D02*
Y789650D01*
X1295400Y769066D02*
Y784934D01*
X1285240Y812760D02*
Y825240D01*
X1163516Y812800D02*
X1285462D01*
X1166995Y807720D02*
X1276554D01*
X1172075Y802640D02*
X1273719D01*
X1177155Y797560D02*
X1272990D01*
X1187315Y787400D02*
X1277364D01*
X1280160Y768807D02*
Y785193D01*
X1182235Y792480D02*
X1274035D01*
X1275080Y763652D02*
Y790348D01*
X1336040Y770469D02*
Y783531D01*
X1298135Y767080D02*
X1331380D01*
X1301765Y762000D02*
X1328107D01*
X1285240Y770760D02*
Y783240D01*
X1290320Y770836D02*
Y783164D01*
X1302428Y751840D02*
X1327492D01*
X1299836Y746760D02*
X1329869D01*
X1292519Y741680D02*
X1335738D01*
X1302988Y756920D02*
X1326970D01*
X1285240Y716806D02*
Y741240D01*
X1212715Y762000D02*
X1274235D01*
X1207635Y767080D02*
X1277865D01*
X1227955Y746760D02*
X1276163D01*
X1217795Y756920D02*
X1273012D01*
X1222875Y751840D02*
X1273572D01*
X1267194Y716806D02*
X1287306D01*
X1275080D02*
Y748348D01*
X1233035Y741680D02*
X1283481D01*
X1287306Y711200D02*
X1447942D01*
X1287306Y716280D02*
X1449396D01*
X1287306Y701040D02*
X1447972D01*
X1280160Y716806D02*
Y743193D01*
X1287306Y706120D02*
X1447484D01*
X1356360Y613582D02*
Y747095D01*
X1351280Y608502D02*
Y742244D01*
X1287306Y696694D02*
Y716806D01*
X1280160Y665056D02*
Y696694D01*
X1285240Y665056D02*
Y696694D01*
X1267194D02*
X1287306D01*
X1265266Y695960D02*
X1449460D01*
X1265266Y680720D02*
X1464612D01*
X1265266Y685800D02*
X1456534D01*
X1265266Y675640D02*
X1560000D01*
X1275080Y665056D02*
Y696694D01*
X1265266Y690880D02*
X1452143D01*
X1287306Y655320D02*
X1427484D01*
X1287306Y660400D02*
X1427484D01*
X1287306Y650240D02*
X1427484D01*
X1287306Y645160D02*
X1427484D01*
X1270516Y619760D02*
X1362538D01*
X1270516Y609600D02*
X1352378D01*
X1287306Y644944D02*
Y665056D01*
X1265266Y665480D02*
X1427484D01*
X1265266Y670560D02*
X1560000D01*
X1270516Y640080D02*
X1427484D01*
X1267194Y665056D02*
X1287306D01*
X1270516Y644944D02*
X1287306D01*
X1270516Y635000D02*
X1427484D01*
X1270516Y629920D02*
X1427484D01*
X1270516Y624840D02*
X1427484D01*
X1270516Y614680D02*
X1357458D01*
X1267194Y715766D02*
Y716806D01*
X1258435Y716280D02*
X1267194D01*
X1258949Y715766D02*
X1267194D01*
X1249734Y697734D02*
X1252234D01*
X1265266D02*
X1267194D01*
Y696694D02*
Y697734D01*
X1265266Y664016D02*
Y697734D01*
X1270000Y665056D02*
Y696694D01*
X1249734Y697734D02*
Y706551D01*
X1252234Y664016D02*
Y697734D01*
X1163516Y811199D02*
X1258949Y715766D01*
X1152393Y803893D02*
X1249734Y706551D01*
X1166836Y706120D02*
X1249734D01*
X1166836Y716280D02*
X1240005D01*
X1166836Y711200D02*
X1245085D01*
X1166836Y685800D02*
X1252234D01*
X1166836Y690880D02*
X1252234D01*
X1166836Y680720D02*
X1252234D01*
X1166836Y701040D02*
X1249734D01*
X1166836Y695960D02*
X1252234D01*
X1267194Y664016D02*
Y665056D01*
X1265266Y664016D02*
X1267194D01*
X1249734D02*
X1252234D01*
X1166836Y675640D02*
X1252234D01*
X1166836Y670560D02*
X1252234D01*
X1193056Y635000D02*
X1257484D01*
X1190897Y640080D02*
X1257484D01*
X1190897Y629920D02*
X1257484D01*
X1249734Y645984D02*
Y664016D01*
Y645984D02*
X1257484D01*
X1166836Y660400D02*
X1249734D01*
X1166836Y665480D02*
X1252234D01*
X1166836Y645160D02*
X1257484D01*
X1166836Y655320D02*
X1249734D01*
X1166836Y650240D02*
X1249734D01*
X1166836Y614680D02*
X1257484D01*
X1166836Y609600D02*
X1257484D01*
X1166836Y624840D02*
X1257484D01*
X1166836Y619760D02*
X1257484D01*
X1148080Y1128878D02*
Y1230000D01*
X1143000Y1132377D02*
Y1230000D01*
X1142095Y1132840D02*
X1165000D01*
X1132840Y1135482D02*
Y1230000D01*
X1137920Y1134471D02*
Y1230000D01*
X1165000Y1065000D02*
Y1230000D01*
X1149292Y1127760D02*
X1165000D01*
X1153372Y1122680D02*
X1165000D01*
X1153160Y1123014D02*
Y1230000D01*
X1155858Y1117600D02*
X1165000D01*
X1094886Y1148080D02*
X1165000D01*
X1094886Y1153160D02*
X1165000D01*
X1094886Y1143000D02*
X1165000D01*
X1127760Y1135532D02*
Y1230000D01*
X1094886Y1137920D02*
X1165000D01*
X1122680Y1134626D02*
Y1230000D01*
X1094886Y1132840D02*
X1117965D01*
X1112520Y1129336D02*
Y1230000D01*
X1117600Y1132658D02*
Y1230000D01*
X1156938Y1102360D02*
X1165000D01*
X1155325Y1097280D02*
X1165000D01*
X1152480Y1092200D02*
X1165000D01*
X1157190Y1112520D02*
X1165000D01*
X1157538Y1107440D02*
X1165000D01*
X1147822Y1087120D02*
X1165000D01*
X1138832Y1082040D02*
X1165000D01*
X1093846Y1071880D02*
X1165000D01*
X1093846Y1082040D02*
X1121227D01*
X1094735Y1076960D02*
X1165000D01*
X1075346Y1051560D02*
X1178440D01*
X1075346Y1056640D02*
X1173360D01*
X1075346Y1046480D02*
X1183520D01*
X1093846Y1066800D02*
X1165000D01*
X1093846Y1061720D02*
X1168280D01*
X1075346Y1026160D02*
X1203840D01*
X1075346Y1031240D02*
X1198760D01*
X1075346Y1021080D02*
X1208920D01*
X1075346Y1041400D02*
X1188600D01*
X1075346Y1036320D02*
X1193680D01*
X1092200Y1156666D02*
Y1230000D01*
X1094886Y1127760D02*
X1110768D01*
X1087120Y1156666D02*
Y1230000D01*
X1107440Y1123821D02*
Y1230000D01*
X1094886Y1119554D02*
Y1156666D01*
Y1122680D02*
X1106688D01*
X1087120Y1115941D02*
Y1119554D01*
X1082774Y1155626D02*
Y1156666D01*
X1094886D01*
X1073846Y1155626D02*
X1082774D01*
X1076960D02*
Y1230000D01*
X1082040Y1155626D02*
Y1230000D01*
X1082774Y1119554D02*
Y1120594D01*
X1073846D02*
X1082774D01*
Y1119554D02*
X1094886D01*
X1076960Y1095626D02*
Y1120594D01*
X1082040Y1112371D02*
Y1120594D01*
X1095524Y1112520D02*
X1102870D01*
X1094415Y1102360D02*
X1103121D01*
X1093846Y1092200D02*
X1107580D01*
X1096818Y1107440D02*
X1102522D01*
X1092200Y1095626D02*
Y1100837D01*
X1093846Y1087120D02*
X1112238D01*
X1093846Y1081432D02*
Y1095626D01*
Y1060594D02*
Y1074789D01*
X1083846Y1095626D02*
X1093846D01*
X1092200Y1115383D02*
Y1119554D01*
X1087120Y1095626D02*
Y1100278D01*
X1073846Y1095626D02*
X1083814D01*
X1083846Y1060594D02*
X1093846D01*
X1082040Y1095626D02*
Y1103849D01*
X1075346Y1060594D02*
X1083814D01*
X1203960Y976265D02*
Y1026040D01*
X1198880Y975880D02*
Y1031120D01*
X1209040Y975959D02*
Y1020960D01*
X1188720Y972901D02*
Y1041280D01*
X1193800Y974781D02*
Y1036200D01*
X1178560Y966090D02*
Y1051440D01*
X1173480Y960213D02*
Y1056520D01*
X1183640Y970098D02*
Y1046360D01*
X1163320Y914586D02*
Y1230000D01*
X1168400Y949806D02*
Y1061600D01*
X1132840Y946375D02*
Y1080738D01*
X1127760Y951455D02*
Y1080688D01*
X1075346Y1016000D02*
X1214000D01*
X1117600Y961615D02*
Y1083562D01*
X1122680Y956535D02*
Y1081594D01*
X1158240Y920975D02*
Y1230000D01*
X1153160Y926055D02*
Y1093206D01*
X1148080Y931135D02*
Y1087342D01*
X1143000Y936215D02*
Y1083843D01*
X1137920Y941295D02*
Y1081749D01*
X1224280Y970471D02*
Y1005720D01*
X1219200Y973158D02*
Y1010800D01*
X1229360Y966624D02*
Y1000640D01*
X1214120Y974944D02*
Y1015880D01*
X1114015Y965200D02*
X1177645D01*
X1234440Y961021D02*
Y995560D01*
X1119095Y960120D02*
X1173415D01*
X1124175Y955040D02*
X1170455D01*
X1129255Y949960D02*
X1168448D01*
X1134335Y944880D02*
X1167238D01*
X1078455Y1000760D02*
X1229240D01*
X1075346Y1005840D02*
X1224160D01*
X1083535Y995680D02*
X1234320D01*
X1075346Y1010920D02*
X1219080D01*
X1103855Y975360D02*
X1196055D01*
X1077677Y983108D02*
X1150484Y910301D01*
X1075346Y1003869D02*
X1161608Y917607D01*
X1108935Y970280D02*
X1183920D01*
X1077818Y980534D02*
X1126981Y931372D01*
X1113472Y944880D02*
X1115905D01*
X1102360Y976855D02*
Y1230000D01*
X1097280Y981935D02*
Y1230000D01*
X1107440Y971775D02*
Y1092399D01*
X1087120Y992095D02*
Y1060594D01*
X1092200Y987015D02*
Y1060594D01*
X1112520Y966695D02*
Y1086884D01*
X1092200Y966152D02*
Y968585D01*
X1093152Y965200D02*
X1095585D01*
X1087120Y971232D02*
Y973665D01*
X1088072Y970280D02*
X1090505D01*
X1082040Y997175D02*
Y1060594D01*
X1075346Y1003869D02*
Y1060594D01*
X1076960Y1002255D02*
Y1060594D01*
X1082992Y975360D02*
X1085425D01*
X1082040Y976312D02*
Y978745D01*
Y961935D02*
Y966368D01*
X1077912Y980440D02*
X1080345D01*
X1076960Y967015D02*
Y971448D01*
X1107440Y950912D02*
Y953345D01*
X1103312Y955040D02*
X1105745D01*
X1108392Y949960D02*
X1110825D01*
X1098232Y960120D02*
X1100665D01*
X1102360Y955992D02*
Y958425D01*
X1112520Y945832D02*
Y948265D01*
X1102360Y772975D02*
Y946048D01*
X1099048Y944880D02*
X1103528D01*
X1097280Y961072D02*
Y963505D01*
X1083855Y960120D02*
X1088288D01*
X1088935Y955040D02*
X1093368D01*
X1078775Y965200D02*
X1083208D01*
X1087120Y956855D02*
Y961288D01*
X1097280Y946695D02*
Y951128D01*
X1094015Y949960D02*
X1098448D01*
X1092200Y951775D02*
Y956208D01*
X1076960Y759012D02*
Y948585D01*
X1071880Y1155626D02*
Y1230000D01*
X1066800Y1155626D02*
Y1230000D01*
X1063846Y1155626D02*
X1073814D01*
X1056640D02*
Y1230000D01*
X1061720Y1155626D02*
Y1230000D01*
X1053846Y1155626D02*
X1063814D01*
X1043846D02*
X1053814D01*
X1043846Y1120594D02*
X1053814D01*
X1046480Y1155626D02*
Y1230000D01*
X1051560Y1155626D02*
Y1230000D01*
X1041400Y1155626D02*
Y1230000D01*
X1036320Y1155626D02*
Y1230000D01*
X1033846Y1155626D02*
X1043814D01*
X1026160D02*
Y1230000D01*
X1031240Y1155626D02*
Y1230000D01*
X1021080Y1155626D02*
Y1230000D01*
X1013846Y1155626D02*
X1023814D01*
X1023846D02*
X1033814D01*
X1016000D02*
Y1230000D01*
X1021080Y1095626D02*
Y1120594D01*
X1063846D02*
X1073814D01*
X1053846D02*
X1063814D01*
X1053846Y1095626D02*
X1063814D01*
X1033846Y1120594D02*
X1043814D01*
X1051560Y1095626D02*
Y1120594D01*
X1046480Y1095626D02*
Y1120594D01*
X1043846Y1095626D02*
X1053814D01*
X1033846D02*
X1043814D01*
X1031240D02*
Y1120594D01*
X1041400Y1095626D02*
Y1120594D01*
X1012346Y1117600D02*
X1104202D01*
X1012093Y1112520D02*
X1082136D01*
X1007412Y1107440D02*
X1080842D01*
X1013846Y1120594D02*
X1023814D01*
X1023846D02*
X1033814D01*
X1026160Y1095626D02*
Y1120594D01*
X1002332Y1102360D02*
X1083245D01*
X1023846Y1095626D02*
X1033814D01*
X1016000D02*
Y1120594D01*
X1013846Y1095626D02*
X1023814D01*
X1010920Y1155626D02*
Y1230000D01*
X1005840Y1155626D02*
Y1230000D01*
X1003846Y1155626D02*
X1013814D01*
X995680D02*
Y1230000D01*
X1000760Y1155626D02*
Y1230000D01*
X1012346Y1113830D02*
Y1120594D01*
X1003846D02*
X1005314D01*
X1012346D02*
X1013814D01*
X1000760Y1110732D02*
Y1120594D01*
X1005314Y1115286D02*
Y1120594D01*
X990600Y1155626D02*
Y1230000D01*
X983846Y1155626D02*
X993814D01*
X993846D02*
X1003814D01*
X980440D02*
Y1230000D01*
X985520Y1155626D02*
Y1230000D01*
X995680Y1107516D02*
Y1120594D01*
X992346D02*
X993814D01*
X993846D02*
X1003814D01*
X980440Y1115412D02*
Y1120594D01*
X983846D02*
X985314D01*
X992124Y1117600D02*
X1005314D01*
X992346Y1118830D02*
Y1120594D01*
X1001492Y1101519D02*
X1011311Y1111338D01*
X997544Y1107516D02*
X1005314Y1115286D01*
X995680Y1095626D02*
Y1100484D01*
X982488Y1107516D02*
X991311Y1116338D01*
X987492Y1112520D02*
X1002548D01*
X990600Y1107516D02*
Y1115628D01*
X985520Y1107516D02*
Y1110548D01*
X982488Y1107516D02*
X997544D01*
X983846Y1095626D02*
X993814D01*
X980440D02*
Y1100484D01*
X985520Y1095626D02*
Y1100484D01*
X1071880Y1095626D02*
Y1120594D01*
X1065346Y995439D02*
X1073488Y987297D01*
X1071880Y987516D02*
Y988905D01*
X1066800Y1095626D02*
Y1120594D01*
X1065346Y990600D02*
X1070185D01*
X1065346Y985520D02*
X1067404D01*
X1065346Y978629D02*
X1098607Y945368D01*
X1065346Y978629D02*
Y995439D01*
X1066800Y984723D02*
Y993985D01*
X1061720Y1095626D02*
Y1120594D01*
X1056640Y1095626D02*
Y1120594D01*
X1063846Y1095626D02*
X1073814D01*
X979652Y1036320D02*
X1052314D01*
X984732Y1031240D02*
X1052314D01*
X986516Y995680D02*
X1052314D01*
X986516Y1000760D02*
X1052314D01*
X986516Y990600D02*
X1052314D01*
X986516Y1010920D02*
X1052314D01*
X986516Y1005840D02*
X1052314D01*
X1068615Y975360D02*
X1073048D01*
X1054223Y971322D02*
X1087484Y938061D01*
X1073695Y970280D02*
X1078128D01*
X1066800Y977175D02*
Y978277D01*
X1071880Y972095D02*
Y975484D01*
X1072846Y975562D02*
X1120984Y927424D01*
X1066800Y769172D02*
Y958745D01*
X1071880Y764092D02*
Y953665D01*
X1056640Y779332D02*
Y968905D01*
X1061720Y774252D02*
Y963825D01*
X986516Y970280D02*
X1055265D01*
X986516Y965200D02*
X1060345D01*
X986516Y975360D02*
X1052339D01*
X986516Y949960D02*
X1075585D01*
X986516Y944880D02*
X1080665D01*
X986516Y960120D02*
X1065425D01*
X986516Y955040D02*
X1070505D01*
X1043846Y1060594D02*
X1052314D01*
X1033846D02*
X1043814D01*
X1052314Y975930D02*
Y1060594D01*
X1036320Y1095626D02*
Y1120594D01*
X1026160Y809812D02*
Y1060594D01*
X1046480Y789492D02*
Y1060594D01*
X1041400Y794572D02*
Y1060594D01*
X1051560Y784412D02*
Y1060594D01*
X1031240Y804732D02*
Y1060594D01*
X1036320Y799652D02*
Y1060594D01*
X1010920Y1095626D02*
Y1110948D01*
X1005840Y1095626D02*
Y1105868D01*
X1003846Y1095626D02*
X1013814D01*
X990600D02*
Y1100484D01*
X993846Y1095626D02*
X1003814D01*
X1021080Y814892D02*
Y1060594D01*
X1013846D02*
X1023814D01*
X1023846D02*
X1033814D01*
X1000760Y1095626D02*
Y1100956D01*
X1016000Y819972D02*
Y1060594D01*
X1003846D02*
X1013814D01*
X986516Y985520D02*
X1052314D01*
X986516Y980440D02*
X1052314D01*
X993846Y1060594D02*
X1003814D01*
X986516Y849456D02*
Y1028000D01*
X1005840Y830132D02*
Y1060594D01*
X1000760Y835212D02*
Y1060594D01*
X1010920Y825052D02*
Y1060594D01*
X990600Y845372D02*
Y1060594D01*
X995680Y840292D02*
Y1060594D01*
X983846D02*
X993814D01*
X980440Y1035532D02*
Y1060594D01*
X985520Y1030452D02*
Y1060594D01*
X986516Y1026160D02*
X1052314D01*
X986516Y1021080D02*
X1052314D01*
X979484Y848000D02*
Y1026544D01*
X986516Y1016000D02*
X1052314D01*
X1219200Y851704D02*
Y904341D01*
X1173480Y801235D02*
Y917287D01*
X1214120Y851441D02*
Y902556D01*
X1168400Y806315D02*
Y927694D01*
X1163516Y845000D02*
Y913000D01*
X1193800Y780915D02*
Y902719D01*
X1188720Y785995D02*
Y904599D01*
X1198880Y775835D02*
Y901620D01*
X1178560Y796155D02*
Y911410D01*
X1183640Y791075D02*
Y907402D01*
X1154655Y924560D02*
X1169521D01*
X1149575Y929640D02*
X1167857D01*
X1159735Y919480D02*
X1172061D01*
X1139415Y939800D02*
X1166749D01*
X1144495Y934720D02*
X1166951D01*
X1163516Y909320D02*
X1180984D01*
X1163364Y914400D02*
X1175710D01*
X1163516Y904240D02*
X1189536D01*
X1163516Y848360D02*
X1210795D01*
X1163516Y843280D02*
X1210157D01*
X1163516Y838200D02*
X1215117D01*
X1163516Y811199D02*
Y845000D01*
X1151732Y777240D02*
X1179045D01*
X1128016Y807720D02*
X1150531D01*
X1128016Y873760D02*
X1150484D01*
X1128016Y863600D02*
X1150484D01*
X1141572Y787400D02*
X1168885D01*
X1136492Y792480D02*
X1163805D01*
X1146652Y782320D02*
X1173965D01*
X1128016Y802640D02*
X1153645D01*
X1131412Y797560D02*
X1158725D01*
X1150484Y845000D02*
Y910301D01*
X1128016Y914400D02*
X1146385D01*
X1128016Y904240D02*
X1150484D01*
X1128016Y924560D02*
X1136225D01*
X1128016Y919480D02*
X1141305D01*
X1143000Y785972D02*
Y917785D01*
X1137920Y791052D02*
Y922865D01*
X1148080Y780892D02*
Y912705D01*
X1128016Y800956D02*
Y928880D01*
X1132840Y796132D02*
Y927945D01*
X1123632Y934720D02*
X1126065D01*
X1122680Y935672D02*
Y938105D01*
X1127760Y930197D02*
Y933025D01*
X1117600Y940752D02*
Y943185D01*
X1118552Y939800D02*
X1120985D01*
X1127933Y929640D02*
X1131145D01*
X1128016Y909320D02*
X1150484D01*
X1120984Y799500D02*
Y927424D01*
X1128016Y883920D02*
X1150484D01*
X1128016Y889000D02*
X1150484D01*
X1128016Y878840D02*
X1150484D01*
X1128016Y899160D02*
X1150484D01*
X1128016Y894080D02*
X1150484D01*
X1128016Y848360D02*
X1150484D01*
X1128016Y853440D02*
X1150484D01*
Y808500D02*
Y845000D01*
X1128016Y868680D02*
X1150484D01*
X1128016Y858520D02*
X1150484D01*
X1128016Y828040D02*
X1150484D01*
X1128016Y833120D02*
X1150484D01*
X1128016Y822960D02*
X1150484D01*
X1128016Y843280D02*
X1150484D01*
X1128016Y838200D02*
X1150484D01*
X1128016Y817880D02*
X1150484D01*
X1128016Y812800D02*
X1150484D01*
X1224280Y750435D02*
Y907029D01*
X1214120Y760595D02*
Y838559D01*
X1219200Y755515D02*
Y838296D01*
X1209040Y765675D02*
Y901541D01*
X1203960Y770755D02*
Y901235D01*
X1234440Y740275D02*
Y916479D01*
X1229360Y745355D02*
Y910876D01*
X1188720Y641511D02*
Y767565D01*
X1183640Y641650D02*
Y772645D01*
X1166836Y607882D02*
Y760680D01*
X1161892Y767080D02*
X1189205D01*
X1156812Y772160D02*
X1184125D01*
X1166579Y762000D02*
X1194285D01*
X1128016Y800956D02*
X1165800Y763172D01*
X1163320Y765652D02*
Y792965D01*
X1166836Y756920D02*
X1199365D01*
X1122020Y797008D02*
X1159804Y759224D01*
X1123495Y751840D02*
X1159804D01*
X1166836Y736600D02*
X1219685D01*
X1166836Y741680D02*
X1214605D01*
X1166836Y731520D02*
X1224765D01*
X1166836Y751840D02*
X1204445D01*
X1166836Y746760D02*
X1209525D01*
X1129196Y741680D02*
X1159804D01*
X1128287Y746760D02*
X1159804D01*
X1166836Y726440D02*
X1229845D01*
X1129196Y731520D02*
X1159804D01*
X1129196Y726440D02*
X1159804D01*
X1166836Y721360D02*
X1234925D01*
X1166836Y640080D02*
X1181103D01*
X1166836Y635000D02*
X1178944D01*
X1166836Y629920D02*
X1181103D01*
X1129196Y721360D02*
X1159804D01*
X1129196Y736600D02*
X1159804D01*
X1129196Y716280D02*
X1159804D01*
X1153160Y775812D02*
Y803125D01*
X1158240Y770732D02*
Y798045D01*
X1129196Y706120D02*
X1159804D01*
X1129196Y711200D02*
X1159804D01*
X1129196Y701040D02*
X1159804D01*
Y607882D02*
Y759224D01*
X1129196Y636680D02*
Y743440D01*
X1127760Y747521D02*
Y791268D01*
X1118415Y756920D02*
X1159804D01*
X1117600Y757735D02*
Y930808D01*
X1122680Y752655D02*
Y796348D01*
X1116164Y719533D02*
Y740741D01*
X1129196Y695960D02*
X1159804D01*
X1129196Y675640D02*
X1159804D01*
X1129196Y680720D02*
X1159804D01*
X1129196Y670560D02*
X1159804D01*
X1129196Y690880D02*
X1159804D01*
X1129196Y685800D02*
X1159804D01*
X1129196Y645160D02*
X1159804D01*
X1129196Y655320D02*
X1159804D01*
X1129196Y640080D02*
X1159804D01*
X1129196Y665480D02*
X1159804D01*
X1129196Y660400D02*
X1159804D01*
X1129196Y650240D02*
X1159804D01*
X1128976Y635000D02*
X1159804D01*
X1116164Y639379D02*
Y652467D01*
X1125135Y629920D02*
X1159804D01*
X1120055Y624840D02*
X1159804D01*
X1100516Y924560D02*
X1120984D01*
X1100516Y929640D02*
X1118768D01*
X1100516Y919480D02*
X1120984D01*
X1100516Y939800D02*
X1108608D01*
X1100516Y934720D02*
X1113688D01*
X1107440Y767895D02*
Y940968D01*
X1100516Y914400D02*
X1120984D01*
X1100516Y909320D02*
X1120984D01*
X1100516Y914000D02*
Y940760D01*
Y774819D02*
Y914000D01*
Y889000D02*
X1120984D01*
X1100516Y894080D02*
X1120984D01*
X1100516Y883920D02*
X1120984D01*
X1100516Y904240D02*
X1120984D01*
X1100516Y899160D02*
X1120984D01*
X1100516Y863600D02*
X1120984D01*
X1100516Y868680D02*
X1120984D01*
X1100516Y858520D02*
X1120984D01*
X1100516Y878840D02*
X1120984D01*
X1100516Y873760D02*
X1120984D01*
X1100516Y833120D02*
X1120984D01*
X1100516Y838200D02*
X1120984D01*
X1100516Y828040D02*
X1120984D01*
X1100516Y853440D02*
X1120984D01*
X1100516Y848360D02*
X1120984D01*
X1103175Y772160D02*
X1146868D01*
X1100516Y812800D02*
X1120984D01*
X1108255Y767080D02*
X1151948D01*
X1100516Y822960D02*
X1120984D01*
X1100516Y817880D02*
X1120984D01*
X1100516Y797560D02*
X1121568D01*
X1100516Y802640D02*
X1120984D01*
X1100516Y792480D02*
X1126548D01*
X1100516Y843280D02*
X1120984D01*
X1100516Y807720D02*
X1120984D01*
X1100516Y782320D02*
X1136708D01*
X1100516Y787400D02*
X1131628D01*
X1100516Y777240D02*
X1141788D01*
X1068892Y767080D02*
X1089825D01*
X986516Y924560D02*
X1087484D01*
X986516Y929640D02*
X1087484D01*
X986516Y919480D02*
X1087484D01*
X986516Y939800D02*
X1085745D01*
X986516Y934720D02*
X1087484D01*
Y772120D02*
Y914000D01*
X986516Y909320D02*
X1087484D01*
X986516Y904240D02*
X1087484D01*
Y914000D02*
Y938061D01*
X986516Y914400D02*
X1087484D01*
X986516Y883920D02*
X1087484D01*
X986516Y889000D02*
X1087484D01*
X986516Y878840D02*
X1087484D01*
X986516Y899160D02*
X1087484D01*
X986516Y894080D02*
X1087484D01*
X986516Y858520D02*
X1087484D01*
X986516Y863600D02*
X1087484D01*
X986516Y853440D02*
X1087484D01*
X986516Y873760D02*
X1087484D01*
X986516Y868680D02*
X1087484D01*
X1038412Y797560D02*
X1087484D01*
X1033332Y802640D02*
X1087484D01*
X1043492Y792480D02*
X1087484D01*
X1023172Y812800D02*
X1087484D01*
X1028252Y807720D02*
X1087484D01*
X1063812Y772160D02*
X1087484D01*
X1058732Y777240D02*
X1087484D01*
X1048572Y787400D02*
X1087484D01*
X1053652Y782320D02*
X1087484D01*
X992692Y843280D02*
X1087484D01*
X987612Y848360D02*
X1087484D01*
X997772Y838200D02*
X1087484D01*
X1013012Y822960D02*
X1087484D01*
X1018092Y817880D02*
X1087484D01*
X1002852Y833120D02*
X1087484D01*
X1007932Y828040D02*
X1087484D01*
X1113335Y762000D02*
X1157028D01*
X1104452Y731520D02*
X1116164D01*
X1109532Y726440D02*
X1116164D01*
X1112520Y762815D02*
Y935888D01*
X1107440Y728532D02*
Y749465D01*
X1114612Y721360D02*
X1116164D01*
X1112520Y723452D02*
Y744385D01*
X1101897Y695960D02*
X1109484D01*
X1107440Y653412D02*
Y718588D01*
X1109484Y655456D02*
Y716544D01*
X1100516Y774819D02*
X1127288Y748047D01*
X1089392Y767513D02*
X1116164Y740741D01*
X1094292Y741680D02*
X1115225D01*
X1084132Y751840D02*
X1105065D01*
X1089212Y746760D02*
X1110145D01*
X986516Y849456D02*
X1115480Y720492D01*
X980519Y845508D02*
X1109484Y716544D01*
X1099372Y736600D02*
X1116164D01*
X1078727Y721360D02*
X1104668D01*
X1114212Y650240D02*
X1116164D01*
X1109132Y645160D02*
X1116164D01*
X1104052Y640080D02*
X1116164D01*
X1104056Y690880D02*
X1109484D01*
X1112520Y635735D02*
Y648548D01*
X1114975Y619760D02*
X1159804D01*
X1109895Y614680D02*
X1159804D01*
X1105516Y609600D02*
X1159804D01*
X1107440Y630655D02*
Y643468D01*
X1105516Y610301D02*
X1127288Y632072D01*
X1101897Y685800D02*
X1109484D01*
X987147Y660400D02*
X1109484D01*
X1098972Y635000D02*
X1111785D01*
X989306Y655320D02*
X1109348D01*
X987147Y650240D02*
X1104268D01*
X1094516Y630544D02*
X1115480Y651508D01*
X1094516Y617731D02*
X1116164Y639379D01*
X1088520Y634492D02*
X1109484Y655456D01*
X1094516Y629920D02*
X1106705D01*
X1097280Y738692D02*
Y759625D01*
X1092200Y743772D02*
Y764705D01*
X1079052Y756920D02*
X1099985D01*
X1082040Y753932D02*
Y943505D01*
X1087120Y748852D02*
Y938425D01*
X1102360Y733612D02*
Y754545D01*
X1097280Y697931D02*
Y728748D01*
X1079795Y726440D02*
X1099588D01*
X1076960Y730978D02*
Y749068D01*
X1092200Y696052D02*
Y733828D01*
X1073972Y762000D02*
X1094905D01*
X1076076Y731520D02*
X1094508D01*
X1066800Y728898D02*
Y759228D01*
X1071880Y732240D02*
Y754148D01*
X980440Y662140D02*
Y845590D01*
X985520Y661573D02*
Y840508D01*
X1102360Y695469D02*
Y723668D01*
Y648332D02*
Y686291D01*
Y625575D02*
Y638388D01*
X1097280Y643252D02*
Y683829D01*
Y620495D02*
Y633308D01*
X1094516Y617731D02*
Y630544D01*
Y619760D02*
X1096545D01*
X1092200Y638172D02*
Y685708D01*
X1094516Y624840D02*
X1101625D01*
X1522516Y604520D02*
X1560000D01*
X1522516Y606219D02*
Y616188D01*
Y599440D02*
X1560000D01*
X1487484Y606219D02*
Y616188D01*
X1522516Y596219D02*
Y606188D01*
Y594360D02*
X1560000D01*
X1522516Y586220D02*
Y596188D01*
Y589280D02*
X1560000D01*
X1487484Y586220D02*
Y596188D01*
X1522516Y576220D02*
Y586188D01*
X1487484Y596219D02*
Y606188D01*
X1480019Y604520D02*
X1487484D01*
X1480752Y599440D02*
X1487484D01*
X1480121Y594360D02*
X1487484D01*
X1480700Y589280D02*
X1487484D01*
X1522516Y579120D02*
X1560000D01*
X1522516Y584200D02*
X1560000D01*
X1522516Y574040D02*
X1560000D01*
X1522516Y566220D02*
Y576188D01*
Y568960D02*
X1560000D01*
X1522516Y563880D02*
X1560000D01*
X1522516Y556220D02*
Y566188D01*
Y558800D02*
X1560000D01*
X1487484Y566220D02*
Y576188D01*
Y556220D02*
Y566188D01*
Y576220D02*
Y586188D01*
X1480219Y584200D02*
X1487484D01*
X1480642Y579120D02*
X1487484D01*
X1462516Y574040D02*
X1487484D01*
X1480395Y563880D02*
X1487484D01*
X1462516Y568960D02*
X1487484D01*
X1480509Y558800D02*
X1487484D01*
X1463040Y604990D02*
Y607417D01*
X1468120Y604990D02*
Y607417D01*
X1463040Y594719D02*
Y597417D01*
X1468120Y594719D02*
Y597417D01*
X1462516Y604990D02*
X1470325D01*
X1462516Y607417D02*
X1470325D01*
X1462516Y597417D02*
X1470325D01*
X1462516Y606219D02*
Y607417D01*
Y604990D02*
Y606188D01*
Y587687D02*
X1470118D01*
X1462516Y594719D02*
X1470118D01*
X1463040Y584724D02*
Y587687D01*
X1462516Y596219D02*
Y597417D01*
Y594719D02*
Y596188D01*
X1468120Y584724D02*
Y587687D01*
X1473200Y566958D02*
Y575468D01*
X1462516Y586220D02*
Y587687D01*
Y576220D02*
Y577692D01*
X1478280Y566260D02*
Y576165D01*
X1468120Y564733D02*
Y577692D01*
X1463040Y564733D02*
Y577692D01*
Y554738D02*
Y557701D01*
X1462516Y577692D02*
X1470118D01*
X1462516Y584724D02*
X1470118D01*
X1462516Y564733D02*
X1470118D01*
X1462516Y584724D02*
Y586188D01*
Y566220D02*
Y576188D01*
Y564733D02*
Y566188D01*
Y557701D02*
X1470118D01*
X1462516Y556220D02*
Y557701D01*
Y554738D02*
Y556188D01*
X1539240Y496725D02*
Y995000D01*
X1534160Y499054D02*
Y995000D01*
X1554480Y303000D02*
Y995000D01*
X1529080Y497058D02*
Y995000D01*
X1522516Y546220D02*
Y556188D01*
X1559560Y303000D02*
Y995000D01*
X1549400Y303000D02*
Y995000D01*
X1560000Y303000D02*
Y995000D01*
X1524000Y303000D02*
Y995000D01*
X1544320Y303000D02*
Y995000D01*
X1522516Y553720D02*
X1560000D01*
X1480473D02*
X1487484D01*
X1522516Y548640D02*
X1560000D01*
X1487484Y546220D02*
Y556188D01*
X1480434Y548640D02*
X1487484D01*
X1522516Y536220D02*
Y546188D01*
X1487484Y536220D02*
Y546188D01*
X1480545Y543560D02*
X1487484D01*
X1483360Y406215D02*
Y679985D01*
X1522516Y538480D02*
X1560000D01*
X1522516Y543560D02*
X1560000D01*
X1522516Y533400D02*
X1560000D01*
X1522516Y526220D02*
Y536188D01*
Y528320D02*
X1560000D01*
X1522516Y518160D02*
X1560000D01*
X1522516Y523240D02*
X1560000D01*
X1522516Y513080D02*
X1560000D01*
X1522516Y516220D02*
Y526188D01*
Y506220D02*
Y516188D01*
X1487484Y526220D02*
Y536188D01*
X1480352Y538480D02*
X1487484D01*
X1480612Y533400D02*
X1487484D01*
X1480265Y528320D02*
X1487484D01*
Y506220D02*
Y516188D01*
Y516220D02*
Y526188D01*
X1480728Y513080D02*
X1487484D01*
X1480672Y523240D02*
X1487484D01*
X1480170Y518160D02*
X1487484D01*
X1468120Y544743D02*
Y547706D01*
Y534747D02*
Y537711D01*
Y554738D02*
Y557701D01*
X1462516Y547706D02*
X1470118D01*
X1462516Y544743D02*
X1470118D01*
X1462516Y546220D02*
Y547706D01*
X1463040Y544743D02*
Y547706D01*
Y534747D02*
Y537711D01*
X1462516D02*
X1470118D01*
X1462516Y534747D02*
X1470118D01*
X1462516Y536220D02*
Y537711D01*
Y534747D02*
Y536188D01*
X1468120Y524752D02*
Y527715D01*
Y514757D02*
Y517720D01*
X1463040Y524752D02*
Y527715D01*
X1462516D02*
X1470118D01*
X1462516Y517720D02*
X1470118D01*
X1462516Y526220D02*
Y527715D01*
Y524752D02*
Y526188D01*
X1463040Y514757D02*
Y517720D01*
X1462516Y514757D02*
X1470118D01*
X1462516Y516220D02*
Y517720D01*
Y514757D02*
Y516188D01*
X1427484Y596219D02*
Y606188D01*
Y606219D02*
Y616188D01*
X1357242Y604520D02*
X1427484D01*
X1346200Y603422D02*
Y740266D01*
X1352162Y599440D02*
X1427484D01*
Y586220D02*
Y596188D01*
X1347082Y594360D02*
X1427484D01*
X1342002Y589280D02*
X1427484D01*
X1351280Y562628D02*
Y598558D01*
X1346200Y561414D02*
Y593478D01*
X1341120Y598342D02*
Y740054D01*
X1270516Y604520D02*
X1347298D01*
X1270516Y599440D02*
X1342218D01*
X1336040Y593262D02*
Y741531D01*
X1270516Y594360D02*
X1337138D01*
X1318688Y565966D02*
X1370410Y617687D01*
X1313716Y570938D02*
X1366462Y623684D01*
X1270516Y589280D02*
X1332058D01*
X1325880Y583102D02*
Y995000D01*
X1330960Y588182D02*
Y745378D01*
X1427484Y576220D02*
Y586188D01*
X1336922Y584200D02*
X1427484D01*
Y566220D02*
Y576188D01*
X1341120Y560266D02*
Y588398D01*
X1355656Y558800D02*
X1427484D01*
X1462516Y554738D02*
X1470118D01*
X1427484Y556220D02*
Y566188D01*
X1355197Y553720D02*
X1427484D01*
X1326762Y574040D02*
X1427484D01*
X1321682Y568960D02*
X1427484D01*
X1318661Y563880D02*
X1427484D01*
X1270516Y584200D02*
X1326978D01*
X1331842Y579120D02*
X1427484D01*
X1336040Y560266D02*
Y583318D01*
X1316462Y560266D02*
X1345118D01*
X1304132Y553234D02*
X1345118D01*
X1330960Y560266D02*
Y578238D01*
X1325880Y560266D02*
Y573158D01*
X1320800Y578022D02*
Y995000D01*
X1270516Y579120D02*
X1321898D01*
X1270516Y574040D02*
X1316818D01*
X1315720Y572942D02*
Y995000D01*
X1249680Y570808D02*
Y706605D01*
X1310640Y570634D02*
Y995000D01*
X1305560Y560266D02*
Y995000D01*
X1300480Y562639D02*
Y747650D01*
X1295400Y561373D02*
Y742934D01*
X1254760Y569886D02*
Y645984D01*
X1105516Y589280D02*
X1257484D01*
X1105516Y594360D02*
X1257484D01*
X1105516Y584200D02*
X1257484D01*
X1169141Y604520D02*
X1257484D01*
X1168170Y599440D02*
X1257484D01*
X1244600Y568516D02*
Y711685D01*
X1105516Y579120D02*
X1257484D01*
X1105516Y574040D02*
X1257484D01*
X1234440Y568516D02*
Y721845D01*
X1239520Y568516D02*
Y716765D01*
X1270516Y568960D02*
X1308221D01*
X1270516Y563880D02*
X1306839D01*
X1320800Y560266D02*
Y568078D01*
X1304132Y560266D02*
X1309038D01*
X1270516Y558800D02*
X1293594D01*
X1270516Y553720D02*
X1294053D01*
X1255779Y568960D02*
X1257484D01*
X1138529D02*
X1246721D01*
X1138882Y568516D02*
X1246368D01*
X1138882Y561484D02*
X1246368D01*
X1105516Y553720D02*
X1257484D01*
X1130544Y548640D02*
X1257484D01*
X1105516Y558800D02*
X1257484D01*
X1427480Y474720D02*
Y617687D01*
X1422400Y474720D02*
Y617687D01*
X1427484Y546220D02*
Y556188D01*
X1412240Y474720D02*
Y617687D01*
X1417320Y474720D02*
Y617687D01*
X1402080Y474720D02*
Y617687D01*
X1397000Y474720D02*
Y617687D01*
X1407160Y474720D02*
Y617687D01*
X1386840Y474720D02*
Y617687D01*
X1391920Y474720D02*
Y617687D01*
X1376680Y489173D02*
Y617687D01*
X1371600Y488175D02*
Y617687D01*
X1381760Y485910D02*
Y617687D01*
X1366520Y474720D02*
Y613798D01*
X1325880Y488795D02*
Y553234D01*
X1361440Y474720D02*
Y608718D01*
X1356360Y474720D02*
Y603638D01*
X1320800Y474307D02*
Y553234D01*
X1310640Y464362D02*
Y553234D01*
X1315720Y469442D02*
Y553234D01*
X1462516Y544743D02*
Y546188D01*
X1427484Y536220D02*
Y546188D01*
X1462516Y524752D02*
X1470118D01*
X1427484Y526220D02*
Y536188D01*
Y516220D02*
Y526188D01*
X1351280Y474720D02*
Y550872D01*
X1346200Y474720D02*
Y552086D01*
X1427484Y506220D02*
Y516188D01*
X1336040Y474720D02*
Y553234D01*
X1341120Y474720D02*
Y553234D01*
X1289890Y538480D02*
X1427484D01*
X1285495Y533400D02*
X1427484D01*
X1270224Y528320D02*
X1427484D01*
X1270516Y548640D02*
X1427484D01*
X1289092Y543560D02*
X1427484D01*
X1266205Y523240D02*
X1427484D01*
X1261125Y518160D02*
X1427484D01*
X1330960Y488852D02*
Y553234D01*
X1256045Y513080D02*
X1427484D01*
X1285240Y546691D02*
Y644944D01*
X1280160Y546459D02*
Y644944D01*
X1305560Y459282D02*
Y553234D01*
X1295400Y449122D02*
Y552127D01*
X1300480Y454202D02*
Y550861D01*
X1290320Y444042D02*
Y741164D01*
X1270516Y543560D02*
X1276908D01*
X1270516Y540018D02*
Y644944D01*
X1130621Y543560D02*
X1257484D01*
Y532949D02*
Y645984D01*
X1254760Y530225D02*
Y560114D01*
X1275080Y428802D02*
Y644944D01*
X1244600Y522536D02*
Y561484D01*
X1249680Y525145D02*
Y559193D01*
X1234440Y522536D02*
Y561484D01*
X1239520Y522536D02*
Y561484D01*
X1270516Y538480D02*
X1276110D01*
X1270516Y533400D02*
X1280505D01*
X1270516Y530250D02*
Y539982D01*
X1285240Y438962D02*
Y533309D01*
X1280160Y433882D02*
Y533541D01*
X1270000Y425766D02*
Y527709D01*
X1264920Y425766D02*
Y521955D01*
X1229635Y533400D02*
X1257484D01*
X1105516Y538480D02*
X1257484D01*
X1247071Y522536D02*
X1257484Y532949D01*
X1229527Y528320D02*
X1252855D01*
X1111225Y523240D02*
X1247775D01*
X1254378Y511413D02*
X1268607Y525643D01*
X1259840Y425766D02*
Y516875D01*
X1205770Y522536D02*
X1247071D01*
X1254760Y477245D02*
Y511795D01*
X1522516Y502920D02*
X1560000D01*
X1522516Y508000D02*
X1560000D01*
X1537960Y497840D02*
X1560000D01*
X1522516Y496220D02*
Y506188D01*
X1541015Y492760D02*
X1560000D01*
X1480778Y502920D02*
X1487484D01*
X1480069Y508000D02*
X1487484D01*
X1522516Y497840D02*
X1530040D01*
X1487484Y496220D02*
Y506188D01*
X1479959Y497840D02*
X1487484D01*
X1522516Y492760D02*
X1526985D01*
X1522516Y486220D02*
Y496188D01*
X1480823Y492760D02*
X1487484D01*
Y486220D02*
Y496188D01*
X1479842Y487680D02*
X1487484D01*
X1539579D02*
X1560000D01*
X1522516Y482600D02*
X1560000D01*
X1522516Y472440D02*
X1560000D01*
X1522516Y487680D02*
X1528421D01*
X1522516Y477520D02*
X1560000D01*
X1522516Y457200D02*
X1560000D01*
X1522516Y467360D02*
X1560000D01*
X1522516Y452120D02*
X1560000D01*
X1522516Y466220D02*
Y476188D01*
Y456220D02*
Y466188D01*
Y476220D02*
Y486188D01*
X1479756Y477520D02*
X1487484D01*
X1462516Y472440D02*
X1487484D01*
Y466220D02*
Y476188D01*
X1462516Y467360D02*
X1487484D01*
X1522516Y462280D02*
X1560000D01*
X1462516D02*
X1487484D01*
X1462516Y457200D02*
X1487484D01*
Y456220D02*
Y466188D01*
X1462516Y452120D02*
X1487484D01*
X1468120Y504761D02*
Y507725D01*
Y494766D02*
Y497729D01*
X1463040Y504761D02*
Y507725D01*
X1462516D02*
X1470118D01*
X1462516Y504761D02*
X1470118D01*
X1462516Y506220D02*
Y507725D01*
Y504761D02*
Y506188D01*
X1463040Y494766D02*
Y497729D01*
X1462516D02*
X1470118D01*
X1462516Y494766D02*
X1470118D01*
X1462516Y496220D02*
Y497729D01*
Y494766D02*
Y496188D01*
X1463040Y484720D02*
Y487734D01*
X1468120Y484720D02*
Y487734D01*
X1487484Y476220D02*
Y486188D01*
X1480852Y482600D02*
X1487484D01*
X1462516Y477688D02*
X1470118D01*
X1462516Y487680D02*
X1470158D01*
X1462516Y487734D02*
X1470118D01*
X1462516Y484720D02*
X1470118D01*
X1462516Y486220D02*
Y487734D01*
Y484720D02*
Y486188D01*
Y476220D02*
Y477688D01*
Y477520D02*
X1470244D01*
X1462516Y466220D02*
Y476188D01*
Y456220D02*
Y466188D01*
X1522516Y441960D02*
X1560000D01*
X1522516Y447040D02*
X1560000D01*
X1522516Y436880D02*
X1560000D01*
X1522516Y446220D02*
Y456188D01*
Y436220D02*
Y446188D01*
X1539240Y303000D02*
Y487275D01*
X1534160Y303000D02*
Y484946D01*
X1522516Y431800D02*
X1560000D01*
X1529080Y303000D02*
Y486942D01*
X1522516Y426220D02*
Y436188D01*
Y421640D02*
X1560000D01*
X1522516Y426720D02*
X1560000D01*
X1522516Y416560D02*
X1560000D01*
X1487484Y446220D02*
Y456188D01*
X1481536Y416560D02*
X1487484D01*
X1522516Y416188D02*
Y426188D01*
X1503680Y303000D02*
Y416188D01*
X1498600Y394147D02*
Y416188D01*
X1488440Y404010D02*
Y416188D01*
X1493520Y400350D02*
Y416188D01*
X1502498Y381000D02*
X1560000D01*
X1502211Y375920D02*
X1560000D01*
X1500946Y370840D02*
X1560000D01*
X1500151Y391160D02*
X1560000D01*
X1501835Y386080D02*
X1560000D01*
X1518920Y303000D02*
Y416188D01*
X1513840Y303000D02*
Y416188D01*
X1498544Y365760D02*
X1560000D01*
X1508760Y303000D02*
Y416188D01*
X1498600Y303000D02*
Y365853D01*
X1497212Y396240D02*
X1560000D01*
X1492395Y401320D02*
X1560000D01*
X1494592Y360680D02*
X1560000D01*
X1487484Y416188D02*
X1522516D01*
X1482757Y406400D02*
X1560000D01*
X1487719Y355600D02*
X1560000D01*
X1493520Y303000D02*
Y359650D01*
X1488440Y303000D02*
Y355990D01*
X1487484Y426220D02*
Y436188D01*
Y436220D02*
Y446188D01*
X1480812Y426720D02*
X1487484D01*
X1478280Y428514D02*
Y476161D01*
X1473200Y429011D02*
Y475463D01*
X1487484Y416188D02*
Y426188D01*
X1463040Y404781D02*
Y477688D01*
X1468120Y425314D02*
Y477688D01*
X1462516Y441960D02*
X1487484D01*
X1462516Y447040D02*
X1487484D01*
X1462516Y436880D02*
X1487484D01*
X1462516Y446220D02*
Y456188D01*
Y436220D02*
Y446188D01*
Y426720D02*
X1469187D01*
X1462516Y431800D02*
X1487484D01*
X1462516Y421640D02*
X1466996D01*
X1462516Y426220D02*
Y436188D01*
Y416188D02*
Y426188D01*
X1483004Y421640D02*
X1487484D01*
X1478280Y407320D02*
Y413886D01*
X1473200Y407457D02*
Y413389D01*
X1468120Y406642D02*
Y417086D01*
X1462516Y416560D02*
X1468463D01*
X1483360Y303000D02*
Y353785D01*
X1478280Y303000D02*
Y352680D01*
X1473200Y303000D02*
Y352543D01*
X1463040Y303000D02*
Y355219D01*
X1468120Y303000D02*
Y353358D01*
X1457960Y401605D02*
Y416188D01*
X1452880Y396366D02*
Y416188D01*
X1457960Y303000D02*
Y358395D01*
X1447800Y384160D02*
Y416188D01*
X1452880Y303000D02*
Y363634D01*
X1442720Y303000D02*
Y416188D01*
X1447800Y303000D02*
Y375840D01*
X1432560Y303000D02*
Y416188D01*
X1437640Y303000D02*
Y416188D01*
X1427484Y486220D02*
Y496188D01*
X1382968Y482600D02*
X1427484D01*
X1381713Y477520D02*
X1427484D01*
Y496220D02*
Y506188D01*
X1380118Y487680D02*
X1427484D01*
Y474720D02*
Y476188D01*
Y476220D02*
Y486188D01*
X1378158Y474720D02*
X1427484D01*
X1381760D02*
Y477590D01*
X1206965Y508000D02*
X1427484D01*
X1201885Y502920D02*
X1427484D01*
X1236787Y497840D02*
X1427484D01*
X1244204Y492760D02*
X1427484D01*
X1333118Y487680D02*
X1370882D01*
X1335968Y482600D02*
X1368032D01*
X1334713Y477520D02*
X1369287D01*
X1427484Y456220D02*
Y466188D01*
Y466220D02*
Y467688D01*
Y446220D02*
Y456188D01*
X1331158Y474720D02*
X1372842D01*
X1323910Y467688D02*
X1427484D01*
Y426220D02*
Y436188D01*
Y436220D02*
Y446188D01*
X1378658Y416560D02*
X1427484D01*
X1376680Y417207D02*
Y467688D01*
X1332844Y416560D02*
X1372342D01*
X1313422Y457200D02*
X1427484D01*
X1308342Y452120D02*
X1427484D01*
X1303262Y447040D02*
X1427484D01*
X1323582Y467360D02*
X1427484D01*
X1318502Y462280D02*
X1427484D01*
X1288022Y431800D02*
X1427484D01*
X1282942Y426720D02*
X1427484D01*
X1277862Y421640D02*
X1427484D01*
X1298182Y441960D02*
X1427484D01*
X1293102Y436880D02*
X1427484D01*
X1322454Y474720D02*
X1325842D01*
X1254660Y477520D02*
X1322287D01*
X1256131Y472440D02*
X1318718D01*
X1325880Y417552D02*
Y467688D01*
X1275992Y419770D02*
X1323910Y467688D01*
X1330960Y417613D02*
Y467688D01*
X1272044Y425766D02*
X1319962Y473684D01*
X1256862Y467360D02*
X1313638D01*
X1208469Y509504D02*
X1249770D01*
X1234440Y498961D02*
Y509504D01*
X1239520Y496266D02*
Y509504D01*
X1249003Y487680D02*
X1323882D01*
X1252349Y482600D02*
X1321032D01*
X1244600Y492407D02*
Y509504D01*
X1249680Y486787D02*
Y509504D01*
X1256896Y462280D02*
X1308558D01*
X1256235Y457200D02*
X1303478D01*
X1254840Y452120D02*
X1298398D01*
X1252618Y447040D02*
X1293318D01*
X1249387Y441960D02*
X1288238D01*
X1244762Y436880D02*
X1283158D01*
X1254760Y425766D02*
Y451895D01*
X1249680Y425766D02*
Y442353D01*
X1237714Y431800D02*
X1278078D01*
X1175002Y426720D02*
X1272998D01*
X1244600Y425766D02*
Y436732D01*
X1239520Y425766D02*
Y432874D01*
X1174500Y418734D02*
X1273500D01*
X1021266Y416560D02*
X1324155D01*
X1234440Y425766D02*
Y430179D01*
X1175956Y425766D02*
X1272044D01*
X1427484Y416188D02*
Y426188D01*
X1427480Y303000D02*
Y467688D01*
X1427484Y416188D02*
X1462516D01*
X1417320Y303000D02*
Y467688D01*
X1422400Y303000D02*
Y467688D01*
X1407160Y303000D02*
Y467688D01*
X1402080Y303000D02*
Y467688D01*
X1412240Y303000D02*
Y467688D01*
X1391920Y303000D02*
Y467688D01*
X1397000Y303000D02*
Y467688D01*
X1382448Y411480D02*
X1560000D01*
X1381413Y406400D02*
X1467243D01*
X1381760Y413506D02*
Y467688D01*
X1386840Y303000D02*
Y467688D01*
X1381760Y303000D02*
Y406994D01*
X1376680Y303000D02*
Y403293D01*
X1183915Y370840D02*
X1449053D01*
X1179311Y365760D02*
X1451455D01*
X1140516Y360680D02*
X1455407D01*
X1182361Y381000D02*
X1447502D01*
X1184571Y375920D02*
X1447788D01*
X1185030Y345440D02*
X1560000D01*
X1181253Y340360D02*
X1560000D01*
X1140516Y335280D02*
X1560000D01*
X1183669Y355600D02*
X1462281D01*
X1185619Y350520D02*
X1560000D01*
X1042266Y396240D02*
X1452787D01*
X1042266Y401320D02*
X1457605D01*
X1140516Y330200D02*
X1560000D01*
X1051188Y391160D02*
X1449848D01*
X1056268Y386080D02*
X1448164D01*
X1126932Y314960D02*
X1560000D01*
X1042266Y309880D02*
X1560000D01*
X1137092Y325120D02*
X1560000D01*
X1132012Y320040D02*
X1560000D01*
X1366520Y303000D02*
Y467688D01*
X1361440Y303000D02*
Y467688D01*
X1371600Y416130D02*
Y467688D01*
X1351280Y303000D02*
Y467688D01*
X1356360Y303000D02*
Y467688D01*
X1341120Y303000D02*
Y467688D01*
X1336040Y303000D02*
Y467688D01*
X1346200Y303000D02*
Y467688D01*
X1320800Y303000D02*
Y464578D01*
X1315720Y303000D02*
Y459498D01*
X1285240Y303000D02*
Y429018D01*
X1280160Y303000D02*
Y423938D01*
X1275080Y303000D02*
Y419109D01*
X1239520Y303000D02*
Y418734D01*
X1244600Y303000D02*
Y418734D01*
X1310640Y303000D02*
Y454418D01*
X1305560Y303000D02*
Y449338D01*
X1300480Y303000D02*
Y444258D01*
X1295400Y303000D02*
Y439178D01*
X1290320Y303000D02*
Y434098D01*
X1335540Y411480D02*
X1368552D01*
X1333850Y406400D02*
X1369587D01*
X1330960Y303000D02*
Y404387D01*
X1371600Y303000D02*
Y404370D01*
X1325880Y303000D02*
Y404448D01*
X1021266Y411480D02*
X1321460D01*
X1021266Y406400D02*
X1323150D01*
X1264920Y303000D02*
Y418734D01*
X1270000Y303000D02*
Y418734D01*
X1254760Y303000D02*
Y418734D01*
X1259840Y303000D02*
Y418734D01*
X1234440Y303000D02*
Y418734D01*
X1249680Y303000D02*
Y418734D01*
X1229360Y568516D02*
Y726925D01*
X1224280Y568516D02*
Y732005D01*
Y537939D02*
Y561484D01*
X1219200Y568516D02*
Y737085D01*
Y536945D02*
Y561484D01*
X1229360Y534056D02*
Y561484D01*
X1214120Y522536D02*
Y561484D01*
X1209040Y568516D02*
Y747245D01*
X1203960Y568516D02*
Y752325D01*
X1214120Y568516D02*
Y742165D01*
X1198880Y568516D02*
Y757405D01*
X1188720Y568516D02*
Y628489D01*
X1203960Y522280D02*
Y561484D01*
X1198880Y518345D02*
Y561484D01*
X1209040Y522536D02*
Y561484D01*
X1193800Y568516D02*
Y762485D01*
Y513265D02*
Y561484D01*
X1229360Y522536D02*
Y527944D01*
X1224280Y522536D02*
Y524061D01*
X1219200Y522536D02*
Y525055D01*
X1224280Y501774D02*
Y509504D01*
X1219200Y502085D02*
Y509504D01*
X1229360Y500754D02*
Y509504D01*
X1209040Y500613D02*
Y509504D01*
X1214120Y501706D02*
Y509504D01*
X1203960Y498739D02*
Y504995D01*
X1121385Y513080D02*
X1193615D01*
X1196805Y497840D02*
X1202113D01*
X1198880Y495944D02*
Y499915D01*
X1171247Y490713D02*
X1201162Y520628D01*
X1191725Y492760D02*
X1194696D01*
X1193800Y491948D02*
Y494835D01*
X1186645Y487680D02*
X1189897D01*
X1178560Y568516D02*
Y777725D01*
X1173480Y568516D02*
Y782805D01*
X1168400Y606223D02*
Y787885D01*
X1158240Y606223D02*
Y760788D01*
X1183640Y568516D02*
Y628350D01*
X1168400Y568516D02*
Y599777D01*
X1188720Y508185D02*
Y561484D01*
X1158240Y568516D02*
Y599777D01*
X1163320Y568516D02*
Y596984D01*
X1148080Y568516D02*
Y770948D01*
X1143000Y568516D02*
Y776028D01*
X1132840Y570903D02*
Y786188D01*
X1137920Y569563D02*
Y781108D01*
X1153160Y568516D02*
Y765868D01*
X1143000Y491465D02*
Y561484D01*
X1127760Y551971D02*
Y632599D01*
X1122680Y552932D02*
Y627465D01*
X1183640Y503105D02*
Y561484D01*
X1178560Y498025D02*
Y561484D01*
X1131545Y502920D02*
X1183455D01*
X1132840Y501625D02*
Y559097D01*
X1127760Y506705D02*
Y540029D01*
X1173480Y492945D02*
Y561484D01*
X1136625Y497840D02*
X1178375D01*
X1141705Y492760D02*
X1173295D01*
X1137920Y496545D02*
Y560437D01*
X1146785Y487680D02*
X1169532D01*
X1122680Y511785D02*
Y539068D01*
X1126465Y508000D02*
X1188535D01*
X1125292Y487680D02*
X1128355D01*
X1122680Y490292D02*
Y493355D01*
X1120212Y492760D02*
X1123275D01*
X1188720Y486090D02*
Y489755D01*
X1182371Y483406D02*
X1208469Y509504D01*
X1182371Y482600D02*
X1186551D01*
X1183640Y475755D02*
Y484675D01*
X1182371Y477520D02*
X1184240D01*
X1182371Y470280D02*
Y483406D01*
X1169339Y470594D02*
Y486105D01*
X1174567Y457393D02*
X1180462Y463288D01*
X1150375Y482600D02*
X1169339D01*
X1150516Y477520D02*
X1169339D01*
X1150516Y472440D02*
X1169339D01*
X1168400Y469655D02*
Y561484D01*
X1167261Y468516D02*
X1169339Y470594D01*
X1149624Y468516D02*
X1167261D01*
X1158240D02*
Y561484D01*
X1163320Y468516D02*
Y561484D01*
X1179455Y462280D02*
X1182004D01*
X1174367Y457200D02*
X1182665D01*
X1173480Y428242D02*
Y456517D01*
X1193800Y425766D02*
Y437192D01*
X1188720Y425766D02*
Y443050D01*
X1198880Y425766D02*
Y433196D01*
X1178560Y425766D02*
Y461385D01*
X1183640Y425766D02*
Y453385D01*
X1159762Y441960D02*
X1189513D01*
X1154682Y447040D02*
X1186282D01*
X1164842Y436880D02*
X1194138D01*
X1163320Y438402D02*
Y455484D01*
X1122250D02*
X1169960D01*
X1153742Y447980D02*
X1175956Y425766D01*
X1169922Y431800D02*
X1201186D01*
X1168400Y433322D02*
Y455484D01*
X1149794Y441984D02*
X1172008Y419770D01*
X1150516Y471806D02*
Y481250D01*
X1148080Y486385D02*
Y561484D01*
X1134831Y477520D02*
X1137484D01*
X1153160Y468516D02*
Y561484D01*
X1137484Y471806D02*
Y478551D01*
X1137920Y468516D02*
Y469463D01*
X1134416Y481619D02*
X1137484Y478551D01*
X1127760Y485212D02*
Y488275D01*
X1132840Y468516D02*
Y474369D01*
X1121025Y472440D02*
X1137484D01*
X1124949Y468516D02*
X1138376D01*
X1122680Y470785D02*
Y480348D01*
X1127760Y468516D02*
Y473113D01*
X1153160Y448452D02*
Y455484D01*
X1143000Y449016D02*
Y455484D01*
X1148080Y449016D02*
Y455484D01*
X1158240Y443482D02*
Y455484D01*
X1153160Y383837D02*
Y438618D01*
X1158240Y379016D02*
Y433538D01*
X1143000Y382455D02*
Y441984D01*
X1148080Y384569D02*
Y441984D01*
X1132840Y449016D02*
Y455484D01*
X1127760Y449016D02*
Y455484D01*
X1137920Y449016D02*
Y455484D01*
X1122680Y449016D02*
Y455484D01*
X1132840Y379016D02*
Y441984D01*
X1137920Y368272D02*
Y441984D01*
X1122680Y384569D02*
Y441984D01*
X1127760Y383837D02*
Y441984D01*
X1105516Y563880D02*
X1128089D01*
X1105516Y568960D02*
X1129471D01*
X1117600Y548971D02*
Y622385D01*
X1105516Y528949D02*
Y610301D01*
X1117600Y516865D02*
Y543029D01*
X1106145Y528320D02*
X1216473D01*
X1116305Y518160D02*
X1198695D01*
X1112520Y521945D02*
Y617305D01*
X1107440Y527025D02*
Y612225D01*
X1105516Y599440D02*
X1158470D01*
X1105516Y604520D02*
X1157499D01*
X1105516Y533400D02*
X1216365D01*
X1105516Y548640D02*
X1117457D01*
X1105516Y543560D02*
X1117379D01*
X1105516Y528949D02*
X1148607Y485858D01*
X1094516Y521519D02*
X1131619Y484416D01*
X1094516Y518456D02*
X1128034Y484938D01*
X1088520Y514508D02*
X1123062Y479966D01*
X1102360Y510612D02*
Y513675D01*
X1117600Y495372D02*
Y498435D01*
X1110052Y502920D02*
X1113115D01*
X1115132Y497840D02*
X1118195D01*
X1112520Y500452D02*
Y503515D01*
X1107440Y485865D02*
Y495588D01*
X1110865Y482600D02*
X1120428D01*
X1108373Y485092D02*
X1124949Y468516D01*
X1115945Y477520D02*
X1123169D01*
X1112520Y480945D02*
Y490508D01*
X1117600Y475865D02*
Y485428D01*
X1107440Y505532D02*
Y508595D01*
X1104972Y508000D02*
X1108035D01*
X1079538Y487000D02*
X1103766D01*
X1099892Y513080D02*
X1102955D01*
X1102360Y487000D02*
Y500668D01*
X1089619Y467360D02*
X1107675D01*
X1078000Y473968D02*
X1101067D01*
X1055655Y472440D02*
X1102595D01*
X1087484Y555529D02*
Y632000D01*
X1087120Y555937D02*
Y738908D01*
X1082040Y558096D02*
Y743988D01*
X1076960Y555937D02*
Y719522D01*
X1087484Y517000D02*
Y546551D01*
X1087120Y487000D02*
Y546143D01*
X1076960Y487250D02*
Y546143D01*
X1082040Y487000D02*
Y543984D01*
X1071880Y487250D02*
Y718260D01*
X1061720Y487250D02*
Y764308D01*
X1066800Y487250D02*
Y721602D01*
X1051560Y486278D02*
Y774468D01*
X1046480Y481695D02*
Y779548D01*
X1056640Y487250D02*
Y769388D01*
X1036320Y471535D02*
Y789708D01*
X1041400Y476615D02*
Y784628D01*
X1097280Y515692D02*
Y518755D01*
X1094516Y518456D02*
Y521519D01*
X1094812Y518160D02*
X1097875D01*
X1097280Y487000D02*
Y505748D01*
X1092200Y487000D02*
Y510828D01*
X1087120Y468739D02*
Y473968D01*
X1082040Y468391D02*
Y473968D01*
X1054984Y487250D02*
X1077750D01*
X1057433Y474218D02*
X1076212D01*
X1059339Y467360D02*
X1080441D01*
X1051454Y468239D02*
X1057433Y474218D01*
X1056640Y468798D02*
Y473425D01*
X1101067Y473968D02*
X1117643Y457393D01*
X1098669Y462280D02*
X1112755D01*
X1102975Y457200D02*
X1117843D01*
X1097280Y462509D02*
Y473968D01*
X1102360Y459232D02*
Y472675D01*
X1117600Y449016D02*
Y457435D01*
X1112520Y449016D02*
Y462515D01*
X1107440Y451032D02*
Y467595D01*
X1092200Y460127D02*
Y473968D01*
X1092080Y462280D02*
X1095331D01*
X1090202Y457200D02*
X1091025D01*
X1082040Y379016D02*
Y455609D01*
X1109456Y449016D02*
X1151250D01*
X1106352Y452120D02*
X1184060D01*
X1108000Y441984D02*
X1149794D01*
X1102938Y455534D02*
X1109456Y449016D01*
X1112520Y368272D02*
Y441984D01*
X1117600Y382455D02*
Y441984D01*
X1102360Y383837D02*
Y446168D01*
X1107440Y379016D02*
Y442029D01*
X1097966Y450562D02*
X1105508Y443019D01*
X1025175Y441960D02*
X1149818D01*
X1021266Y436880D02*
X1154898D01*
X1035335Y452120D02*
X1092876D01*
X1030255Y447040D02*
X1101488D01*
X1097280Y384569D02*
Y450490D01*
X1021266Y431800D02*
X1159978D01*
X1087120Y368272D02*
Y455261D01*
X1092200Y382455D02*
Y452873D01*
X1061720Y463098D02*
Y474218D01*
X1026160Y461375D02*
Y799868D01*
X1031240Y466455D02*
Y794788D01*
X1071880Y384569D02*
Y474218D01*
X1066800Y382455D02*
Y474218D01*
X1076960Y383837D02*
Y474052D01*
X1021266Y438051D02*
X1048511Y465296D01*
X1021080Y456295D02*
Y804948D01*
X1016000Y451215D02*
Y810028D01*
X1010143Y445358D02*
X1049642Y484857D01*
X1005840Y401336D02*
Y820188D01*
X1010920Y446135D02*
Y815108D01*
X995680Y303000D02*
Y830348D01*
X990600Y303000D02*
Y835428D01*
X1000760Y303000D02*
Y825268D01*
X985520Y303000D02*
Y649067D01*
X980440Y303000D02*
Y648500D01*
X1061800Y462280D02*
X1077980D01*
X1059922Y457200D02*
X1079858D01*
X1045495Y462280D02*
X1047700D01*
X1061720Y380628D02*
Y460902D01*
X1056640Y385708D02*
Y455202D01*
X1046480Y395535D02*
Y463265D01*
X1051560Y390788D02*
Y455706D01*
X1041400Y401336D02*
Y458185D01*
X1040415Y457200D02*
X1049578D01*
X1036320Y401336D02*
Y453105D01*
X1031240Y401336D02*
Y448025D01*
X1026160Y401336D02*
Y442945D01*
X1008234Y401336D02*
Y440750D01*
X1021266Y401336D02*
Y438051D01*
X1229360Y425766D02*
Y428387D01*
X1224280Y425766D02*
Y427366D01*
X1219200Y425766D02*
Y427055D01*
X1209040Y425766D02*
Y428527D01*
X1214120Y425766D02*
Y427435D01*
X1203960Y425766D02*
Y430401D01*
X1183640Y379016D02*
Y418734D01*
X1178560Y383837D02*
Y418734D01*
X1173480Y384569D02*
Y418885D01*
X1168400Y382455D02*
Y423378D01*
X1156961Y381000D02*
X1166919D01*
X1131561D02*
X1141519D01*
X1159171Y375920D02*
X1164709D01*
X1133771D02*
X1139309D01*
X1133115Y370840D02*
X1139965D01*
X1183640Y355642D02*
Y370224D01*
X1178560Y359558D02*
Y365403D01*
X1173480Y360215D02*
Y364671D01*
X1158515Y370840D02*
X1165365D01*
X1168400Y358347D02*
Y366785D01*
X1158240Y353615D02*
Y370224D01*
X1159171Y350520D02*
X1163661D01*
X1153911Y365760D02*
X1169969D01*
X1153160Y358437D02*
Y365403D01*
X1148080Y359169D02*
Y364671D01*
X1134520Y364872D02*
X1140122Y370475D01*
X1140516Y360924D02*
X1145095Y365502D01*
X1143000Y357055D02*
Y363408D01*
X1156961Y355600D02*
X1165611D01*
X1140516Y354141D02*
Y360924D01*
Y355600D02*
X1141519D01*
X1128511Y365760D02*
X1135408D01*
X1109520Y365272D02*
X1114722Y370475D01*
X1132840Y355642D02*
Y370224D01*
X1127760Y359558D02*
Y365403D01*
X1115516Y361324D02*
X1119695Y365502D01*
X1108371Y375920D02*
X1113909D01*
X1106161Y381000D02*
X1116119D01*
X1107715Y370840D02*
X1114565D01*
X1085364Y366516D02*
X1089322Y370475D01*
X1107440Y355642D02*
Y370224D01*
X1103111Y365760D02*
X1110008D01*
X1089312Y360519D02*
X1094295Y365502D01*
X1102360Y359558D02*
Y365403D01*
X1122680Y360215D02*
Y364671D01*
X1115516Y360680D02*
X1133484D01*
X1117600Y358347D02*
Y363408D01*
X1115516Y356496D02*
Y361324D01*
X1133484Y354626D02*
Y362380D01*
X1108484Y353841D02*
Y362780D01*
X1107469Y355600D02*
X1108484D01*
X1097280Y360215D02*
Y364671D01*
X1092200Y358347D02*
Y363408D01*
X1089472Y360680D02*
X1108484D01*
X1083056Y355600D02*
X1089410D01*
X1083056Y350520D02*
X1087461D01*
X1198880Y303000D02*
Y418734D01*
X1193800Y303000D02*
Y418734D01*
X1203960Y303000D02*
Y418734D01*
X1188720Y303000D02*
Y418734D01*
X1183640Y303000D02*
Y342799D01*
X1224280Y303000D02*
Y418734D01*
X1219200Y303000D02*
Y418734D01*
X1229360Y303000D02*
Y418734D01*
X1209040Y303000D02*
Y418734D01*
X1214120Y303000D02*
Y418734D01*
X1158515Y345440D02*
X1164250D01*
X1163320Y303000D02*
Y428458D01*
X1158240Y303000D02*
Y344824D01*
X1140516Y330000D02*
Y344299D01*
X1133484Y331456D02*
Y343814D01*
X1132840Y330812D02*
Y342799D01*
X1153911Y340360D02*
X1168027D01*
X1140516D02*
X1144569D01*
X1168400Y303000D02*
Y340093D01*
X1178560Y303000D02*
Y338882D01*
X1153160Y303000D02*
Y340003D01*
X1173480Y303000D02*
Y338225D01*
X1143000Y303000D02*
Y341385D01*
X1148080Y303000D02*
Y339271D01*
X1130453Y340360D02*
X1133484D01*
X1115067Y335280D02*
X1133484D01*
X1121664Y319636D02*
X1133484Y331456D01*
X1127760Y325732D02*
Y338882D01*
X1110172Y330200D02*
X1132228D01*
X1125612Y313640D02*
X1139481Y327508D01*
X1137920Y303000D02*
Y325948D01*
X1132840Y303000D02*
Y320868D01*
X1127760Y303000D02*
Y315788D01*
X1115516Y340360D02*
X1117227D01*
X1105053D02*
X1108484D01*
Y338456D02*
Y344599D01*
X1107440Y337412D02*
Y342799D01*
X1117600Y319636D02*
Y340093D01*
X1115516Y337000D02*
Y341944D01*
X1122680Y320652D02*
Y338225D01*
X1083056Y340360D02*
X1091827D01*
X1083056Y339204D02*
Y359236D01*
Y345440D02*
X1088050D01*
X1102544Y332516D02*
X1108484Y338456D01*
X1102360Y332516D02*
Y338882D01*
X1097280Y332516D02*
Y338225D01*
X1087120Y332516D02*
Y359497D01*
X1092200Y332516D02*
Y340093D01*
X1112520Y319636D02*
Y332548D01*
X1106492Y326520D02*
X1114481Y334508D01*
X1107440Y319636D02*
Y327468D01*
X1122680Y303000D02*
Y312604D01*
X1117600Y303000D02*
Y312604D01*
X1107440Y303000D02*
Y312604D01*
X1112520Y303000D02*
Y312604D01*
X1102360Y319636D02*
Y325484D01*
X1097280Y319636D02*
Y325484D01*
X1087120Y319636D02*
Y325484D01*
X1092200Y319636D02*
Y325484D01*
X1097280Y303000D02*
Y312604D01*
X1102360Y303000D02*
Y312604D01*
X1087120Y303000D02*
Y312604D01*
X1092200Y303000D02*
Y312604D01*
X1061348Y381000D02*
X1065319D01*
X1047548Y394800D02*
X1063819Y378530D01*
X1080761Y381000D02*
X1090719D01*
X1043600Y388804D02*
X1060264Y372140D01*
X1082971Y375920D02*
X1088509D01*
X1046480Y366516D02*
Y385924D01*
X1051560Y366516D02*
Y380844D01*
X1021266Y421640D02*
X1170138D01*
X1021266Y426720D02*
X1165058D01*
X1042266Y395836D02*
X1045056D01*
X1024234Y401336D02*
X1042266D01*
Y395836D02*
Y401336D01*
Y386080D02*
X1046324D01*
X1021266Y381000D02*
X1051404D01*
X1042266Y375920D02*
X1056484D01*
X1042266Y388804D02*
X1043600D01*
X1024234Y375936D02*
X1042266D01*
X1062756Y371104D02*
X1063661D01*
X1082315Y370840D02*
X1089165D01*
X1082040Y366516D02*
Y370224D01*
X1078926Y366516D02*
X1085364D01*
X1063024Y359236D02*
X1083056D01*
X1061720Y366516D02*
Y371260D01*
X1042266Y366516D02*
X1067154D01*
X1042266Y370840D02*
X1063765D01*
X1042266Y359484D02*
X1086820D01*
X1056640Y366516D02*
Y375764D01*
X1024234Y357904D02*
X1042266D01*
Y350520D02*
X1063024D01*
X1021266Y355600D02*
X1063024D01*
X1042266Y345440D02*
X1063024D01*
X1046480Y344891D02*
Y359484D01*
X1042266Y345036D02*
X1045480D01*
X1042266Y383304D02*
Y388804D01*
X1024234Y383304D02*
X1042266D01*
X1036320Y375936D02*
Y383304D01*
X1023766D02*
Y401336D01*
X1024234Y383304D02*
Y401336D01*
X1041400Y375936D02*
Y383304D01*
X1031240Y375936D02*
Y383304D01*
X1042266Y366516D02*
Y375936D01*
X1026160D02*
Y383304D01*
X1024234Y357904D02*
Y375936D01*
X1021266Y401336D02*
X1023766D01*
X1005734D02*
X1008234D01*
X1021266Y383304D02*
X1023766D01*
X1005734D02*
Y401336D01*
Y383304D02*
X1008234D01*
X1021266Y375936D02*
X1023766D01*
X1021266D02*
Y383304D01*
X1005734Y375936D02*
X1008234D01*
X1005840D02*
Y383304D01*
X1008234Y375936D02*
Y383304D01*
X1042266Y357904D02*
Y359484D01*
X1041400Y350536D02*
Y357904D01*
X1036320Y350536D02*
Y357904D01*
X1023766D02*
Y375936D01*
X1031240Y350536D02*
Y357904D01*
X1042266Y345036D02*
Y350536D01*
X1026160D02*
Y357904D01*
X1024234Y350536D02*
X1042266D01*
X1021266D02*
Y357904D01*
Y350536D02*
X1023766D01*
X1005840D02*
Y357904D01*
X1005734D02*
X1008234D01*
X1021266D02*
X1023766D01*
X1005734D02*
Y375936D01*
X978266Y360680D02*
X1005734D01*
X1008234Y350536D02*
Y357904D01*
X1005734Y350536D02*
X1008234D01*
X978266Y350520D02*
X1005734D01*
X978266Y345440D02*
X1005734D01*
X1071880Y332516D02*
Y339204D01*
X1063024D02*
X1083056D01*
X1056692Y335280D02*
X1105308D01*
X1056640Y335332D02*
Y359484D01*
X1063024Y339204D02*
Y359236D01*
X1082040Y332516D02*
Y339204D01*
X1076960Y332516D02*
Y339204D01*
X1059456Y332516D02*
X1102544D01*
X1061720D02*
Y359484D01*
X1066800Y332516D02*
Y339204D01*
X1051560Y340412D02*
Y359484D01*
X1051612Y340360D02*
X1063024D01*
X1042266Y335280D02*
X1046748D01*
X1047972Y344001D02*
X1059456Y332516D01*
X1044024Y338004D02*
X1055508Y326520D01*
X1051560Y319636D02*
Y330468D01*
X1021266Y330200D02*
X1051828D01*
X1076960Y319636D02*
Y325484D01*
X1071880Y319636D02*
Y325484D01*
X1082040Y319636D02*
Y325484D01*
X1061720Y319636D02*
Y325484D01*
X1066800Y319636D02*
Y325484D01*
X1076960Y303000D02*
Y312604D01*
X1071880Y303000D02*
Y312604D01*
X1082040Y303000D02*
Y312604D01*
X1061720Y303000D02*
Y312604D01*
X1066800Y303000D02*
Y312604D01*
X1058000Y325484D02*
X1104000D01*
X1042266Y325120D02*
X1127148D01*
X1042266Y320040D02*
X1122068D01*
X1056640Y319636D02*
Y325758D01*
X1042266Y319636D02*
X1121664D01*
X1042266Y312604D02*
X1123120D01*
X1051560Y303000D02*
Y312604D01*
X1056640Y303000D02*
Y312604D01*
X1042266Y332504D02*
Y338004D01*
X1044024D01*
X1024234Y332504D02*
X1042266D01*
X1023766D02*
Y350536D01*
X1024234Y332504D02*
Y350536D01*
X1046480Y319636D02*
Y335548D01*
X1041400Y325136D02*
Y332504D01*
X1036320Y325136D02*
Y332504D01*
X1026160Y325136D02*
Y332504D01*
X1031240Y325136D02*
Y332504D01*
X1005734D02*
X1008234D01*
X978266Y340360D02*
X1005734D01*
X1021266Y332504D02*
X1023766D01*
X1005734D02*
Y350536D01*
X978266Y335280D02*
X1005734D01*
X1021266Y325136D02*
Y332504D01*
X1008234Y325136D02*
Y332504D01*
X1021266Y325136D02*
X1023766D01*
X1005840D02*
Y332504D01*
X1005734Y307104D02*
Y325136D01*
X1042266Y319636D02*
Y325136D01*
X1024234D02*
X1042266D01*
Y307104D02*
Y312604D01*
X1024234Y307104D02*
Y325136D01*
Y307104D02*
X1042266D01*
X1046480Y303000D02*
Y312604D01*
X1041400Y303000D02*
Y307104D01*
X1036320Y303000D02*
Y307104D01*
X1026160Y303000D02*
Y307104D01*
X1031240Y303000D02*
Y307104D01*
X1023766D02*
Y325136D01*
X1005734D02*
X1008234D01*
X1005734Y307104D02*
X1023766D01*
X978266D02*
Y325136D01*
Y309880D02*
X1005734D01*
X1016000Y303000D02*
Y307104D01*
X1021080Y303000D02*
Y307104D01*
X1005840Y303000D02*
Y307104D01*
X1010920Y303000D02*
Y307104D01*
X975360Y1155626D02*
Y1230000D01*
X973846Y1155626D02*
X983814D01*
X973846Y1120594D02*
X983814D01*
X970280Y1155626D02*
Y1230000D01*
X972346Y1120594D02*
X973814D01*
X977544Y1112516D02*
X985314Y1120287D01*
X975360Y1112516D02*
Y1120594D01*
X972346Y1117600D02*
X982628D01*
X965314Y1118286D02*
Y1120594D01*
X972346Y1116830D02*
Y1120594D01*
X965200Y1155626D02*
Y1230000D01*
X963846Y1155626D02*
X973814D01*
X953846D02*
X963814D01*
X955040D02*
Y1230000D01*
X960120Y1155626D02*
Y1230000D01*
X965200Y1118172D02*
Y1120594D01*
X963846D02*
X965314D01*
X963044Y1116016D02*
X965314Y1118286D01*
X960120Y1116016D02*
Y1120594D01*
X953846D02*
X963814D01*
X969492Y1112520D02*
X977548D01*
X969488Y1112516D02*
X977544D01*
X969488D02*
X971310Y1114338D01*
X975360Y1095626D02*
Y1100484D01*
X973846Y1095626D02*
X983814D01*
X973846Y1060594D02*
X983814D01*
X970280Y1112516D02*
Y1113308D01*
Y1095626D02*
Y1100484D01*
X955456D02*
X999000D01*
X952346Y1097280D02*
X1104735D01*
X963846Y1095626D02*
X973814D01*
X944220Y1116016D02*
X963044D01*
X952346Y1097373D02*
X955456Y1100484D01*
X965200Y1095626D02*
Y1100484D01*
X953846Y1095626D02*
X963814D01*
X963846Y1060594D02*
X973814D01*
X960120Y1095626D02*
Y1100484D01*
X955378Y1060594D02*
X963814D01*
X949960Y1155626D02*
Y1230000D01*
X943846Y1155626D02*
X953814D01*
X943846Y1120594D02*
X953814D01*
X944880Y1155626D02*
Y1230000D01*
X949960Y1116016D02*
Y1120594D01*
X955040Y1095626D02*
Y1100068D01*
Y1116016D02*
Y1120594D01*
X944880Y1116016D02*
Y1120594D01*
X939800Y1155626D02*
Y1230000D01*
X933846Y1155626D02*
X943814D01*
X933846Y1120594D02*
X943814D01*
X929640Y1155626D02*
Y1230000D01*
X934720Y1155626D02*
Y1230000D01*
X942346Y1096733D02*
X945466Y1099854D01*
X934720Y1107972D02*
Y1120594D01*
X939800Y1113052D02*
Y1120594D01*
X952346Y1095626D02*
Y1097373D01*
X945314Y1095626D02*
Y1098830D01*
X952346Y1095626D02*
X953814D01*
X944880D02*
Y1099268D01*
X942892Y1097280D02*
X945314D01*
X943846Y1060594D02*
X945687D01*
X943846Y1095626D02*
X945314D01*
X942346D02*
Y1096733D01*
Y1095626D02*
X943814D01*
X935314D02*
Y1098190D01*
X932346Y1095654D02*
X935344Y1098652D01*
X933972Y1097280D02*
X935314D01*
X934720Y1095626D02*
Y1098028D01*
X932346Y1095626D02*
X933814D01*
X933846D02*
X935314D01*
X942346Y1060594D02*
X943814D01*
X932346D02*
X933814D01*
X933846D02*
X935314D01*
X975360Y1040612D02*
Y1060594D01*
X969492Y1046480D02*
X1052314D01*
X974572Y1041400D02*
X1052314D01*
X970280Y1045692D02*
Y1060594D01*
X969212Y1031240D02*
X974788D01*
X972516Y1026160D02*
X979484D01*
X970280Y1030172D02*
Y1035748D01*
X972516Y688000D02*
Y1026480D01*
X964412Y1051560D02*
X1052314D01*
X959332Y1056640D02*
X1052314D01*
X964132Y1036320D02*
X969708D01*
X965200Y1050772D02*
Y1060594D01*
Y1035252D02*
Y1040828D01*
X955378Y1060594D02*
X985480Y1030492D01*
X946349Y1059678D02*
X979484Y1026544D01*
X942346Y1058107D02*
X971480Y1028972D01*
X936349Y1054158D02*
X965484Y1025024D01*
Y689456D02*
Y1025024D01*
X972516Y1005840D02*
X979484D01*
X972516Y1010920D02*
X979484D01*
X972516Y1000760D02*
X979484D01*
X972516Y1021080D02*
X979484D01*
X972516Y1016000D02*
X979484D01*
X972516Y980440D02*
X979484D01*
X972516Y985520D02*
X979484D01*
X972516Y975360D02*
X979484D01*
X972516Y995680D02*
X979484D01*
X972516Y990600D02*
X979484D01*
X962516Y1005840D02*
X965484D01*
X962516Y1010920D02*
X965484D01*
X962516Y1000760D02*
X965484D01*
X962516Y1021080D02*
X965484D01*
X962516Y1016000D02*
X965484D01*
X962516Y980440D02*
X965484D01*
X962516Y985520D02*
X965484D01*
X962516Y975360D02*
X965484D01*
X962516Y995680D02*
X965484D01*
X962516Y990600D02*
X965484D01*
X960120Y1055852D02*
Y1060594D01*
X943812Y1056640D02*
X949388D01*
X942346Y1058107D02*
Y1060594D01*
X944880Y1055572D02*
Y1060594D01*
X955040Y1045412D02*
Y1050988D01*
X953972Y1046480D02*
X959548D01*
X960120Y1040332D02*
Y1045908D01*
X949960Y1050492D02*
Y1056068D01*
X948892Y1051560D02*
X954468D01*
X932346Y1056640D02*
X935314D01*
X932346Y1055627D02*
Y1060594D01*
X935314Y1056650D02*
Y1060594D01*
X939800Y1048172D02*
Y1050708D01*
X932346Y1055627D02*
X961480Y1026492D01*
X941492Y1046480D02*
X944028D01*
X934720Y1053252D02*
Y1060594D01*
X936412Y1051560D02*
X938948D01*
X960120Y1027852D02*
Y1030388D01*
X959052Y1041400D02*
X964628D01*
X961774Y1026160D02*
X964348D01*
X955040Y1032932D02*
Y1035468D01*
X956732Y1031240D02*
X959268D01*
X965200Y689172D02*
Y1025308D01*
X962516Y697720D02*
Y1024000D01*
X955484Y699176D02*
Y1022544D01*
X949960Y1038012D02*
Y1040548D01*
X946572Y1041400D02*
X949108D01*
X951652Y1036320D02*
X954188D01*
X944880Y1043092D02*
Y1045628D01*
X934720Y885575D02*
Y1043308D01*
X949960Y693652D02*
Y1028068D01*
X955040Y698732D02*
Y1022988D01*
X939800Y686319D02*
Y1038228D01*
X944880Y688572D02*
Y1033148D01*
X820000Y1219200D02*
X1165000D01*
X820000Y1224280D02*
X1165000D01*
X820000Y1214120D02*
X1165000D01*
X820000Y1230000D02*
X1165000D01*
X820000Y1229360D02*
X1165000D01*
X924560Y1155626D02*
Y1230000D01*
X820000Y1209040D02*
X1165000D01*
X923846Y1155626D02*
X933814D01*
X914400D02*
Y1230000D01*
X919480Y1155626D02*
Y1230000D01*
X820000Y1188720D02*
X1165000D01*
X820000Y1193800D02*
X1165000D01*
X820000Y1183640D02*
X1165000D01*
X820000Y1203960D02*
X1165000D01*
X820000Y1198880D02*
X1165000D01*
X820000Y1163320D02*
X1165000D01*
X820000Y1168400D02*
X1165000D01*
X820000Y1158240D02*
X1165000D01*
X820000Y1178560D02*
X1165000D01*
X820000Y1173480D02*
X1165000D01*
X929640Y1102892D02*
Y1120594D01*
X923846D02*
X933814D01*
X926349Y1099602D02*
X941728Y1114980D01*
X925314Y1095626D02*
Y1097110D01*
X924560Y1095626D02*
Y1120594D01*
X923846Y1095626D02*
X925314D01*
X914400D02*
Y1120594D01*
X919480Y1095626D02*
Y1120594D01*
X913846Y1155626D02*
X923814D01*
X883458Y1117600D02*
X964628D01*
X905524Y1112520D02*
X939268D01*
X904886Y1155626D02*
X913814D01*
X913846Y1120594D02*
X923814D01*
X906818Y1107440D02*
X934188D01*
X904415Y1102360D02*
X929108D01*
X882925Y1097280D02*
X925318D01*
X903846Y1095626D02*
X913814D01*
X913846D02*
X923814D01*
X909320Y1155626D02*
Y1230000D01*
X904240Y1156666D02*
Y1230000D01*
X892774Y1156666D02*
X904886D01*
X894080D02*
Y1230000D01*
X899160Y1156666D02*
Y1230000D01*
X904886Y1155626D02*
Y1156666D01*
X892774Y1119554D02*
Y1156666D01*
X820000Y1148080D02*
X892774D01*
X820000Y1153160D02*
X892774D01*
X820000Y1143000D02*
X892774D01*
X868680Y1133310D02*
Y1230000D01*
X820000Y1137920D02*
X892774D01*
X883920Y1116232D02*
Y1230000D01*
X869695Y1132840D02*
X892774D01*
X876892Y1127760D02*
X892774D01*
X873760Y1130403D02*
Y1230000D01*
X878840Y1125639D02*
Y1230000D01*
X904886Y1119554D02*
Y1120594D01*
X913814D01*
X904240Y1114025D02*
Y1119554D01*
X894080Y1114567D02*
Y1119554D01*
X899160Y1116119D02*
Y1119554D01*
X909320Y1095626D02*
Y1120594D01*
X904240Y1095626D02*
Y1102195D01*
X893814Y1095626D02*
X903814D01*
X894080D02*
Y1101653D01*
X899160Y1095626D02*
Y1100101D01*
X892774Y1119554D02*
X904886D01*
X880972Y1122680D02*
X892774D01*
X884538Y1102360D02*
X893245D01*
X884790Y1112520D02*
X892136D01*
X885138Y1107440D02*
X890842D01*
X880080Y1092200D02*
X893814D01*
X875422Y1087120D02*
X893814D01*
X925346Y1046480D02*
X931548D01*
X925346Y1051560D02*
X926468D01*
X925346Y1041400D02*
X936628D01*
X926349Y1051678D02*
X955484Y1022544D01*
X925346Y1036320D02*
X941708D01*
X925346Y1021080D02*
X955484D01*
X925346Y915000D02*
Y1053697D01*
X929640Y890655D02*
Y1048388D01*
X801560Y1051560D02*
X912314D01*
X796480Y1046480D02*
X912314D01*
X791400Y1041400D02*
X912314D01*
X903846Y1060594D02*
X912314D01*
X806640Y1056640D02*
X912314D01*
X925346Y1031240D02*
X946788D01*
X786320Y1036320D02*
X912314D01*
X925346Y1026160D02*
X951868D01*
X912314Y915000D02*
Y1060594D01*
X781240Y1031240D02*
X912314D01*
X925346Y1010920D02*
X955484D01*
X925346Y1016000D02*
X955484D01*
X925346Y1000760D02*
X955484D01*
X908995Y1016000D02*
X912314D01*
X925346Y1005840D02*
X955484D01*
X925346Y980440D02*
X955484D01*
X925346Y985520D02*
X955484D01*
X925346Y975360D02*
X955484D01*
X925346Y995680D02*
X955484D01*
X925346Y990600D02*
X955484D01*
X898312Y1005840D02*
X912314D01*
X893232Y1000760D02*
X912314D01*
X749402Y995680D02*
X912314D01*
X905249Y1021080D02*
X912314D01*
X906901Y1010920D02*
X912314D01*
X734162Y980440D02*
X912314D01*
X793513Y975360D02*
X912314D01*
X744322Y990600D02*
X912314D01*
X739242Y985520D02*
X912314D01*
X893814Y1060594D02*
X903814D01*
X893814D02*
Y1074789D01*
X904240Y1021387D02*
Y1060594D01*
X893814Y1081432D02*
Y1095626D01*
X899160Y1020131D02*
Y1060594D01*
X894080Y1011552D02*
Y1060594D01*
X909320Y763353D02*
Y1060594D01*
X889000Y1006472D02*
Y1230000D01*
X883920Y1004516D02*
Y1099988D01*
X866432Y1082040D02*
X893814D01*
X820000Y1071880D02*
X893814D01*
X816800Y1066800D02*
X893814D01*
X820000Y1076960D02*
X892925D01*
X878840Y1004516D02*
Y1090581D01*
X811720Y1061720D02*
X893814D01*
X776160Y1026160D02*
X912314D01*
X873760Y1004516D02*
Y1085818D01*
X868680Y1004516D02*
Y1082910D01*
X890992Y998520D02*
X902034Y1009562D01*
X887044Y1004516D02*
X897062Y1014534D01*
X904240Y763764D02*
Y1009613D01*
X894080Y722906D02*
Y1001608D01*
X889000Y727755D02*
Y997520D01*
X883920Y726631D02*
Y997484D01*
X771080Y1021080D02*
X900751D01*
X766000Y1016000D02*
X897005D01*
X760920Y1010920D02*
X893448D01*
X755840Y1005840D02*
X888368D01*
X754516Y1004516D02*
X887044D01*
X878840Y721665D02*
Y997484D01*
X751206D02*
X888500D01*
X868680Y716516D02*
Y997484D01*
X873760Y716585D02*
Y997484D01*
X972516Y955040D02*
X979484D01*
X972516Y960120D02*
X979484D01*
X972516Y949960D02*
X979484D01*
X972516Y970280D02*
X979484D01*
X972516Y965200D02*
X979484D01*
X972516Y914400D02*
X979484D01*
X972516Y934720D02*
X979484D01*
X972516Y909320D02*
X979484D01*
X972516Y944880D02*
X979484D01*
X972516Y939800D02*
X979484D01*
X962516Y949960D02*
X965484D01*
X962516Y955040D02*
X965484D01*
X972516Y929640D02*
X979484D01*
X962516Y965200D02*
X965484D01*
X962516Y960120D02*
X965484D01*
X972516Y919480D02*
X979484D01*
X972516Y924560D02*
X979484D01*
X972516Y904240D02*
X979484D01*
X962516D02*
X965484D01*
X962516Y899160D02*
X965484D01*
X972516Y833120D02*
X992908D01*
X972516Y838200D02*
X987828D01*
X972516Y828040D02*
X997988D01*
X972516Y848360D02*
X979484D01*
X972516Y843280D02*
X982748D01*
X972516Y807720D02*
X1018308D01*
X972516Y812800D02*
X1013228D01*
X972516Y802640D02*
X1023388D01*
X972516Y822960D02*
X1003068D01*
X972516Y817880D02*
X1008148D01*
X972516Y883920D02*
X979484D01*
X972516Y889000D02*
X979484D01*
X972516Y878840D02*
X979484D01*
X972516Y899160D02*
X979484D01*
X972516Y894080D02*
X979484D01*
X972516Y858520D02*
X979484D01*
X972516Y863600D02*
X979484D01*
X972516Y853440D02*
X979484D01*
X972516Y873760D02*
X979484D01*
X972516Y868680D02*
X979484D01*
X962516Y934720D02*
X965484D01*
X962516Y939800D02*
X965484D01*
X962516Y929640D02*
X965484D01*
X962516Y970280D02*
X965484D01*
X962516Y944880D02*
X965484D01*
X962516Y909320D02*
X965484D01*
X962516Y914400D02*
X965484D01*
X962516Y894080D02*
X965484D01*
X962516Y924560D02*
X965484D01*
X962516Y919480D02*
X965484D01*
X962516Y883920D02*
X965484D01*
X962516Y889000D02*
X965484D01*
X962516Y878840D02*
X965484D01*
X937516D02*
X955484D01*
X937516Y873760D02*
X955484D01*
X962516Y868680D02*
X965484D01*
X962516Y873760D02*
X965484D01*
X962516Y863600D02*
X965484D01*
X937516Y868680D02*
X955484D01*
X937516Y863600D02*
X955484D01*
X962516Y838200D02*
X965484D01*
X962516Y843280D02*
X965484D01*
X962516Y833120D02*
X965484D01*
X962516Y858520D02*
X965484D01*
X962516Y848360D02*
X965484D01*
X962516Y812800D02*
X965484D01*
X962516Y817880D02*
X965484D01*
X962516Y807720D02*
X965484D01*
X962516Y828040D02*
X965484D01*
X962516Y822960D02*
X965484D01*
X962516Y853440D02*
X965484D01*
X937516Y843280D02*
X955484D01*
X937516Y838200D02*
X955484D01*
X937516Y833120D02*
X955484D01*
X937516Y828040D02*
X955484D01*
X937516Y812800D02*
X955484D01*
X937516Y807720D02*
X955484D01*
X937516Y822960D02*
X955484D01*
X937516Y817880D02*
X955484D01*
X972516Y782320D02*
X1043708D01*
X972516Y787400D02*
X1038628D01*
X972516Y777240D02*
X1048788D01*
X972516Y797560D02*
X1028468D01*
X972516Y792480D02*
X1033548D01*
X972516Y756920D02*
X1069108D01*
X972516Y762000D02*
X1064028D01*
X972516Y736600D02*
X1089428D01*
X972516Y772160D02*
X1053868D01*
X972516Y767080D02*
X1058948D01*
X972516Y751840D02*
X1074188D01*
X962516Y762000D02*
X965484D01*
X972516Y746760D02*
X1079268D01*
X962516Y751840D02*
X965484D01*
X962516Y746760D02*
X965484D01*
X972516Y741680D02*
X1084348D01*
X962516D02*
X965484D01*
X972516Y731520D02*
X1069604D01*
X962516Y736600D02*
X965484D01*
X962516Y731520D02*
X965484D01*
X972516Y711200D02*
X1109484D01*
X972516Y716280D02*
X1109484D01*
X972516Y706120D02*
X1109484D01*
X972516Y726440D02*
X1065885D01*
X972516Y721360D02*
X1066953D01*
X972516Y695960D02*
X1092103D01*
X972516Y701040D02*
X1109484D01*
X971743Y685800D02*
X1092103D01*
X972516Y690880D02*
X1089944D01*
X962516Y711200D02*
X965484D01*
X962516Y716280D02*
X965484D01*
X962516Y726440D02*
X965484D01*
X962516Y721360D02*
X965484D01*
X956532Y670560D02*
X1109484D01*
X951452Y665480D02*
X1109484D01*
X966692Y680720D02*
X1109484D01*
X961612Y675640D02*
X1109484D01*
X962516Y787400D02*
X965484D01*
X962516Y792480D02*
X965484D01*
X962516Y782320D02*
X965484D01*
X962516Y802640D02*
X965484D01*
X962516Y797560D02*
X965484D01*
X962516Y756920D02*
X965484D01*
X962516Y767080D02*
X965484D01*
X962516Y706120D02*
X965484D01*
X962516Y777240D02*
X965484D01*
X962516Y772160D02*
X965484D01*
X937516Y706120D02*
X955484D01*
X937516Y711200D02*
X955484D01*
X962516Y701040D02*
X965484D01*
X937516Y802640D02*
X955484D01*
X937516Y716280D02*
X955484D01*
X962044Y695960D02*
X965484D01*
X937516Y684731D02*
Y880080D01*
X942966Y686658D02*
X955484Y699176D01*
X957132Y690880D02*
X965484D01*
X947938Y681686D02*
X961480Y695228D01*
X952052Y685800D02*
X961828D01*
X960120Y684092D02*
Y693868D01*
X965200Y661703D02*
Y679228D01*
X948016Y680720D02*
X956748D01*
X960120Y660798D02*
Y674148D01*
X955040Y679012D02*
Y688788D01*
X949960Y673932D02*
Y683708D01*
X937516Y690880D02*
X947188D01*
X937516Y695960D02*
X952268D01*
X945223Y675640D02*
X951668D01*
X937516Y685800D02*
X938777D01*
X944880Y668852D02*
Y675438D01*
X946372Y660400D02*
X959580D01*
X937516Y675640D02*
X938777D01*
X939800Y663772D02*
Y675121D01*
X925346Y904240D02*
X955484D01*
X925346Y909320D02*
X955484D01*
X925346Y899160D02*
X955484D01*
X925346Y919480D02*
X955484D01*
X925346Y914400D02*
X955484D01*
X931295Y889000D02*
X955484D01*
X926215Y894080D02*
X955484D01*
X925346Y894949D02*
Y915000D01*
Y894949D02*
X935608Y884688D01*
X925346Y955040D02*
X955484D01*
X925346Y960120D02*
X955484D01*
X925346Y949960D02*
X955484D01*
X925346Y970280D02*
X955484D01*
X925346Y965200D02*
X955484D01*
X925346Y929640D02*
X955484D01*
X925346Y934720D02*
X955484D01*
X925346Y924560D02*
X955484D01*
X925346Y944880D02*
X955484D01*
X925346Y939800D02*
X955484D01*
X937516Y797560D02*
X955484D01*
X937516Y848360D02*
X955484D01*
X937516Y792480D02*
X955484D01*
X937516Y858520D02*
X955484D01*
X937516Y853440D02*
X955484D01*
X937516Y772160D02*
X955484D01*
X937516Y777240D02*
X955484D01*
X937516Y767080D02*
X955484D01*
X937516Y787400D02*
X955484D01*
X937516Y782320D02*
X955484D01*
X936264Y883920D02*
X955484D01*
X572035Y797560D02*
X924484D01*
X572035Y792480D02*
X924484D01*
X572035Y787400D02*
X924484D01*
X572035Y767080D02*
X924484D01*
X572035Y772160D02*
X924484D01*
X911229Y762000D02*
X924484D01*
X572035Y782320D02*
X924484D01*
X572035Y777240D02*
X924484D01*
X821509Y939800D02*
X912314D01*
X821063Y944880D02*
X912314D01*
X821263Y934720D02*
X912314D01*
X817947Y955040D02*
X912314D01*
X819901Y949960D02*
X912314D01*
Y892250D02*
Y915000D01*
X820312Y929640D02*
X912314D01*
X818596Y924560D02*
X912314D01*
X815995Y919480D02*
X912314D01*
X815054Y960120D02*
X912314D01*
X812264Y914400D02*
X912314D01*
X804818Y970280D02*
X912314D01*
X810920Y965200D02*
X912314D01*
X669857Y899160D02*
X912314D01*
X572035Y894080D02*
X912314D01*
X572035Y889000D02*
X913182D01*
X806856Y909320D02*
X912314D01*
X797940Y904240D02*
X912314D01*
X833955Y848360D02*
X924484D01*
X677434Y868680D02*
X924484D01*
X834593Y843280D02*
X924484D01*
X914222Y887643D02*
X924484Y877381D01*
X677100Y873760D02*
X924484D01*
X829633Y838200D02*
X924484D01*
X676704Y833120D02*
X924484D01*
X677514Y828040D02*
X924484D01*
X676553Y822960D02*
X924484D01*
X711056Y762000D02*
X901271D01*
X675963Y863600D02*
X924484D01*
X671875Y858520D02*
X924484D01*
X572035Y853440D02*
X924484D01*
X668714Y883920D02*
X917945D01*
X674816Y878840D02*
X923025D01*
X572035Y807720D02*
X924484D01*
X572035Y802640D02*
X924484D01*
X673360Y817880D02*
X924484D01*
X572035Y812800D02*
X924484D01*
X937516Y746760D02*
X955484D01*
X937516Y751840D02*
X955484D01*
X937516Y741680D02*
X955484D01*
X937516Y762000D02*
X955484D01*
X937516Y756920D02*
X955484D01*
X937516Y731520D02*
X955484D01*
X937516Y736600D02*
X955484D01*
X937516Y726440D02*
X955484D01*
X924484Y675619D02*
Y877381D01*
X937516Y721360D02*
X955484D01*
X661266Y746760D02*
X924484D01*
X425000Y741680D02*
X924484D01*
X425000Y736600D02*
X924484D01*
X913306Y756920D02*
X924484D01*
X911063Y751840D02*
X924484D01*
X911147Y726440D02*
X924484D01*
X534945Y731520D02*
X924484D01*
X913306Y721360D02*
X924484D01*
X914400Y665535D02*
Y887465D01*
X919480Y670615D02*
Y882385D01*
X937516Y701040D02*
X955484D01*
X937516Y672920D02*
Y676709D01*
X911147Y716280D02*
X924484D01*
X886805Y711200D02*
X924484D01*
X937074Y670560D02*
X946588D01*
X932775Y665480D02*
X941508D01*
X927695Y660400D02*
X936428D01*
X882056Y690880D02*
X924484D01*
X879897Y695960D02*
X924484D01*
X879897Y685800D02*
X924484D01*
X881725Y706120D02*
X924484D01*
X795362Y701040D02*
X924484D01*
X796766Y680720D02*
X924484D01*
X796766Y675640D02*
X924484D01*
X800655Y670560D02*
X919425D01*
X805735Y665480D02*
X914345D01*
X904240Y728124D02*
Y750236D01*
X909320Y727713D02*
Y750647D01*
X714448Y751840D02*
X901437D01*
X891831Y726440D02*
X901353D01*
X715078Y756920D02*
X899194D01*
X543002Y726440D02*
X883669D01*
X894266Y721360D02*
X899194D01*
X873691Y716516D02*
X883142Y725967D01*
X891885Y716280D02*
X901353D01*
X880997Y705393D02*
X892357Y716752D01*
X873760Y697826D02*
Y703484D01*
X909320Y660455D02*
Y715007D01*
X878840Y696800D02*
Y703962D01*
X781000Y716516D02*
X873691D01*
X547387Y721360D02*
X878535D01*
X790895Y703484D02*
X876390D01*
X868680Y694018D02*
Y703484D01*
X796766Y695960D02*
X870103D01*
X796766Y690880D02*
X867944D01*
X796766Y685800D02*
X870103D01*
X858520Y1135612D02*
Y1230000D01*
X853440Y1135305D02*
Y1230000D01*
X863600Y1134971D02*
Y1230000D01*
X843280Y1131588D02*
Y1230000D01*
X848360Y1134017D02*
Y1230000D01*
X838200Y1127594D02*
Y1230000D01*
X833120Y1120616D02*
Y1230000D01*
Y1004516D02*
Y1095604D01*
X822960Y1004516D02*
Y1230000D01*
X828040Y1004516D02*
Y1230000D01*
X820000Y1127760D02*
X838368D01*
X820000Y1132840D02*
X845565D01*
X820000Y1122680D02*
X834288D01*
X820000Y1117600D02*
X831802D01*
X820000Y1112520D02*
X830470D01*
X820000Y1097280D02*
X832335D01*
X820000Y1102360D02*
X830722D01*
X820000Y1092200D02*
X835180D01*
X820000Y1075000D02*
Y1230000D01*
Y1107440D02*
X830122D01*
X853440Y1004516D02*
Y1080915D01*
X820000Y1082040D02*
X848828D01*
X858520Y1004516D02*
Y1080608D01*
X820000Y1087120D02*
X839838D01*
X820000Y1070000D02*
Y1075000D01*
X848360Y1004516D02*
Y1082203D01*
X843280Y1004516D02*
Y1084632D01*
X863600Y1004516D02*
Y1081249D01*
X838200Y1004516D02*
Y1088627D01*
X817880Y1004516D02*
Y1067880D01*
X812800Y1004516D02*
Y1062800D01*
X754516Y1004516D02*
X820000Y1070000D01*
X807720Y1004516D02*
Y1057720D01*
X802640Y1004516D02*
Y1052640D01*
X797560Y1004516D02*
Y1047560D01*
X812800Y963112D02*
Y997484D01*
X807720Y968136D02*
Y997484D01*
X817880Y955182D02*
Y997484D01*
X797560Y974050D02*
Y997484D01*
X802640Y971628D02*
Y997484D01*
X792480Y1004516D02*
Y1042480D01*
X787400Y1004516D02*
Y1037400D01*
X782320Y1004516D02*
Y1032320D01*
X777240Y1004516D02*
Y1027240D01*
X772160Y1004516D02*
Y1022160D01*
X787400Y976432D02*
Y997484D01*
X782320Y976548D02*
Y997484D01*
X792480Y975615D02*
Y997484D01*
X772160Y974669D02*
Y997484D01*
X777240Y975972D02*
Y997484D01*
X767080Y1004516D02*
Y1017080D01*
X762000Y1004516D02*
Y1012000D01*
X756920Y1004516D02*
Y1006920D01*
X721360Y977582D02*
Y995000D01*
X726440Y982662D02*
Y995000D01*
X762000Y969458D02*
Y997484D01*
X756920Y965034D02*
Y997484D01*
X767080Y972554D02*
Y997484D01*
X751840Y958388D02*
Y997484D01*
X716280Y972502D02*
Y995000D01*
X736600Y992822D02*
Y995000D01*
X729082Y975360D02*
X774488D01*
X724002Y970280D02*
X763182D01*
X711200Y967422D02*
Y995000D01*
X731520Y987742D02*
Y995000D01*
X718922Y965200D02*
X757080D01*
X713842Y960120D02*
X752946D01*
X708762Y955040D02*
X750053D01*
X706120Y962342D02*
Y995000D01*
X746760Y943612D02*
Y993038D01*
X703682Y949960D02*
X748099D01*
X701040Y957262D02*
Y995000D01*
X698602Y944880D02*
X746937D01*
X690880Y947102D02*
Y995000D01*
X695960Y952182D02*
Y995000D01*
X693522Y939800D02*
X746491D01*
X688442Y934720D02*
X746737D01*
X680720Y936942D02*
Y995000D01*
X685800Y942022D02*
Y995000D01*
X853440Y716516D02*
Y997484D01*
X833120Y849577D02*
Y997484D01*
X858520Y716516D02*
Y997484D01*
X822960Y850181D02*
Y997484D01*
X828040Y852050D02*
Y997484D01*
X848360Y716516D02*
Y997484D01*
X843280Y716516D02*
Y997484D01*
X863600Y716516D02*
Y997484D01*
X838200Y716516D02*
Y997484D01*
X746760Y697396D02*
Y934528D01*
X674711Y920989D02*
X751206Y997484D01*
X683362Y929640D02*
X747689D01*
X669377Y925599D02*
X738778Y995000D01*
X736600Y697396D02*
Y982878D01*
X741680Y697396D02*
Y987958D01*
X731520Y697396D02*
Y977798D01*
X726440Y697396D02*
Y972718D01*
X721360Y697396D02*
Y967638D01*
X716280Y696850D02*
Y962558D01*
X817880Y716516D02*
Y922958D01*
X812800Y716516D02*
Y915028D01*
X807720Y716516D02*
Y910004D01*
X802640Y716516D02*
Y906512D01*
X797560Y716516D02*
Y904090D01*
X792480Y716516D02*
Y902525D01*
X787400Y716516D02*
Y901708D01*
X782320Y716516D02*
Y901592D01*
X772160Y710375D02*
Y903471D01*
X777240Y715322D02*
Y902168D01*
X677361Y914400D02*
X755736D01*
X677227Y909320D02*
X761144D01*
X675201Y904240D02*
X770060D01*
X678282Y924560D02*
X749404D01*
X675661Y919480D02*
X752005D01*
X762000Y700215D02*
Y908682D01*
X767080Y705295D02*
Y905586D01*
X751840Y697396D02*
Y919752D01*
X756920Y697396D02*
Y913106D01*
X711200Y761927D02*
Y957478D01*
X675640Y931862D02*
Y995000D01*
X706120Y762587D02*
Y952398D01*
X665480Y926967D02*
Y995000D01*
X670560Y926782D02*
Y995000D01*
X701040Y758766D02*
Y947318D01*
X695960Y758766D02*
Y942238D01*
X690880Y758766D02*
Y937158D01*
X685800Y758766D02*
Y932078D01*
X680720Y758766D02*
Y926998D01*
X660400Y927118D02*
Y995000D01*
X655320Y925438D02*
Y995000D01*
X619760Y920920D02*
Y995000D01*
X650240Y920920D02*
Y995000D01*
X640080Y765306D02*
Y995000D01*
X635000Y765306D02*
Y995000D01*
X645160Y764266D02*
Y995000D01*
X624840Y765306D02*
Y995000D01*
X629920Y765306D02*
Y995000D01*
X675640Y919518D02*
Y921918D01*
X665480Y884967D02*
Y897533D01*
X655320Y883438D02*
Y899062D01*
X660400Y885118D02*
Y897382D01*
X675640Y877518D02*
Y904982D01*
X670560Y882919D02*
Y899581D01*
X650240Y878920D02*
Y903580D01*
X622434Y868680D02*
X647566D01*
X620661Y919480D02*
X649339D01*
X616099Y924560D02*
X653901D01*
X620201Y904240D02*
X649799D01*
X622361Y914400D02*
X647639D01*
X622227Y909320D02*
X647773D01*
X614857Y899160D02*
X655143D01*
X619816Y878840D02*
X650184D01*
X619760Y878920D02*
Y903580D01*
X622100Y873760D02*
X647900D01*
X572035Y990600D02*
X734378D01*
X572035Y995000D02*
X738778D01*
X572035Y985520D02*
X729298D01*
X572035Y986067D02*
Y995000D01*
Y980440D02*
X724218D01*
X609600Y927118D02*
Y995000D01*
X604520Y926967D02*
Y995000D01*
X572035Y975360D02*
X719138D01*
X572035Y976067D02*
Y986035D01*
Y966067D02*
Y976035D01*
X537003Y986067D02*
Y995000D01*
X530317Y985520D02*
X537003D01*
X512035Y980440D02*
X537003D01*
X531498Y995000D02*
X537003D01*
X532522Y990600D02*
X537003D01*
Y976067D02*
Y986035D01*
X512035Y975360D02*
X537003D01*
X572035Y970280D02*
X714058D01*
X537003Y966067D02*
Y976035D01*
X512035Y970280D02*
X537003D01*
X572035Y960120D02*
X703898D01*
X572035Y965200D02*
X708978D01*
X572035Y955040D02*
X698818D01*
X572035Y956067D02*
Y966035D01*
Y949960D02*
X693738D01*
X572035Y944880D02*
X688658D01*
X572035Y946067D02*
Y956035D01*
Y939800D02*
X683578D01*
X572035Y936067D02*
Y946035D01*
Y926067D02*
Y936035D01*
X537003Y946067D02*
Y956035D01*
X512035Y944880D02*
X537003D01*
X512035Y939800D02*
X537003D01*
X512035Y965200D02*
X537003D01*
X512035Y960120D02*
X537003D01*
X572035Y934720D02*
X678498D01*
X537003Y936067D02*
Y946035D01*
X572035Y929640D02*
X673418D01*
X537003Y926067D02*
Y936035D01*
X512035Y929640D02*
X537003D01*
X512035Y985520D02*
X518722D01*
X512035Y995000D02*
X517541D01*
X512035Y990600D02*
X516516D01*
X537003Y956067D02*
Y966035D01*
X512035Y976067D02*
Y986035D01*
Y966067D02*
Y976035D01*
Y986067D02*
Y995000D01*
X425000D02*
X477003D01*
X425000Y990600D02*
X477003D01*
Y986067D02*
Y995000D01*
X425000Y985520D02*
X477003D01*
Y966067D02*
Y976035D01*
X425000Y975360D02*
X477003D01*
X425000Y970280D02*
X477003D01*
Y976067D02*
Y986035D01*
X425000Y980440D02*
X477003D01*
X512035Y955040D02*
X537003D01*
X512035Y956067D02*
Y966035D01*
Y949960D02*
X537003D01*
X477003Y956067D02*
Y966035D01*
X512035Y946067D02*
Y956035D01*
Y926067D02*
Y936035D01*
Y936067D02*
Y946035D01*
Y934720D02*
X537003D01*
X477003Y946067D02*
Y956035D01*
Y926067D02*
Y936035D01*
X425000Y949960D02*
X477003D01*
X425000Y955040D02*
X477003D01*
X425000Y944880D02*
X477003D01*
X425000Y965200D02*
X477003D01*
X425000Y960120D02*
X477003D01*
X425000Y934720D02*
X477003D01*
X425000Y929640D02*
X477003D01*
Y936067D02*
Y946035D01*
X425000Y939800D02*
X477003D01*
X614680Y925438D02*
Y995000D01*
X599440Y924920D02*
Y995000D01*
X572035Y924560D02*
X598901D01*
X594360Y919518D02*
Y995000D01*
X572035Y919480D02*
X594339D01*
X594360Y877518D02*
Y904982D01*
X599440Y882919D02*
Y899581D01*
X572035Y916067D02*
Y926035D01*
Y906067D02*
Y916035D01*
Y914400D02*
X592639D01*
X512035D02*
X537003D01*
X572035Y909320D02*
X592773D01*
X537003Y906067D02*
Y916035D01*
X512035Y909320D02*
X537003D01*
X572035Y904240D02*
X594799D01*
X572035Y896067D02*
Y906035D01*
Y899160D02*
X600143D01*
X537003Y896067D02*
Y906035D01*
X512035Y904240D02*
X537003D01*
X614680Y883438D02*
Y899062D01*
X609600Y885118D02*
Y897382D01*
X613714Y883920D02*
X656286D01*
X604520Y884967D02*
Y897533D01*
X572035Y886067D02*
Y896035D01*
Y873760D02*
X592900D01*
X572035Y868680D02*
X592566D01*
X572035Y876067D02*
Y886035D01*
Y856067D02*
Y866035D01*
X537003Y886067D02*
Y896035D01*
X512035Y889000D02*
X537003D01*
X572035Y883920D02*
X601286D01*
X512035Y899160D02*
X537003D01*
X512035Y894080D02*
X537003D01*
X572035Y878840D02*
X595184D01*
X572035Y866067D02*
Y876035D01*
X512035Y873760D02*
X537003D01*
X512035Y868680D02*
X537003D01*
Y916067D02*
Y926035D01*
X512035Y924560D02*
X537003D01*
X512035Y919480D02*
X537003D01*
X512035Y916067D02*
Y926035D01*
Y906067D02*
Y916035D01*
X533400Y732099D02*
Y995000D01*
X528320Y733308D02*
Y983998D01*
X523240Y733542D02*
Y983142D01*
X513080Y731081D02*
Y995000D01*
X518160Y732827D02*
Y986176D01*
X477003Y916067D02*
Y926035D01*
X425000Y914400D02*
X477003D01*
X425000Y909320D02*
X477003D01*
X425000Y924560D02*
X477003D01*
X425000Y919480D02*
X477003D01*
X512035Y896067D02*
Y906035D01*
X477003Y906067D02*
Y916035D01*
X425000Y904240D02*
X477003D01*
Y896067D02*
Y906035D01*
X425000Y899160D02*
X477003D01*
X537003Y876067D02*
Y886035D01*
X512035Y883920D02*
X537003D01*
X512035Y878840D02*
X537003D01*
X512035Y886067D02*
Y896035D01*
X477003Y876067D02*
Y886035D01*
X537003Y866067D02*
Y876035D01*
X512035Y876067D02*
Y886035D01*
X537003Y856067D02*
Y866035D01*
X512035Y866067D02*
Y876035D01*
Y856067D02*
Y866035D01*
X477003Y886067D02*
Y896035D01*
X425000Y883920D02*
X477003D01*
X425000Y878840D02*
X477003D01*
X425000Y894080D02*
X477003D01*
X425000Y889000D02*
X477003D01*
Y866067D02*
Y876035D01*
Y856067D02*
Y866035D01*
X425000Y873760D02*
X477003D01*
X425000Y868680D02*
X477003D01*
X833120Y716516D02*
Y840423D01*
X822960Y716516D02*
Y839819D01*
X828040Y716516D02*
Y837950D01*
X675640Y835518D02*
Y862982D01*
X670560Y840919D02*
Y857580D01*
X673746Y838200D02*
X825867D01*
X665480Y842967D02*
Y855533D01*
X643806Y764266D02*
X661266D01*
X675640Y758766D02*
Y820982D01*
X670560Y758766D02*
Y815581D01*
X661266Y762000D02*
X704444D01*
X665480Y758766D02*
Y813533D01*
X661266Y758766D02*
Y764266D01*
X711200Y714927D02*
Y748573D01*
X706120Y715587D02*
Y747913D01*
X695960Y711766D02*
Y751734D01*
X690880Y711766D02*
Y751734D01*
X701040Y711766D02*
Y751734D01*
X680720Y711766D02*
Y751734D01*
X685800Y711766D02*
Y751734D01*
X661266D02*
X701107D01*
X661266Y758766D02*
X701107D01*
X661266Y716280D02*
X779262D01*
X661266Y746234D02*
Y751734D01*
X643806Y717266D02*
X661266D01*
X675640Y711766D02*
Y751734D01*
X670560Y711766D02*
Y751734D01*
X661266Y711766D02*
X701107D01*
X665480D02*
Y751734D01*
X661266Y711766D02*
Y717266D01*
X655320Y841438D02*
Y857062D01*
X650240Y836920D02*
Y861580D01*
X660400Y843118D02*
Y855382D01*
X620963Y863600D02*
X649037D01*
X621704Y833120D02*
X648296D01*
X655320Y764266D02*
Y815062D01*
X650240Y764266D02*
Y819580D01*
X660400Y764266D02*
Y813382D01*
X622514Y828040D02*
X647486D01*
X621553Y822960D02*
X648447D01*
X616875Y858520D02*
X653125D01*
X614680Y841438D02*
Y857062D01*
X609600Y843118D02*
Y855382D01*
X599440Y840919D02*
Y857580D01*
X604520Y842967D02*
Y855533D01*
X618746Y838200D02*
X651254D01*
X618360Y817880D02*
X651640D01*
X594360Y835518D02*
Y862982D01*
X619760Y836920D02*
Y861580D01*
X643806Y746234D02*
X661266D01*
X643806Y764266D02*
Y765306D01*
Y745194D02*
Y746234D01*
X635000Y718306D02*
Y745194D01*
X640080Y718306D02*
Y745194D01*
X655320Y717266D02*
Y746234D01*
X650240Y717266D02*
Y746234D01*
X660400Y717266D02*
Y746234D01*
X645160Y717266D02*
Y746234D01*
X643806Y717266D02*
Y718306D01*
X623694Y765306D02*
X643806D01*
X623694Y745194D02*
X643806D01*
X629920Y718306D02*
Y745194D01*
X623694Y718306D02*
X643806D01*
X623694Y745194D02*
Y765306D01*
X624840Y718306D02*
Y745194D01*
X783699Y703484D02*
X789605D01*
X766488Y686273D02*
X783699Y703484D01*
X781255Y701040D02*
X785138D01*
X802640Y668575D02*
Y703484D01*
X797560Y673655D02*
Y703484D01*
X807720Y663495D02*
Y703484D01*
X783734Y671750D02*
Y697000D01*
X796766Y674449D02*
Y697000D01*
X714958Y706120D02*
X767905D01*
X714663Y711200D02*
X772985D01*
X709873Y701040D02*
X762825D01*
X759181Y697396D02*
X776393Y714607D01*
X718890Y697396D02*
X759181D01*
X711200Y692405D02*
Y701573D01*
X776175Y695960D02*
X783734D01*
X771095Y690880D02*
X783734D01*
X765961Y685800D02*
X783734D01*
X760606Y665480D02*
X787305D01*
X756920Y669424D02*
Y684364D01*
X717945Y680720D02*
X783734D01*
X712865Y675640D02*
X783734D01*
X707785Y670560D02*
X783844D01*
X751840Y669717D02*
Y684364D01*
X721589D02*
X761880D01*
X702705Y665480D02*
X747394D01*
X697625Y660400D02*
X747440D01*
X675640Y690004D02*
Y704734D01*
X670560Y692513D02*
Y704734D01*
X706120Y687325D02*
Y700913D01*
X661266Y699234D02*
Y704734D01*
X665480Y690016D02*
Y704734D01*
X695960Y677165D02*
Y704734D01*
X690880Y672085D02*
Y704734D01*
X701040Y682245D02*
Y704734D01*
X680720Y661925D02*
Y704734D01*
X685800Y667005D02*
Y704734D01*
X661266Y701040D02*
X705627D01*
X661266Y704734D02*
X701107D01*
X643806Y699234D02*
X661266D01*
X650240Y682462D02*
Y699234D01*
X643806Y698194D02*
Y699234D01*
X655320Y687542D02*
Y699234D01*
X623694Y698194D02*
Y718306D01*
X674874Y690880D02*
X709675D01*
X659250Y690016D02*
X665868D01*
X660400D02*
Y699234D01*
X676725Y685800D02*
X704595D01*
X672419Y680720D02*
X699515D01*
X660706Y682984D02*
X665868D01*
X658442Y680720D02*
X669081D01*
X645160Y677382D02*
Y699234D01*
X653362Y675640D02*
X694435D01*
X640080Y672302D02*
Y698194D01*
X623694D02*
X643806D01*
X648282Y670560D02*
X689355D01*
X643202Y665480D02*
X684275D01*
X629920Y662142D02*
Y698194D01*
X635000Y667222D02*
Y698194D01*
X572035Y848360D02*
X821545D01*
X572035Y858520D02*
X598125D01*
X572035Y843280D02*
X820907D01*
X572035Y863600D02*
X594037D01*
X572035Y846067D02*
Y856035D01*
Y833120D02*
X593296D01*
X572035Y838200D02*
X596254D01*
X572035Y828040D02*
X592486D01*
X572035Y836067D02*
Y846035D01*
Y826067D02*
Y836035D01*
X537003Y846067D02*
Y856035D01*
X512035Y853440D02*
X537003D01*
X512035Y848360D02*
X537003D01*
X512035Y863600D02*
X537003D01*
X512035Y858520D02*
X537003D01*
Y826067D02*
Y836035D01*
Y836067D02*
Y846035D01*
X512035Y833120D02*
X537003D01*
X512035Y843280D02*
X537003D01*
X512035Y838200D02*
X537003D01*
X572035Y822960D02*
X593447D01*
X572035Y816067D02*
Y826035D01*
Y817880D02*
X596640D01*
X537003Y816067D02*
Y826035D01*
X572035Y806067D02*
Y816035D01*
Y786067D02*
Y796035D01*
Y796067D02*
Y806035D01*
Y776067D02*
Y786035D01*
X537003Y796067D02*
Y806035D01*
Y776067D02*
Y786035D01*
X512035Y812800D02*
X537003D01*
X512035Y817880D02*
X537003D01*
X512035Y802640D02*
X537003D01*
X512035Y828040D02*
X537003D01*
X512035Y822960D02*
X537003D01*
Y786067D02*
Y796035D01*
X512035Y787400D02*
X537003D01*
X512035Y782320D02*
X537003D01*
X512035Y797560D02*
X537003D01*
X512035Y792480D02*
X537003D01*
X512035Y836067D02*
Y846035D01*
Y846067D02*
Y856035D01*
Y826067D02*
Y836035D01*
X477003Y846067D02*
Y856035D01*
Y836067D02*
Y846035D01*
X512035Y816067D02*
Y826035D01*
X477003Y826067D02*
Y836035D01*
X537003Y806067D02*
Y816035D01*
X477003Y816067D02*
Y826035D01*
Y806067D02*
Y816035D01*
X425000Y848360D02*
X477003D01*
X425000Y853440D02*
X477003D01*
X425000Y843280D02*
X477003D01*
X425000Y863600D02*
X477003D01*
X425000Y858520D02*
X477003D01*
X425000Y822960D02*
X477003D01*
X425000Y828040D02*
X477003D01*
X425000Y817880D02*
X477003D01*
X425000Y838200D02*
X477003D01*
X425000Y833120D02*
X477003D01*
X512035Y807720D02*
X537003D01*
X512035Y806067D02*
Y816035D01*
Y786067D02*
Y796035D01*
X477003Y796067D02*
Y806035D01*
X512035Y796067D02*
Y806035D01*
Y777240D02*
X537003D01*
X512035Y776067D02*
Y786035D01*
Y772160D02*
X537003D01*
X477003Y786067D02*
Y796035D01*
Y776067D02*
Y786035D01*
X425000Y797560D02*
X477003D01*
X425000Y802640D02*
X477003D01*
X425000Y792480D02*
X477003D01*
X425000Y812800D02*
X477003D01*
X425000Y807720D02*
X477003D01*
X425000Y777240D02*
X477003D01*
X425000Y772160D02*
X477003D01*
X425000Y787400D02*
X477003D01*
X425000Y782320D02*
X477003D01*
X572035Y756920D02*
X623694D01*
X572035Y762000D02*
X623694D01*
X572035Y751840D02*
X623694D01*
X572035Y766067D02*
Y776035D01*
Y756067D02*
Y766035D01*
Y746760D02*
X623694D01*
X572035Y746035D02*
Y756035D01*
X568960Y666075D02*
Y746035D01*
X553720Y666075D02*
Y746035D01*
X558800Y666075D02*
Y746035D01*
X537003Y756067D02*
Y766035D01*
X512035Y756920D02*
X537003D01*
X512035Y746760D02*
X537003D01*
Y766067D02*
Y776035D01*
X512035Y762000D02*
X537003D01*
X548640Y719296D02*
Y746035D01*
X543560Y725920D02*
Y746035D01*
X537003D02*
X572035D01*
X537003D02*
Y756035D01*
X538480Y729767D02*
Y746035D01*
X552035Y706120D02*
X623694D01*
X551574Y701040D02*
X623694D01*
X550116Y695960D02*
X714809D01*
X550065Y716280D02*
X623694D01*
X551550Y711200D02*
X623694D01*
X572035Y665480D02*
X633258D01*
X547472Y690880D02*
X666626D01*
X572035Y660400D02*
X628178D01*
X563880Y666075D02*
Y746035D01*
X548640Y666075D02*
Y692815D01*
X543143Y685800D02*
X653578D01*
X535254Y680720D02*
X648498D01*
X425000Y675640D02*
X643418D01*
X425000Y670560D02*
X638338D01*
X543560Y666075D02*
Y686192D01*
X537003Y666075D02*
X572035D01*
X538480D02*
Y682344D01*
X512035Y665480D02*
X537003D01*
X512035Y767080D02*
X537003D01*
X512035Y766067D02*
Y776035D01*
Y751840D02*
X537003D01*
X512035Y756067D02*
Y766035D01*
Y746035D02*
Y756035D01*
X497840Y712790D02*
Y746035D01*
X492760Y666075D02*
Y746035D01*
X502920Y723103D02*
Y746035D01*
X482600Y666075D02*
Y746035D01*
X487680Y666075D02*
Y746035D01*
X477003Y756067D02*
Y766035D01*
X425000Y762000D02*
X477003D01*
X425000Y756920D02*
X477003D01*
Y766067D02*
Y776035D01*
X425000Y767080D02*
X477003D01*
X477520Y666075D02*
Y746035D01*
X425000Y751840D02*
X477003D01*
Y746035D02*
X512035D01*
X477003D02*
Y756035D01*
X425000Y746760D02*
X477003D01*
X508000Y728061D02*
Y746035D01*
X425000Y731520D02*
X514093D01*
X425000Y716280D02*
X498973D01*
X425000Y711200D02*
X497488D01*
X425000Y706120D02*
X497003D01*
X508000Y666075D02*
Y684050D01*
X477003Y666075D02*
X512035D01*
Y660400D02*
X537003D01*
X497840Y666075D02*
Y699322D01*
X502920Y666075D02*
Y689009D01*
X425000Y721360D02*
X501652D01*
X425000Y726440D02*
X506036D01*
X425000Y690880D02*
X501567D01*
X425000Y701040D02*
X497464D01*
X425000Y695960D02*
X498922D01*
X425000Y685800D02*
X505896D01*
X425000Y680720D02*
X513785D01*
X425000Y665480D02*
X477003D01*
X425000Y660400D02*
X477003D01*
X970226Y650240D02*
X977353D01*
X975360Y656842D02*
Y1030668D01*
X970226Y655320D02*
X975194D01*
X970226Y640080D02*
X1094108D01*
X970226Y645160D02*
X1099188D01*
X970226Y635000D02*
X1089028D01*
X970226Y544070D02*
Y655360D01*
Y629920D02*
X1087484D01*
X922544Y646516D02*
X965484Y689456D01*
X967840Y660400D02*
X977353D01*
X941292Y655320D02*
X957194D01*
X936212Y650240D02*
X957194D01*
X931132Y645160D02*
X957194D01*
X926492Y640519D02*
X971480Y685508D01*
X925958Y640080D02*
X957194D01*
Y546769D02*
Y655360D01*
X900813Y635000D02*
X957194D01*
X970226Y609600D02*
X1087484D01*
X970226Y614680D02*
X1087484D01*
X970226Y604520D02*
X1087484D01*
X970226Y624840D02*
X1087484D01*
X970226Y619760D02*
X1087484D01*
X970226Y584200D02*
X1087484D01*
X970226Y589280D02*
X1087484D01*
X970226Y579120D02*
X1087484D01*
X970226Y599440D02*
X1087484D01*
X970226Y594360D02*
X1087484D01*
X970226Y568960D02*
X1087484D01*
X970226Y574040D02*
X1087484D01*
X970226Y563880D02*
X1087484D01*
X970226Y558800D02*
X1087484D01*
X970226Y553720D02*
X1075513D01*
X970226Y548640D02*
X1075405D01*
X970206Y543560D02*
X1087484D01*
X967335Y538480D02*
X1087484D01*
X934720Y658692D02*
Y667425D01*
X929640Y653612D02*
Y662345D01*
X922615Y655320D02*
X931348D01*
X924560Y648532D02*
Y657265D01*
X919480Y646516D02*
Y652185D01*
X955040Y544615D02*
Y669068D01*
X949960Y539535D02*
Y663988D01*
X944880Y534455D02*
Y658908D01*
X904240Y656756D02*
Y714596D01*
X899160Y656756D02*
Y1006688D01*
X905621Y656756D02*
X924484Y675619D01*
X894080Y656756D02*
Y719814D01*
X878840Y656756D02*
Y684960D01*
X917535Y650240D02*
X926268D01*
X913811Y646516D02*
X935608Y668312D01*
X913811Y646516D02*
X922544D01*
X889000Y656756D02*
Y713395D01*
X883920Y656756D02*
Y708315D01*
X904240Y544294D02*
Y639484D01*
X901973Y629920D02*
X957194D01*
X898441Y624840D02*
X957194D01*
X899160Y636699D02*
Y639484D01*
Y547960D02*
Y625301D01*
X904575Y543560D02*
X953985D01*
X904591Y538480D02*
X948905D01*
X889000Y634713D02*
Y639484D01*
X894080Y637996D02*
Y639484D01*
Y546867D02*
Y624004D01*
X962255Y533400D02*
X1087484D01*
X957175Y528320D02*
X1087484D01*
X952095Y523240D02*
X1087484D01*
X949960Y451165D02*
Y521105D01*
X947015Y518160D02*
X1087484D01*
X975360Y424924D02*
Y653798D01*
X970280Y430845D02*
Y684308D01*
X965200Y435925D02*
Y536345D01*
X960120Y441005D02*
Y531265D01*
X955040Y446085D02*
Y526185D01*
X936855Y508000D02*
X1095028D01*
X931775Y502920D02*
X1100108D01*
X926695Y497840D02*
X1105188D01*
X911302Y500877D02*
X957194Y546769D01*
X941935Y513080D02*
X1089948D01*
X922426Y492760D02*
X1110268D01*
X922426Y493571D02*
X968318Y539463D01*
X922426Y487680D02*
X1115348D01*
X944880Y456245D02*
Y516025D01*
X959165Y441960D02*
X1008347D01*
X954085Y447040D02*
X1011825D01*
X964245Y436880D02*
X1008234D01*
X969325Y431800D02*
X1008234D01*
X974346Y426720D02*
X1008234D01*
X975766Y401336D02*
Y422660D01*
X949960Y401336D02*
Y432735D01*
X955040Y401336D02*
Y427655D01*
X941300Y477520D02*
X1042305D01*
X936905Y482600D02*
X1047385D01*
X940502Y472440D02*
X1037225D01*
X933765Y467360D02*
X1032145D01*
X938845Y462280D02*
X1027065D01*
X943925Y457200D02*
X1021985D01*
X931595Y469530D02*
X973857Y427267D01*
X949005Y452120D02*
X1016905D01*
X911302Y471393D02*
X962734Y419961D01*
X944880Y401336D02*
Y437815D01*
X939800Y529375D02*
Y653828D01*
X934720Y524295D02*
Y648748D01*
X929640Y519215D02*
Y643668D01*
X924560Y514135D02*
Y639529D01*
X919480Y509055D02*
Y639484D01*
X939800Y480554D02*
Y510945D01*
X934720Y483049D02*
Y505865D01*
X929640Y481199D02*
Y500785D01*
X914400Y503975D02*
Y639484D01*
X924560Y476565D02*
Y495705D01*
X909394Y476000D02*
Y496270D01*
X889000Y385432D02*
Y627287D01*
X909320Y384496D02*
Y639484D01*
X904240Y340322D02*
Y537706D01*
X899160Y381366D02*
Y534040D01*
X883920Y383357D02*
Y639484D01*
X894080Y384944D02*
Y535133D01*
X939800Y461325D02*
Y471446D01*
X934720Y466405D02*
Y468951D01*
X939800Y395808D02*
Y442895D01*
X929640Y386116D02*
Y453055D01*
X934720Y391772D02*
Y447975D01*
X922426Y478699D02*
X927940Y473185D01*
X922426Y482600D02*
X931915D01*
X923605Y477520D02*
X927520D01*
X922426Y478699D02*
Y493571D01*
X919480Y384496D02*
Y463215D01*
X924560Y384496D02*
Y458135D01*
X914400Y384496D02*
Y468295D01*
X868680Y656756D02*
Y687742D01*
X863600Y656756D02*
Y703484D01*
X873760Y656756D02*
Y683934D01*
X853440Y656756D02*
Y703484D01*
X858520Y656756D02*
Y703484D01*
X848360Y656756D02*
Y703484D01*
X847894Y639484D02*
X924000D01*
X843280Y656756D02*
Y703484D01*
X838200Y638396D02*
Y639484D01*
Y656756D02*
Y703484D01*
X810815Y660400D02*
X909265D01*
X814459Y656756D02*
X905621D01*
X833120D02*
Y703484D01*
X811760Y643724D02*
X832252D01*
X834688Y636216D02*
X837956Y639484D01*
X838986D01*
X829716Y641188D02*
X832252Y643724D01*
X834761Y635000D02*
X837440D01*
X849440D02*
X889187D01*
X833120Y630092D02*
Y631115D01*
X831540Y629920D02*
X832948D01*
X837812Y624840D02*
X891559D01*
X832732Y619760D02*
X957194D01*
X827652Y614680D02*
X957194D01*
X845832Y629920D02*
X888027D01*
X827242Y614269D02*
X842474Y629502D01*
X702016Y609600D02*
X957194D01*
X684766Y604520D02*
X957194D01*
X823294Y620266D02*
X837502Y634474D01*
X684766Y584200D02*
X957194D01*
X684766Y589280D02*
X957194D01*
X684766Y579120D02*
X957194D01*
X684766Y599440D02*
X957194D01*
X684766Y594360D02*
X957194D01*
X822960Y656756D02*
Y703484D01*
X817880Y656756D02*
Y703484D01*
X828040Y656756D02*
Y703484D01*
X812800Y658415D02*
Y703484D01*
X817880Y638766D02*
Y643724D01*
X812800Y638766D02*
Y643724D01*
X828040Y641224D02*
Y643724D01*
X807720Y638766D02*
Y645128D01*
X796766Y674449D02*
X814459Y656756D01*
X785642Y667142D02*
X807152Y645632D01*
X687465Y650240D02*
X802545D01*
X760559Y660400D02*
X792385D01*
X692545Y655320D02*
X797465D01*
X802640Y638766D02*
Y650145D01*
X797560Y638766D02*
Y655225D01*
X684766Y645160D02*
X807679D01*
X787400Y638766D02*
Y665385D01*
X792480Y638766D02*
Y660305D01*
X822960Y620266D02*
Y631734D01*
Y638766D02*
Y643724D01*
X828040Y625012D02*
Y629276D01*
X797560Y620266D02*
Y631734D01*
X817880Y620266D02*
Y631734D01*
X812800Y620266D02*
Y631734D01*
X802640Y620266D02*
Y631734D01*
X807720Y620266D02*
Y631734D01*
X702016Y629920D02*
X825960D01*
X702016Y640080D02*
X825163D01*
X702016Y624840D02*
X827868D01*
X702016Y638766D02*
X823868D01*
X702016Y631734D02*
X823868D01*
X702016Y620266D02*
X823294D01*
X702016Y613234D02*
X824750D01*
X787400Y620266D02*
Y631734D01*
X792480Y620266D02*
Y631734D01*
X868680Y384944D02*
Y639484D01*
X863600Y385432D02*
Y639484D01*
X825559Y558800D02*
X957194D01*
X843280Y383838D02*
Y629426D01*
X838200Y384381D02*
Y625228D01*
X873760Y381366D02*
Y639484D01*
X858520Y383357D02*
Y639484D01*
X878840Y340322D02*
Y639484D01*
X853440Y340322D02*
Y639484D01*
X848360Y379529D02*
Y631978D01*
X825335Y553720D02*
X957194D01*
X684766Y563880D02*
X957194D01*
X801045Y548640D02*
X957194D01*
X684766Y574040D02*
X957194D01*
X684766Y568960D02*
X957194D01*
X742122Y533400D02*
X943825D01*
X737042Y528320D02*
X938745D01*
X731962Y523240D02*
X933665D01*
X801908Y543560D02*
X891425D01*
X797698Y538480D02*
X891409D01*
X820666Y477520D02*
X909394D01*
X819016Y482600D02*
X909394D01*
X821559Y472440D02*
X910452D01*
X812867Y492760D02*
X909394D01*
X816492Y487680D02*
X909394D01*
X820024Y457200D02*
X925495D01*
X818001Y452120D02*
X930575D01*
X815022Y447040D02*
X935655D01*
X821749Y467360D02*
X915335D01*
X821247Y462280D02*
X920415D01*
X726882Y518160D02*
X928585D01*
X721802Y513080D02*
X923505D01*
X716722Y508000D02*
X918425D01*
X799174Y502920D02*
X913345D01*
X807630Y497840D02*
X909586D01*
X792032Y431800D02*
X950895D01*
X572035Y426720D02*
X955975D01*
X810766Y441960D02*
X940735D01*
X804440Y436880D02*
X945815D01*
X822960Y561738D02*
Y613234D01*
X817880Y562130D02*
Y613234D01*
X807720Y560016D02*
Y613234D01*
X812800Y560016D02*
Y613234D01*
X833120Y382023D02*
Y620148D01*
X828040Y303000D02*
Y615068D01*
X807720Y497768D02*
Y552984D01*
X812800Y492838D02*
Y552984D01*
X802640Y560016D02*
Y613234D01*
X797560Y560016D02*
Y613234D01*
X760250Y560016D02*
X815118D01*
X787400D02*
Y613234D01*
X792480Y560016D02*
Y613234D01*
X802640Y501199D02*
Y552984D01*
X761706D02*
X815118D01*
X792480Y551591D02*
Y552984D01*
X797560Y551575D02*
Y552984D01*
X817880Y485127D02*
Y550870D01*
X812800Y385432D02*
Y444162D01*
X797560Y503576D02*
Y538425D01*
X822960Y381366D02*
Y551263D01*
X817880Y384944D02*
Y451872D01*
X807720Y383357D02*
Y439232D01*
X802640Y303000D02*
Y435801D01*
X797560Y303000D02*
Y433424D01*
X747202Y538480D02*
X792302D01*
X757362Y548640D02*
X788955D01*
X752282Y543560D02*
X788092D01*
X792480Y505102D02*
Y538409D01*
Y303000D02*
Y431898D01*
X787400Y303000D02*
Y431116D01*
X975766Y416560D02*
X1008234D01*
X975766Y421640D02*
X1008234D01*
X975766Y411480D02*
X1008234D01*
X975766Y406400D02*
X1008234D01*
X975766Y401336D02*
X978266D01*
Y396240D02*
X1005734D01*
X978266Y401320D02*
X1005734D01*
X978266Y391160D02*
X1005734D01*
X978266Y383304D02*
Y401336D01*
Y386080D02*
X1005734D01*
X962734Y401336D02*
Y419961D01*
X960234Y401336D02*
X962734D01*
X975766Y383304D02*
X978266D01*
X941734Y401336D02*
X959766D01*
X941734Y383304D02*
X959766D01*
X962734Y375936D02*
Y383304D01*
X960234D02*
X962734D01*
X975766Y375936D02*
Y383304D01*
X959766D02*
Y401336D01*
X960234Y383304D02*
Y401336D01*
X978266Y375920D02*
X1005734D01*
X975766Y381000D02*
X1008234D01*
X978266Y365760D02*
X1005734D01*
X975766Y375936D02*
X978266D01*
Y370840D02*
X1005734D01*
X978266Y357904D02*
Y375936D01*
X975766Y357904D02*
X978266D01*
X975766Y355600D02*
X1008234D01*
X960234Y357904D02*
X962734D01*
Y350536D02*
Y357904D01*
X960234Y375936D02*
X962734D01*
X936516Y381000D02*
X962734D01*
X959766Y357904D02*
Y375936D01*
X955040D02*
Y383304D01*
X941734Y375936D02*
X959766D01*
X960234Y357904D02*
Y375936D01*
X936516Y355600D02*
X962734D01*
X960234Y350536D02*
X962734D01*
X955040D02*
Y357904D01*
X941734D02*
X959766D01*
X941734Y395836D02*
Y401336D01*
X940240Y395836D02*
X941734D01*
X938972Y386080D02*
X941734D01*
X944880Y375936D02*
Y383304D01*
X941734D02*
Y388804D01*
X949960Y375936D02*
Y383304D01*
X939800Y370436D02*
Y386908D01*
X941734Y370436D02*
Y375936D01*
X936516Y383624D02*
X941696Y388804D01*
X930519Y387572D02*
X937748Y394800D01*
X925926Y381000D02*
X929484D01*
X936516Y375920D02*
X941734D01*
X936516Y368768D02*
Y383624D01*
X925926Y375920D02*
X929484D01*
Y367626D02*
Y385080D01*
X925926Y364464D02*
Y384496D01*
X939640Y370436D02*
X941734D01*
X936516Y370840D02*
X941734D01*
X936516Y368768D02*
X937148Y369400D01*
X944880Y350536D02*
Y357904D01*
X938372Y360680D02*
X941734D01*
X949960Y350536D02*
Y357904D01*
X936516Y358824D02*
X941096Y363404D01*
X941734Y357904D02*
Y363404D01*
X925926Y365760D02*
X927618D01*
X925926Y370840D02*
X929484D01*
X924560Y362702D02*
Y364464D01*
X914400Y358982D02*
Y364464D01*
X919480Y358438D02*
Y364464D01*
X920055Y358198D02*
X929484Y367626D01*
X927402Y355600D02*
X929484D01*
X909320Y356623D02*
Y364464D01*
X925028Y353226D02*
X929484Y357682D01*
X978266Y332504D02*
Y350536D01*
X975766D02*
X978266D01*
X975766Y332504D02*
X978266D01*
X975766Y350536D02*
Y357904D01*
X960234Y332504D02*
X962734D01*
X975766Y325136D02*
Y332504D01*
X962734Y325136D02*
Y332504D01*
X975766Y330200D02*
X1008234D01*
X960120Y303000D02*
Y422575D01*
X960234Y332504D02*
Y350536D01*
X959766Y332504D02*
Y350536D01*
X941734D02*
X959766D01*
X936516Y350520D02*
X941734D01*
Y345036D02*
Y350536D01*
X936516Y345440D02*
X941734D01*
X955040Y325136D02*
Y332504D01*
X949960Y325136D02*
Y332504D01*
X941734D02*
X959766D01*
X941734D02*
Y338004D01*
X944880Y325136D02*
Y332504D01*
X978266Y320040D02*
X1005734D01*
X978266Y325120D02*
X1005734D01*
X978266Y314960D02*
X1005734D01*
X960234Y325136D02*
X962734D01*
X975766D02*
X978266D01*
X975360Y303000D02*
Y307104D01*
X970280Y303000D02*
Y307104D01*
X960234D02*
X978266D01*
X960234D02*
Y325136D01*
X965200Y303000D02*
Y307104D01*
X941734Y325136D02*
X959766D01*
X933172Y330200D02*
X962734D01*
X941734Y307104D02*
X959766D01*
X941734Y319636D02*
Y325136D01*
X959766Y307104D02*
Y325136D01*
X949960Y303000D02*
Y307104D01*
X955040Y303000D02*
Y307104D01*
X941734D02*
Y312604D01*
X944880Y303000D02*
Y307104D01*
X939800Y345036D02*
Y362108D01*
X939520Y345036D02*
X941734D01*
X925822Y350520D02*
X929484D01*
X939800Y319636D02*
Y336828D01*
X936516Y343488D02*
Y358824D01*
X938252Y335280D02*
X941734D01*
X929484Y343456D02*
Y357682D01*
X934720Y319636D02*
Y331748D01*
X925241Y345440D02*
X929484D01*
X922544Y336516D02*
X929484Y343456D01*
X920838Y340360D02*
X926388D01*
X924560Y338532D02*
Y344030D01*
X925492Y322519D02*
X940976Y338004D01*
X919480Y336516D02*
Y339722D01*
X908046Y336516D02*
X922544D01*
X909320D02*
Y341537D01*
X914400Y336516D02*
Y339179D01*
X929640Y319636D02*
Y326668D01*
X928092Y325120D02*
X941734D01*
X921544Y328516D02*
X922512Y329484D01*
X934720Y303000D02*
Y312604D01*
X929640Y303000D02*
Y312604D01*
X939800Y303000D02*
Y312604D01*
X924560Y319636D02*
Y321849D01*
Y303000D02*
Y312604D01*
X919480Y328516D02*
Y329484D01*
X914400Y328516D02*
Y329484D01*
X919480Y319636D02*
Y321484D01*
X909320Y328516D02*
Y329484D01*
X914400Y319636D02*
Y321484D01*
Y303000D02*
Y312604D01*
X919480Y303000D02*
Y312604D01*
X909320Y319636D02*
Y321484D01*
Y303000D02*
Y312604D01*
X905894Y384496D02*
X925926D01*
X899439Y381000D02*
X905894D01*
X901472Y375920D02*
X905894D01*
X874039Y381000D02*
X881581D01*
X876072Y375920D02*
X879548D01*
X905894Y364464D02*
Y384496D01*
X572035Y416560D02*
X962734D01*
X425000Y411480D02*
X962734D01*
X531767Y406400D02*
X962734D01*
X572035Y421640D02*
X961055D01*
X541736Y401320D02*
X941734D01*
X549606Y391160D02*
X934108D01*
X546626Y396240D02*
X941734D01*
X551322Y386080D02*
X929629D01*
X900950Y370840D02*
X905894D01*
X897307Y365760D02*
X905894D01*
Y364464D02*
X925926D01*
X889000Y358982D02*
Y363528D01*
X900422Y350520D02*
X905998D01*
X898113Y355600D02*
X908307D01*
X899841Y345440D02*
X906579D01*
X899160Y354129D02*
Y367594D01*
X894080Y358438D02*
Y364016D01*
X875550Y370840D02*
X880070D01*
X871907Y365760D02*
X883713D01*
X544253Y360680D02*
X922538D01*
X868680Y358438D02*
Y364016D01*
X883920Y356623D02*
Y365603D01*
X872713Y355600D02*
X882907D01*
X874441Y345440D02*
X881179D01*
X873760Y354129D02*
Y367594D01*
X875022Y350520D02*
X880598D01*
X847313Y381000D02*
X856181D01*
X849041Y370840D02*
X854670D01*
X825272Y375920D02*
X829798D01*
X849622D02*
X854148D01*
X848360Y354129D02*
Y369431D01*
X824750Y370840D02*
X830379D01*
X833120Y356623D02*
Y366937D01*
X823239Y381000D02*
X832107D01*
X552011D02*
X805381D01*
X551752Y375920D02*
X803348D01*
X822960Y354129D02*
Y367594D01*
X550516Y370840D02*
X803870D01*
X858520Y356623D02*
Y365603D01*
X844638Y365760D02*
X858313D01*
X863600Y358982D02*
Y363528D01*
X843280Y358438D02*
Y365122D01*
X838200Y358982D02*
Y364579D01*
X849622Y350520D02*
X855198D01*
X847313Y355600D02*
X857507D01*
X849041Y345440D02*
X855779D01*
X824222Y350520D02*
X829798D01*
X823641Y345440D02*
X830379D01*
X821107Y365760D02*
X834782D01*
X817880Y358438D02*
Y364016D01*
X812800Y358982D02*
Y363528D01*
X548151Y365760D02*
X807513D01*
X807720Y356623D02*
Y365603D01*
X537511Y355600D02*
X806707D01*
X821913D02*
X832107D01*
X425000Y350520D02*
X804398D01*
X425000Y345440D02*
X804979D01*
X899628Y344935D02*
X908046Y336516D01*
X904202Y340360D02*
X910982D01*
X894656Y339962D02*
X904098Y330519D01*
X906590Y329484D02*
X922512D01*
X899160Y328516D02*
Y335458D01*
X904240Y328516D02*
Y330385D01*
X883882Y335280D02*
X899338D01*
X888962Y330200D02*
X904463D01*
X883920Y335242D02*
Y341537D01*
X878802Y340360D02*
X885582D01*
X894080Y328516D02*
Y339722D01*
X874228Y344935D02*
X890646Y328516D01*
X921544D01*
X869256Y339962D02*
X886698Y322519D01*
X889000Y330162D02*
Y339179D01*
X904240Y319636D02*
Y321484D01*
X899160Y319636D02*
Y321484D01*
X889190D02*
X923000D01*
X894080Y319636D02*
Y321484D01*
X899160Y303000D02*
Y312604D01*
X894080Y303000D02*
Y312604D01*
X904240Y303000D02*
Y312604D01*
X889000Y319636D02*
Y321489D01*
Y303000D02*
Y312604D01*
X873722Y320040D02*
X941734D01*
X874126Y319636D02*
X941734D01*
X883920D02*
Y325298D01*
X868642Y325120D02*
X884098D01*
X430200Y304800D02*
X1560000D01*
X432000Y303000D02*
X1560000D01*
X872670Y312604D02*
X941734D01*
X425120Y309880D02*
X941734D01*
X853402Y340360D02*
X860182D01*
X858520Y335242D02*
Y341537D01*
X848828Y344935D02*
X874126Y319636D01*
X843856Y339962D02*
X870178Y313640D01*
X868680Y325082D02*
Y339722D01*
X843280Y303000D02*
Y339722D01*
X863600Y330162D02*
Y339179D01*
X819238Y340360D02*
X834782D01*
X838200Y303000D02*
Y339179D01*
X425000Y340360D02*
X809382D01*
X833120Y303000D02*
Y341537D01*
X822960Y303000D02*
Y344030D01*
X817880Y303000D02*
Y339722D01*
X807720Y303000D02*
Y341537D01*
X812800Y303000D02*
Y339179D01*
X878840Y319636D02*
Y330378D01*
X873760Y320002D02*
Y335458D01*
X863562Y330200D02*
X879018D01*
X878840Y303000D02*
Y312604D01*
X873760Y303000D02*
Y312604D01*
X883920Y303000D02*
Y312604D01*
X863600Y303000D02*
Y320218D01*
X868680Y303000D02*
Y315138D01*
X858482Y335280D02*
X873938D01*
X425000Y325120D02*
X858698D01*
X425000Y320040D02*
X863778D01*
X425000Y335280D02*
X848538D01*
X425000Y330200D02*
X853618D01*
X858520Y303000D02*
Y325298D01*
X425000Y314960D02*
X868858D01*
X848360Y303000D02*
Y335458D01*
X853440Y303000D02*
Y330378D01*
X782320Y638766D02*
Y702105D01*
X772160Y638766D02*
Y691945D01*
X767080Y638766D02*
Y686865D01*
X777240Y638766D02*
Y697025D01*
X762000Y638766D02*
Y684365D01*
X746760Y638766D02*
Y684364D01*
X736600Y638766D02*
Y684364D01*
X741680Y638766D02*
Y684364D01*
X684766Y647541D02*
X721589Y684364D01*
X673643Y654847D02*
X714283Y695488D01*
X721360Y638766D02*
Y684135D01*
X675640Y656845D02*
Y682996D01*
X701040Y644266D02*
Y663815D01*
X731520Y638766D02*
Y684364D01*
X726440Y638766D02*
Y684364D01*
X716280Y638766D02*
Y679055D01*
X711200Y638766D02*
Y673975D01*
X706120Y638766D02*
Y668895D01*
X756920Y638766D02*
Y656577D01*
X695960Y644266D02*
Y658735D01*
X751840Y638766D02*
Y656283D01*
X690880Y644266D02*
Y653655D01*
X685800Y644266D02*
Y648575D01*
X711200Y620266D02*
Y631734D01*
X702016Y638766D02*
Y644266D01*
X756920Y620266D02*
Y631734D01*
X702016Y626234D02*
Y631734D01*
X684766Y626234D02*
X702016D01*
X664647Y655320D02*
X674115D01*
X638122Y660400D02*
X679195D01*
X666806Y650240D02*
X671734D01*
X684766Y644266D02*
X702016D01*
X684766D02*
Y647541D01*
Y625766D02*
X702016D01*
X664647Y645160D02*
X671734D01*
X617802Y640080D02*
X671734D01*
X665480Y654358D02*
Y682984D01*
X660400Y657266D02*
Y682678D01*
X655320Y655732D02*
Y677598D01*
X624840Y657062D02*
Y698194D01*
X633042Y655320D02*
X654853D01*
X619760Y651982D02*
Y819580D01*
X614680Y646902D02*
Y815062D01*
X609600Y641822D02*
Y813382D01*
X604520Y636742D02*
Y813533D01*
X602353Y634575D02*
X656758Y688980D01*
X572035Y655320D02*
X623098D01*
X594360Y634575D02*
Y820982D01*
X599440Y634575D02*
Y815581D01*
X589280Y634575D02*
Y995000D01*
X584200Y634575D02*
Y995000D01*
X606301Y628579D02*
X660706Y682984D01*
X574040Y634575D02*
Y995000D01*
X579120Y634575D02*
Y995000D01*
X622882Y645160D02*
X654853D01*
X627962Y650240D02*
X652694D01*
X572035Y645160D02*
X612938D01*
X612722Y635000D02*
X671734D01*
X607642Y629920D02*
X671734D01*
X572035Y640080D02*
X607858D01*
X572035Y650240D02*
X618018D01*
X572035Y635000D02*
X602778D01*
X572035Y636075D02*
Y646043D01*
Y634575D02*
Y636043D01*
Y627543D02*
X603809D01*
X572035Y624840D02*
X671734D01*
X572035Y634575D02*
X602353D01*
X572035Y626075D02*
Y627543D01*
X777240Y620266D02*
Y631734D01*
X772160Y620266D02*
Y631734D01*
X782320Y620266D02*
Y631734D01*
X751840Y620266D02*
Y631734D01*
X767080Y620266D02*
Y631734D01*
X777240Y560016D02*
Y613234D01*
X762000Y620266D02*
Y631734D01*
X782320Y560016D02*
Y613234D01*
X746760Y620266D02*
Y631734D01*
X756920Y558142D02*
Y613234D01*
X736600Y620266D02*
Y631734D01*
X731520Y620266D02*
Y631734D01*
X741680Y620266D02*
Y631734D01*
X721360Y620266D02*
Y631734D01*
X726440Y620266D02*
Y631734D01*
X716280Y620266D02*
Y631734D01*
X706120Y620266D02*
Y631734D01*
Y507342D02*
Y613234D01*
X702016Y620266D02*
Y625766D01*
Y607734D02*
Y613234D01*
X767080Y560016D02*
Y613234D01*
X762000Y560016D02*
Y613234D01*
X772160Y560016D02*
Y613234D01*
X746760Y547982D02*
Y613234D01*
X741680Y542902D02*
Y613234D01*
X751840Y553062D02*
Y613234D01*
X731520Y532742D02*
Y613234D01*
X736600Y537822D02*
Y613234D01*
X726440Y527662D02*
Y613234D01*
X684766Y558800D02*
X757578D01*
X684766Y553720D02*
X752498D01*
X721360Y522582D02*
Y613234D01*
X684766Y607734D02*
X702016D01*
X716280Y517502D02*
Y613234D01*
X683353Y484576D02*
X757758Y558980D01*
X711200Y512422D02*
Y613234D01*
X701040Y502262D02*
Y607734D01*
X671734Y523240D02*
Y650240D01*
X665480Y527358D02*
Y646122D01*
X660400Y530266D02*
Y643214D01*
X629920Y484576D02*
Y652198D01*
X655320Y528732D02*
Y644748D01*
X670560Y484576D02*
Y680487D01*
X650240Y484576D02*
Y672518D01*
X645160Y484576D02*
Y667438D01*
X640080Y484576D02*
Y662358D01*
X635000Y484576D02*
Y657278D01*
X594360Y484576D02*
Y627543D01*
X584200Y484576D02*
Y627543D01*
X599440Y484576D02*
Y627543D01*
X574040Y484576D02*
Y627543D01*
X579120Y484576D02*
Y627543D01*
X624840Y484576D02*
Y647118D01*
X619760Y484576D02*
Y642038D01*
X614680Y484576D02*
Y636958D01*
X609600Y484576D02*
Y631878D01*
X604520Y484576D02*
Y627616D01*
X572035Y614680D02*
X671734D01*
X572035Y619760D02*
X671734D01*
X572035Y609600D02*
X671734D01*
X572035Y616075D02*
Y626043D01*
Y596075D02*
Y606043D01*
X690880Y492102D02*
Y607734D01*
X685800Y487022D02*
Y607734D01*
X695960Y497182D02*
Y607734D01*
X589280Y484576D02*
Y627543D01*
X684766Y523240D02*
Y607734D01*
X572035Y599440D02*
X671734D01*
X572035Y604520D02*
X671734D01*
X572035Y594360D02*
X671734D01*
X572035Y586075D02*
Y596043D01*
Y589280D02*
X671734D01*
X572035Y563880D02*
X671734D01*
X572035Y558800D02*
X671734D01*
X572035Y566075D02*
Y576043D01*
Y546075D02*
Y556043D01*
Y656075D02*
Y666075D01*
X537003Y656075D02*
Y666075D01*
X572035Y646075D02*
Y656043D01*
X537003Y646075D02*
Y656043D01*
Y636075D02*
Y646043D01*
Y624575D02*
Y626043D01*
Y626075D02*
Y636043D01*
Y616075D02*
Y617543D01*
X533400Y624575D02*
Y680012D01*
Y614575D02*
Y617543D01*
X512035Y640080D02*
X537003D01*
X512035Y645160D02*
X537003D01*
X512035Y635000D02*
X537003D01*
X512035Y655320D02*
X537003D01*
X512035Y650240D02*
X537003D01*
X529620Y624840D02*
X537003D01*
X512035Y629920D02*
X537003D01*
X529822Y624575D02*
X537003D01*
X529822Y617543D02*
X537003D01*
X572035Y606075D02*
Y616043D01*
X537003Y606075D02*
Y607543D01*
X529822D02*
X537003D01*
Y614575D02*
Y616043D01*
X529822Y614575D02*
X537003D01*
Y596075D02*
Y597543D01*
Y604575D02*
Y606043D01*
Y594587D02*
Y596043D01*
X533400Y604575D02*
Y607543D01*
Y594587D02*
Y597543D01*
X529745Y614680D02*
X537003D01*
X529822Y597543D02*
X537003D01*
X529822Y604575D02*
X537003D01*
X529822Y594587D02*
X537003D01*
X512035Y646075D02*
Y656043D01*
Y656075D02*
Y666075D01*
Y636075D02*
Y646043D01*
X477003Y656075D02*
Y666075D01*
Y646075D02*
Y656043D01*
X528320Y626036D02*
Y678803D01*
X523240Y626830D02*
Y678569D01*
X512035Y624840D02*
X520261D01*
X512035Y626075D02*
Y636043D01*
Y616075D02*
Y626043D01*
X477003Y636075D02*
Y646043D01*
X425000Y645160D02*
X477003D01*
X425000Y640080D02*
X477003D01*
X425000Y655320D02*
X477003D01*
X425000Y650240D02*
X477003D01*
Y616075D02*
Y626043D01*
Y626075D02*
Y636043D01*
X425000Y624840D02*
X477003D01*
X425000Y635000D02*
X477003D01*
X425000Y629920D02*
X477003D01*
X512035Y614680D02*
X520136D01*
X512035Y609600D02*
X519104D01*
X512035Y619760D02*
X519067D01*
X512035Y606075D02*
Y616043D01*
Y604520D02*
X520020D01*
X512035Y596075D02*
Y606043D01*
Y594360D02*
X519903D01*
X477003Y606075D02*
Y616043D01*
X425000Y609600D02*
X477003D01*
X425000Y604520D02*
X477003D01*
X425000Y619760D02*
X477003D01*
X425000Y614680D02*
X477003D01*
X425000Y599440D02*
X477003D01*
X512035D02*
X519147D01*
X477003Y596075D02*
Y606043D01*
X425000Y594360D02*
X477003D01*
X537003Y586075D02*
Y587555D01*
X529822D02*
X537003D01*
X572035Y584200D02*
X671734D01*
X533400Y584599D02*
Y587555D01*
X537003Y584599D02*
Y586043D01*
X572035Y579120D02*
X671734D01*
X572035Y576075D02*
Y586043D01*
X537003Y576075D02*
Y577567D01*
X533400Y574611D02*
Y577567D01*
X537003Y574611D02*
Y576043D01*
X529822Y584599D02*
X537003D01*
X529822Y577567D02*
X537003D01*
X572035Y568960D02*
X671734D01*
X572035Y574040D02*
X671734D01*
X529822Y567579D02*
X537003D01*
Y566075D02*
Y567579D01*
Y564623D02*
Y566043D01*
X572035Y556075D02*
Y566043D01*
X537003Y556075D02*
Y557591D01*
Y554635D02*
Y556043D01*
X533400Y564623D02*
Y567579D01*
Y554635D02*
Y557591D01*
X529822Y564623D02*
X537003D01*
X529822Y574611D02*
X537003D01*
X529822Y557591D02*
X537003D01*
X529822Y554635D02*
X537003D01*
X512035Y589280D02*
X519198D01*
X512035Y576075D02*
Y586043D01*
X477003Y586075D02*
Y596043D01*
X512035Y586075D02*
Y596043D01*
X518160Y425936D02*
Y679285D01*
X513080Y404881D02*
Y681030D01*
X477003Y576075D02*
Y586043D01*
X467360Y303000D02*
Y995000D01*
X472440Y303000D02*
Y995000D01*
X462280Y427247D02*
Y995000D01*
X457200Y427823D02*
Y995000D01*
X425000Y589280D02*
X477003D01*
X425000Y310000D02*
Y995000D01*
X452120Y422566D02*
Y995000D01*
X441960Y303000D02*
Y995000D01*
X436880Y303000D02*
Y995000D01*
X447040Y303000D02*
Y995000D01*
X426720Y308280D02*
Y995000D01*
X431800Y303200D02*
Y995000D01*
X512035Y574040D02*
X519695D01*
X512035Y584200D02*
X519795D01*
X512035Y568960D02*
X519316D01*
X512035Y579120D02*
X519254D01*
X512035Y566075D02*
Y576043D01*
Y563880D02*
X519602D01*
X512035Y558800D02*
X519385D01*
X512035Y556075D02*
Y566043D01*
Y546075D02*
Y556043D01*
X477003Y566075D02*
Y576043D01*
X425000Y574040D02*
X477003D01*
X425000Y568960D02*
X477003D01*
X425000Y584200D02*
X477003D01*
X425000Y579120D02*
X477003D01*
Y556075D02*
Y566043D01*
Y546075D02*
Y556043D01*
X425000Y563880D02*
X477003D01*
X425000Y558800D02*
X477003D01*
X782320Y505966D02*
Y552984D01*
X777240Y505355D02*
Y552984D01*
X787400Y505883D02*
Y552984D01*
X772160Y504015D02*
Y552984D01*
X684766Y548640D02*
X747418D01*
X762000Y498706D02*
Y552984D01*
X687301Y478579D02*
X761706Y552984D01*
X767080Y501856D02*
Y552984D01*
X756920Y494201D02*
Y548198D01*
X751840Y487396D02*
Y543118D01*
X684766Y538480D02*
X737258D01*
X684766Y543560D02*
X742338D01*
X684766Y533400D02*
X732178D01*
X572035Y543560D02*
X671734D01*
X572035Y538480D02*
X671734D01*
X684766Y523240D02*
X722018D01*
X684766Y528320D02*
X727098D01*
X664647D02*
X671734D01*
X666806Y523240D02*
X671734D01*
X711642Y502920D02*
X769326D01*
X706562Y497840D02*
X760870D01*
X701482Y492760D02*
X755633D01*
X682331Y518160D02*
X716938D01*
X696402Y487680D02*
X752008D01*
X691322Y482600D02*
X749484D01*
X675640Y484576D02*
Y517270D01*
X680720Y484576D02*
Y517210D01*
X572035Y508000D02*
X706778D01*
X572035Y513080D02*
X711858D01*
X572035Y502920D02*
X701698D01*
X664647Y518160D02*
X674169D01*
X572035Y497840D02*
X696618D01*
X572035Y487680D02*
X686458D01*
X572035Y492760D02*
X691538D01*
X572035Y477520D02*
X747834D01*
X572035Y484576D02*
X683353D01*
X572035Y477543D02*
X684809D01*
X572035Y533400D02*
X671734D01*
X572035Y548640D02*
X671734D01*
X572035Y528320D02*
X654853D01*
X572035Y536075D02*
Y546043D01*
Y526075D02*
Y536043D01*
Y553720D02*
X671734D01*
X537003Y546075D02*
Y547603D01*
Y544575D02*
Y546043D01*
X533400Y544575D02*
Y547603D01*
X537003Y536075D02*
Y537543D01*
X572035Y516075D02*
Y526043D01*
X537003Y526075D02*
Y536043D01*
X572035Y523240D02*
X652694D01*
X533400Y524575D02*
Y537543D01*
X537003Y524575D02*
Y526043D01*
X572035Y506075D02*
Y516043D01*
Y518160D02*
X654853D01*
X572035Y486076D02*
Y496044D01*
X537003Y514575D02*
Y516043D01*
X572035Y496076D02*
Y506043D01*
X665480Y484576D02*
Y519122D01*
X655320Y484576D02*
Y517748D01*
X660400Y484576D02*
Y516214D01*
X537003Y476076D02*
Y486044D01*
X572035Y484576D02*
Y486044D01*
X537003Y506075D02*
Y507543D01*
Y516075D02*
Y517543D01*
Y504575D02*
Y506043D01*
X533400Y514575D02*
Y517543D01*
Y504575D02*
Y507543D01*
X537003Y496076D02*
Y497543D01*
Y494576D02*
Y496044D01*
X533400Y494576D02*
Y497543D01*
X537003Y486076D02*
Y487543D01*
X746760Y469897D02*
Y538038D01*
X741680Y303000D02*
Y532958D01*
X736600Y303000D02*
Y527878D01*
X731520Y303000D02*
Y522798D01*
X726440Y303000D02*
Y517718D01*
X721360Y303000D02*
Y512638D01*
X716280Y303000D02*
Y507558D01*
X711200Y303000D02*
Y502478D01*
X706120Y303000D02*
Y497398D01*
X701040Y303000D02*
Y492318D01*
X655320Y303000D02*
Y477543D01*
X650240Y303000D02*
Y477543D01*
X660400Y303000D02*
Y477543D01*
X640080Y303000D02*
Y477543D01*
X645160Y303000D02*
Y477543D01*
X695960Y303000D02*
Y487238D01*
X690880Y303000D02*
Y482158D01*
X685800Y303000D02*
Y477686D01*
X675640Y303000D02*
Y477543D01*
X680720Y303000D02*
Y477543D01*
X751840Y303000D02*
Y449604D01*
X746760Y303000D02*
Y467103D01*
X756920Y303000D02*
Y442799D01*
X665480Y303000D02*
Y477543D01*
X670560Y303000D02*
Y477543D01*
X777240Y303000D02*
Y431645D01*
X772160Y303000D02*
Y432985D01*
X782320Y303000D02*
Y431034D01*
X762000Y303000D02*
Y438294D01*
X767080Y303000D02*
Y435144D01*
X572035Y457200D02*
X748476D01*
X572035Y462280D02*
X747253D01*
X572035Y452120D02*
X750499D01*
X572035Y472440D02*
X746942D01*
X572035Y467360D02*
X746751D01*
X572035Y436880D02*
X764060D01*
X572035Y431800D02*
X776468D01*
X572035Y447040D02*
X753478D01*
X572035Y441960D02*
X757734D01*
X604520Y303000D02*
Y477543D01*
X599440Y303000D02*
Y477543D01*
X609600Y303000D02*
Y477543D01*
X589280Y303000D02*
Y477543D01*
X594360Y303000D02*
Y477543D01*
X629920Y303000D02*
Y477543D01*
X624840Y303000D02*
Y477543D01*
X635000Y303000D02*
Y477543D01*
X614680Y303000D02*
Y477543D01*
X619760Y303000D02*
Y477543D01*
X572035Y466076D02*
Y476044D01*
Y476076D02*
Y477543D01*
Y456076D02*
Y466044D01*
X537003Y466076D02*
Y476044D01*
Y456076D02*
Y466044D01*
X579120Y303000D02*
Y477543D01*
X574040Y303000D02*
Y477543D01*
X584200Y303000D02*
Y477543D01*
X533400Y405899D02*
Y487543D01*
X572035Y446076D02*
Y456044D01*
Y426076D02*
Y436044D01*
Y436076D02*
Y446044D01*
Y416044D02*
Y426044D01*
X543560Y399720D02*
Y416044D01*
X548640Y393097D02*
Y416044D01*
X563880Y303000D02*
Y416044D01*
X558800Y303000D02*
Y416044D01*
X568960Y303000D02*
Y416044D01*
X553720Y303000D02*
Y416044D01*
X548640Y303000D02*
Y366615D01*
X537003Y416044D02*
Y426044D01*
Y426076D02*
Y436044D01*
Y416044D02*
X572035D01*
X537003Y446076D02*
Y456044D01*
Y436076D02*
Y446044D01*
X538480Y403567D02*
Y416044D01*
X543560Y303000D02*
Y359992D01*
X538480Y303000D02*
Y356144D01*
X533400Y303000D02*
Y353812D01*
X529822Y544575D02*
X537003D01*
X529822Y547603D02*
X537003D01*
X529822Y537543D02*
X537003D01*
X529822Y517543D02*
X537003D01*
X529822Y524575D02*
X537003D01*
X528320Y526037D02*
Y536082D01*
X512035Y553720D02*
X519516D01*
X512035Y533400D02*
X537003D01*
X512035Y543560D02*
X519469D01*
X512035Y538480D02*
X519506D01*
X523240Y526830D02*
Y535289D01*
X512035Y528320D02*
X537003D01*
X512035Y518160D02*
X519669D01*
X529822Y507543D02*
X537003D01*
X529822Y514575D02*
X537003D01*
X529822Y504575D02*
X537003D01*
X529822Y494576D02*
X537003D01*
X529822Y497543D02*
X537003D01*
X529822Y487543D02*
X537003D01*
X512035Y487680D02*
X519964D01*
X512035Y508000D02*
X519761D01*
X512035Y497840D02*
X519859D01*
X512035Y467360D02*
X537003D01*
X512035Y472440D02*
X537003D01*
X512035Y462280D02*
X537003D01*
X512035Y482600D02*
X537003D01*
X512035Y477520D02*
X537003D01*
X512035Y536075D02*
Y546043D01*
Y548640D02*
X519459D01*
X512035Y526075D02*
Y536043D01*
X477003Y536075D02*
Y546043D01*
Y526075D02*
Y536043D01*
X512035Y506075D02*
Y516043D01*
Y523240D02*
X519334D01*
X512035Y513080D02*
X519274D01*
X512035Y516075D02*
Y526043D01*
X477003Y506075D02*
Y516043D01*
X425000Y538480D02*
X477003D01*
X425000Y543560D02*
X477003D01*
X425000Y533400D02*
X477003D01*
X425000Y553720D02*
X477003D01*
X425000Y548640D02*
X477003D01*
Y516075D02*
Y526043D01*
X425000Y518160D02*
X477003D01*
X425000Y513080D02*
X477003D01*
X425000Y528320D02*
X477003D01*
X425000Y523240D02*
X477003D01*
X512035Y502920D02*
X519220D01*
X512035Y496076D02*
Y506043D01*
Y492760D02*
X519170D01*
X477003Y496076D02*
Y506043D01*
X512035Y486076D02*
Y496044D01*
Y476076D02*
Y486044D01*
X477003Y486076D02*
Y496044D01*
X512035Y466076D02*
Y476044D01*
X477003Y476076D02*
Y486044D01*
Y466076D02*
Y476044D01*
X425000Y492760D02*
X477003D01*
X425000Y497840D02*
X477003D01*
X425000Y487680D02*
X477003D01*
X425000Y508000D02*
X477003D01*
X425000Y502920D02*
X477003D01*
X425000Y472440D02*
X477003D01*
X425000Y467360D02*
X477003D01*
X425000Y482600D02*
X477003D01*
X425000Y477520D02*
X477003D01*
X528320Y428113D02*
Y486082D01*
X512035Y452120D02*
X537003D01*
X512035Y447040D02*
X537003D01*
X523240Y428969D02*
Y485289D01*
X512035Y446076D02*
Y456044D01*
X532514Y421640D02*
X537003D01*
X530191Y426720D02*
X537003D01*
X531156Y416560D02*
X537003D01*
X512035Y441960D02*
X537003D01*
X512035Y457200D02*
X537003D01*
X512035Y436880D02*
X537003D01*
X512035Y456076D02*
Y466044D01*
Y436076D02*
Y446044D01*
Y426720D02*
X518847D01*
X512035Y431800D02*
X537003D01*
X512035Y421640D02*
X516525D01*
X512035Y426076D02*
Y436044D01*
Y416044D02*
Y426044D01*
X528320Y407108D02*
Y413998D01*
X518160Y406627D02*
Y416175D01*
X523240Y407342D02*
Y413143D01*
X512035Y416560D02*
X517883D01*
X508000Y401861D02*
Y416044D01*
X528320Y303000D02*
Y352603D01*
X518160Y303000D02*
Y353085D01*
X523240Y303000D02*
Y352369D01*
X508000Y303000D02*
Y357850D01*
X513080Y303000D02*
Y354830D01*
X477003Y416044D02*
X512035D01*
X425000Y406400D02*
X517271D01*
X425000Y401320D02*
X507303D01*
X502920Y396903D02*
Y416044D01*
X425000Y396240D02*
X502413D01*
X425000Y355600D02*
X511527D01*
X502920Y303000D02*
Y362809D01*
X425000Y360680D02*
X504785D01*
X477003Y426076D02*
Y436044D01*
Y436076D02*
Y446044D01*
X463131Y426720D02*
X477003D01*
Y456076D02*
Y466044D01*
Y446076D02*
Y456044D01*
Y416044D02*
Y426044D01*
X466027Y421640D02*
X477003D01*
X425000Y447040D02*
X477003D01*
X425000Y452120D02*
X477003D01*
X425000Y441960D02*
X477003D01*
X425000Y462280D02*
X477003D01*
X425000Y457200D02*
X477003D01*
X425000Y431800D02*
X477003D01*
X425000Y436880D02*
X477003D01*
X425000Y426720D02*
X454869D01*
X425000Y421640D02*
X451973D01*
X492760Y303000D02*
Y416044D01*
X487680Y303000D02*
Y416044D01*
X497840Y386590D02*
Y416044D01*
X464484Y416560D02*
X477003D01*
X482600Y303000D02*
Y416044D01*
X477520Y303000D02*
Y416044D01*
X497840Y303000D02*
Y373122D01*
X462280Y303000D02*
Y414753D01*
X457200Y303000D02*
Y414177D01*
X425000Y386080D02*
X497716D01*
X425000Y391160D02*
X499432D01*
X425000Y375920D02*
X497286D01*
X425000Y416560D02*
X453516D01*
X425000Y381000D02*
X497027D01*
X425000Y370840D02*
X498522D01*
X425000Y365760D02*
X500888D01*
X452120Y303000D02*
Y419434D01*
X425000Y310000D02*
X432000Y303000D01*
D11*
X693000Y635250D02*
D03*
Y616750D02*
D03*
D12*
X1258750Y655000D02*
D03*
X1277250D02*
D03*
X1014750Y392320D02*
D03*
X1033250D02*
D03*
X1014750Y366920D02*
D03*
X1033250D02*
D03*
X1014750Y341520D02*
D03*
X1033250D02*
D03*
X1014750Y316120D02*
D03*
X1033250D02*
D03*
X969250Y392320D02*
D03*
X950750D02*
D03*
X969250Y366920D02*
D03*
X950750D02*
D03*
X969250Y341520D02*
D03*
X950750D02*
D03*
X969250Y316120D02*
D03*
X950750D02*
D03*
X652250Y755250D02*
D03*
X633750D02*
D03*
X652250Y708250D02*
D03*
X633750D02*
D03*
X1258750Y706750D02*
D03*
X1277250D02*
D03*
D18*
X1343000Y840000D02*
Y855040D01*
Y840000D02*
X1358040D01*
X1343000Y824960D02*
Y840000D01*
X1327960D02*
X1343000D01*
Y798000D02*
Y813040D01*
Y798000D02*
X1358040D01*
X1327960D02*
X1343000D01*
Y782960D02*
Y798000D01*
Y756000D02*
Y771040D01*
Y756000D02*
X1358040D01*
X1343000Y740960D02*
Y756000D01*
X1327960D02*
X1343000D01*
X1277250Y706750D02*
X1286290D01*
X1277250D02*
Y715790D01*
Y697710D02*
Y706750D01*
X1277250Y655000D02*
Y664040D01*
Y655000D02*
X1286290D01*
X1277250Y645960D02*
Y655000D01*
X1088830Y1138110D02*
X1093870D01*
X1088830D02*
Y1155650D01*
Y1120570D02*
Y1138110D01*
X1217000Y845000D02*
Y851040D01*
X1210960Y845000D02*
X1217000D01*
X1223040D01*
X1217000Y838960D02*
Y845000D01*
X1186000Y635000D02*
Y641040D01*
Y635000D02*
X1192040D01*
X1186000Y628960D02*
Y635000D01*
X1179960D02*
X1186000D01*
X1072840Y725250D02*
Y731290D01*
Y719210D02*
Y725250D01*
X1066800D02*
X1072840D01*
X1097000Y690880D02*
X1103040D01*
X1097000D02*
Y696920D01*
Y684840D02*
Y690880D01*
X1090960D02*
X1097000D01*
X1072840Y725250D02*
X1078880D01*
X982250Y655320D02*
X988290D01*
X982250D02*
Y661360D01*
Y649280D02*
Y655320D01*
X1283000Y540000D02*
X1289040D01*
X1276960D02*
X1283000D01*
Y546040D01*
Y533960D02*
Y540000D01*
X1534000Y492000D02*
Y498040D01*
Y492000D02*
X1540040D01*
X1527960D02*
X1534000D01*
Y485960D02*
Y492000D01*
X1375500Y410250D02*
X1381540D01*
X1375500D02*
Y416290D01*
Y404210D02*
Y410250D01*
X1328500Y411000D02*
X1334540D01*
X1369460Y410250D02*
X1375500D01*
X1328500Y411000D02*
Y417040D01*
X1322460Y411000D02*
X1328500D01*
Y404960D02*
Y411000D01*
X1216960Y531000D02*
X1223000D01*
Y537040D01*
Y531000D02*
X1229040D01*
X1223000Y524960D02*
Y531000D01*
X1124000Y546000D02*
X1130040D01*
X1124000D02*
Y552040D01*
X1117960Y546000D02*
X1124000D01*
Y539960D02*
Y546000D01*
X1082040Y551040D02*
Y557080D01*
Y545000D02*
Y551040D01*
X1076000D02*
X1082040D01*
X1085030Y462000D02*
X1091070D01*
X1085030D02*
Y468040D01*
X1078990Y462000D02*
X1085030D01*
Y455960D02*
Y462000D01*
X1054750D02*
Y468040D01*
Y462000D02*
X1060790D01*
X1048710D02*
X1054750D01*
Y455960D02*
Y462000D01*
X1174640Y349220D02*
Y359260D01*
X1164600Y349220D02*
X1174640D01*
X1184680D01*
X1123840D02*
Y359260D01*
X1098440Y349220D02*
Y359260D01*
X1088400Y349220D02*
X1098440D01*
X1174640Y339180D02*
Y349220D01*
X1123840Y339180D02*
Y349220D01*
X1098440Y339180D02*
Y349220D01*
X898830Y1138110D02*
Y1155650D01*
X893790Y1138110D02*
X898830D01*
Y1120570D02*
Y1138110D01*
X906250Y757000D02*
X912290D01*
X906250D02*
Y763040D01*
X900210Y757000D02*
X906250D01*
Y750960D02*
Y757000D01*
Y721360D02*
Y727400D01*
Y721360D02*
X912290D01*
X900210D02*
X906250D01*
Y715320D02*
Y721360D01*
X875000Y690880D02*
X881040D01*
X875000D02*
Y696920D01*
Y684840D02*
Y690880D01*
X868960D02*
X875000D01*
X827750Y845000D02*
X833790D01*
X821710D02*
X827750D01*
Y851040D01*
Y838960D02*
Y845000D01*
X624710Y755250D02*
X633750D01*
Y764290D01*
Y746210D02*
Y755250D01*
X754000Y663000D02*
X760040D01*
X754000D02*
Y669040D01*
X747960Y663000D02*
X754000D01*
X633750Y708250D02*
Y717290D01*
X624710Y708250D02*
X633750D01*
Y699210D02*
Y708250D01*
X976210Y655320D02*
X982250D01*
X898000Y541000D02*
X904040D01*
X898000D02*
Y547040D01*
Y534960D02*
Y541000D01*
X895000Y631000D02*
Y637040D01*
X888960Y631000D02*
X895000D01*
X901040D01*
X891960Y541000D02*
X898000D01*
X895000Y624960D02*
Y631000D01*
X934410Y476000D02*
X940450D01*
X934410D02*
Y482040D01*
X928370Y476000D02*
X934410D01*
Y469960D02*
Y476000D01*
X795000Y545000D02*
X801040D01*
X795000D02*
Y551040D01*
Y538960D02*
Y545000D01*
X788960D02*
X795000D01*
X880470Y374480D02*
X890510D01*
Y384520D01*
Y364440D02*
Y374480D01*
X865110D02*
Y384520D01*
X890510Y374480D02*
X900550D01*
X865110D02*
X875150D01*
X855070D02*
X865110D01*
Y364440D02*
Y374480D01*
X814310D02*
Y384520D01*
Y374480D02*
X824350D01*
X804270D02*
X814310D01*
Y364440D02*
Y374480D01*
X754000Y656960D02*
Y663000D01*
X659750Y650240D02*
Y656280D01*
Y650240D02*
X665790D01*
X653710D02*
X659750D01*
Y644200D02*
Y650240D01*
Y523240D02*
X665790D01*
X653710D02*
X659750D01*
Y529280D01*
Y517200D02*
Y523240D01*
X452960Y421000D02*
X459000D01*
Y427040D01*
Y414960D02*
Y421000D01*
X465040D01*
X1445000Y611203D02*
X1475000D01*
X1445000Y601203D02*
X1475000D01*
X522711Y581000D02*
X522770Y581059D01*
X522711Y591250D02*
X522901Y591059D01*
D19*
X1368953Y621203D02*
X1445000D01*
X1312750Y565000D02*
X1368953Y621203D01*
X1134000Y565000D02*
X1251250D01*
X1322454Y471204D02*
X1445000D01*
X1273500Y422250D02*
X1322454Y471204D01*
X1174500Y422250D02*
X1273500D01*
X1151250Y445500D02*
X1174500Y422250D01*
X1108000Y445500D02*
X1151250D01*
X1097000Y456500D02*
X1108000Y445500D01*
X554519Y481059D02*
X684809D01*
X760250Y556500D01*
X820000D01*
X554519Y631059D02*
X603809D01*
X659250Y686500D01*
X670750D01*
X1299250Y556750D02*
X1350000D01*
X1091000Y517000D02*
X1129000Y479000D01*
X1091000Y517000D02*
Y632000D01*
X1163320Y603000D02*
Y760680D01*
X948830Y1062170D02*
Y1078110D01*
Y1062170D02*
X983000Y1028000D01*
Y848000D02*
Y1028000D01*
Y848000D02*
X1113000Y718000D01*
Y654000D02*
Y718000D01*
X1091000Y632000D02*
X1113000Y654000D01*
X1008830Y1113830D02*
Y1138110D01*
X999000Y1104000D02*
X1008830Y1113830D01*
X954000Y1104000D02*
X999000D01*
X948830Y1098830D02*
X954000Y1104000D01*
X948830Y1078110D02*
Y1098830D01*
X944220Y1112500D02*
X964500D01*
X928830Y1097110D02*
X944220Y1112500D01*
X964500D02*
X968830Y1116830D01*
X979000Y1109000D02*
X988830Y1118830D01*
X949640Y1109000D02*
X979000D01*
X938830Y1098190D02*
X949640Y1109000D01*
X988830Y1118830D02*
Y1138110D01*
X836500Y643000D02*
X924000D01*
X828750Y635250D02*
X836500Y643000D01*
X693000Y635250D02*
X828750D01*
X938830Y1056650D02*
Y1078110D01*
Y1056650D02*
X969000Y1026480D01*
Y688000D02*
Y1026480D01*
X924000Y643000D02*
X969000Y688000D01*
X693000Y616750D02*
X824750D01*
X843440Y635440D01*
X938830Y1078110D02*
Y1098190D01*
X928830Y1078110D02*
Y1097110D01*
X968830Y1116830D02*
Y1138110D01*
X928830Y1054170D02*
Y1078110D01*
Y1054170D02*
X959000Y1024000D01*
Y697720D02*
Y1024000D01*
X942000Y680720D02*
X959000Y697720D01*
X1104000Y329000D02*
X1112000Y337000D01*
X1058000Y329000D02*
X1104000D01*
X1045480Y341520D02*
X1058000Y329000D01*
X939520Y341520D02*
X950750D01*
X923000Y325000D02*
X939520Y341520D01*
X889190Y325000D02*
X923000D01*
X933000Y342000D02*
Y360280D01*
X924000Y333000D02*
X933000Y342000D01*
X906590Y333000D02*
X924000D01*
X940240Y392320D02*
X950750D01*
X933000Y385080D02*
X940240Y392320D01*
X933000Y366170D02*
Y385080D01*
X939640Y366920D02*
X950750D01*
X933000Y360280D02*
X939640Y366920D01*
X915910Y349080D02*
X933000Y366170D01*
X1033250Y341520D02*
X1045480D01*
X1062756Y374620D02*
X1073040D01*
X1045056Y392320D02*
X1062756Y374620D01*
X1033250Y392320D02*
X1045056D01*
X1033250Y366920D02*
X1037170Y363000D01*
X1086820D01*
X1098440Y374620D01*
X1112000Y337000D02*
Y362780D01*
X1123840Y374620D01*
X1033250Y316120D02*
X1123120D01*
X1137000Y330000D01*
Y362380D01*
X1149240Y374620D01*
X890510Y349080D02*
X906590Y333000D01*
X839710Y349080D02*
X872670Y316120D01*
X865110Y349080D02*
X889190Y325000D01*
X872670Y316120D02*
X950750D01*
X524941Y491059D02*
X554519D01*
X524941Y501059D02*
X554519D01*
X1445046Y491250D02*
X1475000D01*
X1445041Y501245D02*
X1475000D01*
X1445037Y511241D02*
X1475000D01*
X1445032Y521236D02*
X1475000D01*
X1445027Y531231D02*
X1475000D01*
X1445023Y541227D02*
X1475000D01*
X1445018Y551222D02*
X1475000D01*
X1445013Y561217D02*
X1475000D01*
X1445004Y581208D02*
X1475000D01*
X1445000Y591203D02*
X1445000Y591203D01*
X1475000D01*
X652250Y708250D02*
X707750D01*
X652250Y755250D02*
X707750D01*
X524941Y611059D02*
X554519D01*
X524941Y601059D02*
X554519D01*
X524941Y591071D02*
X554507D01*
X524941Y581083D02*
X554496D01*
X524941Y571095D02*
X554484D01*
X524941Y561107D02*
X554472D01*
X524941Y551119D02*
X554460D01*
X524941Y541059D02*
X554519D01*
X524941Y521059D02*
X554519D01*
X524941Y511059D02*
X554519D01*
X524941Y621059D02*
X554519D01*
X1445000Y481204D02*
X1475000D01*
X1124500Y799500D02*
Y928880D01*
Y799500D02*
X1163320Y760680D01*
X1071880Y981500D02*
X1124500Y928880D01*
X888500Y1001000D02*
X903000Y1015500D01*
X666000Y906500D02*
Y917250D01*
X749750Y1001000D01*
X888500D01*
D21*
X1103766Y480484D02*
X1122250Y462000D01*
X1078000Y480484D02*
X1103766D01*
X1144000Y471806D02*
Y481250D01*
X1099000Y526250D02*
X1144000Y481250D01*
X1099000Y526250D02*
Y613000D01*
X1249770Y516020D02*
X1264000Y530250D01*
X1205770Y516020D02*
X1249770D01*
X1258750Y655000D02*
X1264000Y649750D01*
Y530250D02*
Y649750D01*
X1169960Y462000D02*
X1175855Y467895D01*
Y486105D01*
X1205770Y516020D01*
X1157000Y845000D02*
Y913000D01*
X1068830Y1001170D02*
X1157000Y913000D01*
X1068830Y1001170D02*
Y1078110D01*
X1054984Y480734D02*
X1077750D01*
X1054750Y480500D02*
X1054984Y480734D01*
X908320Y650240D02*
X931000Y672920D01*
X811760Y650240D02*
X908320D01*
X790250Y671750D02*
X811760Y650240D01*
X1014750Y440750D02*
X1054250Y480250D01*
X1014750Y392320D02*
Y440750D01*
X1122250Y462000D02*
X1169960D01*
X1014750Y366920D02*
Y392320D01*
Y341520D02*
Y366920D01*
Y316120D02*
Y341520D01*
X969250Y366920D02*
Y392320D01*
Y341520D02*
Y366920D01*
Y316120D02*
Y341520D01*
X963710Y544070D02*
Y655360D01*
X915910Y496270D02*
X963710Y544070D01*
X915910Y476000D02*
Y496270D01*
Y476000D02*
X969250Y422660D01*
Y392320D02*
Y422660D01*
X918830Y915000D02*
Y1078110D01*
Y892250D02*
Y915000D01*
Y892250D02*
X931000Y880080D01*
Y672920D02*
Y880080D01*
X790250Y671750D02*
Y697000D01*
X876390Y710000D02*
X887750Y721360D01*
X781000Y710000D02*
X876390D01*
X761880Y690880D02*
X781000Y710000D01*
X678250Y523240D02*
Y650240D01*
X718890Y690880D01*
X761880D01*
X1258750Y655000D02*
Y706750D01*
X1157000Y808500D02*
X1258750Y706750D01*
X1099000Y613000D02*
X1122680Y636680D01*
Y743440D01*
X1094000Y772120D02*
X1122680Y743440D01*
X1157000Y808500D02*
Y845000D01*
X1094000Y772120D02*
Y914000D01*
Y940760D01*
X1058830Y975930D02*
X1094000Y940760D01*
X1058830Y975930D02*
Y1078110D01*
D22*
X1328500Y481750D02*
D03*
X1375500D02*
D03*
X707750Y708250D02*
D03*
Y755250D02*
D03*
D23*
X1130030Y1108110D02*
D03*
X857630D02*
D03*
X524519Y706056D02*
D03*
Y379856D02*
D03*
Y1032256D02*
D03*
X1475000Y706200D02*
D03*
Y380000D02*
D03*
Y1032400D02*
D03*
D24*
X898830Y1108110D02*
D03*
X1088830D02*
D03*
X524519Y991056D02*
D03*
Y421056D02*
D03*
X1475000Y991200D02*
D03*
Y421200D02*
D03*
D25*
X814310Y349080D02*
D03*
Y374480D02*
D03*
X839710Y349080D02*
D03*
Y374480D02*
D03*
X865110Y349080D02*
D03*
Y374480D02*
D03*
X890510Y349080D02*
D03*
Y374480D02*
D03*
X915910Y349080D02*
D03*
X1073040Y374620D02*
D03*
X1098440Y349220D02*
D03*
Y374620D02*
D03*
X1123840Y349220D02*
D03*
Y374620D02*
D03*
X1149240Y349220D02*
D03*
Y374620D02*
D03*
X1174640Y349220D02*
D03*
Y374620D02*
D03*
D26*
X915910Y374480D02*
D03*
X1073040Y349220D02*
D03*
D27*
X1288000Y798000D02*
D03*
Y756000D02*
D03*
Y840000D02*
D03*
X1343000D02*
D03*
Y756000D02*
D03*
Y798000D02*
D03*
Y940500D02*
D03*
Y898500D02*
D03*
Y982500D02*
D03*
X1288000D02*
D03*
Y898500D02*
D03*
Y940500D02*
D03*
X662500Y870250D02*
D03*
Y912250D02*
D03*
Y828250D02*
D03*
X607500D02*
D03*
Y912250D02*
D03*
Y870250D02*
D03*
D28*
X1312750Y565000D02*
D03*
X1251250D02*
D03*
X1134000D02*
D03*
X1375500Y410250D02*
D03*
X1328500Y411000D02*
D03*
X1097000Y456500D02*
D03*
X820000Y556500D02*
D03*
X670750Y686500D02*
D03*
X1299250Y556750D02*
D03*
X1350000Y556750D02*
D03*
X1283000Y540000D02*
D03*
X1264500D02*
D03*
X1144000Y471806D02*
D03*
X1129000Y479000D02*
D03*
X1077750Y480734D02*
D03*
X1534000Y492000D02*
D03*
X459000Y421000D02*
D03*
X1058830Y1138110D02*
D03*
X1028830D02*
D03*
X1163320Y603000D02*
D03*
X1223000Y531000D02*
D03*
X1186000Y635000D02*
D03*
X1082040Y551040D02*
D03*
X1085030Y462000D02*
D03*
X828750Y635250D02*
D03*
X843440Y635440D02*
D03*
X1018830Y1138110D02*
D03*
X998830D02*
D03*
X978830D02*
D03*
X958830D02*
D03*
X942000Y680720D02*
D03*
X1258750Y655000D02*
D03*
X1475000Y611203D02*
D03*
Y601203D02*
D03*
X915910Y476000D02*
D03*
X963710Y655360D02*
D03*
X918830Y915000D02*
D03*
X908830Y1078110D02*
D03*
X790250Y697000D02*
D03*
X1475000Y591203D02*
D03*
Y581208D02*
D03*
Y561217D02*
D03*
Y551222D02*
D03*
Y541227D02*
D03*
Y531231D02*
D03*
Y521236D02*
D03*
Y511241D02*
D03*
Y501245D02*
D03*
Y491250D02*
D03*
X1088830Y1078110D02*
D03*
X898830D02*
D03*
X524941Y551119D02*
D03*
Y561107D02*
D03*
Y571095D02*
D03*
Y581083D02*
D03*
Y591071D02*
D03*
Y601059D02*
D03*
Y541059D02*
D03*
Y521059D02*
D03*
Y511059D02*
D03*
Y501059D02*
D03*
Y491059D02*
D03*
Y611059D02*
D03*
X678250Y523240D02*
D03*
Y650240D02*
D03*
X887750Y721360D02*
D03*
X1014750Y316120D02*
D03*
X1054750Y480500D02*
D03*
X1258750Y706750D02*
D03*
X1157000Y845000D02*
D03*
X1094000Y914000D02*
D03*
X659750Y650240D02*
D03*
Y523240D02*
D03*
X934410Y476000D02*
D03*
X1217000Y845000D02*
D03*
X827750D02*
D03*
X898000Y541000D02*
D03*
X795000Y545000D02*
D03*
X875000Y690880D02*
D03*
X754000Y663000D02*
D03*
X1072840Y725250D02*
D03*
X1097000Y690880D02*
D03*
X1124000Y546000D02*
D03*
X1054750Y462000D02*
D03*
X982250Y655320D02*
D03*
X906250Y721360D02*
D03*
Y757000D02*
D03*
X895000Y631000D02*
D03*
X524941Y621059D02*
D03*
X1475000Y481204D02*
D03*
X1071880Y981500D02*
D03*
X693000Y635250D02*
D03*
X948830Y1078110D02*
D03*
X903000Y1015500D02*
D03*
D29*
X918830Y1138110D02*
D03*
X908830D02*
D03*
X898830D02*
D03*
X988830D02*
D03*
X978830D02*
D03*
X1068830D02*
D03*
X1058830D02*
D03*
X948830D02*
D03*
X938830D02*
D03*
X928830D02*
D03*
X968830D02*
D03*
X958830D02*
D03*
X1028830D02*
D03*
X1018830D02*
D03*
X1008830D02*
D03*
X998830D02*
D03*
X1048830D02*
D03*
X1038830D02*
D03*
X1088830D02*
D03*
X1078830D02*
D03*
Y1078110D02*
D03*
X1088830D02*
D03*
X1038830D02*
D03*
X1048830D02*
D03*
X998830D02*
D03*
X1008830D02*
D03*
X1018830D02*
D03*
X1028830D02*
D03*
X958830D02*
D03*
X968830D02*
D03*
X928830D02*
D03*
X938830D02*
D03*
X948830D02*
D03*
X1058830D02*
D03*
X1068830D02*
D03*
X978830D02*
D03*
X988830D02*
D03*
X898830D02*
D03*
X908830D02*
D03*
X918830D02*
D03*
D30*
X494519Y991051D02*
D03*
Y981051D02*
D03*
Y971051D02*
D03*
Y961051D02*
D03*
Y951051D02*
D03*
Y941051D02*
D03*
Y931051D02*
D03*
Y921051D02*
D03*
Y911051D02*
D03*
Y901051D02*
D03*
Y891051D02*
D03*
Y881051D02*
D03*
Y871051D02*
D03*
Y861051D02*
D03*
Y851051D02*
D03*
Y841051D02*
D03*
Y831051D02*
D03*
Y821051D02*
D03*
Y811051D02*
D03*
Y801051D02*
D03*
Y791051D02*
D03*
Y781051D02*
D03*
Y771051D02*
D03*
Y761051D02*
D03*
Y751051D02*
D03*
X554519Y661059D02*
D03*
X494519D02*
D03*
X554519Y651059D02*
D03*
X494519D02*
D03*
X554519Y641059D02*
D03*
X494519D02*
D03*
X554519Y631059D02*
D03*
X494519D02*
D03*
X554519Y621059D02*
D03*
X494519D02*
D03*
X554519Y611059D02*
D03*
X494519D02*
D03*
X554519Y601059D02*
D03*
X494519D02*
D03*
X554519Y591059D02*
D03*
X494519D02*
D03*
X554519Y581059D02*
D03*
X494519D02*
D03*
X554519Y571059D02*
D03*
X494519D02*
D03*
X554519Y561059D02*
D03*
X494519D02*
D03*
X554519Y551059D02*
D03*
X494519D02*
D03*
X554519Y541059D02*
D03*
X494519D02*
D03*
X554519Y531059D02*
D03*
X494519D02*
D03*
X554519Y521059D02*
D03*
X494519D02*
D03*
X554519Y511059D02*
D03*
X494519D02*
D03*
X554519Y501059D02*
D03*
X494519D02*
D03*
X554519Y491059D02*
D03*
X494519D02*
D03*
X554519Y481059D02*
D03*
X494519D02*
D03*
X554519Y471059D02*
D03*
X494519D02*
D03*
X554519Y461059D02*
D03*
X494519D02*
D03*
X554519Y451060D02*
D03*
X494519D02*
D03*
X554519Y441060D02*
D03*
X494519D02*
D03*
X554519Y431060D02*
D03*
X494519D02*
D03*
X554519Y421060D02*
D03*
X494519D02*
D03*
X1505000Y991195D02*
D03*
X1445000D02*
D03*
X1505000Y981195D02*
D03*
X1445000D02*
D03*
X1505000Y971195D02*
D03*
X1445000D02*
D03*
X1505000Y961195D02*
D03*
X1445000D02*
D03*
X1505000Y951195D02*
D03*
X1445000D02*
D03*
X1505000Y941195D02*
D03*
X1445000D02*
D03*
X1505000Y931195D02*
D03*
X1445000D02*
D03*
X1505000Y921195D02*
D03*
X1445000D02*
D03*
X1505000Y911195D02*
D03*
X1445000D02*
D03*
X1505000Y901195D02*
D03*
X1445000D02*
D03*
X1505000Y891195D02*
D03*
X1445000D02*
D03*
X1505000Y881195D02*
D03*
X1445000D02*
D03*
X1505000Y871195D02*
D03*
X1445000D02*
D03*
X1505000Y861195D02*
D03*
X1445000D02*
D03*
X1505000Y851195D02*
D03*
X1445000D02*
D03*
X1505000Y841195D02*
D03*
X1445000D02*
D03*
X1505000Y831195D02*
D03*
X1445000D02*
D03*
X1505000Y821196D02*
D03*
X1445000D02*
D03*
X1505000Y811196D02*
D03*
X1445000D02*
D03*
X1505000Y801196D02*
D03*
X1445000D02*
D03*
X1505000Y791196D02*
D03*
X1445000D02*
D03*
X1505000Y781196D02*
D03*
X1445000D02*
D03*
X1505000Y771196D02*
D03*
X1445000D02*
D03*
X1505000Y761196D02*
D03*
X1445000D02*
D03*
X1505000Y751196D02*
D03*
X1445000D02*
D03*
X1505000Y661203D02*
D03*
X1445000D02*
D03*
X1505000Y651203D02*
D03*
X1445000D02*
D03*
X1505000Y641203D02*
D03*
X1445000D02*
D03*
X1505000Y631203D02*
D03*
X1445000D02*
D03*
X1505000Y621203D02*
D03*
X1445000D02*
D03*
X1505000Y611203D02*
D03*
X1445000D02*
D03*
X1505000Y601203D02*
D03*
X1445000D02*
D03*
X1505000Y591203D02*
D03*
X1445000D02*
D03*
X1505000Y581204D02*
D03*
X1445000D02*
D03*
X1505000Y571204D02*
D03*
X1445000D02*
D03*
X1505000Y561204D02*
D03*
X1445000D02*
D03*
X1505000Y551204D02*
D03*
X1445000D02*
D03*
X1505000Y541204D02*
D03*
X1445000D02*
D03*
X1505000Y531204D02*
D03*
X1445000D02*
D03*
X1505000Y521204D02*
D03*
X1445000D02*
D03*
X1505000Y511204D02*
D03*
X1445000D02*
D03*
X1505000Y501204D02*
D03*
X1445000D02*
D03*
X1505000Y491204D02*
D03*
X1445000D02*
D03*
X1505000Y481204D02*
D03*
X1445000D02*
D03*
X1505000Y471204D02*
D03*
X1445000D02*
D03*
X1505000Y461204D02*
D03*
X1445000D02*
D03*
X1505000Y451204D02*
D03*
X1445000D02*
D03*
X1505000Y441204D02*
D03*
X1445000D02*
D03*
X1505000Y431204D02*
D03*
X1445000D02*
D03*
X1505000Y421204D02*
D03*
X1445000D02*
D03*
X554519Y991051D02*
D03*
Y981051D02*
D03*
Y971051D02*
D03*
Y961051D02*
D03*
Y951051D02*
D03*
Y941051D02*
D03*
Y931051D02*
D03*
Y921051D02*
D03*
Y911051D02*
D03*
Y901051D02*
D03*
Y891051D02*
D03*
Y881051D02*
D03*
Y871051D02*
D03*
Y861051D02*
D03*
Y851051D02*
D03*
Y841051D02*
D03*
Y831051D02*
D03*
Y821051D02*
D03*
Y811051D02*
D03*
Y801051D02*
D03*
Y791051D02*
D03*
Y781051D02*
D03*
Y771051D02*
D03*
Y761051D02*
D03*
Y751051D02*
D03*
M02*
