G04 Layer_Color=8388736*
%FSLAX44Y44*%
%MOMM*%
G71*
G01*
G75*
%ADD33R,1.3600X1.3600*%
%ADD34R,1.9600X1.9600*%
%ADD35R,1.4100X0.4600*%
%ADD36O,1.4600X0.3600*%
%ADD37O,0.3600X1.4600*%
%ADD38R,3.0600X4.0600*%
%ADD39R,1.3600X1.3600*%
%ADD40P,1.9233X4X90.0*%
%ADD41C,5.0600*%
%ADD42C,1.1600*%
%ADD43C,2.5600*%
%ADD44C,1.0600*%
%ADD45C,1.5600*%
%ADD46R,1.5600X1.5600*%
%ADD47C,0.0600*%
%ADD48C,1.3700*%
%ADD49C,0.9040*%
%ADD50C,0.7600*%
D33*
X523500Y472250D02*
D03*
X505000D02*
D03*
X523500Y448500D02*
D03*
X505000D02*
D03*
X659750Y650240D02*
D03*
X678250D02*
D03*
X659750Y523240D02*
D03*
X678250D02*
D03*
X771750Y723000D02*
D03*
X790250D02*
D03*
X771750Y697000D02*
D03*
X790250D02*
D03*
X906250Y721360D02*
D03*
X887750D02*
D03*
X906250Y757000D02*
D03*
X887750D02*
D03*
X982250Y655320D02*
D03*
X963750D02*
D03*
X934410Y476000D02*
D03*
X915910D02*
D03*
X1283000Y540000D02*
D03*
X1264500D02*
D03*
X1080750Y429250D02*
D03*
X1099250D02*
D03*
X694000Y454500D02*
D03*
X675500D02*
D03*
X646000D02*
D03*
X627500D02*
D03*
X1300000Y656500D02*
D03*
X1318500D02*
D03*
X1352190D02*
D03*
X1370690D02*
D03*
D34*
X432250Y497500D02*
D03*
Y418500D02*
D03*
Y470000D02*
D03*
Y446000D02*
D03*
X1554750Y418500D02*
D03*
Y497500D02*
D03*
Y446000D02*
D03*
Y470000D02*
D03*
D35*
X459000Y471000D02*
D03*
Y464500D02*
D03*
Y445000D02*
D03*
Y451500D02*
D03*
Y458000D02*
D03*
X1528000Y445000D02*
D03*
Y451500D02*
D03*
Y471000D02*
D03*
Y464500D02*
D03*
Y458000D02*
D03*
D36*
X1056340Y535000D02*
D03*
Y540000D02*
D03*
Y545000D02*
D03*
Y550000D02*
D03*
Y555000D02*
D03*
Y560000D02*
D03*
Y565000D02*
D03*
Y570000D02*
D03*
Y575000D02*
D03*
Y580000D02*
D03*
Y585000D02*
D03*
Y590000D02*
D03*
Y595000D02*
D03*
Y600000D02*
D03*
Y605000D02*
D03*
Y610000D02*
D03*
Y615000D02*
D03*
Y620000D02*
D03*
Y625000D02*
D03*
Y630000D02*
D03*
Y635000D02*
D03*
Y640000D02*
D03*
Y645000D02*
D03*
Y650000D02*
D03*
Y655000D02*
D03*
X1209340D02*
D03*
Y650000D02*
D03*
Y645000D02*
D03*
Y640000D02*
D03*
Y635000D02*
D03*
Y630000D02*
D03*
Y625000D02*
D03*
Y620000D02*
D03*
Y615000D02*
D03*
Y610000D02*
D03*
Y605000D02*
D03*
Y600000D02*
D03*
Y595000D02*
D03*
Y590000D02*
D03*
Y585000D02*
D03*
Y580000D02*
D03*
Y575000D02*
D03*
Y570000D02*
D03*
Y565000D02*
D03*
Y560000D02*
D03*
Y555000D02*
D03*
Y550000D02*
D03*
Y545000D02*
D03*
Y540000D02*
D03*
Y535000D02*
D03*
X929940Y655360D02*
D03*
Y650360D02*
D03*
Y645360D02*
D03*
Y640360D02*
D03*
Y635360D02*
D03*
Y630360D02*
D03*
Y625360D02*
D03*
Y620360D02*
D03*
Y615360D02*
D03*
Y610360D02*
D03*
Y605360D02*
D03*
Y600360D02*
D03*
Y595360D02*
D03*
Y590360D02*
D03*
Y585360D02*
D03*
Y580360D02*
D03*
Y575360D02*
D03*
Y570360D02*
D03*
Y565360D02*
D03*
Y560360D02*
D03*
Y555360D02*
D03*
Y550360D02*
D03*
Y545360D02*
D03*
Y540360D02*
D03*
Y535360D02*
D03*
X776940D02*
D03*
Y540360D02*
D03*
Y545360D02*
D03*
Y550360D02*
D03*
Y555360D02*
D03*
Y560360D02*
D03*
Y565360D02*
D03*
Y570360D02*
D03*
Y575360D02*
D03*
Y580360D02*
D03*
Y585360D02*
D03*
Y590360D02*
D03*
Y595360D02*
D03*
Y600360D02*
D03*
Y605360D02*
D03*
Y610360D02*
D03*
Y615360D02*
D03*
Y620360D02*
D03*
Y625360D02*
D03*
Y630360D02*
D03*
Y635360D02*
D03*
Y640360D02*
D03*
Y645360D02*
D03*
Y650360D02*
D03*
Y655360D02*
D03*
D37*
X1072840Y671500D02*
D03*
X1077840D02*
D03*
X1082840D02*
D03*
X1087840D02*
D03*
X1092840D02*
D03*
X1097840D02*
D03*
X1102840D02*
D03*
X1107840D02*
D03*
X1112840D02*
D03*
X1117840D02*
D03*
X1122840D02*
D03*
X1127840D02*
D03*
X1132840D02*
D03*
X1137840D02*
D03*
X1142840D02*
D03*
X1147840D02*
D03*
X1152840D02*
D03*
X1157840D02*
D03*
X1162840D02*
D03*
X1167840D02*
D03*
X1172840D02*
D03*
X1177840D02*
D03*
X1182840D02*
D03*
X1187840D02*
D03*
X1192840D02*
D03*
Y518500D02*
D03*
X1187840D02*
D03*
X1182840D02*
D03*
X1177840D02*
D03*
X1172840D02*
D03*
X1167840D02*
D03*
X1162840D02*
D03*
X1157840D02*
D03*
X1152840D02*
D03*
X1147840D02*
D03*
X1142840D02*
D03*
X1137840D02*
D03*
X1132840D02*
D03*
X1127840D02*
D03*
X1122840D02*
D03*
X1117840D02*
D03*
X1112840D02*
D03*
X1107840D02*
D03*
X1102840D02*
D03*
X1097840D02*
D03*
X1092840D02*
D03*
X1087840D02*
D03*
X1082840D02*
D03*
X1077840D02*
D03*
X1072840D02*
D03*
X913440Y518860D02*
D03*
X908440D02*
D03*
X903440D02*
D03*
X898440D02*
D03*
X893440D02*
D03*
X888440D02*
D03*
X883440D02*
D03*
X878440D02*
D03*
X873440D02*
D03*
X868440D02*
D03*
X863440D02*
D03*
X858440D02*
D03*
X853440D02*
D03*
X848440D02*
D03*
X843440D02*
D03*
X838440D02*
D03*
X833440D02*
D03*
X828440D02*
D03*
X823440D02*
D03*
X818440D02*
D03*
X813440D02*
D03*
X808440D02*
D03*
X803440D02*
D03*
X798440D02*
D03*
X793440D02*
D03*
Y671860D02*
D03*
X798440D02*
D03*
X803440D02*
D03*
X808440D02*
D03*
X813440D02*
D03*
X818440D02*
D03*
X823440D02*
D03*
X828440D02*
D03*
X833440D02*
D03*
X838440D02*
D03*
X843440D02*
D03*
X848440D02*
D03*
X853440D02*
D03*
X858440D02*
D03*
X863440D02*
D03*
X868440D02*
D03*
X873440D02*
D03*
X878440D02*
D03*
X883440D02*
D03*
X888440D02*
D03*
X893440D02*
D03*
X898440D02*
D03*
X903440D02*
D03*
X908440D02*
D03*
X913440D02*
D03*
D38*
X1094000Y914000D02*
D03*
X1034000D02*
D03*
X919000D02*
D03*
X979000D02*
D03*
X1157000Y845000D02*
D03*
X1217000D02*
D03*
X887750D02*
D03*
X827750D02*
D03*
D39*
X1345000Y575500D02*
D03*
Y557000D02*
D03*
X1072840Y725250D02*
D03*
Y706750D02*
D03*
X1077750Y462234D02*
D03*
Y480734D02*
D03*
X729500Y616750D02*
D03*
Y635250D02*
D03*
X1054750Y462000D02*
D03*
Y480500D02*
D03*
X1122680Y429000D02*
D03*
Y447500D02*
D03*
X1146250Y429250D02*
D03*
Y447750D02*
D03*
X1328500Y411000D02*
D03*
Y429500D02*
D03*
X1375500Y411000D02*
D03*
Y429500D02*
D03*
D40*
X1496291Y619959D02*
D03*
X1483209Y633041D02*
D03*
X1514291Y637959D02*
D03*
X1501209Y651041D02*
D03*
D41*
X1474380Y705610D02*
D03*
Y379410D02*
D03*
Y1031810D02*
D03*
X525630Y704860D02*
D03*
Y378660D02*
D03*
Y1031060D02*
D03*
X857630Y1108110D02*
D03*
X1130030D02*
D03*
D42*
X1474380Y990610D02*
D03*
Y420610D02*
D03*
X525630Y989860D02*
D03*
Y419860D02*
D03*
X1088830Y1108110D02*
D03*
X898830D02*
D03*
D43*
X1288000Y798000D02*
D03*
Y756000D02*
D03*
Y840000D02*
D03*
X1343000D02*
D03*
Y756000D02*
D03*
Y798000D02*
D03*
X1288000Y940500D02*
D03*
Y898500D02*
D03*
Y982500D02*
D03*
X1343000D02*
D03*
Y898500D02*
D03*
Y940500D02*
D03*
X607500Y870250D02*
D03*
Y912250D02*
D03*
Y828250D02*
D03*
X662500D02*
D03*
Y912250D02*
D03*
Y870250D02*
D03*
D44*
X707750Y755250D02*
D03*
Y708250D02*
D03*
X1375500Y481750D02*
D03*
X1328500D02*
D03*
D45*
X1174640Y374620D02*
D03*
Y349220D02*
D03*
X1149240Y374620D02*
D03*
Y349220D02*
D03*
X1123840Y374620D02*
D03*
Y349220D02*
D03*
X1098440Y374620D02*
D03*
Y349220D02*
D03*
X1073040Y374620D02*
D03*
X915910Y349080D02*
D03*
X890510Y374480D02*
D03*
Y349080D02*
D03*
X865110Y374480D02*
D03*
Y349080D02*
D03*
X839710Y374480D02*
D03*
Y349080D02*
D03*
X814310Y374480D02*
D03*
Y349080D02*
D03*
D46*
X1073040Y349220D02*
D03*
X915910Y374480D02*
D03*
D47*
X784000Y469070D02*
D03*
X1204000Y464570D02*
D03*
Y939070D02*
D03*
X784000D02*
D03*
D48*
X1344850Y529750D02*
D03*
X1370250D02*
D03*
X1395650D02*
D03*
X678350Y499250D02*
D03*
X703750D02*
D03*
X729150D02*
D03*
D49*
X1131618Y476573D02*
D03*
X693000Y635250D02*
D03*
X1258750Y655000D02*
D03*
X1085030Y462000D02*
D03*
X1077750Y480734D02*
D03*
X1152500Y531500D02*
D03*
D50*
X948830Y1078110D02*
D03*
X898830D02*
D03*
X908830D02*
D03*
X1088830D02*
D03*
X958830Y1138110D02*
D03*
X978830D02*
D03*
X999250Y1137920D02*
D03*
X1018830Y1138110D02*
D03*
X1028830D02*
D03*
X1058830D02*
D03*
X1525250Y531000D02*
D03*
X1473200Y500614D02*
D03*
Y510614D02*
D03*
Y490614D02*
D03*
Y480614D02*
D03*
Y580614D02*
D03*
X1345000Y557000D02*
D03*
X1473200Y520614D02*
D03*
Y530614D02*
D03*
Y540614D02*
D03*
Y550614D02*
D03*
Y560614D02*
D03*
Y590614D02*
D03*
Y600614D02*
D03*
Y610614D02*
D03*
X1144000Y471806D02*
D03*
X1097500Y467360D02*
D03*
X580750Y434500D02*
D03*
X522250Y499798D02*
D03*
Y509798D02*
D03*
Y519798D02*
D03*
Y539798D02*
D03*
Y549798D02*
D03*
Y559798D02*
D03*
Y569798D02*
D03*
Y579798D02*
D03*
Y589798D02*
D03*
Y599798D02*
D03*
Y609798D02*
D03*
Y619798D02*
D03*
X903000Y1015500D02*
D03*
X1071880Y981500D02*
D03*
X895000Y631000D02*
D03*
X906250Y757000D02*
D03*
Y721360D02*
D03*
X982250Y655320D02*
D03*
X1054750Y462000D02*
D03*
X1124000Y546000D02*
D03*
X1072840Y725250D02*
D03*
X875000Y690880D02*
D03*
X795000Y545000D02*
D03*
X898000Y541000D02*
D03*
X827750Y845000D02*
D03*
X1217000D02*
D03*
X934410Y476000D02*
D03*
X659750Y523240D02*
D03*
Y650240D02*
D03*
X1094000Y914000D02*
D03*
X1157000Y845000D02*
D03*
X1258750Y706750D02*
D03*
X1054750Y480500D02*
D03*
X887750Y721360D02*
D03*
X678250Y650240D02*
D03*
Y523240D02*
D03*
X790250Y697000D02*
D03*
X918830Y915000D02*
D03*
X963710Y655360D02*
D03*
X915910Y476000D02*
D03*
X942000Y680720D02*
D03*
X843440Y635440D02*
D03*
X828750Y635250D02*
D03*
X1082040Y551040D02*
D03*
X1186000Y635000D02*
D03*
X1223000Y531000D02*
D03*
X1163320Y603000D02*
D03*
X1264500Y540000D02*
D03*
X1283000D02*
D03*
X1299250Y556750D02*
D03*
X670750Y686500D02*
D03*
X820000Y556500D02*
D03*
X1328500Y411000D02*
D03*
X1375500Y410250D02*
D03*
X1134000Y565000D02*
D03*
X1251250D02*
D03*
X1312750D02*
D03*
X1054750Y687910D02*
D03*
X627500Y454500D02*
D03*
X1370690Y656500D02*
D03*
X522250Y489750D02*
D03*
X1120250Y571750D02*
D03*
X1014750Y318120D02*
D03*
X752750Y709000D02*
D03*
X1098000Y693250D02*
D03*
M02*
