G04 Layer_Color=16711935*
%FSLAX44Y44*%
%MOMM*%
G71*
G01*
G75*
%ADD33R,1.3600X1.3600*%
%ADD39R,1.3600X1.3600*%
%ADD41C,5.0600*%
%ADD42C,1.1600*%
%ADD43C,2.5600*%
%ADD44C,1.0600*%
%ADD45C,1.5600*%
%ADD46R,1.5600X1.5600*%
%ADD47C,0.0600*%
%ADD48C,1.3700*%
%ADD49C,0.9040*%
%ADD50C,0.7600*%
%ADD51R,3.0600X0.5600*%
%ADD52R,0.5600X3.0600*%
D33*
X1277250Y706750D02*
D03*
X1258750D02*
D03*
X633750Y708250D02*
D03*
X652250D02*
D03*
X633750Y755250D02*
D03*
X652250D02*
D03*
X950250Y318120D02*
D03*
X968750D02*
D03*
X950250Y342770D02*
D03*
X968750D02*
D03*
X950250Y367420D02*
D03*
X968750D02*
D03*
X950250Y392320D02*
D03*
X968750D02*
D03*
X1033250Y318120D02*
D03*
X1014750D02*
D03*
X1033250Y342770D02*
D03*
X1014750D02*
D03*
X1033250Y367420D02*
D03*
X1014750D02*
D03*
X1033250Y392320D02*
D03*
X1014750D02*
D03*
X1277250Y655000D02*
D03*
X1258750D02*
D03*
D39*
X693000Y616750D02*
D03*
Y635250D02*
D03*
D41*
X1474380Y705610D02*
D03*
Y379410D02*
D03*
Y1031810D02*
D03*
X525630Y704860D02*
D03*
Y378660D02*
D03*
Y1031060D02*
D03*
X857630Y1108110D02*
D03*
X1130030D02*
D03*
D42*
X1474380Y990610D02*
D03*
Y420610D02*
D03*
X525630Y989860D02*
D03*
Y419860D02*
D03*
X1088830Y1108110D02*
D03*
X898830D02*
D03*
D43*
X1288000Y798000D02*
D03*
Y756000D02*
D03*
Y840000D02*
D03*
X1343000D02*
D03*
Y756000D02*
D03*
Y798000D02*
D03*
X1288000Y940500D02*
D03*
Y898500D02*
D03*
Y982500D02*
D03*
X1343000D02*
D03*
Y898500D02*
D03*
Y940500D02*
D03*
X607500Y870250D02*
D03*
Y912250D02*
D03*
Y828250D02*
D03*
X662500D02*
D03*
Y912250D02*
D03*
Y870250D02*
D03*
D44*
X707750Y755250D02*
D03*
Y708250D02*
D03*
X1375500Y481750D02*
D03*
X1328500D02*
D03*
D45*
X1174640Y374620D02*
D03*
Y349220D02*
D03*
X1149240Y374620D02*
D03*
Y349220D02*
D03*
X1123840Y374620D02*
D03*
Y349220D02*
D03*
X1098440Y374620D02*
D03*
Y349220D02*
D03*
X1073040Y374620D02*
D03*
X915910Y349080D02*
D03*
X890510Y374480D02*
D03*
Y349080D02*
D03*
X865110Y374480D02*
D03*
Y349080D02*
D03*
X839710Y374480D02*
D03*
Y349080D02*
D03*
X814310Y374480D02*
D03*
Y349080D02*
D03*
D46*
X1073040Y349220D02*
D03*
X915910Y374480D02*
D03*
D47*
X784000Y469070D02*
D03*
X1204000Y464570D02*
D03*
Y939070D02*
D03*
X784000D02*
D03*
D48*
X1344850Y529750D02*
D03*
X1370250D02*
D03*
X1395650D02*
D03*
X678350Y499250D02*
D03*
X703750D02*
D03*
X729150D02*
D03*
D49*
X1131618Y476573D02*
D03*
X693000Y635250D02*
D03*
X1258750Y655000D02*
D03*
X1085030Y462000D02*
D03*
X1077750Y480734D02*
D03*
X1152500Y531500D02*
D03*
D50*
X948830Y1078110D02*
D03*
X898830D02*
D03*
X908830D02*
D03*
X1088830D02*
D03*
X958830Y1138110D02*
D03*
X978830D02*
D03*
X999250Y1137920D02*
D03*
X1018830Y1138110D02*
D03*
X1028830D02*
D03*
X1058830D02*
D03*
X1525250Y531000D02*
D03*
X1473200Y500614D02*
D03*
Y510614D02*
D03*
Y490614D02*
D03*
Y480614D02*
D03*
Y580614D02*
D03*
X1345000Y557000D02*
D03*
X1473200Y520614D02*
D03*
Y530614D02*
D03*
Y540614D02*
D03*
Y550614D02*
D03*
Y560614D02*
D03*
Y590614D02*
D03*
Y600614D02*
D03*
Y610614D02*
D03*
X1144000Y471806D02*
D03*
X1097500Y467360D02*
D03*
X580750Y434500D02*
D03*
X522250Y499798D02*
D03*
Y509798D02*
D03*
Y519798D02*
D03*
Y539798D02*
D03*
Y549798D02*
D03*
Y559798D02*
D03*
Y569798D02*
D03*
Y579798D02*
D03*
Y589798D02*
D03*
Y599798D02*
D03*
Y609798D02*
D03*
Y619798D02*
D03*
X903000Y1015500D02*
D03*
X1071880Y981500D02*
D03*
X895000Y631000D02*
D03*
X906250Y757000D02*
D03*
Y721360D02*
D03*
X982250Y655320D02*
D03*
X1054750Y462000D02*
D03*
X1124000Y546000D02*
D03*
X1072840Y725250D02*
D03*
X875000Y690880D02*
D03*
X795000Y545000D02*
D03*
X898000Y541000D02*
D03*
X827750Y845000D02*
D03*
X1217000D02*
D03*
X934410Y476000D02*
D03*
X659750Y523240D02*
D03*
Y650240D02*
D03*
X1094000Y914000D02*
D03*
X1157000Y845000D02*
D03*
X1258750Y706750D02*
D03*
X1054750Y480500D02*
D03*
X887750Y721360D02*
D03*
X678250Y650240D02*
D03*
Y523240D02*
D03*
X790250Y697000D02*
D03*
X918830Y915000D02*
D03*
X963710Y655360D02*
D03*
X915910Y476000D02*
D03*
X942000Y680720D02*
D03*
X843440Y635440D02*
D03*
X828750Y635250D02*
D03*
X1082040Y551040D02*
D03*
X1186000Y635000D02*
D03*
X1223000Y531000D02*
D03*
X1163320Y603000D02*
D03*
X1264500Y540000D02*
D03*
X1283000D02*
D03*
X1299250Y556750D02*
D03*
X670750Y686500D02*
D03*
X820000Y556500D02*
D03*
X1328500Y411000D02*
D03*
X1375500Y410250D02*
D03*
X1134000Y565000D02*
D03*
X1251250D02*
D03*
X1312750D02*
D03*
X1054750Y687910D02*
D03*
X627500Y454500D02*
D03*
X1370690Y656500D02*
D03*
X522250Y489750D02*
D03*
X1120250Y571750D02*
D03*
X1014750Y318120D02*
D03*
X752750Y709000D02*
D03*
X1098000Y693250D02*
D03*
D51*
X1444380Y850605D02*
D03*
X1504380Y960605D02*
D03*
X1444380Y940605D02*
D03*
Y950605D02*
D03*
X1504380D02*
D03*
Y860605D02*
D03*
Y880605D02*
D03*
Y920605D02*
D03*
X1444380Y870605D02*
D03*
Y880605D02*
D03*
X1504380Y940605D02*
D03*
X1444380Y900605D02*
D03*
X1504380Y890605D02*
D03*
Y870605D02*
D03*
X1444380Y930605D02*
D03*
Y920605D02*
D03*
X1504380Y910605D02*
D03*
X1444380Y890605D02*
D03*
Y860605D02*
D03*
X1504380Y900605D02*
D03*
Y930605D02*
D03*
X1444380Y910605D02*
D03*
X1504380Y850605D02*
D03*
X1444380Y960605D02*
D03*
Y990605D02*
D03*
X1504380Y970605D02*
D03*
X1444380Y980605D02*
D03*
Y970605D02*
D03*
X1504380Y990605D02*
D03*
Y980605D02*
D03*
X1444380Y520614D02*
D03*
X1504380Y430614D02*
D03*
Y530614D02*
D03*
Y840605D02*
D03*
X1444380D02*
D03*
Y500614D02*
D03*
X1504380Y510614D02*
D03*
Y830605D02*
D03*
Y420614D02*
D03*
Y810605D02*
D03*
Y820605D02*
D03*
X1444380Y630614D02*
D03*
Y620614D02*
D03*
Y570614D02*
D03*
X1504380Y550614D02*
D03*
Y590614D02*
D03*
Y580614D02*
D03*
X1444380Y590614D02*
D03*
Y580614D02*
D03*
Y540614D02*
D03*
X1504380Y570614D02*
D03*
Y560614D02*
D03*
X1444380Y550614D02*
D03*
Y820605D02*
D03*
Y810605D02*
D03*
Y430614D02*
D03*
X1504380Y490614D02*
D03*
X1444380Y530614D02*
D03*
Y440614D02*
D03*
Y560614D02*
D03*
X1504380Y540614D02*
D03*
Y620614D02*
D03*
X1444380Y420614D02*
D03*
Y830605D02*
D03*
Y510614D02*
D03*
Y460614D02*
D03*
X1504380Y440614D02*
D03*
Y450614D02*
D03*
Y480614D02*
D03*
Y460614D02*
D03*
Y470614D02*
D03*
Y500614D02*
D03*
X1444380Y490614D02*
D03*
X1504380Y520614D02*
D03*
X1444380Y470614D02*
D03*
Y450614D02*
D03*
Y480614D02*
D03*
Y610614D02*
D03*
X1504380D02*
D03*
X1444380Y600614D02*
D03*
X1504380D02*
D03*
Y750606D02*
D03*
Y760606D02*
D03*
Y640613D02*
D03*
Y650613D02*
D03*
X1444380D02*
D03*
Y660613D02*
D03*
Y640613D02*
D03*
Y760606D02*
D03*
Y750606D02*
D03*
X1504380Y660613D02*
D03*
X1444380Y780606D02*
D03*
Y790606D02*
D03*
X1504380D02*
D03*
Y800605D02*
D03*
X1444380D02*
D03*
Y770606D02*
D03*
X1504380Y780606D02*
D03*
Y770606D02*
D03*
Y630614D02*
D03*
X495630Y849855D02*
D03*
X555630Y959855D02*
D03*
X495630Y939855D02*
D03*
Y949855D02*
D03*
X555630D02*
D03*
Y859855D02*
D03*
Y879855D02*
D03*
Y919855D02*
D03*
X495630Y869855D02*
D03*
Y879855D02*
D03*
X555630Y939855D02*
D03*
X495630Y899855D02*
D03*
X555630Y889855D02*
D03*
Y869855D02*
D03*
X495630Y929855D02*
D03*
Y919855D02*
D03*
X555630Y909855D02*
D03*
X495630Y889855D02*
D03*
Y859855D02*
D03*
X555630Y899855D02*
D03*
Y929855D02*
D03*
X495630Y909855D02*
D03*
X555630Y849855D02*
D03*
X495630Y959855D02*
D03*
Y989855D02*
D03*
X555630Y969855D02*
D03*
X495630Y979855D02*
D03*
Y969855D02*
D03*
X555630Y989855D02*
D03*
Y979855D02*
D03*
X495630Y519864D02*
D03*
X555630Y429864D02*
D03*
Y529864D02*
D03*
Y839855D02*
D03*
X495630D02*
D03*
Y499864D02*
D03*
X555630Y509864D02*
D03*
Y829855D02*
D03*
Y419864D02*
D03*
Y809855D02*
D03*
Y819855D02*
D03*
X495630Y629864D02*
D03*
Y619864D02*
D03*
Y569864D02*
D03*
X555630Y549864D02*
D03*
Y589864D02*
D03*
Y579864D02*
D03*
X495630Y589864D02*
D03*
Y579864D02*
D03*
Y539864D02*
D03*
X555630Y569864D02*
D03*
Y559864D02*
D03*
X495630Y549864D02*
D03*
Y819855D02*
D03*
Y809855D02*
D03*
Y429864D02*
D03*
X555630Y489864D02*
D03*
X495630Y529864D02*
D03*
Y439864D02*
D03*
Y559864D02*
D03*
X555630Y539864D02*
D03*
Y619864D02*
D03*
X495630Y419864D02*
D03*
Y829855D02*
D03*
Y509864D02*
D03*
Y459864D02*
D03*
X555630Y439864D02*
D03*
Y449864D02*
D03*
Y479864D02*
D03*
Y459864D02*
D03*
Y469864D02*
D03*
Y499864D02*
D03*
X495630Y489864D02*
D03*
X555630Y519864D02*
D03*
X495630Y469864D02*
D03*
Y449864D02*
D03*
Y479864D02*
D03*
Y609864D02*
D03*
X555630D02*
D03*
X495630Y599864D02*
D03*
X555630D02*
D03*
Y749856D02*
D03*
Y759856D02*
D03*
Y639864D02*
D03*
Y649863D02*
D03*
X495630D02*
D03*
Y659863D02*
D03*
Y639864D02*
D03*
Y759856D02*
D03*
Y749856D02*
D03*
X555630Y659863D02*
D03*
X495630Y779856D02*
D03*
Y789855D02*
D03*
X555630D02*
D03*
Y799855D02*
D03*
X495630D02*
D03*
Y769856D02*
D03*
X555630Y779856D02*
D03*
Y769856D02*
D03*
Y629864D02*
D03*
D52*
X918830Y1078110D02*
D03*
X908830D02*
D03*
X898830D02*
D03*
X988830D02*
D03*
X978830D02*
D03*
X1068830D02*
D03*
X1058830D02*
D03*
X948830D02*
D03*
X938830D02*
D03*
X928830D02*
D03*
X968830D02*
D03*
X958830D02*
D03*
X1028830D02*
D03*
X1018830D02*
D03*
X1008830D02*
D03*
X998830D02*
D03*
X1048830D02*
D03*
X1038830D02*
D03*
X1088830D02*
D03*
X1078830D02*
D03*
Y1138110D02*
D03*
X1088830D02*
D03*
X1038830D02*
D03*
X1048830D02*
D03*
X998830D02*
D03*
X1008830D02*
D03*
X1018830D02*
D03*
X1028830D02*
D03*
X958830D02*
D03*
X968830D02*
D03*
X928830D02*
D03*
X938830D02*
D03*
X948830D02*
D03*
X1058830D02*
D03*
X1068830D02*
D03*
X978830D02*
D03*
X988830D02*
D03*
X898830D02*
D03*
X908830D02*
D03*
X918830D02*
D03*
M02*
