M48
;Layer_Color=9474304
;FILE_FORMAT=4:4
METRIC,LZ
;TYPE=PLATED
T1F00S00C0.4000
T2F00S00C0.6000
T3F00S00C0.9000
T4F00S00C1.8000
T5F00S00C2.3000
;TYPE=NON_PLATED
T6F00S00C1.1000
T7F00S00C4.0000
%
T01
X0101475Y0031612
X013285Y00411
X013755Y0041025
X01475Y00481204
Y0049125
Y00501245
Y00511241
Y00521236
Y00531231
Y00541227
Y00551222
Y00561217
Y00581208
Y00591203
Y00601203
Y00611203
X01534Y00492
X0135Y0055675
X0131275Y00565
X0129925Y0055675
X01283Y0054
X012645
X0125125Y00565
X01223Y00531
X0125875Y00655
Y0070675
X01186Y00635
X0116332Y00603
X01134Y00565
X01124Y00546
X0108204Y0055104
X0107775Y00480734
X0105475Y004805
Y00462
X0108503
X01097Y004565
X01129Y00479
X01144Y00471806
X0093441Y00476
X0091591
X00898Y00541
X00895Y00631
X0084344Y0063544
X0082875Y0063525
X0082Y005565
X00795Y00545
X00875Y0069088
X0088775Y0072136
X0090625
Y00757
X00942Y0068072
X0096371Y0065536
X0098225Y0065532
X01097Y0069088
X0107284Y0072525
X0079025Y00697
X00754Y00663
X0067825Y0065024
X0065975
X0067075Y006865
X00693Y0063525
X0067825Y0052324
X0065975
X00524941Y00521059
Y00511059
Y00501059
Y00491059
Y00541059
Y00551119
Y00561107
Y00571095
Y00581083
Y00591071
Y00601059
Y00611059
Y00621059
X00459Y00421
X0082775Y00845
X0091883Y00915
X00903Y010155
X0089883Y0107811
X0090883
X0094883
X0095883Y0113811
X0097883
X0099883
X0101883
X0102883
X0105883
X0108883Y0107811
X0107188Y009815
X01094Y00914
X01157Y00845
X01217
T02
X013285Y0048175
X013755
X0070775Y0070825
Y0075525
T03
X0081431Y0034908
Y0037448
X0083971
Y0034908
X0086511
Y0037448
X0089051
Y0034908
X0091591
Y0037448
X0107304Y0037462
Y0034922
X0109844
Y0037462
X0112384
Y0034922
X0114924
Y0037462
X0117464
Y0034922
T04
X01288Y00756
X01343
X006625Y0082825
Y0087025
Y0091225
X006075
Y0087025
Y0082825
X01288Y0084
Y00798
X01343
Y0084
Y008985
Y009405
Y009825
X01288
Y009405
Y008985
T05
X00524519Y00379856
X01475Y0038
Y007062
X00524519Y00706056
Y01032256
X0085763Y0110811
X0113003
X01475Y010324
T06
X01475Y004212
X00524519Y00421056
Y00991056
X0089883Y0110811
X0108883
X01475Y009912
T07
X0121945Y0046457
X00784Y0046907
Y0093907
X01204
M30
