G04 Layer_Color=32896*
%FSLAX44Y44*%
%MOMM*%
G71*
G01*
G75*
%ADD18C,0.2540*%
%ADD19C,0.2000*%
D18*
X701362Y653494D02*
Y668729D01*
X693745D01*
X691205Y666190D01*
Y661112D01*
X693745Y658572D01*
X701362D01*
X696284D02*
X691205Y653494D01*
X686127D02*
X681049D01*
X683588D01*
Y668729D01*
X686127Y666190D01*
X663274Y653494D02*
X673431D01*
X663274Y663651D01*
Y666190D01*
X665814Y668729D01*
X670892D01*
X673431Y666190D01*
X1333696Y358687D02*
X1336235Y356147D01*
Y351069D01*
X1333696Y348530D01*
X1323539D01*
X1321000Y351069D01*
Y356147D01*
X1323539Y358687D01*
X1321000Y373922D02*
Y363765D01*
X1331157Y373922D01*
X1333696D01*
X1336235Y371383D01*
Y366304D01*
X1333696Y363765D01*
X1321000Y386618D02*
X1336235D01*
X1328618Y379000D01*
Y389157D01*
X1380196Y361907D02*
X1382735Y359367D01*
Y354289D01*
X1380196Y351750D01*
X1370039D01*
X1367500Y354289D01*
Y359367D01*
X1370039Y361907D01*
X1367500Y377142D02*
Y366985D01*
X1377657Y377142D01*
X1380196D01*
X1382735Y374603D01*
Y369524D01*
X1380196Y366985D01*
Y382220D02*
X1382735Y384759D01*
Y389838D01*
X1380196Y392377D01*
X1377657D01*
X1375117Y389838D01*
Y387299D01*
Y389838D01*
X1372578Y392377D01*
X1370039D01*
X1367500Y389838D01*
Y384759D01*
X1370039Y382220D01*
X608843Y713736D02*
X611382Y716275D01*
X616461D01*
X619000Y713736D01*
Y703579D01*
X616461Y701040D01*
X611382D01*
X608843Y703579D01*
X593608Y701040D02*
X603765D01*
X593608Y711197D01*
Y713736D01*
X596147Y716275D01*
X601226D01*
X603765Y713736D01*
X578373Y701040D02*
X588530D01*
X578373Y711197D01*
Y713736D01*
X580912Y716275D01*
X585991D01*
X588530Y713736D01*
X608843Y761696D02*
X611382Y764235D01*
X616461D01*
X619000Y761696D01*
Y751539D01*
X616461Y749000D01*
X611382D01*
X608843Y751539D01*
X593608Y749000D02*
X603765D01*
X593608Y759157D01*
Y761696D01*
X596147Y764235D01*
X601226D01*
X603765Y761696D01*
X588530Y749000D02*
X583451D01*
X585991D01*
Y764235D01*
X588530Y761696D01*
X1275115Y686242D02*
X1277654Y688781D01*
X1282733D01*
X1285272Y686242D01*
Y676085D01*
X1282733Y673546D01*
X1277654D01*
X1275115Y676085D01*
X1259880Y688781D02*
X1264959Y686242D01*
X1270037Y681163D01*
Y676085D01*
X1267498Y673546D01*
X1262419D01*
X1259880Y676085D01*
Y678624D01*
X1262419Y681163D01*
X1270037D01*
X1275083Y738120D02*
X1277623Y740659D01*
X1282701D01*
X1285240Y738120D01*
Y727963D01*
X1282701Y725424D01*
X1277623D01*
X1275083Y727963D01*
X1259848Y725424D02*
X1270005D01*
X1259848Y735581D01*
Y738120D01*
X1262387Y740659D01*
X1267466D01*
X1270005Y738120D01*
X845500Y1041485D02*
X835343Y1026250D01*
Y1041485D02*
X845500Y1026250D01*
X830265Y1038946D02*
X827726Y1041485D01*
X822647D01*
X820108Y1038946D01*
Y1036407D01*
X822647Y1033867D01*
X825187D01*
X822647D01*
X820108Y1031328D01*
Y1028789D01*
X822647Y1026250D01*
X827726D01*
X830265Y1028789D01*
X1523238Y1089655D02*
X1513081Y1074420D01*
Y1089655D02*
X1523238Y1074420D01*
X1500385D02*
Y1089655D01*
X1508003Y1082038D01*
X1497846D01*
X510000Y1090235D02*
X499843Y1075000D01*
Y1090235D02*
X510000Y1075000D01*
X484608Y1090235D02*
X494765D01*
Y1082617D01*
X489687Y1085157D01*
X487147D01*
X484608Y1082617D01*
Y1077539D01*
X487147Y1075000D01*
X492226D01*
X494765Y1077539D01*
D19*
X683000Y607250D02*
X703000D01*
X683000D02*
Y644750D01*
X703000D01*
Y607250D02*
Y644750D01*
X1286750Y645000D02*
Y665000D01*
X1249250Y645000D02*
X1286750D01*
X1249250D02*
Y665000D01*
X1286750D01*
X1042750Y382320D02*
Y402320D01*
X1005250Y382320D02*
X1042750D01*
X1005250D02*
Y402320D01*
X1042750D01*
Y356920D02*
Y376920D01*
X1005250Y356920D02*
X1042750D01*
X1005250D02*
Y376920D01*
X1042750D01*
Y331520D02*
Y351520D01*
X1005250Y331520D02*
X1042750D01*
X1005250D02*
Y351520D01*
X1042750D01*
Y306120D02*
Y326120D01*
X1005250Y306120D02*
X1042750D01*
X1005250D02*
Y326120D01*
X1042750D01*
X941250Y382320D02*
Y402320D01*
X978750D01*
Y382320D02*
Y402320D01*
X941250Y382320D02*
X978750D01*
X941250Y356920D02*
Y376920D01*
X978750D01*
Y356920D02*
Y376920D01*
X941250Y356920D02*
X978750D01*
X941250Y331520D02*
Y351520D01*
X978750D01*
Y331520D02*
Y351520D01*
X941250Y331520D02*
X978750D01*
X941250Y306120D02*
Y326120D01*
X978750D01*
Y306120D02*
Y326120D01*
X941250Y306120D02*
X978750D01*
X624250Y745250D02*
Y765250D01*
X661750D01*
Y745250D02*
Y765250D01*
X624250Y745250D02*
X661750D01*
X624250Y698250D02*
Y718250D01*
X661750D01*
Y698250D02*
Y718250D01*
X624250Y698250D02*
X661750D01*
X1318500Y401500D02*
X1338500D01*
X1318500D02*
Y439000D01*
X1338500D01*
Y401500D02*
Y439000D01*
X1365500Y401500D02*
X1385500D01*
X1365500D02*
Y439000D01*
X1385500D01*
Y401500D02*
Y439000D01*
X1286750Y696750D02*
Y716750D01*
X1249250Y696750D02*
X1286750D01*
X1249250D02*
Y716750D01*
X1286750D01*
M02*
