G04 Layer_Color=32768*
%FSLAX44Y44*%
%MOMM*%
G71*
G01*
G75*
%ADD33C,0.1000*%
%ADD53C,0.0500*%
D33*
X1161000Y462000D02*
X1171000D01*
X1166000Y457000D02*
Y467000D01*
X1139000Y462000D02*
X1149000D01*
X1144000Y457000D02*
Y467000D01*
X1105000Y423000D02*
Y433000D01*
X1100000Y428000D02*
X1110000D01*
X1062000Y471000D02*
X1072000D01*
X1067000Y466000D02*
Y476000D01*
X688000Y626000D02*
X698000D01*
X693000Y621000D02*
Y631000D01*
X724500Y626000D02*
X734500D01*
X729500Y621000D02*
Y631000D01*
X1499000Y556000D02*
Y566000D01*
X1494000Y561000D02*
X1504000D01*
X1524000Y556000D02*
Y566000D01*
X1519000Y561000D02*
X1529000D01*
X1273750Y535000D02*
Y545000D01*
X1268750Y540000D02*
X1278750D01*
X1268000Y650000D02*
Y660000D01*
X1263000Y655000D02*
X1273000D01*
X1024000Y387320D02*
Y397320D01*
X1019000Y392320D02*
X1029000D01*
X1024000Y361920D02*
Y371920D01*
X1019000Y366920D02*
X1029000D01*
X1024000Y336520D02*
Y346520D01*
X1019000Y341520D02*
X1029000D01*
X1024000Y311120D02*
Y321120D01*
X1019000Y316120D02*
X1029000D01*
X960000Y387320D02*
Y397320D01*
X955000Y392320D02*
X965000D01*
X960000Y361920D02*
Y371920D01*
X955000Y366920D02*
X965000D01*
X960000Y336520D02*
Y346520D01*
X955000Y341520D02*
X965000D01*
X960000Y311120D02*
Y321120D01*
X955000Y316120D02*
X965000D01*
X1085000Y471234D02*
X1095000D01*
X1090000Y466234D02*
Y476234D01*
X925160Y471000D02*
Y481000D01*
X920160Y476000D02*
X930160D01*
X973000Y650320D02*
Y660320D01*
X968000Y655320D02*
X978000D01*
X643000Y750250D02*
Y760250D01*
X638000Y755250D02*
X648000D01*
X643000Y703250D02*
Y713250D01*
X638000Y708250D02*
X648000D01*
X1323500Y420250D02*
X1333500D01*
X1328500Y415250D02*
Y425250D01*
X1370500Y420250D02*
X1380500D01*
X1375500Y415250D02*
Y425250D01*
X897000Y752000D02*
Y762000D01*
X892000Y757000D02*
X902000D01*
X897000Y716360D02*
Y726360D01*
X892000Y721360D02*
X902000D01*
X781000Y692000D02*
Y702000D01*
X776000Y697000D02*
X786000D01*
X781000Y718000D02*
Y728000D01*
X776000Y723000D02*
X786000D01*
X853440Y590360D02*
Y600360D01*
X848440Y595360D02*
X858440D01*
X669000Y518240D02*
Y528240D01*
X664000Y523240D02*
X674000D01*
X1067840Y716000D02*
X1077840D01*
X1072840Y711000D02*
Y721000D01*
X1345000Y566000D02*
X1355000D01*
X1350000Y561000D02*
Y571000D01*
X669000Y645240D02*
Y655240D01*
X664000Y650240D02*
X674000D01*
X554000Y474500D02*
X564000D01*
X559000Y469500D02*
Y479500D01*
X554000Y446880D02*
X564000D01*
X559000Y441880D02*
Y451880D01*
X1132840Y590000D02*
Y600000D01*
X1127840Y595000D02*
X1137840D01*
X1268000Y701750D02*
Y711750D01*
X1263000Y706750D02*
X1273000D01*
D53*
X1175000Y443750D02*
Y480250D01*
X1157000Y443750D02*
Y480250D01*
X1175000D01*
X1157000Y443750D02*
X1175000D01*
X1153000D02*
Y480250D01*
X1135000Y443750D02*
Y480250D01*
X1153000D01*
X1135000Y443750D02*
X1153000D01*
X1086750Y419000D02*
X1123250D01*
X1086750Y437000D02*
X1123250D01*
Y419000D02*
Y437000D01*
X1086750Y419000D02*
Y437000D01*
X1076000Y452750D02*
Y489250D01*
X1058000Y452750D02*
Y489250D01*
X1076000D01*
X1058000Y452750D02*
X1076000D01*
X684000Y607750D02*
Y644250D01*
X702000Y607750D02*
Y644250D01*
X684000D02*
X702000D01*
X684000Y607750D02*
X702000D01*
X738500D02*
Y644250D01*
X720500Y607750D02*
Y644250D01*
X738500D01*
X720500Y607750D02*
X738500D01*
X1490000Y579250D02*
X1508000D01*
X1490000Y542750D02*
X1508000D01*
Y579250D01*
X1490000Y542750D02*
Y579250D01*
X1515000D02*
X1533000D01*
X1515000Y542750D02*
X1533000D01*
Y579250D01*
X1515000Y542750D02*
Y579250D01*
X1255500Y549000D02*
X1292000D01*
X1255500Y531000D02*
X1292000D01*
X1255500D02*
Y549000D01*
X1292000Y531000D02*
Y549000D01*
X1249750Y646000D02*
X1286250D01*
X1249750Y664000D02*
X1286250D01*
X1249750Y646000D02*
Y664000D01*
X1286250Y646000D02*
Y664000D01*
X1005750Y383320D02*
X1042250D01*
X1005750Y401320D02*
X1042250D01*
X1005750Y383320D02*
Y401320D01*
X1042250Y383320D02*
Y401320D01*
X1005750Y357920D02*
X1042250D01*
X1005750Y375920D02*
X1042250D01*
X1005750Y357920D02*
Y375920D01*
X1042250Y357920D02*
Y375920D01*
X1005750Y332520D02*
X1042250D01*
X1005750Y350520D02*
X1042250D01*
X1005750Y332520D02*
Y350520D01*
X1042250Y332520D02*
Y350520D01*
X1005750Y307120D02*
X1042250D01*
X1005750Y325120D02*
X1042250D01*
X1005750Y307120D02*
Y325120D01*
X1042250Y307120D02*
Y325120D01*
X941750Y401320D02*
X978250D01*
X941750Y383320D02*
X978250D01*
Y401320D01*
X941750Y383320D02*
Y401320D01*
Y375920D02*
X978250D01*
X941750Y357920D02*
X978250D01*
Y375920D01*
X941750Y357920D02*
Y375920D01*
Y350520D02*
X978250D01*
X941750Y332520D02*
X978250D01*
Y350520D01*
X941750Y332520D02*
Y350520D01*
Y325120D02*
X978250D01*
X941750Y307120D02*
X978250D01*
Y325120D01*
X941750Y307120D02*
Y325120D01*
X1099000Y452984D02*
Y489484D01*
X1081000Y452984D02*
Y489484D01*
X1099000D01*
X1081000Y452984D02*
X1099000D01*
X906910Y485000D02*
X943410D01*
X906910Y467000D02*
X943410D01*
X906910D02*
Y485000D01*
X943410Y467000D02*
Y485000D01*
X954750Y664320D02*
X991250D01*
X954750Y646320D02*
X991250D01*
X954750D02*
Y664320D01*
X991250Y646320D02*
Y664320D01*
X624750Y764250D02*
X661250D01*
X624750Y746250D02*
X661250D01*
Y764250D01*
X624750Y746250D02*
Y764250D01*
Y717250D02*
X661250D01*
X624750Y699250D02*
X661250D01*
Y717250D01*
X624750Y699250D02*
Y717250D01*
X1319500Y402000D02*
Y438500D01*
X1337500Y402000D02*
Y438500D01*
X1319500D02*
X1337500D01*
X1319500Y402000D02*
X1337500D01*
X1366500D02*
Y438500D01*
X1384500Y402000D02*
Y438500D01*
X1366500D02*
X1384500D01*
X1366500Y402000D02*
X1384500D01*
X878750Y766000D02*
X915250D01*
X878750Y748000D02*
X915250D01*
X878750D02*
Y766000D01*
X915250Y748000D02*
Y766000D01*
X878750Y730360D02*
X915250D01*
X878750Y712360D02*
X915250D01*
X878750D02*
Y730360D01*
X915250Y712360D02*
Y730360D01*
X762750Y688000D02*
X799250D01*
X762750Y706000D02*
X799250D01*
Y688000D02*
Y706000D01*
X762750Y688000D02*
Y706000D01*
Y714000D02*
X799250D01*
X762750Y732000D02*
X799250D01*
Y714000D02*
Y732000D01*
X762750Y714000D02*
Y732000D01*
X767440Y681360D02*
X939440D01*
X767440Y509360D02*
X939440D01*
Y681360D01*
X767440Y509360D02*
Y681360D01*
X650750Y514240D02*
X687250D01*
X650750Y532240D02*
X687250D01*
Y514240D02*
Y532240D01*
X650750Y514240D02*
Y532240D01*
X1063840Y697750D02*
Y734250D01*
X1081840Y697750D02*
Y734250D01*
X1063840Y697750D02*
X1081840D01*
X1063840Y734250D02*
X1081840D01*
X1341000Y547750D02*
Y584250D01*
X1359000Y547750D02*
Y584250D01*
X1341000Y547750D02*
X1359000D01*
X1341000Y584250D02*
X1359000D01*
X650750Y641240D02*
X687250D01*
X650750Y659240D02*
X687250D01*
Y641240D02*
Y659240D01*
X650750Y641240D02*
Y659240D01*
X540750Y465500D02*
Y483500D01*
X577250Y465500D02*
Y483500D01*
X540750D02*
X577250D01*
X540750Y465500D02*
X577250D01*
X540750Y437880D02*
Y455880D01*
X577250Y437880D02*
Y455880D01*
X540750D02*
X577250D01*
X540750Y437880D02*
X577250D01*
X1046840Y509000D02*
X1218840D01*
X1046840Y681000D02*
X1218840D01*
X1046840Y509000D02*
Y681000D01*
X1218840Y509000D02*
Y681000D01*
X1249750Y697750D02*
X1286250D01*
X1249750Y715750D02*
X1286250D01*
X1249750Y697750D02*
Y715750D01*
X1286250Y697750D02*
Y715750D01*
M02*
