G04 Layer_Physical_Order=2*
G04 Layer_Color=16711680*
%FSLAX44Y44*%
%MOMM*%
G71*
G01*
G75*
%ADD10R,1.3000X1.3000*%
%ADD16R,1.3000X1.3000*%
%ADD18C,0.2000*%
%ADD19C,0.8000*%
%ADD23C,5.0000*%
%ADD24C,1.1000*%
%ADD25C,2.5000*%
%ADD26C,1.0000*%
%ADD27C,1.5000*%
%ADD28R,1.5000X1.5000*%
%ADD29C,1.2700*%
%ADD30C,0.7000*%
%ADD31R,3.0000X0.5000*%
%ADD32R,0.5000X3.0000*%
D10*
X1277250Y706750D02*
D03*
X1258750D02*
D03*
X633750Y708250D02*
D03*
X652250D02*
D03*
X633750Y755250D02*
D03*
X652250D02*
D03*
X950250Y318120D02*
D03*
X968750D02*
D03*
X950250Y342770D02*
D03*
X968750D02*
D03*
X950250Y367420D02*
D03*
X968750D02*
D03*
X950250Y392320D02*
D03*
X968750D02*
D03*
X1033250Y318120D02*
D03*
X1014750D02*
D03*
X1033250Y342770D02*
D03*
X1014750D02*
D03*
X1033250Y367420D02*
D03*
X1014750D02*
D03*
X1033250Y392320D02*
D03*
X1014750D02*
D03*
X1277250Y655000D02*
D03*
X1258750D02*
D03*
D16*
X693000Y616750D02*
D03*
Y635250D02*
D03*
D18*
X666000Y906500D02*
Y917250D01*
X1091000Y517000D02*
X1131427Y476573D01*
X1131618D01*
X1097500Y456000D02*
Y467360D01*
Y456000D02*
X1108000Y445500D01*
X543332Y479500D02*
X543630Y479798D01*
X749750Y1001000D02*
X888500D01*
X666000Y917250D02*
X749750Y1001000D01*
X888500D02*
X903000Y1015500D01*
X1071880Y981500D02*
X1124500Y928880D01*
Y799500D02*
X1163320Y760680D01*
X1124500Y799500D02*
Y928880D01*
X652250Y755250D02*
X707750D01*
X652250Y708250D02*
X707750D01*
X890510Y349080D02*
X906590Y333000D01*
X1137000Y362380D02*
X1149240Y374620D01*
X1137000Y330000D02*
Y362380D01*
X1123120Y316120D02*
X1137000Y330000D01*
X1112000Y362780D02*
X1123840Y374620D01*
X1112000Y337000D02*
Y362780D01*
X1086820Y363000D02*
X1098440Y374620D01*
X1037170Y363000D02*
X1086820D01*
X1033250Y366920D02*
X1037170Y363000D01*
X1033250Y392320D02*
X1045056D01*
X1062756Y374620D01*
X1073040D01*
X915910Y349080D02*
X933000Y366170D01*
Y360280D02*
X939640Y366920D01*
X933000Y366170D02*
Y385080D01*
X940240Y392320D01*
X906590Y333000D02*
X924000D01*
X933000Y342000D01*
Y360280D01*
X1045480Y341520D02*
X1058000Y329000D01*
X1104000D01*
X1112000Y337000D01*
X942000Y680720D02*
X959000Y697720D01*
Y1024000D01*
X928830Y1054170D02*
X959000Y1024000D01*
X928830Y1054170D02*
Y1078110D01*
X968830Y1116830D02*
Y1138110D01*
X928830Y1078110D02*
Y1097110D01*
X938830Y1078110D02*
Y1098190D01*
X824750Y616750D02*
X843440Y635440D01*
X693000Y616750D02*
X824750D01*
X924000Y643000D02*
X969000Y688000D01*
Y1026480D01*
X938830Y1056650D02*
X969000Y1026480D01*
X938830Y1056650D02*
Y1078110D01*
X693000Y635250D02*
X828750D01*
X836500Y643000D01*
X924000D01*
X988830Y1118830D02*
Y1138110D01*
X938830Y1098190D02*
X949640Y1109000D01*
X979000D01*
X988830Y1118830D01*
X964500Y1112500D02*
X968830Y1116830D01*
X928830Y1097110D02*
X944220Y1112500D01*
X964500D01*
X948830Y1078110D02*
Y1098830D01*
X954000Y1104000D01*
X999000D01*
X1008830Y1113830D01*
Y1138110D01*
X1091000Y632000D02*
X1113000Y654000D01*
Y718000D01*
X983000Y848000D02*
X1113000Y718000D01*
X983000Y848000D02*
Y1028000D01*
X948830Y1062170D02*
X983000Y1028000D01*
X948830Y1062170D02*
Y1078110D01*
X1163320Y603000D02*
Y760680D01*
X1091000Y517000D02*
Y632000D01*
X659250Y686500D02*
X670750D01*
X1108000Y445500D02*
X1151250D01*
X1174500Y422250D01*
X1273500D01*
X1134000Y565000D02*
X1251250D01*
X1312750D02*
X1368953Y621203D01*
X602547Y629797D02*
X659250Y686500D01*
X556079Y479500D02*
X684250D01*
X761250Y556500D02*
X820000D01*
X543582Y489750D02*
X543630Y489798D01*
X522250Y489750D02*
X543582D01*
X522250Y609798D02*
X543630D01*
X522250Y499798D02*
X543630D01*
X522250Y549798D02*
X543630D01*
X522250Y619798D02*
X543630D01*
X522250Y509798D02*
X543630D01*
X522250Y579798D02*
X543630D01*
X522250Y539798D02*
X543630D01*
X522250Y569798D02*
X543630D01*
X522250Y519798D02*
X543630D01*
X522250Y589798D02*
X543630D01*
X522250Y559798D02*
X543630D01*
X522250Y599798D02*
X543630D01*
Y629797D02*
X602547D01*
X554519Y481059D02*
X556079Y479500D01*
X684250D02*
X761250Y556500D01*
X1368953Y621203D02*
X1445000D01*
X1444380Y480614D02*
X1473200D01*
X1444380Y490614D02*
X1473200D01*
X1444380Y500614D02*
X1473200D01*
X1444380Y510614D02*
X1473200D01*
X1444380Y520614D02*
X1473200D01*
X1444380Y530614D02*
X1473200D01*
X1444380Y540614D02*
X1473200D01*
X1444380Y550614D02*
X1473200D01*
X1444380Y560614D02*
X1473200D01*
X1444380Y580614D02*
X1473200D01*
X1444380Y590614D02*
X1473200D01*
X1444380Y600614D02*
X1473200D01*
X1444380Y610614D02*
X1473200D01*
X1321864Y470614D02*
X1444380D01*
X1273500Y422250D02*
X1321864Y470614D01*
X1120250Y563750D02*
X1152500Y531500D01*
X1120250Y563750D02*
Y571750D01*
X839710Y349080D02*
X870540Y318250D01*
X948620D01*
X923000Y325000D02*
X939520Y341520D01*
X865110Y349080D02*
X889190Y325000D01*
X923000D01*
X940240Y392320D02*
X950250D01*
X950750D01*
X939640Y366920D02*
X950750D01*
X939520Y341520D02*
X950750D01*
X948620Y318250D02*
X950750Y316120D01*
X1033250Y341520D02*
X1045480D01*
X1033250Y316120D02*
X1123120D01*
X1299250Y556750D02*
X1345000D01*
D19*
X1144000Y471806D02*
Y481250D01*
X1058830Y975930D02*
Y1078110D01*
Y975930D02*
X1094000Y940760D01*
Y914000D02*
Y940760D01*
Y772120D02*
Y914000D01*
X1157000Y808500D02*
Y845000D01*
X1094000Y772120D02*
X1122680Y743440D01*
Y636680D02*
Y743440D01*
X1099000Y613000D02*
X1122680Y636680D01*
X1157000Y808500D02*
X1258750Y706750D01*
Y655000D02*
Y706750D01*
X678250Y650240D02*
X718890Y690880D01*
X678250Y523240D02*
Y650240D01*
X781000Y710000D02*
X876390D01*
X887750Y721360D01*
X790250Y671750D02*
Y697000D01*
X931000Y672920D02*
Y880080D01*
X918830Y892250D02*
X931000Y880080D01*
X918830Y892250D02*
Y915000D01*
Y1078110D01*
X915910Y476000D02*
X969250Y422660D01*
X915910Y476000D02*
Y496270D01*
X963710Y544070D01*
Y655360D01*
X1014750Y392320D02*
Y440750D01*
X1054250Y480250D01*
X790250Y671750D02*
X811760Y650240D01*
X908320D01*
X931000Y672920D01*
X1054750Y480500D02*
X1054984Y480734D01*
X1077750D01*
X1068830Y1001170D02*
Y1078110D01*
Y1001170D02*
X1157000Y913000D01*
Y845000D02*
Y913000D01*
X1258750Y655000D02*
X1264000Y649750D01*
X1099000Y526250D02*
Y613000D01*
Y526250D02*
X1144000Y481250D01*
X678250Y499350D02*
Y523240D01*
X1264000Y530250D02*
X1274000Y520250D01*
X1335350D01*
X1344850Y529750D01*
X1054750Y480500D02*
Y687910D01*
X1014750Y367420D02*
Y392320D01*
Y342770D02*
Y367420D01*
Y318120D02*
Y342770D01*
X969250Y316120D02*
Y422660D01*
X1264000Y530250D02*
Y649750D01*
X718890Y690880D02*
X761880D01*
X781000Y710000D01*
D23*
X1474380Y705610D02*
D03*
Y379410D02*
D03*
Y1031810D02*
D03*
X525630Y704860D02*
D03*
Y378660D02*
D03*
Y1031060D02*
D03*
X857630Y1108110D02*
D03*
X1130030D02*
D03*
D24*
X1474380Y990610D02*
D03*
Y420610D02*
D03*
X525630Y989860D02*
D03*
Y419860D02*
D03*
X1088830Y1108110D02*
D03*
X898830D02*
D03*
D25*
X1288000Y798000D02*
D03*
Y756000D02*
D03*
Y840000D02*
D03*
X1343000D02*
D03*
Y756000D02*
D03*
Y798000D02*
D03*
X1288000Y940500D02*
D03*
Y898500D02*
D03*
Y982500D02*
D03*
X1343000D02*
D03*
Y898500D02*
D03*
Y940500D02*
D03*
X607500Y870250D02*
D03*
Y912250D02*
D03*
Y828250D02*
D03*
X662500D02*
D03*
Y912250D02*
D03*
Y870250D02*
D03*
D26*
X707750Y755250D02*
D03*
Y708250D02*
D03*
X1375500Y481750D02*
D03*
X1328500D02*
D03*
D27*
X1174640Y374620D02*
D03*
Y349220D02*
D03*
X1149240Y374620D02*
D03*
Y349220D02*
D03*
X1123840Y374620D02*
D03*
Y349220D02*
D03*
X1098440Y374620D02*
D03*
Y349220D02*
D03*
X1073040Y374620D02*
D03*
X915910Y349080D02*
D03*
X890510Y374480D02*
D03*
Y349080D02*
D03*
X865110Y374480D02*
D03*
Y349080D02*
D03*
X839710Y374480D02*
D03*
Y349080D02*
D03*
X814310Y374480D02*
D03*
Y349080D02*
D03*
D28*
X1073040Y349220D02*
D03*
X915910Y374480D02*
D03*
D29*
X1344850Y529750D02*
D03*
X1370250D02*
D03*
X1395650D02*
D03*
X678350Y499250D02*
D03*
X703750D02*
D03*
X729150D02*
D03*
D30*
X1131618Y476573D02*
D03*
X948830Y1078110D02*
D03*
X898830D02*
D03*
X908830D02*
D03*
X1088830D02*
D03*
X958830Y1138110D02*
D03*
X978830D02*
D03*
X999250Y1137920D02*
D03*
X1018830Y1138110D02*
D03*
X1028830D02*
D03*
X1058830D02*
D03*
X1525250Y531000D02*
D03*
X1473200Y500614D02*
D03*
Y510614D02*
D03*
Y490614D02*
D03*
Y480614D02*
D03*
Y580614D02*
D03*
X1345000Y557000D02*
D03*
X1473200Y520614D02*
D03*
Y530614D02*
D03*
Y540614D02*
D03*
Y550614D02*
D03*
Y560614D02*
D03*
Y590614D02*
D03*
Y600614D02*
D03*
Y610614D02*
D03*
X1144000Y471806D02*
D03*
X1097500Y467360D02*
D03*
X580750Y434500D02*
D03*
X522250Y499798D02*
D03*
Y509798D02*
D03*
Y519798D02*
D03*
Y539798D02*
D03*
Y549798D02*
D03*
Y559798D02*
D03*
Y569798D02*
D03*
Y579798D02*
D03*
Y589798D02*
D03*
Y599798D02*
D03*
Y609798D02*
D03*
Y619798D02*
D03*
X903000Y1015500D02*
D03*
X693000Y635250D02*
D03*
X1071880Y981500D02*
D03*
X895000Y631000D02*
D03*
X906250Y757000D02*
D03*
Y721360D02*
D03*
X982250Y655320D02*
D03*
X1054750Y462000D02*
D03*
X1124000Y546000D02*
D03*
X1072840Y725250D02*
D03*
X875000Y690880D02*
D03*
X795000Y545000D02*
D03*
X898000Y541000D02*
D03*
X827750Y845000D02*
D03*
X1217000D02*
D03*
X934410Y476000D02*
D03*
X659750Y523240D02*
D03*
Y650240D02*
D03*
X1094000Y914000D02*
D03*
X1157000Y845000D02*
D03*
X1258750Y706750D02*
D03*
X1054750Y480500D02*
D03*
X887750Y721360D02*
D03*
X678250Y650240D02*
D03*
Y523240D02*
D03*
X790250Y697000D02*
D03*
X918830Y915000D02*
D03*
X963710Y655360D02*
D03*
X915910Y476000D02*
D03*
X1258750Y655000D02*
D03*
X942000Y680720D02*
D03*
X843440Y635440D02*
D03*
X828750Y635250D02*
D03*
X1085030Y462000D02*
D03*
X1082040Y551040D02*
D03*
X1186000Y635000D02*
D03*
X1223000Y531000D02*
D03*
X1163320Y603000D02*
D03*
X1077750Y480734D02*
D03*
X1264500Y540000D02*
D03*
X1283000D02*
D03*
X1299250Y556750D02*
D03*
X670750Y686500D02*
D03*
X820000Y556500D02*
D03*
X1328500Y411000D02*
D03*
X1375500Y410250D02*
D03*
X1134000Y565000D02*
D03*
X1251250D02*
D03*
X1312750D02*
D03*
X1054750Y687910D02*
D03*
X627500Y454500D02*
D03*
X1370690Y656500D02*
D03*
X522250Y489750D02*
D03*
X1152500Y531500D02*
D03*
X1120250Y571750D02*
D03*
X1014750Y318120D02*
D03*
X752750Y709000D02*
D03*
X1098000Y693250D02*
D03*
D31*
X1444380Y850605D02*
D03*
X1504380Y960605D02*
D03*
X1444380Y940605D02*
D03*
Y950605D02*
D03*
X1504380D02*
D03*
Y860605D02*
D03*
Y880605D02*
D03*
Y920605D02*
D03*
X1444380Y870605D02*
D03*
Y880605D02*
D03*
X1504380Y940605D02*
D03*
X1444380Y900605D02*
D03*
X1504380Y890605D02*
D03*
Y870605D02*
D03*
X1444380Y930605D02*
D03*
Y920605D02*
D03*
X1504380Y910605D02*
D03*
X1444380Y890605D02*
D03*
Y860605D02*
D03*
X1504380Y900605D02*
D03*
Y930605D02*
D03*
X1444380Y910605D02*
D03*
X1504380Y850605D02*
D03*
X1444380Y960605D02*
D03*
Y990605D02*
D03*
X1504380Y970605D02*
D03*
X1444380Y980605D02*
D03*
Y970605D02*
D03*
X1504380Y990605D02*
D03*
Y980605D02*
D03*
X1444380Y520614D02*
D03*
X1504380Y430614D02*
D03*
Y530614D02*
D03*
Y840605D02*
D03*
X1444380D02*
D03*
Y500614D02*
D03*
X1504380Y510614D02*
D03*
Y830605D02*
D03*
Y420614D02*
D03*
Y810605D02*
D03*
Y820605D02*
D03*
X1444380Y630614D02*
D03*
Y620614D02*
D03*
Y570614D02*
D03*
X1504380Y550614D02*
D03*
Y590614D02*
D03*
Y580614D02*
D03*
X1444380Y590614D02*
D03*
Y580614D02*
D03*
Y540614D02*
D03*
X1504380Y570614D02*
D03*
Y560614D02*
D03*
X1444380Y550614D02*
D03*
Y820605D02*
D03*
Y810605D02*
D03*
Y430614D02*
D03*
X1504380Y490614D02*
D03*
X1444380Y530614D02*
D03*
Y440614D02*
D03*
Y560614D02*
D03*
X1504380Y540614D02*
D03*
Y620614D02*
D03*
X1444380Y420614D02*
D03*
Y830605D02*
D03*
Y510614D02*
D03*
Y460614D02*
D03*
X1504380Y440614D02*
D03*
Y450614D02*
D03*
Y480614D02*
D03*
Y460614D02*
D03*
Y470614D02*
D03*
Y500614D02*
D03*
X1444380Y490614D02*
D03*
X1504380Y520614D02*
D03*
X1444380Y470614D02*
D03*
Y450614D02*
D03*
Y480614D02*
D03*
Y610614D02*
D03*
X1504380D02*
D03*
X1444380Y600614D02*
D03*
X1504380D02*
D03*
Y750606D02*
D03*
Y760606D02*
D03*
Y640613D02*
D03*
Y650613D02*
D03*
X1444380D02*
D03*
Y660613D02*
D03*
Y640613D02*
D03*
Y760606D02*
D03*
Y750606D02*
D03*
X1504380Y660613D02*
D03*
X1444380Y780606D02*
D03*
Y790606D02*
D03*
X1504380D02*
D03*
Y800605D02*
D03*
X1444380D02*
D03*
Y770606D02*
D03*
X1504380Y780606D02*
D03*
Y770606D02*
D03*
Y630614D02*
D03*
X495630Y849855D02*
D03*
X555630Y959855D02*
D03*
X495630Y939855D02*
D03*
Y949855D02*
D03*
X555630D02*
D03*
Y859855D02*
D03*
Y879855D02*
D03*
Y919855D02*
D03*
X495630Y869855D02*
D03*
Y879855D02*
D03*
X555630Y939855D02*
D03*
X495630Y899855D02*
D03*
X555630Y889855D02*
D03*
Y869855D02*
D03*
X495630Y929855D02*
D03*
Y919855D02*
D03*
X555630Y909855D02*
D03*
X495630Y889855D02*
D03*
Y859855D02*
D03*
X555630Y899855D02*
D03*
Y929855D02*
D03*
X495630Y909855D02*
D03*
X555630Y849855D02*
D03*
X495630Y959855D02*
D03*
Y989855D02*
D03*
X555630Y969855D02*
D03*
X495630Y979855D02*
D03*
Y969855D02*
D03*
X555630Y989855D02*
D03*
Y979855D02*
D03*
X495630Y519864D02*
D03*
X555630Y429864D02*
D03*
Y529864D02*
D03*
Y839855D02*
D03*
X495630D02*
D03*
Y499864D02*
D03*
X555630Y509864D02*
D03*
Y829855D02*
D03*
Y419864D02*
D03*
Y809855D02*
D03*
Y819855D02*
D03*
X495630Y629864D02*
D03*
Y619864D02*
D03*
Y569864D02*
D03*
X555630Y549864D02*
D03*
Y589864D02*
D03*
Y579864D02*
D03*
X495630Y589864D02*
D03*
Y579864D02*
D03*
Y539864D02*
D03*
X555630Y569864D02*
D03*
Y559864D02*
D03*
X495630Y549864D02*
D03*
Y819855D02*
D03*
Y809855D02*
D03*
Y429864D02*
D03*
X555630Y489864D02*
D03*
X495630Y529864D02*
D03*
Y439864D02*
D03*
Y559864D02*
D03*
X555630Y539864D02*
D03*
Y619864D02*
D03*
X495630Y419864D02*
D03*
Y829855D02*
D03*
Y509864D02*
D03*
Y459864D02*
D03*
X555630Y439864D02*
D03*
Y449864D02*
D03*
Y479864D02*
D03*
Y459864D02*
D03*
Y469864D02*
D03*
Y499864D02*
D03*
X495630Y489864D02*
D03*
X555630Y519864D02*
D03*
X495630Y469864D02*
D03*
Y449864D02*
D03*
Y479864D02*
D03*
Y609864D02*
D03*
X555630D02*
D03*
X495630Y599864D02*
D03*
X555630D02*
D03*
Y749856D02*
D03*
Y759856D02*
D03*
Y639864D02*
D03*
Y649863D02*
D03*
X495630D02*
D03*
Y659863D02*
D03*
Y639864D02*
D03*
Y759856D02*
D03*
Y749856D02*
D03*
X555630Y659863D02*
D03*
X495630Y779856D02*
D03*
Y789855D02*
D03*
X555630D02*
D03*
Y799855D02*
D03*
X495630D02*
D03*
Y769856D02*
D03*
X555630Y779856D02*
D03*
Y769856D02*
D03*
Y629864D02*
D03*
D32*
X918830Y1078110D02*
D03*
X908830D02*
D03*
X898830D02*
D03*
X988830D02*
D03*
X978830D02*
D03*
X1068830D02*
D03*
X1058830D02*
D03*
X948830D02*
D03*
X938830D02*
D03*
X928830D02*
D03*
X968830D02*
D03*
X958830D02*
D03*
X1028830D02*
D03*
X1018830D02*
D03*
X1008830D02*
D03*
X998830D02*
D03*
X1048830D02*
D03*
X1038830D02*
D03*
X1088830D02*
D03*
X1078830D02*
D03*
Y1138110D02*
D03*
X1088830D02*
D03*
X1038830D02*
D03*
X1048830D02*
D03*
X998830D02*
D03*
X1008830D02*
D03*
X1018830D02*
D03*
X1028830D02*
D03*
X958830D02*
D03*
X968830D02*
D03*
X928830D02*
D03*
X938830D02*
D03*
X948830D02*
D03*
X1058830D02*
D03*
X1068830D02*
D03*
X978830D02*
D03*
X988830D02*
D03*
X898830D02*
D03*
X908830D02*
D03*
X918830D02*
D03*
M02*
