G04 Layer_Color=0*
%FSLAX44Y44*%
%MOMM*%
G71*
G01*
G75*
%ADD33C,0.1000*%
D33*
X918940Y655860D02*
G03*
X918940Y655860I-5000J0D01*
G01*
X1077340Y534500D02*
G03*
X1077340Y534500I-5000J0D01*
G01*
X1381750Y410250D02*
Y430250D01*
X1369250Y410250D02*
Y430250D01*
X1381750D01*
X1369250Y410250D02*
X1381750D01*
X1334750D02*
Y430250D01*
X1322250Y410250D02*
Y430250D01*
X1334750D01*
X1322250Y410250D02*
X1334750D01*
X1172250Y452000D02*
Y472000D01*
X1159750Y452000D02*
Y472000D01*
X1172250D01*
X1159750Y452000D02*
X1172250D01*
X1150250D02*
Y472000D01*
X1137750Y452000D02*
Y472000D01*
X1150250D01*
X1137750Y452000D02*
X1150250D01*
X1095000Y421750D02*
X1115000D01*
X1095000Y434250D02*
X1115000D01*
Y421750D02*
Y434250D01*
X1095000Y421750D02*
Y434250D01*
X1061000Y461250D02*
Y481250D01*
X1048500Y461250D02*
Y481250D01*
X1061000D01*
X1048500Y461250D02*
X1061000D01*
X686750Y616000D02*
Y636000D01*
X699250Y616000D02*
Y636000D01*
X686750D02*
X699250D01*
X686750Y616000D02*
X699250D01*
X735750D02*
Y636000D01*
X723250Y616000D02*
Y636000D01*
X735750D01*
X723250Y616000D02*
X735750D01*
X1492750Y571000D02*
X1505250D01*
X1492750Y551000D02*
X1505250D01*
Y571000D01*
X1492750Y551000D02*
Y571000D01*
X1517750D02*
X1530250D01*
X1517750Y551000D02*
X1530250D01*
Y571000D01*
X1517750Y551000D02*
Y571000D01*
X1263750Y546250D02*
X1283750D01*
X1263750Y533750D02*
X1283750D01*
X1263750D02*
Y546250D01*
X1283750Y533750D02*
Y546250D01*
X1258000Y648750D02*
X1278000D01*
X1258000Y661250D02*
X1278000D01*
X1258000Y648750D02*
Y661250D01*
X1278000Y648750D02*
Y661250D01*
X1014000Y386070D02*
X1034000D01*
X1014000Y398570D02*
X1034000D01*
X1014000Y386070D02*
Y398570D01*
X1034000Y386070D02*
Y398570D01*
X1014000Y360670D02*
X1034000D01*
X1014000Y373170D02*
X1034000D01*
X1014000Y360670D02*
Y373170D01*
X1034000Y360670D02*
Y373170D01*
X1014000Y335270D02*
X1034000D01*
X1014000Y347770D02*
X1034000D01*
X1014000Y335270D02*
Y347770D01*
X1034000Y335270D02*
Y347770D01*
X1014000Y309870D02*
X1034000D01*
X1014000Y322370D02*
X1034000D01*
X1014000Y309870D02*
Y322370D01*
X1034000Y309870D02*
Y322370D01*
X950000Y398570D02*
X970000D01*
X950000Y386070D02*
X970000D01*
Y398570D01*
X950000Y386070D02*
Y398570D01*
Y373170D02*
X970000D01*
X950000Y360670D02*
X970000D01*
Y373170D01*
X950000Y360670D02*
Y373170D01*
Y347770D02*
X970000D01*
X950000Y335270D02*
X970000D01*
Y347770D01*
X950000Y335270D02*
Y347770D01*
Y322370D02*
X970000D01*
X950000Y309870D02*
X970000D01*
Y322370D01*
X950000Y309870D02*
Y322370D01*
X1084000Y461484D02*
Y481484D01*
X1071500Y461484D02*
Y481484D01*
X1084000D01*
X1071500Y461484D02*
X1084000D01*
X915160Y482250D02*
X935160D01*
X915160Y469750D02*
X935160D01*
X915160D02*
Y482250D01*
X935160Y469750D02*
Y482250D01*
X963000Y661570D02*
X983000D01*
X963000Y649070D02*
X983000D01*
X963000D02*
Y661570D01*
X983000Y649070D02*
Y661570D01*
X633000Y761500D02*
X653000D01*
X633000Y749000D02*
X653000D01*
Y761500D01*
X633000Y749000D02*
Y761500D01*
Y714500D02*
X653000D01*
X633000Y702000D02*
X653000D01*
Y714500D01*
X633000Y702000D02*
Y714500D01*
X887000Y763250D02*
X907000D01*
X887000Y750750D02*
X907000D01*
X887000D02*
Y763250D01*
X907000Y750750D02*
Y763250D01*
X887000Y727610D02*
X907000D01*
X887000Y715110D02*
X907000D01*
X887000D02*
Y727610D01*
X907000Y715110D02*
Y727610D01*
X771000Y690750D02*
X791000D01*
X771000Y703250D02*
X791000D01*
Y690750D02*
Y703250D01*
X771000Y690750D02*
Y703250D01*
Y716750D02*
X791000D01*
X771000Y729250D02*
X791000D01*
Y716750D02*
Y729250D01*
X771000Y716750D02*
Y729250D01*
X783940Y664860D02*
X922940D01*
X783940Y525860D02*
X922940D01*
Y664860D01*
X783940Y525860D02*
Y664860D01*
X659000Y516990D02*
X679000D01*
X659000Y529490D02*
X679000D01*
Y516990D02*
Y529490D01*
X659000Y516990D02*
Y529490D01*
X1066590Y706000D02*
Y726000D01*
X1079090Y706000D02*
Y726000D01*
X1066590Y706000D02*
X1079090D01*
X1066590Y726000D02*
X1079090D01*
X1343750Y556000D02*
Y576000D01*
X1356250Y556000D02*
Y576000D01*
X1343750Y556000D02*
X1356250D01*
X1343750Y576000D02*
X1356250D01*
X659000Y643990D02*
X679000D01*
X659000Y656490D02*
X679000D01*
Y643990D02*
Y656490D01*
X659000Y643990D02*
Y656490D01*
X549000Y468250D02*
Y480750D01*
X569000Y468250D02*
Y480750D01*
X549000D02*
X569000D01*
X549000Y468250D02*
X569000D01*
X549000Y440630D02*
Y453130D01*
X569000Y440630D02*
Y453130D01*
X549000D02*
X569000D01*
X549000Y440630D02*
X569000D01*
X1063340Y525500D02*
X1202340D01*
X1063340Y664500D02*
X1202340D01*
X1063340Y525500D02*
Y664500D01*
X1202340Y525500D02*
Y664500D01*
X1258000Y700500D02*
X1278000D01*
X1258000Y713000D02*
X1278000D01*
X1258000Y700500D02*
Y713000D01*
X1278000Y700500D02*
Y713000D01*
M02*
