G04 Layer_Color=65535*
%FSLAX44Y44*%
%MOMM*%
G71*
G01*
G75*
%ADD18C,0.2540*%
%ADD19C,0.2000*%
%ADD20C,0.6000*%
%ADD31C,0.2500*%
%ADD32C,0.4500*%
%ADD33C,0.1000*%
D18*
X744000Y414070D02*
X1244000D01*
Y990600D01*
X744000D02*
X1244000D01*
X744000Y414070D02*
Y990600D01*
X1542765Y546000D02*
X1555461D01*
X1558000Y548539D01*
Y553618D01*
X1555461Y556157D01*
X1542765D01*
X1545304Y571392D02*
X1542765Y568853D01*
Y563774D01*
X1545304Y561235D01*
X1547843D01*
X1550382Y563774D01*
Y568853D01*
X1552922Y571392D01*
X1555461D01*
X1558000Y568853D01*
Y563774D01*
X1555461Y561235D01*
X1542765Y576470D02*
X1558000D01*
Y584088D01*
X1555461Y586627D01*
X1552922D01*
X1550382Y584088D01*
Y576470D01*
Y584088D01*
X1547843Y586627D01*
X1545304D01*
X1542765Y584088D01*
Y576470D01*
X1558000Y601862D02*
Y591705D01*
X1547843Y601862D01*
X1545304D01*
X1542765Y599323D01*
Y594244D01*
X1545304Y591705D01*
X1333000Y441735D02*
X1343157D01*
Y439196D01*
X1333000Y429039D01*
Y426500D01*
X1343157D01*
X1358392Y429039D02*
Y439196D01*
X1355853Y441735D01*
X1350774D01*
X1348235Y439196D01*
Y429039D01*
X1350774Y426500D01*
X1355853D01*
X1353313Y431578D02*
X1358392Y426500D01*
X1355853D02*
X1358392Y429039D01*
X1373627Y426500D02*
X1363470D01*
X1373627Y436657D01*
Y439196D01*
X1371088Y441735D01*
X1366009D01*
X1363470Y439196D01*
X623750Y739735D02*
X633907D01*
Y737196D01*
X623750Y727039D01*
Y724500D01*
X633907D01*
X649142Y727039D02*
Y737196D01*
X646603Y739735D01*
X641524D01*
X638985Y737196D01*
Y727039D01*
X641524Y724500D01*
X646603D01*
X644063Y729578D02*
X649142Y724500D01*
X646603D02*
X649142Y727039D01*
X654220Y724500D02*
X659298D01*
X656759D01*
Y739735D01*
X654220Y737196D01*
X1000765Y345000D02*
X1016000Y355157D01*
X1000765D02*
X1016000Y345000D01*
Y370392D02*
Y360235D01*
X1005843Y370392D01*
X1003304D01*
X1000765Y367853D01*
Y362774D01*
X1003304Y360235D01*
X987235Y368000D02*
X972000Y357843D01*
X987235D02*
X972000Y368000D01*
Y352765D02*
Y347687D01*
Y350226D01*
X987235D01*
X984696Y352765D01*
X1132840Y420000D02*
Y435235D01*
X1140458D01*
X1142997Y432696D01*
Y427617D01*
X1140458Y425078D01*
X1132840D01*
X1137918D02*
X1142997Y420000D01*
X1148075D02*
X1153153D01*
X1150614D01*
Y435235D01*
X1148075Y432696D01*
X1160771Y420000D02*
X1165849D01*
X1163310D01*
Y435235D01*
X1160771Y432696D01*
X1341498Y593432D02*
Y608667D01*
X1349115D01*
X1351655Y606128D01*
Y601049D01*
X1349115Y598510D01*
X1341498D01*
X1346576D02*
X1351655Y593432D01*
X1356733Y595971D02*
X1359272Y593432D01*
X1364351D01*
X1366890Y595971D01*
Y606128D01*
X1364351Y608667D01*
X1359272D01*
X1356733Y606128D01*
Y603589D01*
X1359272Y601049D01*
X1366890D01*
X736500Y563000D02*
X721265D01*
Y570617D01*
X723804Y573157D01*
X728883D01*
X731422Y570617D01*
Y563000D01*
Y568078D02*
X736500Y573157D01*
Y578235D02*
Y583313D01*
Y580774D01*
X721265D01*
X723804Y578235D01*
Y590931D02*
X721265Y593470D01*
Y598549D01*
X723804Y601088D01*
X733961D01*
X736500Y598549D01*
Y593470D01*
X733961Y590931D01*
X723804D01*
X1120750Y722485D02*
Y707250D01*
X1128367D01*
X1130907Y709789D01*
Y719946D01*
X1128367Y722485D01*
X1120750D01*
X1146142Y707250D02*
X1135985D01*
X1146142Y717407D01*
Y719946D01*
X1143603Y722485D01*
X1138524D01*
X1135985Y719946D01*
X846500Y496985D02*
Y481750D01*
X854118D01*
X856657Y484289D01*
Y494446D01*
X854118Y496985D01*
X846500D01*
X861735Y481750D02*
X866813D01*
X864274D01*
Y496985D01*
X861735Y494446D01*
X1030807Y958424D02*
X1028268Y960963D01*
X1023189D01*
X1020650Y958424D01*
Y948267D01*
X1023189Y945728D01*
X1028268D01*
X1030807Y948267D01*
X1046042Y945728D02*
X1035885D01*
X1046042Y955885D01*
Y958424D01*
X1043503Y960963D01*
X1038424D01*
X1035885Y958424D01*
X1051120D02*
X1053659Y960963D01*
X1058738D01*
X1061277Y958424D01*
Y948267D01*
X1058738Y945728D01*
X1053659D01*
X1051120Y948267D01*
Y958424D01*
X905967Y958214D02*
X903428Y960753D01*
X898349D01*
X895810Y958214D01*
Y948057D01*
X898349Y945518D01*
X903428D01*
X905967Y948057D01*
X911045Y945518D02*
X916123D01*
X913584D01*
Y960753D01*
X911045Y958214D01*
X923741Y948057D02*
X926280Y945518D01*
X931358D01*
X933898Y948057D01*
Y958214D01*
X931358Y960753D01*
X926280D01*
X923741Y958214D01*
Y955675D01*
X926280Y953136D01*
X933898D01*
X1143973Y889192D02*
X1141433Y891731D01*
X1136355D01*
X1133816Y889192D01*
Y879035D01*
X1136355Y876496D01*
X1141433D01*
X1143973Y879035D01*
X1149051Y876496D02*
X1154129D01*
X1151590D01*
Y891731D01*
X1149051Y889192D01*
X1161747D02*
X1164286Y891731D01*
X1169364D01*
X1171904Y889192D01*
Y886653D01*
X1169364Y884113D01*
X1171904Y881574D01*
Y879035D01*
X1169364Y876496D01*
X1164286D01*
X1161747Y879035D01*
Y881574D01*
X1164286Y884113D01*
X1161747Y886653D01*
Y889192D01*
X1164286Y884113D02*
X1169364D01*
X824519Y889334D02*
X821980Y891873D01*
X816901D01*
X814362Y889334D01*
Y879177D01*
X816901Y876638D01*
X821980D01*
X824519Y879177D01*
X829597Y876638D02*
X834675D01*
X832136D01*
Y891873D01*
X829597Y889334D01*
X842293Y891873D02*
X852450D01*
Y889334D01*
X842293Y879177D01*
Y876638D01*
X818707Y699696D02*
X816168Y702235D01*
X811089D01*
X808550Y699696D01*
Y689539D01*
X811089Y687000D01*
X816168D01*
X818707Y689539D01*
X823785Y687000D02*
X828863D01*
X826324D01*
Y702235D01*
X823785Y699696D01*
X846638Y702235D02*
X841559Y699696D01*
X836481Y694617D01*
Y689539D01*
X839020Y687000D01*
X844099D01*
X846638Y689539D01*
Y692078D01*
X844099Y694617D01*
X836481D01*
X1114320Y454173D02*
X1111781Y451633D01*
Y446555D01*
X1114320Y444016D01*
X1124477D01*
X1127016Y446555D01*
Y451633D01*
X1124477Y454173D01*
X1127016Y459251D02*
Y464329D01*
Y461790D01*
X1111781D01*
X1114320Y459251D01*
X1111781Y482104D02*
Y471947D01*
X1119398D01*
X1116859Y477025D01*
Y479565D01*
X1119398Y482104D01*
X1124477D01*
X1127016Y479565D01*
Y474486D01*
X1124477Y471947D01*
X1169517Y500696D02*
X1166977Y503235D01*
X1161899D01*
X1159360Y500696D01*
Y490539D01*
X1161899Y488000D01*
X1166977D01*
X1169517Y490539D01*
X1174595Y488000D02*
X1179673D01*
X1177134D01*
Y503235D01*
X1174595Y500696D01*
X1194909Y488000D02*
Y503235D01*
X1187291Y495617D01*
X1197448D01*
X817157Y727579D02*
X814617Y730118D01*
X809539D01*
X807000Y727579D01*
Y717422D01*
X809539Y714883D01*
X814617D01*
X817157Y717422D01*
X822235Y714883D02*
X827313D01*
X824774D01*
Y730118D01*
X822235Y727579D01*
X834931D02*
X837470Y730118D01*
X842549D01*
X845088Y727579D01*
Y725040D01*
X842549Y722501D01*
X840009D01*
X842549D01*
X845088Y719961D01*
Y717422D01*
X842549Y714883D01*
X837470D01*
X834931Y717422D01*
X1266693Y571190D02*
X1264154Y573729D01*
X1259075D01*
X1256536Y571190D01*
Y561033D01*
X1259075Y558494D01*
X1264154D01*
X1266693Y561033D01*
X1271771Y558494D02*
X1276849D01*
X1274310D01*
Y573729D01*
X1271771Y571190D01*
X1294624Y558494D02*
X1284467D01*
X1294624Y568651D01*
Y571190D01*
X1292085Y573729D01*
X1287006D01*
X1284467Y571190D01*
X934717Y726696D02*
X932178Y729235D01*
X927099D01*
X924560Y726696D01*
Y716539D01*
X927099Y714000D01*
X932178D01*
X934717Y716539D01*
X939795Y714000D02*
X944873D01*
X942334D01*
Y729235D01*
X939795Y726696D01*
X952491Y714000D02*
X957569D01*
X955030D01*
Y729235D01*
X952491Y726696D01*
X1074543Y756086D02*
X1072003Y758625D01*
X1066925D01*
X1064386Y756086D01*
Y745929D01*
X1066925Y743390D01*
X1072003D01*
X1074543Y745929D01*
X1079621Y743390D02*
X1084699D01*
X1082160D01*
Y758625D01*
X1079621Y756086D01*
X1092317D02*
X1094856Y758625D01*
X1099934D01*
X1102474Y756086D01*
Y745929D01*
X1099934Y743390D01*
X1094856D01*
X1092317Y745929D01*
Y756086D01*
X970277Y634696D02*
X967738Y637235D01*
X962659D01*
X960120Y634696D01*
Y624539D01*
X962659Y622000D01*
X967738D01*
X970277Y624539D01*
X975355D02*
X977894Y622000D01*
X982973D01*
X985512Y624539D01*
Y634696D01*
X982973Y637235D01*
X977894D01*
X975355Y634696D01*
Y632157D01*
X977894Y629618D01*
X985512D01*
X1038304Y472157D02*
X1035765Y469618D01*
Y464539D01*
X1038304Y462000D01*
X1048461D01*
X1051000Y464539D01*
Y469618D01*
X1048461Y472157D01*
X1038304Y477235D02*
X1035765Y479774D01*
Y484853D01*
X1038304Y487392D01*
X1040843D01*
X1043382Y484853D01*
X1045922Y487392D01*
X1048461D01*
X1051000Y484853D01*
Y479774D01*
X1048461Y477235D01*
X1045922D01*
X1043382Y479774D01*
X1040843Y477235D01*
X1038304D01*
X1043382Y479774D02*
Y484853D01*
X662012Y554605D02*
X659473Y557144D01*
X654394D01*
X651855Y554605D01*
Y544448D01*
X654394Y541909D01*
X659473D01*
X662012Y544448D01*
X667090Y557144D02*
X677247D01*
Y554605D01*
X667090Y544448D01*
Y541909D01*
X921317Y456696D02*
X918777Y459235D01*
X913699D01*
X911160Y456696D01*
Y446539D01*
X913699Y444000D01*
X918777D01*
X921317Y446539D01*
X936552Y459235D02*
X926395D01*
Y451618D01*
X931473Y454157D01*
X934013D01*
X936552Y451618D01*
Y446539D01*
X934013Y444000D01*
X928934D01*
X926395Y446539D01*
X1082037Y508696D02*
X1079498Y511235D01*
X1074419D01*
X1071880Y508696D01*
Y498539D01*
X1074419Y496000D01*
X1079498D01*
X1082037Y498539D01*
X1094733Y496000D02*
Y511235D01*
X1087115Y503618D01*
X1097272D01*
X660157Y631696D02*
X657617Y634235D01*
X652539D01*
X650000Y631696D01*
Y621539D01*
X652539Y619000D01*
X657617D01*
X660157Y621539D01*
X665235Y631696D02*
X667774Y634235D01*
X672853D01*
X675392Y631696D01*
Y629157D01*
X672853Y626618D01*
X670313D01*
X672853D01*
X675392Y624078D01*
Y621539D01*
X672853Y619000D01*
X667774D01*
X665235Y621539D01*
X935157Y761696D02*
X932617Y764235D01*
X927539D01*
X925000Y761696D01*
Y751539D01*
X927539Y749000D01*
X932617D01*
X935157Y751539D01*
X940235Y749000D02*
X945313D01*
X942774D01*
Y764235D01*
X940235Y761696D01*
X446235Y590000D02*
X433539D01*
X431000Y587461D01*
Y582383D01*
X433539Y579843D01*
X446235D01*
X443696Y564608D02*
X446235Y567147D01*
Y572226D01*
X443696Y574765D01*
X441157D01*
X438618Y572226D01*
Y567147D01*
X436078Y564608D01*
X433539D01*
X431000Y567147D01*
Y572226D01*
X433539Y574765D01*
X446235Y559530D02*
X431000D01*
Y551912D01*
X433539Y549373D01*
X436078D01*
X438618Y551912D01*
Y559530D01*
Y551912D01*
X441157Y549373D01*
X443696D01*
X446235Y551912D01*
Y559530D01*
X431000Y544295D02*
Y539216D01*
Y541756D01*
X446235D01*
X443696Y544295D01*
X493500Y438750D02*
Y453985D01*
X501118D01*
X503657Y451446D01*
Y446367D01*
X501118Y443828D01*
X493500D01*
X498578D02*
X503657Y438750D01*
X508735D02*
X513813D01*
X511274D01*
Y453985D01*
X508735Y451446D01*
X521431D02*
X523970Y453985D01*
X529049D01*
X531588Y451446D01*
Y448907D01*
X529049Y446367D01*
X526509D01*
X529049D01*
X531588Y443828D01*
Y441289D01*
X529049Y438750D01*
X523970D01*
X521431Y441289D01*
X493000Y467250D02*
Y482485D01*
X500617D01*
X503157Y479946D01*
Y474868D01*
X500617Y472328D01*
X493000D01*
X498078D02*
X503157Y467250D01*
X508235D02*
X513313D01*
X510774D01*
Y482485D01*
X508235Y479946D01*
X528549Y467250D02*
Y482485D01*
X520931Y474868D01*
X531088D01*
X1505500Y496000D02*
X1490265D01*
Y503618D01*
X1492804Y506157D01*
X1497883D01*
X1500422Y503618D01*
Y496000D01*
Y501078D02*
X1505500Y506157D01*
Y511235D02*
Y516313D01*
Y513774D01*
X1490265D01*
X1492804Y511235D01*
X1490265Y534088D02*
Y523931D01*
X1497883D01*
X1495343Y529009D01*
Y531549D01*
X1497883Y534088D01*
X1502961D01*
X1505500Y531549D01*
Y526470D01*
X1502961Y523931D01*
X1531250Y586500D02*
X1516015D01*
Y594118D01*
X1518554Y596657D01*
X1523633D01*
X1526172Y594118D01*
Y586500D01*
Y591578D02*
X1531250Y596657D01*
Y601735D02*
Y606813D01*
Y604274D01*
X1516015D01*
X1518554Y601735D01*
X1516015Y624588D02*
X1518554Y619509D01*
X1523633Y614431D01*
X1528711D01*
X1531250Y616970D01*
Y622048D01*
X1528711Y624588D01*
X1526172D01*
X1523633Y622048D01*
Y614431D01*
X588518Y963729D02*
X598675Y948494D01*
Y963729D02*
X588518Y948494D01*
X613910Y963729D02*
X608831Y961190D01*
X603753Y956112D01*
Y951033D01*
X606292Y948494D01*
X611371D01*
X613910Y951033D01*
Y953572D01*
X611371Y956112D01*
X603753D01*
X1250250Y1008015D02*
X1240093Y1023250D01*
Y1008015D02*
X1250250Y1023250D01*
X1235015Y1008015D02*
X1224858D01*
Y1010554D01*
X1235015Y1020711D01*
Y1023250D01*
X1335000Y699515D02*
X1324843Y714750D01*
Y699515D02*
X1335000Y714750D01*
X1319765Y702054D02*
X1317226Y699515D01*
X1312147D01*
X1309608Y702054D01*
Y704593D01*
X1312147Y707132D01*
X1309608Y709672D01*
Y712211D01*
X1312147Y714750D01*
X1317226D01*
X1319765Y712211D01*
Y709672D01*
X1317226Y707132D01*
X1319765Y704593D01*
Y702054D01*
X1317226Y707132D02*
X1312147D01*
X691250Y833248D02*
Y826584D01*
X694582Y823252D01*
X697915Y826584D01*
Y833248D01*
X707911Y831582D02*
X706245Y833248D01*
X702913D01*
X701247Y831582D01*
Y824918D01*
X702913Y823252D01*
X706245D01*
X707911Y824918D01*
X717908Y831582D02*
X716242Y833248D01*
X712910D01*
X711244Y831582D01*
Y824918D01*
X712910Y823252D01*
X716242D01*
X717908Y824918D01*
X721240Y831582D02*
X722906Y833248D01*
X726239D01*
X727905Y831582D01*
Y829916D01*
X726239Y828250D01*
X724573D01*
X726239D01*
X727905Y826584D01*
Y824918D01*
X726239Y823252D01*
X722906D01*
X721240Y824918D01*
X731237Y828250D02*
X737902D01*
X691250Y875248D02*
Y868584D01*
X694582Y865252D01*
X697915Y868584D01*
Y875248D01*
X707911Y873582D02*
X706245Y875248D01*
X702913D01*
X701247Y873582D01*
Y866918D01*
X702913Y865252D01*
X706245D01*
X707911Y866918D01*
X717908Y873582D02*
X716242Y875248D01*
X712910D01*
X711244Y873582D01*
Y866918D01*
X712910Y865252D01*
X716242D01*
X717908Y866918D01*
X727905Y865252D02*
X721240D01*
X727905Y871916D01*
Y873582D01*
X726239Y875248D01*
X722906D01*
X721240Y873582D01*
X691250Y917248D02*
Y910584D01*
X694582Y907252D01*
X697915Y910584D01*
Y917248D01*
X707911Y915582D02*
X706245Y917248D01*
X702913D01*
X701247Y915582D01*
Y908918D01*
X702913Y907252D01*
X706245D01*
X707911Y908918D01*
X717908Y915582D02*
X716242Y917248D01*
X712910D01*
X711244Y915582D01*
Y908918D01*
X712910Y907252D01*
X716242D01*
X717908Y908918D01*
X721240Y907252D02*
X724573D01*
X722906D01*
Y917248D01*
X721240Y915582D01*
D19*
X1156000Y443250D02*
X1176000D01*
Y480750D01*
X1156000D02*
X1176000D01*
X1156000Y443250D02*
Y480750D01*
X1134000Y443250D02*
X1154000D01*
Y480750D01*
X1134000D02*
X1154000D01*
X1134000Y443250D02*
Y480750D01*
X1086250Y418000D02*
Y438000D01*
Y418000D02*
X1123750D01*
Y438000D01*
X1086250D02*
X1123750D01*
X1057000Y452250D02*
X1077000D01*
Y489750D01*
X1057000D02*
X1077000D01*
X1057000Y452250D02*
Y489750D01*
X719500Y607250D02*
X739500D01*
Y644750D01*
X719500D02*
X739500D01*
X719500Y607250D02*
Y644750D01*
X1509000Y542250D02*
Y579750D01*
X1489000Y542250D02*
X1509000D01*
X1489000D02*
Y579750D01*
X1509000D01*
X1534000Y542250D02*
Y579750D01*
X1514000Y542250D02*
X1534000D01*
X1514000D02*
Y579750D01*
X1534000D01*
X1292500Y530000D02*
Y550000D01*
X1255000D02*
X1292500D01*
X1255000Y530000D02*
Y550000D01*
Y530000D02*
X1292500D01*
X1080000Y452484D02*
X1100000D01*
Y489984D01*
X1080000D02*
X1100000D01*
X1080000Y452484D02*
Y489984D01*
X943910Y466000D02*
Y486000D01*
X906410D02*
X943910D01*
X906410Y466000D02*
Y486000D01*
Y466000D02*
X943910D01*
X991750Y645320D02*
Y665320D01*
X954250D02*
X991750D01*
X954250Y645320D02*
Y665320D01*
Y645320D02*
X991750D01*
X915750Y747000D02*
Y767000D01*
X878250D02*
X915750D01*
X878250Y747000D02*
Y767000D01*
Y747000D02*
X915750D01*
Y711360D02*
Y731360D01*
X878250D02*
X915750D01*
X878250Y711360D02*
Y731360D01*
Y711360D02*
X915750D01*
X762250Y687000D02*
Y707000D01*
Y687000D02*
X799750D01*
Y707000D01*
X762250D02*
X799750D01*
X762250Y713000D02*
Y733000D01*
Y713000D02*
X799750D01*
Y733000D01*
X762250D02*
X799750D01*
X787940Y660860D02*
X918940D01*
X787940Y529860D02*
X918940D01*
Y660860D01*
X787940Y529860D02*
Y660860D01*
X650250Y513240D02*
Y533240D01*
Y513240D02*
X687750D01*
Y533240D01*
X650250D02*
X687750D01*
X1062840Y734750D02*
X1082840D01*
X1062840Y697250D02*
Y734750D01*
Y697250D02*
X1082840D01*
Y734750D01*
X1340000Y584750D02*
X1360000D01*
X1340000Y547250D02*
Y584750D01*
Y547250D02*
X1360000D01*
Y584750D01*
X819750Y868000D02*
X895750D01*
X819750Y822000D02*
X895750D01*
X1149000D02*
X1225000D01*
X1149000Y868000D02*
X1225000D01*
X911000Y891000D02*
X987000D01*
X911000Y937000D02*
X987000D01*
X1026000D02*
X1102000D01*
X1026000Y891000D02*
X1102000D01*
X801610Y387180D02*
X928610D01*
X801610Y336380D02*
X928610D01*
Y387180D01*
X801610Y336380D02*
Y387180D01*
X1187340Y336520D02*
Y387320D01*
X1060340Y336520D02*
Y387320D01*
X1187340D01*
X1060340Y336520D02*
X1187340D01*
X650250Y640240D02*
Y660240D01*
Y640240D02*
X687750D01*
Y660240D01*
X650250D02*
X687750D01*
X540250Y484500D02*
X577750D01*
Y464500D02*
Y484500D01*
X540250Y464500D02*
X577750D01*
X540250D02*
Y484500D01*
Y456880D02*
X577750D01*
Y436880D02*
Y456880D01*
X540250Y436880D02*
X577750D01*
X540250D02*
Y456880D01*
X1067340Y529500D02*
X1198340D01*
X1067340Y660500D02*
X1198340D01*
X1067340Y529500D02*
Y660500D01*
X1198340Y529500D02*
Y660500D01*
X1363500Y728500D02*
Y867500D01*
X1267500Y728500D02*
X1363500D01*
X1267500D02*
Y867500D01*
X1363500D01*
X1267500Y1010000D02*
X1363500D01*
X1267500Y871000D02*
Y1010000D01*
Y871000D02*
X1363500D01*
Y1010000D01*
X587000Y800750D02*
Y939750D01*
X683000D01*
Y800750D02*
Y939750D01*
X587000Y800750D02*
X683000D01*
D20*
X911940Y650860D02*
G03*
X911940Y650860I-3000J0D01*
G01*
X1080340Y539500D02*
G03*
X1080340Y539500I-3000J0D01*
G01*
D31*
X921690Y671860D02*
G03*
X921690Y671860I-1250J0D01*
G01*
X1067090Y518500D02*
G03*
X1067090Y518500I-1250J0D01*
G01*
X911090Y845000D02*
X906092D01*
X908591Y842501D02*
Y847499D01*
X1133660Y845000D02*
X1138658D01*
X1136159Y847499D02*
Y842501D01*
X895660Y914000D02*
X900658D01*
X898159Y916499D02*
Y911501D01*
X1117340Y914000D02*
X1112342D01*
X1114841Y911501D02*
Y916499D01*
D32*
X1538000Y523000D02*
X1558000D01*
X1513000Y498000D02*
X1538000Y523000D01*
X1513000Y418000D02*
Y498000D01*
Y418000D02*
X1538000Y393000D01*
X1558000D01*
X1294500Y454750D02*
X1327500D01*
X1373500D02*
X1412500D01*
X1294500D02*
Y508750D01*
X1412500D01*
Y483750D02*
Y508750D01*
Y454750D02*
Y483750D01*
X1327500Y454750D02*
X1373500D01*
X429000Y393000D02*
X449000D01*
X474000Y418000D01*
Y498000D01*
X449000Y523000D02*
X474000Y498000D01*
X429000Y523000D02*
X449000D01*
X734750Y674250D02*
Y707250D01*
Y753250D02*
Y792250D01*
X680750Y674250D02*
X734750D01*
X680750D02*
Y792250D01*
X705750D01*
X734750D01*
Y707250D02*
Y753250D01*
D33*
X1096690Y1078550D02*
X1161690D01*
X1096690Y1138550D02*
X1161690D01*
Y1078550D02*
Y1138550D01*
X825290Y1078550D02*
Y1138550D01*
X890290D01*
X825290Y1078550D02*
X890290D01*
X494520Y345460D02*
X554520D01*
X494520Y1060460D02*
X554520D01*
Y345460D02*
Y415460D01*
X494520Y345460D02*
Y415460D01*
X554520Y665460D02*
Y1060460D01*
X494520Y665460D02*
Y1060460D01*
X1444520Y665460D02*
Y1060460D01*
X1504520Y665460D02*
Y1060460D01*
X1444520Y345460D02*
Y415460D01*
X1504520Y345460D02*
Y415460D01*
X1444520Y1060460D02*
X1504520D01*
X1444520Y345460D02*
X1504520D01*
M02*
