G04 Layer_Physical_Order=1*
G04 Layer_Color=255*
%FSLAX44Y44*%
%MOMM*%
G71*
G01*
G75*
%ADD10R,1.3000X1.3000*%
%ADD11R,1.9000X1.9000*%
%ADD12R,1.3500X0.4000*%
%ADD13O,1.4000X0.3000*%
%ADD14O,0.3000X1.4000*%
%ADD15R,3.0000X4.0000*%
%ADD16R,1.3000X1.3000*%
%ADD17P,1.8385X4X90.0*%
%ADD18C,0.2000*%
%ADD19C,0.8000*%
%ADD20C,0.2032*%
%ADD21C,0.6000*%
%ADD22C,0.2540*%
%ADD23C,5.0000*%
%ADD24C,1.1000*%
%ADD25C,2.5000*%
%ADD26C,1.0000*%
%ADD27C,1.5000*%
%ADD28R,1.5000X1.5000*%
%ADD29C,1.2700*%
%ADD30C,0.7000*%
D10*
X523500Y472250D02*
D03*
X505000D02*
D03*
X523500Y448500D02*
D03*
X505000D02*
D03*
X659750Y650240D02*
D03*
X678250D02*
D03*
X659750Y523240D02*
D03*
X678250D02*
D03*
X771750Y723000D02*
D03*
X790250D02*
D03*
X771750Y697000D02*
D03*
X790250D02*
D03*
X906250Y721360D02*
D03*
X887750D02*
D03*
X906250Y757000D02*
D03*
X887750D02*
D03*
X982250Y655320D02*
D03*
X963750D02*
D03*
X934410Y476000D02*
D03*
X915910D02*
D03*
X1283000Y540000D02*
D03*
X1264500D02*
D03*
X1080750Y429250D02*
D03*
X1099250D02*
D03*
X694000Y454500D02*
D03*
X675500D02*
D03*
X646000D02*
D03*
X627500D02*
D03*
X1300000Y656500D02*
D03*
X1318500D02*
D03*
X1352190D02*
D03*
X1370690D02*
D03*
D11*
X432250Y497500D02*
D03*
Y418500D02*
D03*
Y470000D02*
D03*
Y446000D02*
D03*
X1554750Y418500D02*
D03*
Y497500D02*
D03*
Y446000D02*
D03*
Y470000D02*
D03*
D12*
X459000Y471000D02*
D03*
Y464500D02*
D03*
Y445000D02*
D03*
Y451500D02*
D03*
Y458000D02*
D03*
X1528000Y445000D02*
D03*
Y451500D02*
D03*
Y471000D02*
D03*
Y464500D02*
D03*
Y458000D02*
D03*
D13*
X1056340Y535000D02*
D03*
Y540000D02*
D03*
Y545000D02*
D03*
Y550000D02*
D03*
Y555000D02*
D03*
Y560000D02*
D03*
Y565000D02*
D03*
Y570000D02*
D03*
Y575000D02*
D03*
Y580000D02*
D03*
Y585000D02*
D03*
Y590000D02*
D03*
Y595000D02*
D03*
Y600000D02*
D03*
Y605000D02*
D03*
Y610000D02*
D03*
Y615000D02*
D03*
Y620000D02*
D03*
Y625000D02*
D03*
Y630000D02*
D03*
Y635000D02*
D03*
Y640000D02*
D03*
Y645000D02*
D03*
Y650000D02*
D03*
Y655000D02*
D03*
X1209340D02*
D03*
Y650000D02*
D03*
Y645000D02*
D03*
Y640000D02*
D03*
Y635000D02*
D03*
Y630000D02*
D03*
Y625000D02*
D03*
Y620000D02*
D03*
Y615000D02*
D03*
Y610000D02*
D03*
Y605000D02*
D03*
Y600000D02*
D03*
Y595000D02*
D03*
Y590000D02*
D03*
Y585000D02*
D03*
Y580000D02*
D03*
Y575000D02*
D03*
Y570000D02*
D03*
Y565000D02*
D03*
Y560000D02*
D03*
Y555000D02*
D03*
Y550000D02*
D03*
Y545000D02*
D03*
Y540000D02*
D03*
Y535000D02*
D03*
X929940Y655360D02*
D03*
Y650360D02*
D03*
Y645360D02*
D03*
Y640360D02*
D03*
Y635360D02*
D03*
Y630360D02*
D03*
Y625360D02*
D03*
Y620360D02*
D03*
Y615360D02*
D03*
Y610360D02*
D03*
Y605360D02*
D03*
Y600360D02*
D03*
Y595360D02*
D03*
Y590360D02*
D03*
Y585360D02*
D03*
Y580360D02*
D03*
Y575360D02*
D03*
Y570360D02*
D03*
Y565360D02*
D03*
Y560360D02*
D03*
Y555360D02*
D03*
Y550360D02*
D03*
Y545360D02*
D03*
Y540360D02*
D03*
Y535360D02*
D03*
X776940D02*
D03*
Y540360D02*
D03*
Y545360D02*
D03*
Y550360D02*
D03*
Y555360D02*
D03*
Y560360D02*
D03*
Y565360D02*
D03*
Y570360D02*
D03*
Y575360D02*
D03*
Y580360D02*
D03*
Y585360D02*
D03*
Y590360D02*
D03*
Y595360D02*
D03*
Y600360D02*
D03*
Y605360D02*
D03*
Y610360D02*
D03*
Y615360D02*
D03*
Y620360D02*
D03*
Y625360D02*
D03*
Y630360D02*
D03*
Y635360D02*
D03*
Y640360D02*
D03*
Y645360D02*
D03*
Y650360D02*
D03*
Y655360D02*
D03*
D14*
X1072840Y671500D02*
D03*
X1077840D02*
D03*
X1082840D02*
D03*
X1087840D02*
D03*
X1092840D02*
D03*
X1097840D02*
D03*
X1102840D02*
D03*
X1107840D02*
D03*
X1112840D02*
D03*
X1117840D02*
D03*
X1122840D02*
D03*
X1127840D02*
D03*
X1132840D02*
D03*
X1137840D02*
D03*
X1142840D02*
D03*
X1147840D02*
D03*
X1152840D02*
D03*
X1157840D02*
D03*
X1162840D02*
D03*
X1167840D02*
D03*
X1172840D02*
D03*
X1177840D02*
D03*
X1182840D02*
D03*
X1187840D02*
D03*
X1192840D02*
D03*
Y518500D02*
D03*
X1187840D02*
D03*
X1182840D02*
D03*
X1177840D02*
D03*
X1172840D02*
D03*
X1167840D02*
D03*
X1162840D02*
D03*
X1157840D02*
D03*
X1152840D02*
D03*
X1147840D02*
D03*
X1142840D02*
D03*
X1137840D02*
D03*
X1132840D02*
D03*
X1127840D02*
D03*
X1122840D02*
D03*
X1117840D02*
D03*
X1112840D02*
D03*
X1107840D02*
D03*
X1102840D02*
D03*
X1097840D02*
D03*
X1092840D02*
D03*
X1087840D02*
D03*
X1082840D02*
D03*
X1077840D02*
D03*
X1072840D02*
D03*
X913440Y518860D02*
D03*
X908440D02*
D03*
X903440D02*
D03*
X898440D02*
D03*
X893440D02*
D03*
X888440D02*
D03*
X883440D02*
D03*
X878440D02*
D03*
X873440D02*
D03*
X868440D02*
D03*
X863440D02*
D03*
X858440D02*
D03*
X853440D02*
D03*
X848440D02*
D03*
X843440D02*
D03*
X838440D02*
D03*
X833440D02*
D03*
X828440D02*
D03*
X823440D02*
D03*
X818440D02*
D03*
X813440D02*
D03*
X808440D02*
D03*
X803440D02*
D03*
X798440D02*
D03*
X793440D02*
D03*
Y671860D02*
D03*
X798440D02*
D03*
X803440D02*
D03*
X808440D02*
D03*
X813440D02*
D03*
X818440D02*
D03*
X823440D02*
D03*
X828440D02*
D03*
X833440D02*
D03*
X838440D02*
D03*
X843440D02*
D03*
X848440D02*
D03*
X853440D02*
D03*
X858440D02*
D03*
X863440D02*
D03*
X868440D02*
D03*
X873440D02*
D03*
X878440D02*
D03*
X883440D02*
D03*
X888440D02*
D03*
X893440D02*
D03*
X898440D02*
D03*
X903440D02*
D03*
X908440D02*
D03*
X913440D02*
D03*
D15*
X1094000Y914000D02*
D03*
X1034000D02*
D03*
X919000D02*
D03*
X979000D02*
D03*
X1157000Y845000D02*
D03*
X1217000D02*
D03*
X887750D02*
D03*
X827750D02*
D03*
D16*
X1345000Y575500D02*
D03*
Y557000D02*
D03*
X1072840Y725250D02*
D03*
Y706750D02*
D03*
X1077750Y462234D02*
D03*
Y480734D02*
D03*
X729500Y616750D02*
D03*
Y635250D02*
D03*
X1054750Y462000D02*
D03*
Y480500D02*
D03*
X1122680Y429000D02*
D03*
Y447500D02*
D03*
X1146250Y429250D02*
D03*
Y447750D02*
D03*
X1328500Y411000D02*
D03*
Y429500D02*
D03*
X1375500Y411000D02*
D03*
Y429500D02*
D03*
D17*
X1496291Y619959D02*
D03*
X1483209Y633041D02*
D03*
X1514291Y637959D02*
D03*
X1501209Y651041D02*
D03*
D18*
X1130441Y477750D02*
X1132500D01*
X1157840Y503090D02*
Y518500D01*
X1132500Y477750D02*
X1157840Y503090D01*
X1099250Y444205D02*
X1131618Y476573D01*
X1099250Y429250D02*
Y444205D01*
X1058830Y1138110D02*
X1071880Y1125060D01*
X1028830Y1138110D02*
X1058830D01*
X948830Y1061330D02*
Y1078110D01*
X1519250Y458000D02*
X1528000D01*
X1502750Y474500D02*
X1519250Y458000D01*
X1502750Y474500D02*
Y549000D01*
X1516350Y451500D02*
X1528000D01*
X1485250Y476750D02*
X1517000Y445000D01*
X1528000D01*
X1345000Y575250D02*
X1350000D01*
X1344750Y575000D02*
X1345000Y575250D01*
X1209340Y575000D02*
X1344750D01*
X1345000Y557000D02*
X1346250D01*
X1348250Y555000D01*
X1144000Y471806D02*
Y480028D01*
X1165500Y472750D02*
Y496660D01*
X1146250Y453500D02*
X1165500Y472750D01*
X1146250Y447750D02*
Y453500D01*
X1144000Y480028D02*
X1167840Y503868D01*
X1080750Y429250D02*
Y440910D01*
X1097500Y466250D02*
Y467360D01*
X480500Y448500D02*
X505000D01*
X471000Y458000D02*
X480500Y448500D01*
X459000Y458000D02*
X471000D01*
X495000Y472250D02*
X505000D01*
X487250Y464500D02*
X495000Y472250D01*
X459000Y464500D02*
X487250D01*
X479000Y471000D02*
X489500Y481500D01*
X459000Y471000D02*
X479000D01*
X604750Y644750D02*
Y770500D01*
X662500Y828250D01*
X690000Y813750D02*
Y842750D01*
X662500Y870250D02*
X690000Y842750D01*
X677500Y801250D02*
X690000Y813750D01*
X655250Y801250D02*
X677500D01*
X610250Y756250D02*
X655250Y801250D01*
X610250Y659680D02*
Y756250D01*
Y659680D02*
X634680Y635250D01*
X1149750Y1009000D02*
X1261000D01*
X1287500Y982500D01*
X903000Y1015500D02*
X948830Y1061330D01*
X604750Y644750D02*
X630500Y619000D01*
X634680Y635250D02*
X693000D01*
X630500Y619000D02*
X698660D01*
X714910Y635250D01*
X729500D01*
X680250Y650240D02*
X776820D01*
X729500Y635250D02*
X729610Y635360D01*
X776940D01*
X729500Y616750D02*
X730890Y615360D01*
X776940D01*
X1122250Y981500D02*
X1149750Y1009000D01*
X1071880Y981500D02*
X1122250D01*
X891000Y656000D02*
X914080D01*
X863000Y628000D02*
X891000Y656000D01*
X809000Y628000D02*
X863000D01*
X1204500Y523500D02*
X1333750D01*
X1375500Y481750D01*
X1296750Y513500D02*
X1328500Y481750D01*
X1209550Y513500D02*
X1296750D01*
X776830Y560250D02*
X776940Y560360D01*
X1141480Y538480D02*
X1184570D01*
X1137000Y543000D02*
X1185000D01*
X1167840Y503868D02*
Y518500D01*
X895000Y631000D02*
X914360Y650360D01*
X929940D01*
X1056340Y540000D02*
X1071000D01*
X1172840Y504000D02*
Y518500D01*
X1054750Y480500D02*
X1055090Y480840D01*
X1127840Y518500D02*
Y533840D01*
X1132840Y518500D02*
Y529840D01*
X1072840Y671500D02*
Y706750D01*
X963710Y655360D02*
X963750Y655320D01*
X929940Y655360D02*
X963710D01*
X863440Y697050D02*
X887750Y721360D01*
X863440Y671860D02*
Y697050D01*
X776820Y650240D02*
X776940Y650360D01*
X1074160Y892410D02*
Y935590D01*
X938840Y892410D02*
Y935590D01*
X1176840Y823410D02*
Y866590D01*
X867910Y823410D02*
Y866590D01*
X707750Y755250D02*
X842750D01*
X858440Y739560D01*
Y671860D02*
Y739560D01*
X853440Y671860D02*
Y720560D01*
X707750Y708250D02*
X747500Y748000D01*
X826000D01*
X853440Y720560D01*
X898440Y387560D02*
Y518860D01*
Y387560D02*
X903000Y383000D01*
Y361990D02*
Y383000D01*
X929940Y605360D02*
X945640D01*
X970280Y580720D01*
Y344821D02*
Y580720D01*
X890510Y339490D02*
X898000Y332000D01*
X931000D01*
X913440Y478470D02*
X915910Y476000D01*
X913440Y478470D02*
Y518860D01*
X929940Y535360D02*
X940640D01*
X929940Y540360D02*
X943680D01*
X850390Y313000D02*
X938459D01*
X970280Y344821D01*
X865110Y337650D02*
X881760Y321000D01*
X814310Y349080D02*
X850390Y313000D01*
X865110Y337650D02*
Y349080D01*
X890510Y339490D02*
Y349080D01*
X881760Y321000D02*
X938480D01*
X892380Y326000D02*
X935230D01*
X852630Y362000D02*
X870664D01*
X878000Y354664D01*
Y340380D02*
X892380Y326000D01*
X878000Y340380D02*
Y354664D01*
X903000Y361990D02*
X915910Y349080D01*
X839710D02*
X852630Y362000D01*
X678250Y523240D02*
X696240D01*
X708360Y535360D01*
X776940D01*
X790250Y723000D02*
X805280D01*
X818440Y709840D01*
Y671860D02*
Y709840D01*
X790250Y697000D02*
X807720D01*
X813440Y691280D01*
Y671860D02*
Y691280D01*
X1043000Y650000D02*
X1056340D01*
X1087840Y664840D02*
Y671500D01*
X1041000Y590000D02*
X1056340D01*
X1162000Y369000D02*
Y386000D01*
X1153680Y360680D02*
X1162000Y369000D01*
X1137780Y360680D02*
X1153680D01*
X1123840Y374620D02*
X1137780Y360680D01*
X1045320Y585000D02*
X1056340D01*
X1174640Y374620D02*
Y396360D01*
X929940Y600360D02*
X941640D01*
X1209340Y655000D02*
X1258750D01*
X1192840Y671500D02*
Y682840D01*
X1195800Y685800D01*
X1187840Y671500D02*
Y684040D01*
X1194800Y691000D01*
X914080Y656000D02*
X938800Y680720D01*
X942000D01*
X776940Y635360D02*
X801640D01*
X843440Y635440D02*
Y671860D01*
X801640Y635360D02*
X809000Y628000D01*
X827630Y635250D02*
X828750D01*
X828440Y636060D02*
Y671860D01*
X1142840Y503000D02*
Y518500D01*
X1148000Y400000D02*
X1162000Y386000D01*
X1163000Y408000D02*
X1174640Y396360D01*
X1071000Y540000D02*
X1082040Y551040D01*
X1132840Y529840D02*
X1141480Y538480D01*
X1127840Y533840D02*
X1137000Y543000D01*
X1179800Y555000D02*
X1209340D01*
X1163320Y571480D02*
X1179800Y555000D01*
X1163320Y571480D02*
Y603000D01*
X1071880Y981500D02*
Y1125060D01*
X1130344Y393516D02*
X1149240Y374620D01*
X1026028Y662000D02*
X1085000D01*
X1087840Y664840D01*
X1041000Y655000D02*
X1056340D01*
X1122840Y505840D02*
Y518500D01*
X1080750Y440910D02*
X1142840Y503000D01*
X798440Y509610D02*
Y518860D01*
X793440Y512050D02*
Y518860D01*
X1165500Y496660D02*
X1172840Y504000D01*
X1185000Y543000D02*
X1204500Y523500D01*
X1184570Y538480D02*
X1209550Y513500D01*
X1209340Y540000D02*
X1229750D01*
X827630Y635250D02*
X828440Y636060D01*
X1209340Y555000D02*
X1297500D01*
X1299250Y556750D01*
X848440Y671860D02*
Y714560D01*
X821500Y741500D02*
X848440Y714560D01*
X759750Y741500D02*
X821500D01*
X704750Y686500D02*
X759750Y741500D01*
X670750Y686500D02*
X704750D01*
X911610Y625360D02*
X929940D01*
X842750Y556500D02*
X911610Y625360D01*
X820000Y556500D02*
X842750D01*
X997750Y449910D02*
X1073040Y374620D01*
X997750Y449910D02*
Y633722D01*
X1026028Y662000D01*
X1005500Y619500D02*
X1041000Y655000D01*
X1011500Y618500D02*
X1043000Y650000D01*
X1016500Y565500D02*
X1041000Y590000D01*
X1023000Y562680D02*
X1045320Y585000D01*
X1077750Y480734D02*
X1097734D01*
X1122840Y505840D01*
X1046250Y480500D02*
X1054750D01*
X1040000Y486750D02*
X1046250Y480500D01*
X1040000Y486750D02*
Y532000D01*
X1043000Y535000D01*
X1056340D01*
X1137840Y506590D02*
Y518500D01*
X1328500Y429500D02*
Y481750D01*
X1375500Y429500D02*
Y481750D01*
X1056340Y565000D02*
X1134000D01*
X1251250D02*
X1312750D01*
X1334500Y543250D01*
X1356750D01*
X1370250Y529750D01*
X790390Y509000D02*
X793440Y512050D01*
X646000Y454500D02*
X675500D01*
X825750Y443349D02*
Y482300D01*
X798440Y509610D02*
X825750Y482300D01*
X693652Y489798D02*
X758450Y425000D01*
X807401D01*
X825750Y443349D01*
X1318500Y656500D02*
X1352190D01*
X1209340Y645000D02*
X1288500D01*
X1300000Y656500D01*
X693604Y489750D02*
X693652Y489798D01*
X522250Y489750D02*
X693604D01*
X522250Y619798D02*
X568452D01*
X582890Y605360D01*
X776940D01*
X522250Y609798D02*
X567972D01*
X577410Y600360D01*
X776940D01*
X522250Y599798D02*
X566702D01*
X571140Y595360D02*
X776940D01*
X566702Y599798D02*
X571140Y595360D01*
X522250Y589798D02*
X522812Y590360D01*
X776940D01*
X522250Y569798D02*
X561798D01*
X522250Y559798D02*
X565798D01*
X489500Y481500D02*
Y506000D01*
X513500Y530000D01*
X565798Y559798D02*
X581360Y575360D01*
X776940D01*
X561798Y569798D02*
X572360Y580360D01*
X776940D01*
X522250Y579798D02*
X559798D01*
X565360Y585360D01*
X776940D01*
X522250Y549798D02*
X570798D01*
X591360Y570360D01*
X776940D01*
X522250Y539798D02*
X577048D01*
X602610Y565360D01*
X776940D01*
X513500Y530000D02*
X581250D01*
X611500Y560250D01*
X776830D01*
X522250Y519798D02*
X585798D01*
X621360Y555360D01*
X776940D01*
X522250Y509798D02*
X589798D01*
X630360Y550360D01*
X776940D01*
X522250Y499798D02*
X594298D01*
X603500Y509000D01*
X790390D01*
X1392814Y691000D02*
X1473200Y610614D01*
X1194800Y691000D02*
X1392814D01*
X1388014Y685800D02*
X1473200Y600614D01*
X1195800Y685800D02*
X1388014D01*
X1209340Y640000D02*
X1423814D01*
X1473200Y590614D01*
X1209340Y635000D02*
X1418814D01*
X1473200Y580614D01*
X1209340Y625000D02*
X1408814D01*
X1473200Y560614D01*
X1209340Y630000D02*
X1414250D01*
X1485250Y559000D01*
Y476750D02*
Y559000D01*
X1209340Y620000D02*
X1403814D01*
X1473200Y550614D01*
X1209340Y615000D02*
X1398814D01*
X1473200Y540614D01*
X1209340Y610000D02*
X1393814D01*
X1473200Y530614D01*
X1209340Y605000D02*
X1388814D01*
X1473200Y520614D01*
X1209340Y600000D02*
X1383814D01*
X1473200Y510614D01*
X1209340Y595000D02*
X1378814D01*
X1473200Y500614D01*
X1209340Y590000D02*
X1373814D01*
X1473200Y490614D01*
X1209340Y585000D02*
X1368814D01*
X1473200Y480614D01*
X938480Y321000D02*
X964500Y347020D01*
Y577500D01*
X941640Y600360D02*
X964500Y577500D01*
X935230Y326000D02*
X958250Y349020D01*
Y525790D01*
X943680Y540360D02*
X958250Y525790D01*
X931000Y332000D02*
X952250Y353250D01*
Y523750D01*
X940640Y535360D02*
X952250Y523750D01*
X1152840Y518500D02*
Y531160D01*
X1152500Y531500D02*
X1152840Y531160D01*
X1023000Y463250D02*
Y562680D01*
Y463250D02*
X1078250Y408000D01*
X1163000D01*
X1005500Y465901D02*
X1096781Y374620D01*
X1011500Y464851D02*
X1082835Y393516D01*
X1016500Y464800D02*
X1081300Y400000D01*
X1016500Y464800D02*
Y565500D01*
X1081300Y400000D02*
X1148000D01*
X1011500Y464851D02*
Y618500D01*
X1082835Y393516D02*
X1130344D01*
X1005500Y465901D02*
Y619500D01*
X1096781Y374620D02*
X1098440D01*
X1097500Y466250D02*
X1137840Y506590D01*
X694000Y454500D02*
X720250D01*
X754000Y420750D01*
X811250D01*
X832500Y442000D01*
Y487500D01*
X813440Y506560D02*
X832500Y487500D01*
X813440Y506560D02*
Y518860D01*
X888440Y461690D02*
Y518860D01*
X834250Y407500D02*
X888440Y461690D01*
X645000Y407500D02*
X834250D01*
X580250Y472250D02*
X645000Y407500D01*
X523500Y472250D02*
X580250D01*
X893440Y460440D02*
Y518860D01*
X835000Y402000D02*
X893440Y460440D01*
X638250Y402000D02*
X835000D01*
X591750Y448500D02*
X638250Y402000D01*
X523500Y448500D02*
X591750D01*
X1097840Y671500D02*
Y679590D01*
X1100750Y682500D01*
X1122250D01*
X1134250Y694500D01*
X1092840Y671500D02*
Y679590D01*
X1092890D01*
X1099300Y686000D01*
X1120800D01*
X1132800Y698000D01*
X1429700D01*
X1421750Y694500D02*
X1483209Y633041D01*
X1134250Y694500D02*
X1421750D01*
X1496291Y471559D02*
Y619959D01*
Y471559D02*
X1516350Y451500D01*
X1429700Y698000D02*
X1469200Y658500D01*
X1493500D01*
X1501709Y650291D01*
X1514291Y560541D02*
Y637959D01*
X1502750Y549000D02*
X1514291Y560541D01*
D19*
X1139806Y471806D02*
X1144000D01*
X1122680Y454680D02*
X1139806Y471806D01*
X1122680Y447500D02*
Y454680D01*
X908830Y1046830D02*
Y1078110D01*
X1146000Y447500D02*
X1146250Y447750D01*
X1122680Y447500D02*
X1146000D01*
X1217250Y756000D02*
X1288000D01*
X1157000Y816250D02*
X1217250Y756000D01*
X1251000Y835000D02*
X1288000Y798000D01*
X1251000Y835000D02*
Y862000D01*
X1235000Y878000D02*
X1251000Y862000D01*
X1138000Y914000D02*
X1153750Y898250D01*
X1287500D01*
X1118670Y955250D02*
X1151670Y988250D01*
X930000Y955250D02*
X1118670D01*
X919000Y944250D02*
X930000Y955250D01*
X1094000Y914000D02*
X1138000D01*
X1136150Y878000D02*
X1235000D01*
X1103150Y845000D02*
X1136150Y878000D01*
X887750Y845000D02*
X1103150D01*
X1157000Y816250D02*
Y845000D01*
X1072840Y706750D02*
X1258750D01*
X887750Y709330D02*
X901080Y696000D01*
X887750Y709330D02*
Y721360D01*
Y757000D01*
X790250Y697000D02*
Y723000D01*
X887750Y757000D02*
Y845000D01*
Y1025750D01*
X908830Y1046830D01*
X901080Y696000D02*
X942800D01*
X963710Y675090D01*
Y655360D02*
Y675090D01*
X915910Y374480D02*
Y476000D01*
X1054750Y688660D02*
X1072840Y706750D01*
X1014750Y318120D02*
X1045850Y349220D01*
X1073040D01*
X1151670Y988250D02*
X1225000D01*
X1272750Y940500D01*
X1288000D01*
X1287500Y898250D02*
Y898500D01*
X919000Y914000D02*
Y944250D01*
D20*
X1510500Y478750D02*
X1518250Y471000D01*
X1510500Y478750D02*
Y505000D01*
X1525250Y519750D01*
Y531000D01*
X1518250Y471000D02*
X1528000D01*
X483500Y434500D02*
X580750D01*
X473000Y445000D02*
X483500Y434500D01*
X459000Y445000D02*
X473000D01*
X1117840Y539840D02*
X1124000Y546000D01*
X1117840Y518500D02*
Y539840D01*
X1077840Y671500D02*
Y682840D01*
X868440Y684320D02*
X875000Y690880D01*
X868440Y671860D02*
Y684320D01*
X790360Y540360D02*
X795000Y545000D01*
X776940Y540360D02*
X790360D01*
X898000Y541000D02*
X908440Y530560D01*
Y518860D02*
Y530560D01*
X1186000Y635000D02*
Y641000D01*
X1195000Y650000D01*
X1209340D01*
Y535000D02*
X1219000D01*
X1223000Y531000D01*
X761640Y655360D02*
X776940D01*
X752750Y664250D02*
X761640Y655360D01*
X752750Y664250D02*
Y709000D01*
X1098000Y690880D02*
Y693250D01*
X1088250D02*
X1098000D01*
X1077840Y682840D02*
X1088250Y693250D01*
D21*
X1229750Y540000D02*
X1264500D01*
D22*
X1529339Y714079D02*
X1526006Y710747D01*
Y704082D01*
X1529339Y700750D01*
X1532671D01*
X1536003Y704082D01*
Y710747D01*
X1539335Y714079D01*
X1542668D01*
X1546000Y710747D01*
Y704082D01*
X1542668Y700750D01*
X1526006Y720744D02*
Y734073D01*
Y727408D01*
X1546000D01*
Y740737D02*
X1526006D01*
X1532671Y747402D01*
X1526006Y754066D01*
X1546000D01*
X1529339Y760731D02*
X1526006Y764063D01*
Y770727D01*
X1529339Y774060D01*
X1532671D01*
X1536003Y770727D01*
Y767395D01*
Y770727D01*
X1539335Y774060D01*
X1542668D01*
X1546000Y770727D01*
Y764063D01*
X1542668Y760731D01*
X1546000Y794053D02*
Y780724D01*
X1532671Y794053D01*
X1529339D01*
X1526006Y790721D01*
Y784056D01*
X1529339Y780724D01*
X1526006Y800718D02*
X1546000D01*
X1536003D01*
Y814047D01*
X1526006D01*
X1546000D01*
X1526006Y820711D02*
Y834040D01*
X1529339D01*
X1542668Y820711D01*
X1546000D01*
Y850702D02*
X1526006D01*
X1536003Y840705D01*
Y854034D01*
X1529339Y860698D02*
X1526006Y864031D01*
Y870695D01*
X1529339Y874027D01*
X1532671D01*
X1536003Y870695D01*
Y867363D01*
Y870695D01*
X1539335Y874027D01*
X1542668D01*
X1546000Y870695D01*
Y864031D01*
X1542668Y860698D01*
X1526006Y880692D02*
X1539335D01*
X1546000Y887356D01*
X1539335Y894021D01*
X1526006D01*
Y900686D02*
Y907350D01*
Y904018D01*
X1546000D01*
Y900686D01*
Y907350D01*
X1526006Y917347D02*
Y930676D01*
Y924011D01*
X1546000D01*
X1526006Y950669D02*
X1529339Y944005D01*
X1536003Y937340D01*
X1542668D01*
X1546000Y940673D01*
Y947337D01*
X1542668Y950669D01*
X1539335D01*
X1536003Y947337D01*
Y937340D01*
D23*
X1474380Y705610D02*
D03*
Y379410D02*
D03*
Y1031810D02*
D03*
X525630Y704860D02*
D03*
Y378660D02*
D03*
Y1031060D02*
D03*
X857630Y1108110D02*
D03*
X1130030D02*
D03*
D24*
X1474380Y990610D02*
D03*
Y420610D02*
D03*
X525630Y989860D02*
D03*
Y419860D02*
D03*
X1088830Y1108110D02*
D03*
X898830D02*
D03*
D25*
X1288000Y798000D02*
D03*
Y756000D02*
D03*
Y840000D02*
D03*
X1343000D02*
D03*
Y756000D02*
D03*
Y798000D02*
D03*
X1288000Y940500D02*
D03*
Y898500D02*
D03*
Y982500D02*
D03*
X1343000D02*
D03*
Y898500D02*
D03*
Y940500D02*
D03*
X607500Y870250D02*
D03*
Y912250D02*
D03*
Y828250D02*
D03*
X662500D02*
D03*
Y912250D02*
D03*
Y870250D02*
D03*
D26*
X707750Y755250D02*
D03*
Y708250D02*
D03*
X1375500Y481750D02*
D03*
X1328500D02*
D03*
D27*
X1174640Y374620D02*
D03*
Y349220D02*
D03*
X1149240Y374620D02*
D03*
Y349220D02*
D03*
X1123840Y374620D02*
D03*
Y349220D02*
D03*
X1098440Y374620D02*
D03*
Y349220D02*
D03*
X1073040Y374620D02*
D03*
X915910Y349080D02*
D03*
X890510Y374480D02*
D03*
Y349080D02*
D03*
X865110Y374480D02*
D03*
Y349080D02*
D03*
X839710Y374480D02*
D03*
Y349080D02*
D03*
X814310Y374480D02*
D03*
Y349080D02*
D03*
D28*
X1073040Y349220D02*
D03*
X915910Y374480D02*
D03*
D29*
X1344850Y529750D02*
D03*
X1370250D02*
D03*
X1395650D02*
D03*
X678350Y499250D02*
D03*
X703750D02*
D03*
X729150D02*
D03*
D30*
X1131618Y476573D02*
D03*
X948830Y1078110D02*
D03*
X898830D02*
D03*
X908830D02*
D03*
X1088830D02*
D03*
X958830Y1138110D02*
D03*
X978830D02*
D03*
X999250Y1137920D02*
D03*
X1018830Y1138110D02*
D03*
X1028830D02*
D03*
X1058830D02*
D03*
X1525250Y531000D02*
D03*
X1473200Y500614D02*
D03*
Y510614D02*
D03*
Y490614D02*
D03*
Y480614D02*
D03*
Y580614D02*
D03*
X1345000Y557000D02*
D03*
X1473200Y520614D02*
D03*
Y530614D02*
D03*
Y540614D02*
D03*
Y550614D02*
D03*
Y560614D02*
D03*
Y590614D02*
D03*
Y600614D02*
D03*
Y610614D02*
D03*
X1144000Y471806D02*
D03*
X1097500Y467360D02*
D03*
X580750Y434500D02*
D03*
X522250Y499798D02*
D03*
Y509798D02*
D03*
Y519798D02*
D03*
Y539798D02*
D03*
Y549798D02*
D03*
Y559798D02*
D03*
Y569798D02*
D03*
Y579798D02*
D03*
Y589798D02*
D03*
Y599798D02*
D03*
Y609798D02*
D03*
Y619798D02*
D03*
X903000Y1015500D02*
D03*
X693000Y635250D02*
D03*
X1071880Y981500D02*
D03*
X895000Y631000D02*
D03*
X906250Y757000D02*
D03*
Y721360D02*
D03*
X982250Y655320D02*
D03*
X1054750Y462000D02*
D03*
X1124000Y546000D02*
D03*
X1072840Y725250D02*
D03*
X875000Y690880D02*
D03*
X795000Y545000D02*
D03*
X898000Y541000D02*
D03*
X827750Y845000D02*
D03*
X1217000D02*
D03*
X934410Y476000D02*
D03*
X659750Y523240D02*
D03*
Y650240D02*
D03*
X1094000Y914000D02*
D03*
X1157000Y845000D02*
D03*
X1258750Y706750D02*
D03*
X1054750Y480500D02*
D03*
X887750Y721360D02*
D03*
X678250Y650240D02*
D03*
Y523240D02*
D03*
X790250Y697000D02*
D03*
X918830Y915000D02*
D03*
X963710Y655360D02*
D03*
X915910Y476000D02*
D03*
X1258750Y655000D02*
D03*
X942000Y680720D02*
D03*
X843440Y635440D02*
D03*
X828750Y635250D02*
D03*
X1085030Y462000D02*
D03*
X1082040Y551040D02*
D03*
X1186000Y635000D02*
D03*
X1223000Y531000D02*
D03*
X1163320Y603000D02*
D03*
X1077750Y480734D02*
D03*
X1264500Y540000D02*
D03*
X1283000D02*
D03*
X1299250Y556750D02*
D03*
X670750Y686500D02*
D03*
X820000Y556500D02*
D03*
X1328500Y411000D02*
D03*
X1375500Y410250D02*
D03*
X1134000Y565000D02*
D03*
X1251250D02*
D03*
X1312750D02*
D03*
X1054750Y687910D02*
D03*
X627500Y454500D02*
D03*
X1370690Y656500D02*
D03*
X522250Y489750D02*
D03*
X1152500Y531500D02*
D03*
X1120250Y571750D02*
D03*
X1014750Y318120D02*
D03*
X752750Y709000D02*
D03*
X1098000Y693250D02*
D03*
M02*
