G04 Layer_Color=8421504*
%FSLAX44Y44*%
%MOMM*%
G71*
G01*
G75*
%ADD11R,1.3000X1.3000*%
%ADD12R,1.9000X1.9000*%
%ADD13R,1.3500X0.4000*%
%ADD14O,1.4000X0.3000*%
%ADD15O,0.3000X1.4000*%
%ADD16R,3.0000X4.0000*%
%ADD17R,1.3000X1.3000*%
D11*
X523500Y472250D02*
D03*
X505000D02*
D03*
X523500Y448500D02*
D03*
X505000D02*
D03*
X659750Y650240D02*
D03*
X678250D02*
D03*
X659750Y523240D02*
D03*
X678250D02*
D03*
X771750Y723000D02*
D03*
X790250D02*
D03*
X771750Y697000D02*
D03*
X790250D02*
D03*
X906250Y721360D02*
D03*
X887750D02*
D03*
X906250Y757000D02*
D03*
X887750D02*
D03*
X982250Y655320D02*
D03*
X963750D02*
D03*
X934410Y476000D02*
D03*
X915910D02*
D03*
X1283000Y540000D02*
D03*
X1264500D02*
D03*
X1080750Y429250D02*
D03*
X1099250D02*
D03*
D12*
X432250Y497500D02*
D03*
Y418500D02*
D03*
Y470000D02*
D03*
Y446000D02*
D03*
X1554750Y418500D02*
D03*
Y497500D02*
D03*
Y446000D02*
D03*
Y470000D02*
D03*
D13*
X459000Y471000D02*
D03*
Y464500D02*
D03*
Y445000D02*
D03*
Y451500D02*
D03*
Y458000D02*
D03*
X1528000Y445000D02*
D03*
Y451500D02*
D03*
Y471000D02*
D03*
Y464500D02*
D03*
Y458000D02*
D03*
D14*
X1056340Y535000D02*
D03*
Y540000D02*
D03*
Y545000D02*
D03*
Y550000D02*
D03*
Y555000D02*
D03*
Y560000D02*
D03*
Y565000D02*
D03*
Y570000D02*
D03*
Y575000D02*
D03*
Y580000D02*
D03*
Y585000D02*
D03*
Y590000D02*
D03*
Y595000D02*
D03*
Y600000D02*
D03*
Y605000D02*
D03*
Y610000D02*
D03*
Y615000D02*
D03*
Y620000D02*
D03*
Y625000D02*
D03*
Y630000D02*
D03*
Y635000D02*
D03*
Y640000D02*
D03*
Y645000D02*
D03*
Y650000D02*
D03*
Y655000D02*
D03*
X1209340D02*
D03*
Y650000D02*
D03*
Y645000D02*
D03*
Y640000D02*
D03*
Y635000D02*
D03*
Y630000D02*
D03*
Y625000D02*
D03*
Y620000D02*
D03*
Y615000D02*
D03*
Y610000D02*
D03*
Y605000D02*
D03*
Y600000D02*
D03*
Y595000D02*
D03*
Y590000D02*
D03*
Y585000D02*
D03*
Y580000D02*
D03*
Y575000D02*
D03*
Y570000D02*
D03*
Y565000D02*
D03*
Y560000D02*
D03*
Y555000D02*
D03*
Y550000D02*
D03*
Y545000D02*
D03*
Y540000D02*
D03*
Y535000D02*
D03*
X929940Y655360D02*
D03*
Y650360D02*
D03*
Y645360D02*
D03*
Y640360D02*
D03*
Y635360D02*
D03*
Y630360D02*
D03*
Y625360D02*
D03*
Y620360D02*
D03*
Y615360D02*
D03*
Y610360D02*
D03*
Y605360D02*
D03*
Y600360D02*
D03*
Y595360D02*
D03*
Y590360D02*
D03*
Y585360D02*
D03*
Y580360D02*
D03*
Y575360D02*
D03*
Y570360D02*
D03*
Y565360D02*
D03*
Y560360D02*
D03*
Y555360D02*
D03*
Y550360D02*
D03*
Y545360D02*
D03*
Y540360D02*
D03*
Y535360D02*
D03*
X776940D02*
D03*
Y540360D02*
D03*
Y545360D02*
D03*
Y550360D02*
D03*
Y555360D02*
D03*
Y560360D02*
D03*
Y565360D02*
D03*
Y570360D02*
D03*
Y575360D02*
D03*
Y580360D02*
D03*
Y585360D02*
D03*
Y590360D02*
D03*
Y595360D02*
D03*
Y600360D02*
D03*
Y605360D02*
D03*
Y610360D02*
D03*
Y615360D02*
D03*
Y620360D02*
D03*
Y625360D02*
D03*
Y630360D02*
D03*
Y635360D02*
D03*
Y640360D02*
D03*
Y645360D02*
D03*
Y650360D02*
D03*
Y655360D02*
D03*
D15*
X1072840Y671500D02*
D03*
X1077840D02*
D03*
X1082840D02*
D03*
X1087840D02*
D03*
X1092840D02*
D03*
X1097840D02*
D03*
X1102840D02*
D03*
X1107840D02*
D03*
X1112840D02*
D03*
X1117840D02*
D03*
X1122840D02*
D03*
X1127840D02*
D03*
X1132840D02*
D03*
X1137840D02*
D03*
X1142840D02*
D03*
X1147840D02*
D03*
X1152840D02*
D03*
X1157840D02*
D03*
X1162840D02*
D03*
X1167840D02*
D03*
X1172840D02*
D03*
X1177840D02*
D03*
X1182840D02*
D03*
X1187840D02*
D03*
X1192840D02*
D03*
Y518500D02*
D03*
X1187840D02*
D03*
X1182840D02*
D03*
X1177840D02*
D03*
X1172840D02*
D03*
X1167840D02*
D03*
X1162840D02*
D03*
X1157840D02*
D03*
X1152840D02*
D03*
X1147840D02*
D03*
X1142840D02*
D03*
X1137840D02*
D03*
X1132840D02*
D03*
X1127840D02*
D03*
X1122840D02*
D03*
X1117840D02*
D03*
X1112840D02*
D03*
X1107840D02*
D03*
X1102840D02*
D03*
X1097840D02*
D03*
X1092840D02*
D03*
X1087840D02*
D03*
X1082840D02*
D03*
X1077840D02*
D03*
X1072840D02*
D03*
X913440Y518860D02*
D03*
X908440D02*
D03*
X903440D02*
D03*
X898440D02*
D03*
X893440D02*
D03*
X888440D02*
D03*
X883440D02*
D03*
X878440D02*
D03*
X873440D02*
D03*
X868440D02*
D03*
X863440D02*
D03*
X858440D02*
D03*
X853440D02*
D03*
X848440D02*
D03*
X843440D02*
D03*
X838440D02*
D03*
X833440D02*
D03*
X828440D02*
D03*
X823440D02*
D03*
X818440D02*
D03*
X813440D02*
D03*
X808440D02*
D03*
X803440D02*
D03*
X798440D02*
D03*
X793440D02*
D03*
Y671860D02*
D03*
X798440D02*
D03*
X803440D02*
D03*
X808440D02*
D03*
X813440D02*
D03*
X818440D02*
D03*
X823440D02*
D03*
X828440D02*
D03*
X833440D02*
D03*
X838440D02*
D03*
X843440D02*
D03*
X848440D02*
D03*
X853440D02*
D03*
X858440D02*
D03*
X863440D02*
D03*
X868440D02*
D03*
X873440D02*
D03*
X878440D02*
D03*
X883440D02*
D03*
X888440D02*
D03*
X893440D02*
D03*
X898440D02*
D03*
X903440D02*
D03*
X908440D02*
D03*
X913440D02*
D03*
D16*
X1094000Y914000D02*
D03*
X1034000D02*
D03*
X919000D02*
D03*
X979000D02*
D03*
X1157000Y845000D02*
D03*
X1217000D02*
D03*
X887750D02*
D03*
X827750D02*
D03*
D17*
X1345000Y575500D02*
D03*
Y557000D02*
D03*
X1072840Y725250D02*
D03*
Y706750D02*
D03*
X1077750Y462234D02*
D03*
Y480734D02*
D03*
X729500Y616750D02*
D03*
Y635250D02*
D03*
X1054750Y462000D02*
D03*
Y480500D02*
D03*
X1122680Y429000D02*
D03*
Y447500D02*
D03*
X1146250Y429250D02*
D03*
Y447750D02*
D03*
X1328500Y411000D02*
D03*
Y429500D02*
D03*
X1375500Y411000D02*
D03*
Y429500D02*
D03*
X1497750Y606500D02*
D03*
Y625000D02*
D03*
X1528000Y606500D02*
D03*
Y625000D02*
D03*
M02*
